<?xml version="1.0" standalone="no"?>
<!DOCTYPE svg PUBLIC "-//W3C//DTD SVG 1.1//EN" "http://www.w3.org/Graphics/SVG/1.1/DTD/svg11.dtd" >
<svg xmlns="http://www.w3.org/2000/svg">
<metadata>
Created by FontPrep 20130207 at Sun Sep 18 01:19:38 2016
 By Daniel Givens
Copyright (c) 2007 Red Hat, Inc. All rights reserved. LIBERATION is a trademark of Red Hat, Inc.
</metadata>
<defs>
<font id="eafb1dec33462d156ec5a4fe50848078" horiz-adv-x='1024' >
  <font-face 
    font-family="LiberationMono-Bold"
    font-weight="700"
    font-stretch="normal"
    units-per-em="2048"
    panose-1="2 7 7 9 2 2 5 2 4 4"
    ascent="1638"
    descent="-410"
    x-height="1082"
    cap-height="1349"
    bbox="-55 -615 1259 1705.02"
    underline-thickness="205"
    underline-position="-375"
    unicode-range="U+0020-FB02"
  />
<missing-glyph 
d="M136 68h408v1229h-408v-1229zM68 0v1365h544v-1365h-544z" />
    <glyph glyph-name=".notdef" 
d="M136 68h408v1229h-408v-1229zM68 0v1365h544v-1365h-544z" />
    <glyph glyph-name=".null" horiz-adv-x="0" 
 />
    <glyph glyph-name="nonmarkingreturn" horiz-adv-x="682" 
 />
    <glyph glyph-name="uni00A0" unicode=" " 
 />
    <glyph glyph-name="uni00A0" unicode="&#xa0;" 
 />
    <glyph glyph-name="exclam" unicode="!" 
d="M468 0v270h288v-270h-288zM730 426h-230l-32 923h294z" />
    <glyph glyph-name="quotedbl" unicode="&#x22;" 
d="M486 844h-199l-37 641h273zM942 844h-199l-37 641h275z" />
    <glyph glyph-name="numbersign" unicode="#" 
d="M488 835l-70 -324h309l70 324h-309zM1119 511v-149h-270l-78 -362h-155l79 362h-309l-78 -362h-153l78 362h-174v149h206l70 324h-227v148h259l79 366h153l-78 -366h308l79 366h153l-78 -366h185v-148h-217l-69 -324h237z" />
    <glyph glyph-name="dollar" unicode="$" 
d="M892 389q0 88 -50 120t-171 66v-367q221 15 221 181zM379 1015q0 -78 42 -109t141 -63v332q-183 -14 -183 -160zM117 1011q0 338 445 356v134h109v-134q298 -11 364 -138.5t87 -211.5l-264 -39q-30 172 -187 193v-352q5 -2 10.5 -2t51.5 -11q180 -43 299.5 -128
t119.5 -285q0 -269 -177.5 -326.5t-303.5 -62.5v-175h-109v172q-327 11 -401 154t-92 234l256 47q17 -104 70 -160.5t167 -67.5v391q-10 7 -31 7q-193 45 -303.5 131.5t-110.5 273.5z" />
    <glyph glyph-name="percent" unicode="%" 
d="M832 329q0 -201 111 -201t111 201q0 110 -21 145t-41 45.5t-47 10.5q-56 0 -84.5 -45.5t-28.5 -155.5zM947 665q283 0 283 -336q0 -265 -113.5 -303t-208.5 -38t-173.5 79.5t-78.5 261.5q0 269 114.5 302.5t176.5 33.5zM176 1025q0 -201 111 -201t111 201q0 110 -21 145
t-41 45.5t-47 10.5q-56 0 -84.5 -45.5t-28.5 -155.5zM291 1361q283 0 283 -336q0 -265 -113.5 -303t-208.5 -38t-173.5 79.5t-78.5 261.5q0 269 114.5 302.5t176.5 33.5zM236 0h-175l932 1353h177z" />
    <glyph glyph-name="ampersand" unicode="&#x26;" 
d="M739 1080q0 46 -31.5 80.5t-99.5 34.5t-106.5 -41.5t-38.5 -119.5t52 -175q114 53 151 83.5t55 61t18 76.5zM409 599q-142 -83 -142 -228t78.5 -176.5t136.5 -31.5q99 0 189 76q-159 176 -262 360zM826 104q-164 -123 -373 -123t-319 105.5t-110 293.5t119.5 278.5
t182.5 120.5q-71 142 -71 312.5t131.5 218t217.5 47.5q163 0 256 -76t93 -208q0 -174 -148 -256.5t-217 -114.5q95 -166 214 -302q75 149 108 324l204 -27q-42 -237 -155 -435q85 -73 155 -73q71 0 107 17v-196q-38 -21 -95 -21q-160 0 -300 115z" />
    <glyph glyph-name="quotesingle" unicode="'" 
d="M714 844h-199l-37 641h273z" />
    <glyph glyph-name="parenleft" unicode="(" 
d="M344 532q0 281 70.5 504.5t226.5 447.5h281q-235 -340 -268 -579t-33 -375q0 -272 70.5 -496.5t230.5 -458.5h-281q-230 331 -263.5 573t-33.5 384z" />
    <glyph glyph-name="parenright" unicode=")" 
d="M608 530q0 272 -71 498t-230 456h281q230 -331 263.5 -570.5t33.5 -381.5q0 -282 -71 -507.5t-226 -449.5h-281q235 344 268 581.5t33 373.5z" />
    <glyph glyph-name="asterisk" unicode="*" 
d="M706 1209l235 104l68 -197l-250 -61l186 -213l-184 -121l-146 252l-149 -252l-186 123l190 211l-250 61l68 197l239 -104l-18 274h215z" />
    <glyph glyph-name="plus" unicode="+" 
d="M726 569v-408h-226v408h-399v224h399v408h226v-408h402v-224h-402z" />
    <glyph glyph-name="comma" unicode="," 
d="M258 -363l169 662h315l-311 -662h-173z" />
    <glyph glyph-name="uni00AD" unicode="-" 
d="M324 409v244h580v-244h-580z" />
    <glyph glyph-name="uni00AD" unicode="&#xad;" 
d="M324 409v244h580v-244h-580z" />
    <glyph glyph-name="period" unicode="." 
d="M470 0v305h289v-305h-289z" />
    <glyph glyph-name="slash" unicode="/" 
d="M89 -20l821 1504h228l-817 -1504h-232z" />
    <glyph glyph-name="zero" unicode="0" 
d="M506 555v249h215v-249h-215zM780 1046q-49 104 -166 104t-166.5 -103t-49.5 -372q0 -382 79 -428t135 -46t96.5 23.5t80.5 105.5t40 347t-49 369zM1111 680q0 -196 -38.5 -328.5t-106 -215t-158.5 -119.5t-258.5 -37t-300 166t-132.5 529q0 554 196.5 624.5t302.5 70.5
t196 -33t156.5 -113t104.5 -214t38 -330z" />
    <glyph glyph-name="one" unicode="1" 
d="M149 0v209h389v891q-39 -81 -155 -137.5t-245 -56.5v214q216 0 302.5 89.5t112.5 139.5h266v-1140h323v-209h-993z" />
    <glyph glyph-name="two" unicode="2" 
d="M123 0v195q90 198 223.5 314t233.5 197.5t161 148t61 137.5q0 72 -47 113t-137 41t-138 -48.5t-62 -145.5l-283 16q34 283 197 342.5t280 59.5q226 0 350.5 -102t124.5 -264q0 -209 -237.5 -394t-302 -249.5t-92.5 -129.5h654v-231h-986z" />
    <glyph glyph-name="three" unicode="3" 
d="M837 390q0 42 -13 69.5t-59.5 70t-207.5 42.5h-98v227h92q168 0 210.5 61.5t42.5 107.5q0 83 -54 130.5t-143 47.5q-194 0 -209 -169l-281 20q23 188 157.5 280.5t351.5 92.5q218 0 340.5 -103t122.5 -257q0 -183 -111.5 -241.5t-189.5 -73.5v-4q166 -19 251.5 -106.5
t85.5 -192.5q0 -200 -133 -307.5t-382 -107.5t-373 110.5t-144 280.5l286 25q25 -188 235 -188q158 0 190.5 71.5t32.5 113.5z" />
    <glyph glyph-name="four" unicode="4" 
d="M712 907q0 130 9 198q-26 -56 -94 -162l-320 -447h405v411zM980 287v-287h-268v287h-641v211l595 851h314v-853h188v-209h-188z" />
    <glyph glyph-name="five" unicode="5" 
d="M681 904q204 0 323 -125t119 -330t-137.5 -337t-373.5 -132t-358 101.5t-150 270.5l281 23q42 -172 213 -172t203.5 92.5t32.5 148.5q0 108 -59 170.5t-171 62.5q-111 0 -185 -91h-274l49 763h847v-209h-592l-23 -326q102 90 255 90z" />
    <glyph glyph-name="six" unicode="6" 
d="M779 607q-54 63 -154 63q-134 0 -169.5 -75t-35.5 -129q0 -110 58.5 -188.5t152.5 -78.5t148 65t54 172q0 108 -54 171zM702 877q190 0 301.5 -117t111.5 -320t-123 -331.5t-361 -128.5q-237 0 -371.5 184.5t-134.5 523.5q0 338 135.5 510t391.5 172t329 -118t96 -206
l-265 -37q-38 139 -161 139t-187 -108.5t-64 -317.5q45 75 125 115t177 40z" />
    <glyph glyph-name="seven" unicode="7" 
d="M629 0h-293q0 414 194 701t301 417h-700v231h961v-223q-227 -310 -345 -574.5t-118 -551.5z" />
    <glyph glyph-name="eight" unicode="8" 
d="M829 400q0 211 -220 211q-112 0 -161.5 -61t-49.5 -149q0 -223 195 -223t215.5 89.5t20.5 132.5zM613 808q183 0 183 187q0 178 -184 178t-183 -178q0 -125 63.5 -156t120.5 -31zM1120 374q0 -172 -127.5 -283t-377.5 -111t-378 111t-128 289q0 136 83.5 221.5
t203.5 105.5v4q-115 25 -184.5 109t-69.5 178q0 175 122.5 273.5t352.5 98.5t349 -98t119 -262q0 -103 -69.5 -188.5t-186.5 -108.5v-4q203 -33 247 -145t44 -190z" />
    <glyph glyph-name="nine" unicode="9" 
d="M752.5 1072.5q-56.5 77.5 -151.5 77.5t-148.5 -65.5t-53.5 -173.5q0 -165 76 -204t120 -39t81.5 13t85 55.5t47.5 150.5t-56.5 185.5zM830 619q-82 -160 -333 -160q-70 0 -145 32.5t-156.5 123t-81.5 301.5q0 210 130 332t368 122t366 -166t128 -511t-136 -529t-400 -184
t-336.5 122t-94.5 209l264 37q39 -147 180 -147q114 0 179.5 104.5t67.5 313.5z" />
    <glyph glyph-name="colon" unicode=":" 
d="M470 780v305h289v-305h-289zM470 0v305h289v-305h-289z" />
    <glyph glyph-name="uni037E" unicode=";" 
d="M326 -363l169 662h315l-311 -662h-173zM479 780v305h289v-305h-289z" />
    <glyph glyph-name="uni037E" unicode="&#x37e;" 
d="M326 -363l169 662h315l-311 -662h-173zM479 780v305h289v-305h-289z" />
    <glyph glyph-name="less" unicode="&#x3c;" 
d="M101 516v322l1027 391v-228l-833 -325l833 -324v-227z" />
    <glyph glyph-name="equal" unicode="=" 
d="M101 291v221h1027v-221h-1027zM101 842v223h1027v-223h-1027z" />
    <glyph glyph-name="greater" unicode="&#x3e;" 
d="M101 125v227l832 324l-832 325v228l1027 -391v-322z" />
    <glyph glyph-name="question" unicode="?" 
d="M418 0v270h289v-270h-289zM1113 999q0 -73 -17.5 -120t-46.5 -85.5t-66 -70t-76 -60t-124 -90t-90 -167.5h-267q11 197 172 307.5t196.5 159.5t35.5 93q0 83 -59 130.5t-162 47.5q-156 0 -200 -83.5t-50 -131.5l-285 12q40 297 223 363t305 66t216.5 -28t160 -78.5
t100 -121t34.5 -143.5z" />
    <glyph glyph-name="at" unicode="@" 
d="M432 491q0 -261 94 -261q111 0 152.5 140t49.5 192l14 88q13 88 13 134q0 195 -109 195q-95 0 -154.5 -152.5t-59.5 -335.5zM44 514q0 428 167.5 699t460.5 271q250 0 383.5 -208t133.5 -511t-81.5 -482t-223.5 -179q-143 0 -143 157v3l2 45h-6q-53 -138 -123 -171.5
t-122 -33.5t-133.5 61t-81.5 313t103 437.5t264 185.5q137 0 164 -173h5l33 151h135l-99 -507q-40 -210 -40 -256q0 -64 12.5 -77t43.5 -13t61.5 38t64.5 144.5t34 288.5t-25.5 292.5t-103.5 239.5t-259 129q-228 0 -359 -240t-131 -574t113 -516.5t311 -182.5
q156 0 243.5 62.5t125.5 95.5l71 -97q-220 -189 -462 -189t-390 217t-148 580z" />
    <glyph glyph-name="A" unicode="A" 
d="M615 1167q-19 -94 -58 -235l-108 -380h332l-108 380q-39 141 -58 235zM1229 0h-294l-92 330h-456l-92 -330h-295l443 1349h344z" />
    <glyph glyph-name="B" unicode="B" 
d="M689 219q200 0 200 191q0 96 -57.5 139.5t-149.5 43.5h-250v-374h257zM643 811q165 0 165 159q0 87 -45 123.5t-122 36.5h-209v-319h211zM1186 402q0 -211 -131.5 -306.5t-335.5 -95.5h-582v1349h525q322 0 382.5 -126.5t60.5 -226.5t-66 -179t-203 -108
q171 -18 260.5 -102.5t89.5 -204.5z" />
    <glyph glyph-name="C" unicode="C" 
d="M652 1138q-272 0 -272 -457q0 -225 70 -347t209 -122q162 0 240 244l273 -52q-133 -424 -516 -424q-293 0 -434.5 186t-141.5 515q0 689 568 689q377 0 496 -389l-272 -66q-43 158 -111 190.5t-109 32.5z" />
    <glyph glyph-name="D" unicode="D" 
d="M532 228q320 0 320 457q0 339 -134.5 387.5t-226.5 48.5h-61v-893h102zM1149 688q0 -335 -154.5 -511.5t-438.5 -176.5h-421v1349h361q653 1 653 -661z" />
    <glyph glyph-name="E" unicode="E" 
d="M137 0v1349h968v-228h-673v-324h612v-228h-612v-341h714v-228h-1009z" />
    <glyph glyph-name="F" unicode="F" 
d="M462 1121v-384h621v-228h-621v-509h-295v1349h939v-228h-644z" />
    <glyph glyph-name="G" unicode="G" 
d="M1128 185q-243 -205 -504 -205t-402.5 190.5t-141.5 510.5q0 689 558 689q278 0 358 -145.5t104 -229.5l-274 -54q-53 197 -185 197q-206 0 -234 -172.5t-28 -284.5q0 -465 271 -465q118 0 208 74v235h-274v218h544v-558z" />
    <glyph glyph-name="H" unicode="H" 
d="M796 0v574h-363v-574h-295v1349h295v-531h363v531h295v-1349h-295z" />
    <glyph glyph-name="I" unicode="I" 
d="M157 1349h916v-228h-311v-893h311v-228h-916v228h311v893h-311v228z" />
    <glyph glyph-name="J" unicode="J" 
d="M393 445q40 -234 178 -234q68 0 111 59t43 169v679h-301v231h595v-903q0 -217 -120.5 -341.5t-330.5 -124.5q-201 0 -318.5 109.5t-147.5 312.5z" />
    <glyph glyph-name="K" unicode="K" 
d="M431 0h-295v1349h295v-599l436 599h343l-460 -579l479 -770h-348l-323 557l-127 -142v-415z" />
    <glyph glyph-name="L" unicode="L" 
d="M211 0v1349h295v-1121h616v-228h-911z" />
    <glyph glyph-name="M" unicode="M" 
d="M319 868v-868h-220v1349h347l135 -499q15 -47 38 -231q20 155 40 230l136 500h335v-1349h-222v868q0 105 16 301q-14 -69 -24 -115t-24 -115t-27 -111l-124 -468h-218l-126 468q-15 55 -21.5 85t-18 81t-36.5 175q14 -224 14 -301z" />
    <glyph glyph-name="N" unicode="N" 
d="M392 656v-656h-257v1349h337l393 -1037q-28 234 -28 365v672h257v-1349h-346l-384 1010q28 -252 28 -354z" />
    <glyph glyph-name="O" unicode="O" 
d="M614.5 212q243.5 0 243.5 463t-243.5 463t-243.5 -463t243.5 -463zM1157 679q0 -345 -140 -522t-402 -177t-402.5 177t-140.5 522t140.5 518t402.5 173t402 -173t140 -518z" />
    <glyph glyph-name="P" unicode="P" 
d="M591 703q254 0 254 215q0 109 -65.5 155.5t-196.5 46.5h-152v-417h160zM1142 927q0 -199 -130 -325t-384 -126h-197v-476h-295v1349h480q396 0 461 -163.5t65 -258.5z" />
    <glyph glyph-name="Q" unicode="Q" 
d="M614.5 212q243.5 0 243.5 463t-243.5 463t-243.5 -463t243.5 -463zM936 -403q-190 0 -292.5 102.5t-161.5 293.5q-410 87 -410 709q0 322 140.5 495t402.5 173t402 -173t140 -518q0 -575 -378 -679q55 -151 138 -168.5t128 -17.5t123 13v-202q-126 -28 -232 -28z" />
    <glyph glyph-name="R" unicode="R" 
d="M608 744q252 0 252 193q0 144 -99 163.5t-161 19.5h-168v-376h176zM432 515v-515h-295v1349h494q264 0 395 -103t131 -306t-109 -272t-170 -87l349 -581h-332l-290 515h-173z" />
    <glyph glyph-name="S" unicode="S" 
d="M842 978q-44 183 -224 183t-203.5 -61.5t-23.5 -100.5q0 -76 69 -112t171 -62q103 -26 159 -42.5t144 -53t159.5 -120t71.5 -218.5q0 -185 -142 -298t-394 -113q-253 0 -401 99t-190 288l285 37q23 -94 96 -148.5t200 -54.5q192 0 225.5 62.5t33.5 113.5t-31.5 85.5
t-80 57t-107.5 37t-110 28.5t-102.5 29.5t-197 81t-145.5 280.5q0 200 148 297t367 97q220 0 346 -88.5t163 -274.5z" />
    <glyph glyph-name="T" unicode="T" 
d="M762 1121v-1121h-295v1121h-406v228h1107v-228h-406z" />
    <glyph glyph-name="U" unicode="U" 
d="M602 -20q-235 0 -354 125t-119 423v821h295v-818q0 -177 41 -248.5t167.5 -71.5t149.5 119.5t23 210.5v808h295v-806q0 -440 -193 -501.5t-305 -61.5z" />
    <glyph glyph-name="V" unicode="V" 
d="M766 0h-299l-464 1349h308l233 -775q27 -88 74 -266q33 134 72 266l232 775h305z" />
    <glyph glyph-name="W" unicode="W" 
d="M1018 0h-248l-64 267q-5 19 -25 92.5t-65 276.5q-18 -77 -30 -127t-19.5 -81.5t-15 -61t-14.5 -55t-12 -44.5l-66 -267h-248l-211 1349h259l89 -695q12 -96 16 -266q15 92 55 244l99 339h195l99 -339q13 -45 22.5 -88.5t17.5 -81.5t15 -74q1 0 4.5 94t13.5 172l84 695
h259z" />
    <glyph glyph-name="X" unicode="X" 
d="M919 0l-303 493l-304 -493h-312l459 711l-418 638h312l263 -430l262 430h310l-428 -638l469 -711h-310z" />
    <glyph glyph-name="Y" unicode="Y" 
d="M761 0h-294v556l-464 793h309l300 -566l304 566h309l-464 -793v-556z" />
    <glyph glyph-name="Z" unicode="Z" 
d="M1138 0h-1051v209l671 909h-595v231h934v-205l-671 -913h712v-231z" />
    <glyph glyph-name="bracketleft" unicode="[" 
d="M373 -425v1909h602v-190h-336v-1528h336v-191h-602z" />
    <glyph glyph-name="backslash" unicode="\" 
d="M908 -20l-817 1504h228l821 -1504h-232z" />
    <glyph glyph-name="bracketright" unicode="]" 
d="M254 -425v191h336v1528h-336v190h602v-1909h-602z" />
    <glyph glyph-name="asciicircum" unicode="^" 
d="M922 514l-326 752l-324 -752h-227l391 895h322l393 -895h-229z" />
    <glyph glyph-name="underscore" unicode="_" 
d="M-5 -220v96h1238v-96h-1238z" />
    <glyph glyph-name="grave" unicode="`" 
d="M347 1458h258l252 -243v-31h-170l-340 231v43z" />
    <glyph glyph-name="a" unicode="a" 
d="M399 328q0 -152 120 -152q102 0 164.5 79.5t62.5 190.5v55l-134 -2q-107 -2 -160 -34.5t-53 -136.5zM431 -20q-148 0 -236.5 85t-88.5 241q0 341 417 346l223 4v55q0 165 -57 187t-89 22q-69 0 -105.5 -33.5t-46.5 -119.5l-293 14q54 321 455 321q202 0 309.5 -99
t107.5 -291v-392q0 -83 18 -121.5t60 -38.5q43 0 73 6v-152q-108 -26 -197 -26q-180 0 -200 205h-6q-89 -159 -181.5 -186t-162.5 -27z" />
    <glyph glyph-name="b" unicode="b" 
d="M839 540q0 372 -203 372q-140 0 -175.5 -129t-35.5 -237q0 -198 64.5 -286t154.5 -88t142.5 92t52.5 276zM148 236v1248h281v-394l-1 -26l-1 -152h2q86 191 317 191q194 0 290 -153t96 -405q0 -253 -104 -409t-291 -156q-215 0 -306 196h-4q0 -116 -15 -176h-272
q8 136 8 236z" />
    <glyph glyph-name="c" unicode="c" 
d="M622 909q-217 -1 -217 -369t221 -368q80 0 134 50.5t67 150.5l282 -13q-21 -160 -148 -270t-337 -110q-252 0 -383 149.5t-131 412.5t135.5 411.5t382.5 148.5q200 0 321.5 -100t151.5 -261l-283 -14q-12 83 -60 132.5t-136 49.5z" />
    <glyph glyph-name="d" unicode="d" 
d="M390 539q0 -184 52.5 -275.5t142.5 -91.5t154.5 88.5t64.5 285.5t-63 280t-148 83q-203 0 -203 -370zM802 176h-4q-53 -107 -131 -151.5t-179 -44.5q-190 0 -290.5 154t-100.5 405q0 397 147.5 479t248.5 82q221 0 307 -191h2v19l-2 159v397h281v-1248q0 -100 8 -236
h-272q-15 60 -15 176z" />
    <glyph glyph-name="e" unicode="e" 
d="M466 860q-65 -65 -69 -197h460q-8 125 -71.5 193.5t-158.5 68.5q-96 0 -161 -65zM625 -20q-242 0 -383.5 144.5t-141.5 426.5q0 283 151.5 417t387.5 134q237 0 363.5 -163t126.5 -444v-8h-734q0 -221 91.5 -270t159.5 -49t125 31.5t77 97.5l265 -23
q-75 -193 -223.5 -243.5t-264.5 -50.5z" />
    <glyph glyph-name="f" unicode="f" 
d="M879 1321q-93 0 -130 -13t-66.5 -45t-29.5 -124v-57h443v-190h-443v-892h-280v892h-256v190h256v83q0 236 146.5 292.5t290.5 56.5t312 -28v-184q-150 19 -243 19z" />
    <glyph glyph-name="g" unicode="g" 
d="M831 554q0 187 -62.5 269.5t-146.5 82.5q-205 0 -205 -356q0 -174 54 -258.5t149 -84.5q139 0 175 121.5t36 225.5zM1108 832v-799q0 -231 -129 -349t-363 -118q-288 0 -361 113.5t-86 177.5l281 33q15 -65 61.5 -103t100.5 -38q216 0 217 288v15l2 159h-2
q-93 -199 -328 -199q-185 0 -281 144t-96 394q0 394 149 471.5t249 77.5q217 0 307 -191h5q0 125 14 174h266q-6 -108 -6 -250z" />
    <glyph glyph-name="h" unicode="h" 
d="M420 866q108 236 338 236q194 0 270 -111.5t76 -304.5v-686h-280v621q0 137 -26 185t-60 66.5t-86 18.5q-102 0 -165 -87t-63 -225v-579h-281v1484h281v-405q0 -109 -8 -213h4z" />
    <glyph glyph-name="i" unicode="i" 
d="M513 1277v207h281v-207h-281zM794 190h353v-190h-1029v190h395v702h-290v190h571v-892z" />
    <glyph glyph-name="j" unicode="j" 
d="M583 1277v207h281v-207h-281zM338 -206q85 0 164.5 18.5t79.5 197.5v882h-354v190h636v-1095q0 -206 -132 -309t-316 -103t-299 43v210q136 -34 221 -34z" />
    <glyph glyph-name="k" unicode="k" 
d="M454 0h-281v1484h281v-850l386 448h302l-380 -422l409 -660h-307l-289 490l-121 -84v-406z" />
    <glyph glyph-name="l" unicode="l" 
d="M794 190h353v-190h-1029v190h395v1104h-290v190h571v-1294z" />
    <glyph glyph-name="m" unicode="m" 
d="M284 907h2q30 90 79.5 142.5t137.5 52.5q87 0 130.5 -48t62.5 -148h2q38 100 92 148t130 48q75 0 117 -22t79.5 -88.5t37.5 -270.5v-721h-228v658q0 151 -14.5 195t-31.5 57t-41 13q-51 0 -80.5 -80.5t-29.5 -241.5v-601h-228v658q0 151 -14.5 195t-31.5 57t-41 13
q-50 0 -80 -94.5t-30 -246.5v-582h-229v851q0 189 -6 231h209q6 -30 6 -175z" />
    <glyph glyph-name="n" unicode="n" 
d="M768 1103q336 0 336 -416v-687h-280v619q0 141 -38.5 207t-136.5 66t-161.5 -87.5t-63.5 -224.5v-580h-281v840q0 190 -8 242h268q13 -78 13 -215h4q57 124 143 180t205 56z" />
    <glyph glyph-name="o" unicode="o" 
d="M387 542q0 -370 220 -370q125 0 180.5 88t55.5 282q0 286 -81.5 326.5t-141.5 40.5q-124 0 -178.5 -88t-54.5 -279zM616 1102q521 0 521 -560q0 -399 -195.5 -480.5t-329.5 -81.5q-257 0 -388.5 151t-131.5 411q0 397 193 478.5t331 81.5z" />
    <glyph glyph-name="p" unicode="p" 
d="M839 543q0 184 -52.5 276t-142.5 92t-154.5 -88.5t-64.5 -285.5t63 -281.5t148 -84.5q203 0 203 372zM427 906h4q98 197 316 197q185 0 285 -155t100 -405q0 -397 -147.5 -480t-248.5 -83q-221 0 -307 191h-2l1 -19l1 -159v-418h-281v1271q0 100 -8 236h272
q15 -52 15 -176z" />
    <glyph glyph-name="q" unicode="q" 
d="M390 543q0 -372 203 -372q140 0 175.5 128.5t35.5 236.5q0 198 -64.5 286.5t-154.5 88.5t-142.5 -92t-52.5 -276zM1081 846v-1271h-281v418v26l2 152h-2q-86 -191 -317 -191q-194 0 -290 153t-96 406t105 408.5t301 155.5t295 -197h4q0 60 6.5 114.5t8.5 61.5h272
q-8 -136 -8 -236z" />
    <glyph glyph-name="r" unicode="r" 
d="M877 867q-170 0 -258.5 -122t-88.5 -307v-438h-280v701q0 173 -52 381h271q36 -130 46 -228h4q91 248 334 248q126 0 228 -17v-237q-112 19 -204 19z" />
    <glyph glyph-name="s" unicode="s" 
d="M976 70q-128 -90 -356 -90q-318 0 -398 104.5t-101 185.5l247 37q23 -86 80 -113.5t138 -27.5q140 0 200 26.5t60 98.5t-67 96.5t-125 36t-124 26.5q-172 39 -269 106t-97 220t118.5 240t339.5 87q283 0 362 -107t95 -185l-249 -26q-19 108 -92.5 119.5t-144.5 11.5
t-121 -26t-50 -74t20.5 -70t58 -36.5t89 -25t119.5 -26.5t140.5 -37t163.5 -81.5t91 -220.5q0 -159 -128 -249z" />
    <glyph glyph-name="t" unicode="t" 
d="M161 892v190h181l88 282h176v-282h385v-190h-385v-530q0 -94 43 -161t386 4v-186q-323 -52 -503 -10t-193 164t-13 163l2 556h-167z" />
    <glyph glyph-name="u" unicode="u" 
d="M135 395v687h281v-607q0 -203 63.5 -244t107.5 -41q90 0 149 87.5t59 224.5v580h281v-840q0 -138 8 -242h-268q-1 12 -3.5 38.5t-4 58.5l-3 64t-1.5 54h-5q-107 -235 -328 -235q-176 0 -256 112t-80 303z" />
    <glyph glyph-name="v" unicode="v" 
d="M774 0h-336l-407 1082h297l209 -622q28 -93 44.5 -153t26.5 -97q6 24 15 54.5t21.5 74.5t37.5 118l217 625h294z" />
    <glyph glyph-name="w" unicode="w" 
d="M1028 0h-244l-143 471q-25 80 -27 102q-3 -25 -29 -106l-148 -467h-243l-183 1082h228l83 -607q19 -152 19 -226q4 17 9 35t10.5 38.5t12.5 40.5l145 454h193l140 -455q15 -50 29 -113q0 73 21 226l91 607h226z" />
    <glyph glyph-name="x" unicode="x" 
d="M874 0l-262 392l-264 -392h-299l406 559l-387 523h303l241 -354l240 354h305l-387 -520l409 -562h-305z" />
    <glyph glyph-name="y" unicode="y" 
d="M377.5 -179.5q49.5 40.5 90.5 142.5l18 48l-448 1071h297l190 -527q18 -51 41 -127.5t33 -110t17 -59.5t10 -37q2 11 9 36.5t15.5 58t18.5 68.5t25 91t22 76l180 531h294l-448 -1139q-77 -197 -170 -282.5t-247 -85.5q-106 0 -182 13v200q40 -8 112 -8q73 0 122.5 40.5z
" />
    <glyph glyph-name="z" unicode="z" 
d="M138 0v199l570 680h-529v203h849v-201l-567 -676h616v-205h-939z" />
    <glyph glyph-name="braceleft" unicode="{" 
d="M718 -425q-136 0 -215.5 79.5t-79.5 219.5v328q0 178 -88.5 203t-140.5 26v195q170 6 199.5 87t29.5 144v328q0 146 78.5 222.5t216.5 76.5h327v-190h-188q-91 0 -131.5 -52t-40.5 -157v-301q0 -150 -82.5 -196.5t-124.5 -55.5v-4q142 -33 174.5 -117t32.5 -135v-301
q0 -106 40.5 -157.5t131.5 -51.5h188v-191h-327z" />
    <glyph glyph-name="bar" unicode="|" 
d="M483 -455v1939h262v-1939h-262z" />
    <glyph glyph-name="braceright" unicode="}" 
d="M184 -425v191h188q91 0 131.5 51.5t40.5 157.5v301q0 97 57.5 164t149.5 88v4q-141 30 -174 115.5t-33 136.5v301q0 105 -40.5 157t-131.5 52h-188v190h327q138 0 216.5 -76.5t78.5 -222.5v-328q0 -177 88 -203t141 -28v-195q-229 -4 -229 -229v-328q0 -212 -113 -255.5
t-182 -43.5h-327z" />
    <glyph glyph-name="asciitilde" unicode="~" 
d="M885 723q134 0 248 92v-219q-95 -65 -160.5 -72.5t-135.5 -7.5t-201 46t-185.5 57.5t-100.5 11.5q-129 0 -255 -88v213q113 84 271 84q105 0 193 -30.5t168 -58.5t158 -28z" />
    <glyph glyph-name="exclamdown" unicode="&#xa1;" 
d="M762 1079v-270h-288v270h288zM500 653h230l32 -923h-294z" />
    <glyph glyph-name="cent" unicode="&#xa2;" 
d="M381 662q0 -169 67 -260q41 -57 105 -79v681q-172 -55 -172 -342zM715 -60h-162v189q-222 21 -338.5 161t-116.5 370t118 371t337 165v184h162v-184q175 -19 281.5 -115.5t133.5 -241.5l-282 -14q-23 136 -133 177v-678q120 44 141 196l283 -12q-21 -146 -130 -251
t-294 -126v-191z" />
    <glyph glyph-name="sterling" unicode="&#xa3;" 
d="M788 0h-704v205q90 51 133.5 118t43.5 189v82h-188v170h178v198q0 296 156 352t261 56q190 0 283 -74.5t133 -216.5l-233 -47q-21 77 -62 112t-119 35q-158 0 -159 -240v-175h286v-170h-286v-80q0 -167 -69.5 -224t-112.5 -81h390q104 0 157.5 49.5t70.5 143.5l233 -39
q-44 -248 -174.5 -305.5t-217.5 -57.5z" />
    <glyph glyph-name="currency" unicode="&#xa4;" 
d="M405 686q0 -43 16.5 -81t45 -66.5t66.5 -45t81 -16.5t80.5 16.5t66 45t45 66.5t16.5 81t-16.5 81t-45 66.5t-66 45t-80.5 16.5t-81 -16.5t-66.5 -45t-45 -66.5t-16.5 -81zM179 684q0 120 60 221l-133 133l157 156l131 -133q101 59 221 59t218 -59l135 135l158 -158
l-136 -135q60 -99 60 -218t-58 -218l134 -133l-158 -160l-133 135q-100 -59 -222 -59t-219 57l-135 -137l-157 158l135 137q-58 99 -58 219z" />
    <glyph glyph-name="yen" unicode="&#xa5;" 
d="M1087 691v-146h-338v-162h338v-147h-338v-236h-272v236h-336v147h336v162h-336v146h276l-384 658h289l290 -536l294 536h289l-384 -658h276z" />
    <glyph glyph-name="brokenbar" unicode="&#xa6;" 
d="M483 -455v779h262v-779h-262zM483 676v778h262v-778h-262z" />
    <glyph glyph-name="section" unicode="&#xa7;" 
d="M872 658q0 75 -64 111.5t-228 68.5q-193 -23 -193 -153q0 -96 117 -126t173 -43q195 10 195 142zM145 658q0 185 213 256q-130 55 -159 132.5t-29 125.5q0 149 117.5 231t341.5 82q284 0 362.5 -100.5t93.5 -173.5l-239 -25q-27 129 -217 129q-112 0 -164.5 -29.5
t-52.5 -94.5q0 -97 113.5 -127t184.5 -46q190 -43 295 -112.5t105 -209.5q0 -141 -75 -196.5t-122 -70.5q181 -79 181 -256q0 -247 -180 -295.5t-294 -48.5q-224 0 -348 66.5t-165 221.5l237 37q31 -126 121.5 -140.5t178.5 -14.5t151 32.5t63 113.5t-69 115t-199 65
t-197.5 53.5t-157.5 82t-90 197.5z" />
    <glyph glyph-name="dieresis" unicode="&#xa8;" 
d="M289 1219v219h224v-219h-224zM713 1219v219h227v-219h-227z" />
    <glyph glyph-name="copyright" unicode="&#xa9;" 
d="M945.5 1216q-125.5 152 -329.5 152q-205 0 -330.5 -152t-125.5 -456t126 -455.5t330 -151.5t329.5 151t125.5 456q0 304 -125.5 456zM1035 221q-162 -183 -420 -183q-257 0 -420.5 183t-163.5 540t163.5 540t420 183t419.5 -182.5t163 -540t-162 -540.5zM928 569
q-77 -236 -313 -236q-161 0 -250.5 117t-89.5 313q0 306 129.5 365t206.5 59q132 0 203.5 -59t109.5 -150l-138 -43q-49 127 -163 127q-195 0 -195 -299q0 -216 75.5 -261t124.5 -45q113 0 171 154z" />
    <glyph glyph-name="ordfeminine" unicode="&#xaa;" 
d="M419 891q0 -97 108 -97q75 0 122.5 57.5t47.5 127.5v31l-106 -3q-85 -2 -128.5 -24.5t-43.5 -91.5zM202 882q0 121 90 177.5t236 58.5l169 2v48q0 137 -117 137t-131 -108l-219 11q30 163 149 198t195 35q155 0 243.5 -67.5t88.5 -202.5v-273q0 -55 10.5 -83t47.5 -28
t57 5v-125q-67 -21 -142 -21t-122 42t-53 112h-3q-83 -157 -256 -157q-174 0 -208.5 88.5t-34.5 150.5z" />
    <glyph glyph-name="guillemotleft" unicode="&#xab;" 
d="M626 940v-37l-254 -366l256 -361v-35h-238l-258 361v71l258 367h236zM1095 940v-37l-254 -366l256 -361v-35h-240l-256 361v71l256 367h238z" />
    <glyph glyph-name="logicalnot" unicode="&#xac;" 
d="M887 141v428h-803v224h1027v-652h-224z" />
    <glyph glyph-name="registered" unicode="&#xae;" 
d="M945.5 1216q-125.5 152 -329.5 152q-205 0 -330.5 -152t-125.5 -456t126 -455.5t330 -151.5t329.5 151t125.5 456q0 304 -125.5 456zM617 782q164 0 164 153q0 127 -176 127h-122v-280h134zM483 672v-329h-151v831h307q142 0 217.5 -63t75.5 -169t-50.5 -171.5
t-135.5 -84.5l218 -343h-175l-190 329h-116zM1035 221q-162 -183 -420 -183q-257 0 -420.5 183t-163.5 540t163.5 540t420 183t419.5 -182.5t163 -540t-162 -540.5z" />
    <glyph glyph-name="macron" unicode="&#xaf;" 
d="M-5 1452v96h1238v-96h-1238z" />
    <glyph glyph-name="degree" unicode="&#xb0;" 
d="M496 1228q-48 -48 -48 -117t48.5 -119t117 -50t116 49.5t47.5 119.5t-46.5 117.5t-116.5 47.5t-118 -48zM935 1110q0 -132 -94 -223.5t-227 -91.5t-226.5 91.5t-93.5 223.5q0 133 93 224t227 91t227.5 -91.5t93.5 -223.5z" />
    <glyph glyph-name="plusminus" unicode="&#xb1;" 
d="M101 0v223h1027v-223h-1027zM726 707v-341h-224v341h-401v223h401v340h224v-340h402v-223h-402z" />
    <glyph glyph-name="uni00B2" unicode="&#xb2;" 
d="M720 1166q0 107 -98 107t-109 -115l-228 6q15 113 103 185.5t236 72.5q245 0 286.5 -97t41.5 -154t-26 -104.5t-66 -85t-88.5 -68.5t-126 -81.5t-103.5 -106.5h425v-162h-690v142q63 137 220.5 235.5t190 142t32.5 83.5z" />
    <glyph glyph-name="uni00B3" unicode="&#xb3;" 
d="M940 1200q0 -163 -179 -200v-2q151 -17 176 -89.5t25 -109.5q0 -116 -88 -182t-260 -66t-254 68t-96 176l222 15q12 -110 133 -110t121 113q0 108 -163 108h-66v148h60q100 0 124.5 37.5t24.5 75.5t-27 64t-78 26q-105 0 -115 -105l-218 14q16 116 108.5 178t238.5 62
t228.5 -62.5t82.5 -158.5z" />
    <glyph glyph-name="acute" unicode="&#xb4;" 
d="M367 1184v31l252 243h258v-43l-340 -231h-170z" />
    <glyph glyph-name="uni00B5" unicode="&#xb5;" 
d="M821 184h-3q-78 -204 -246 -204q-52 0 -95.5 24t-66.5 66h-4q4 -43 4 -115v-371h-281v1498h281v-605q0 -284 184 -284q98 0 158.5 84.5t60.5 226.5v578h281v-840q0 -130 8 -242h-268q-13 156 -13 184z" />
    <glyph glyph-name="paragraph" unicode="&#xb6;" 
d="M984 1206v-1530h-156v1530h-195v-1530h-155v958q-165 0 -264 91t-99 261q0 171 98 267t273 96h629v-143h-131z" />
    <glyph glyph-name="periodcentered" unicode="&#xb7;" 
d="M470 417v305h288v-305h-288z" />
    <glyph glyph-name="cedilla" unicode="&#xb8;" 
d="M310 -259q0 69 -122 69h-19q-19 0 -33 -2l69 192h143l-40 -102q94 -5 139.5 -46.5t45.5 -93.5q0 -204 -303 -203q-45 0 -101 6v118q35 -7 84 -7q137 0 137 69z" />
    <glyph glyph-name="uni00B9" unicode="&#xb9;" 
d="M275 563v142h236v530q-37 -75 -120 -95t-111 -20v154q111 0 167.5 51.5t73.5 84.5h204v-705h220v-142h-670z" />
    <glyph glyph-name="ordmasculine" unicode="&#xba;" 
d="M455 1043q0 -239 154 -239q81 0 122.5 54t41.5 185q0 189 -58.5 211.5t-96.5 22.5q-80 0 -121.5 -53.5t-41.5 -180.5zM900 752q-103 -109 -287 -109t-285 109t-101 290t99.5 290t291.5 109t288.5 -107.5t96.5 -290.5q0 -182 -103 -291z" />
    <glyph glyph-name="guillemotright" unicode="&#xbb;" 
d="M601 141v35l256 361l-254 366v37h236l258 -367v-71l-258 -361h-238zM132 141v35l256 361l-254 366v37h238l256 -367v-71l-256 -361h-240z" />
    <glyph glyph-name="onequarter" unicode="&#xbc;" 
d="M1 1068v165q85 0 165 61q28 22 46 55h181v-760h-191v570q-34 -67 -160 -87q-28 -4 -41 -4zM306 0h-162l738 1349h161zM916 313v198q0 52 6 95q-8 -12 -20 -36q-41 -78 -76 -131l-87 -126h177zM1107 162v-160h-191v160h-341v149l321 452h211v-450h82v-151h-82z" />
    <glyph glyph-name="onehalf" unicode="&#xbd;" 
d="M2 1068v165q86 0 166 61q28 22 45 55h181v-760h-191v570q-33 -67 -159 -87q-28 -4 -42 -4zM291 0h-162l738 1349h161zM1209 558q1 -146 -159 -247q-42 -27 -83 -51q-40 -24 -72 -50q-32 -25 -45 -56h350v-153h-542v143q59 134 224 236q91 56 116 94q26 37 26 78
q0 91 -78 91t-94 -74q-4 -21 -7 -44l-180 10q32 238 282 238q131 0 197 -57t65 -158z" />
    <glyph glyph-name="threequarters" unicode="&#xbe;" 
d="M312 1361q258 -1 258 -215q0 -111 -136 -162v-6q157 -34 157 -185q0 -107 -77 -165q-77 -59 -207 -59q-129 -1 -201 53t-95 179l205 26q8 -57 29 -89t64 -32q82 0 82 104q0 82 -83 95q-25 4 -54 4h-41v131h37q68 0 95 24t27 74t-15 72q-15 21 -55 21t-56 -28
q-17 -28 -22 -82l-194 12q16 114 84 171t198 57zM382 0h-162l738 1349h161zM955 313v198q0 52 6 95q-7 -12 -19 -36q-41 -78 -77 -131l-87 -126h177zM1146 162v-160h-191v160h-341v149l321 452h211v-450h82v-151h-82z" />
    <glyph glyph-name="questiondown" unicode="&#xbf;" 
d="M819 1082v-270h-289v270h289zM124 84q0 72 17.5 119t46.5 85.5t66 70t76 60t124 90t90 167.5h267q-12 -198 -172.5 -308t-196 -159t-35.5 -93q0 -83 59 -130.5t162 -47.5q156 0 200 83.5t50 131.5l285 -12q-41 -298 -224 -363.5t-305 -65.5t-216 28t-159.5 78.5t-100 122
t-34.5 143.5z" />
    <glyph glyph-name="Agrave" unicode="&#xc0;" 
d="M615 1167q-19 -94 -58 -235l-108 -380h332l-108 380q-39 141 -58 235zM1229 0h-294l-92 330h-456l-92 -330h-295l443 1349h344zM254 1701h258l252 -243v-31h-170l-340 231v43z" />
    <glyph glyph-name="Aacute" unicode="&#xc1;" 
d="M615 1167q-19 -94 -58 -235l-108 -380h332l-108 380q-39 141 -58 235zM1229 0h-294l-92 330h-456l-92 -330h-295l443 1349h344zM460 1428v31l252 243h258v-43l-340 -231h-170z" />
    <glyph glyph-name="Acircumflex" unicode="&#xc2;" 
d="M615 1167q-19 -94 -58 -235l-108 -380h332l-108 380q-39 141 -58 235zM1229 0h-294l-92 330h-456l-92 -330h-295l443 1349h344zM983 1427h-159l-203 134h-4l-211 -134h-160v28l258 250h229l250 -250v-28z" />
    <glyph glyph-name="Atilde" unicode="&#xc3;" 
d="M615 1167q-19 -94 -58 -235l-108 -380h332l-108 380q-39 141 -58 235zM1229 0h-294l-92 330h-456l-92 -330h-295l443 1349h344zM784 1422q-46 0 -92 18q-44 18 -86 38q-42 22 -80 40t-65 17q-51 0 -71 -26t-29 -87h-137q9 118 33 164q25 48 49 70q54 50 132 49t188 -57
q42 -22 78 -38q36 -18 64 -18q50 0 71 27t30 86h135q-9 -120 -32 -165q-24 -46 -48 -68t-60 -36q-34 -14 -80 -14z" />
    <glyph glyph-name="Adieresis" unicode="&#xc4;" 
d="M615 1167q-19 -94 -58 -235l-108 -380h332l-108 380q-39 141 -58 235zM1229 0h-294l-92 330h-456l-92 -330h-295l443 1349h344zM289 1445v219h224v-219h-224zM713 1445v219h227v-219h-227z" />
    <glyph glyph-name="Aring" unicode="&#xc5;" 
d="M615 1167q-19 -94 -58 -235l-108 -380h332l-108 380q-39 141 -58 235zM439 1336q-64 56 -64 142q0 85 63 142q63 58 179 58t179 -58t63 -144t-67 -142l437 -1334h-294l-92 330h-456l-92 -330h-295zM513 1487q0 -79 104 -79q77 0 97 46q6 12 6 24t-6 26q-6 13 -18 23
q-12 11 -32 17t-47 6q-52 0 -78 -21t-26 -42z" />
    <glyph glyph-name="AE" unicode="&#xc6;" 
d="M616 1152h-58q-6 -31 -17.5 -79t-17.5 -75.5t-11 -45.5l-98 -366h202v566zM616 387h-253l-102 -387h-261l372 1349h804v-202h-309v-355h297v-200h-297v-390h348v-202h-599v387z" />
    <glyph glyph-name="Ccedilla" unicode="&#xc7;" 
d="M652 1138q-272 0 -272 -457q0 -225 70 -347t209 -122q162 0 240 244l273 -52q-126 -403 -477 -423l-33 -83q94 -5 140 -46q46 -42 45 -94q0 -204 -303 -203q-45 0 -101 6v118q35 -7 84 -7q137 0 137 69t-122 69h-26q-12 0 -26 -2l64 178q-218 28 -346 197t-128 498
q0 689 568 689q377 0 496 -389l-272 -66q-42 159 -144 207q-34 16 -76 16z" />
    <glyph glyph-name="Egrave" unicode="&#xc8;" 
d="M137 0v1349h968v-228h-673v-324h612v-228h-612v-341h714v-228h-1009zM276 1702h258l252 -243v-31h-170l-340 231v43z" />
    <glyph glyph-name="Eacute" unicode="&#xc9;" 
d="M137 0v1349h968v-228h-673v-324h612v-228h-612v-341h714v-228h-1009zM458 1428v31l252 243h258v-43l-340 -231h-170z" />
    <glyph glyph-name="Ecircumflex" unicode="&#xca;" 
d="M137 0v1349h968v-228h-673v-324h612v-228h-612v-341h714v-228h-1009zM983 1427h-159l-203 134h-4l-211 -134h-160v28l258 250h229l250 -250v-28z" />
    <glyph glyph-name="Edieresis" unicode="&#xcb;" 
d="M137 0v1349h968v-228h-673v-324h612v-228h-612v-341h714v-228h-1009zM309 1445v219h224v-219h-224zM733 1445v219h227v-219h-227z" />
    <glyph glyph-name="Igrave" unicode="&#xcc;" 
d="M157 1349h916v-228h-311v-893h311v-228h-916v228h311v893h-311v228zM266 1702h258l252 -243v-31h-170l-340 231v43z" />
    <glyph glyph-name="Iacute" unicode="&#xcd;" 
d="M157 1349h916v-228h-311v-893h311v-228h-916v228h311v893h-311v228zM470 1428v31l252 243h258v-43l-340 -231h-170z" />
    <glyph glyph-name="Icircumflex" unicode="&#xce;" 
d="M157 1349h916v-228h-311v-893h311v-228h-916v228h311v893h-311v228zM983 1427h-159l-203 134h-4l-211 -134h-160v28l258 250h229l250 -250v-28z" />
    <glyph glyph-name="Idieresis" unicode="&#xcf;" 
d="M157 1349h916v-228h-311v-893h311v-228h-916v228h311v893h-311v228zM289 1445v219h224v-219h-224zM713 1445v219h227v-219h-227z" />
    <glyph glyph-name="Eth" unicode="&#xd0;" 
d="M545 228q320 0 320 457q0 339 -134.5 387.5t-226.5 48.5h-61v-338h207v-219h-207v-336h102zM1162 688q0 -335 -154.5 -511.5t-438.5 -176.5h-421v564h-134v219h134v566h361q653 1 653 -661z" />
    <glyph glyph-name="Ntilde" unicode="&#xd1;" 
d="M392 656v-656h-257v1349h337l393 -1037q-28 234 -28 365v672h257v-1349h-346l-384 1010q28 -252 28 -354zM784 1422q-46 0 -92 18q-44 18 -86 38q-42 22 -80 40t-65 17q-51 0 -71 -26t-29 -87h-137q9 118 33 164q25 48 49 70q54 50 132 49t188 -57q42 -22 78 -38
q36 -18 64 -18q50 0 71 27t30 86h135q-9 -120 -32 -165q-24 -46 -48 -68t-60 -36q-34 -14 -80 -14z" />
    <glyph glyph-name="Ograve" unicode="&#xd2;" 
d="M614 212q244 0 244 463t-244 463t-243 -463q-1 -463 243 -463zM1157 679q0 -345 -140 -522t-402 -177q-263 0 -403 177t-140 522t140 518t403 173q262 0 402 -173t140 -518zM261 1702h258l252 -243v-31h-170l-340 231v43z" />
    <glyph glyph-name="Oacute" unicode="&#xd3;" 
d="M614 212q244 0 244 463t-244 463t-243 -463q-1 -463 243 -463zM1157 679q0 -345 -140 -522t-402 -177q-263 0 -403 177t-140 522t140 518t403 173q262 0 402 -173t140 -518zM465 1428v31l252 243h258v-43l-340 -231h-170z" />
    <glyph glyph-name="Ocircumflex" unicode="&#xd4;" 
d="M614 212q244 0 244 463t-244 463t-243 -463q-1 -463 243 -463zM1157 679q0 -345 -140 -522t-402 -177q-263 0 -403 177t-140 522t140 518t403 173q262 0 402 -173t140 -518zM983 1427h-159l-203 134h-4l-211 -134h-160v28l258 250h229l250 -250v-28z" />
    <glyph glyph-name="Otilde" unicode="&#xd5;" 
d="M614 212q244 0 244 463t-244 463t-243 -463q-1 -463 243 -463zM1157 679q0 -345 -140 -522t-402 -177q-263 0 -403 177t-140 522t140 518t403 173q262 0 402 -173t140 -518zM784 1422q-46 0 -92 18q-44 18 -86 38q-42 22 -80 40t-65 17q-51 0 -71 -26t-29 -87h-137
q9 118 33 164q25 48 49 70q54 50 132 49t188 -57q42 -22 78 -38q36 -18 64 -18q50 0 71 27t30 86h135q-9 -120 -32 -165q-24 -46 -48 -68t-60 -36q-34 -14 -80 -14z" />
    <glyph glyph-name="Odieresis" unicode="&#xd6;" 
d="M614 212q244 0 244 463t-244 463t-243 -463q-1 -463 243 -463zM1157 679q0 -345 -140 -522t-402 -177q-263 0 -403 177t-140 522t140 518t403 173q262 0 402 -173t140 -518zM292 1445v219h224v-219h-224zM716 1445v219h227v-219h-227z" />
    <glyph glyph-name="multiply" unicode="&#xd7;" 
d="M102 326l356 358l-352 352l158 156l352 -350l352 352l158 -158l-352 -354l352 -350l-158 -160l-352 354l-356 -358z" />
    <glyph glyph-name="Oslash" unicode="&#xd8;" 
d="M615 1138q-244 0 -244 -459q0 -120 14 -193l407 545q-60 107 -177 107zM615 212q243 0 243 467q0 109 -14 193l-408 -546q62 -114 179 -114zM1157 655q0 -321 -140 -498t-402 -177q-215 0 -349 119l-106 -142l-114 75l131 176q-105 176 -105 496t140.5 493t402.5 173
q212 0 345 -115l106 142l114 -75l-130 -173q107 -173 107 -494z" />
    <glyph glyph-name="Ugrave" unicode="&#xd9;" 
d="M602 -20q-235 0 -354 125t-119 423v821h295v-818q0 -177 41 -249q41 -71 142 -71q152 0 186 176q12 63 12 154v808h295v-806q0 -439 -294 -533q-92 -30 -204 -30zM250 1702h258l252 -243v-31h-170l-340 231v43z" />
    <glyph glyph-name="Uacute" unicode="&#xda;" 
d="M602 -20q-235 0 -354 125t-119 423v821h295v-818q0 -177 41 -249q41 -71 142 -71q152 0 186 176q12 63 12 154v808h295v-806q0 -439 -294 -533q-92 -30 -204 -30zM453 1428v31l252 243h258v-43l-340 -231h-170z" />
    <glyph glyph-name="Ucircumflex" unicode="&#xdb;" 
d="M602 -20q-235 0 -354 125t-119 423v821h295v-818q0 -177 41 -249q41 -71 142 -71q152 0 186 176q12 63 12 154v808h295v-806q0 -439 -294 -533q-92 -30 -204 -30zM983 1427h-159l-203 134h-4l-211 -134h-160v28l258 250h229l250 -250v-28z" />
    <glyph glyph-name="Udieresis" unicode="&#xdc;" 
d="M602 -20q-235 0 -354 125t-119 423v821h295v-818q0 -177 41 -249q41 -71 142 -71q152 0 186 176q12 63 12 154v808h295v-806q0 -439 -294 -533q-92 -30 -204 -30zM289 1445v219h224v-219h-224zM713 1445v219h227v-219h-227z" />
    <glyph glyph-name="Yacute" unicode="&#xdd;" 
d="M761 0h-294v556l-464 793h309l300 -566l304 566h309l-464 -793v-556zM468 1428v31l252 243h258v-43l-340 -231h-170z" />
    <glyph glyph-name="Thorn" unicode="&#xde;" 
d="M796 846.5q-68 58.5 -194 58.5h-170v-440h178q123 0 188.5 63.5t65.5 161.5t-68 156.5zM1029.5 383.5q-131.5 -127.5 -382.5 -127.5h-215v-256h-295v1349h295v-235h203q260 0 393 -114.5t133 -301.5t-131.5 -314.5z" />
    <glyph glyph-name="germandbls" unicode="&#xdf;" 
d="M1178 312q0 -332 -409 -332q-124 0 -240 43v206q129 -59 221 -59q166 0 166 126q0 75 -62.5 124t-169 118t-106.5 222q0 100 90.5 179.5t111.5 119t21 91.5t-46.5 91.5t-134.5 39.5q-211 0 -211 -268v-1013h-281v1007q0 346 184.5 411.5t304.5 65.5q223 0 336.5 -94.5
t113.5 -233.5q0 -138 -71 -203t-112.5 -102.5t-41.5 -66.5q0 -30 25 -54.5t62 -52t143 -106t106 -259.5z" />
    <glyph glyph-name="agrave" unicode="&#xe0;" 
d="M399 328q0 -152 120 -152q102 0 164 80q63 80 63 190v55l-134 -2q-107 -2 -144 -25q-69 -42 -69 -146zM431 -20q-148 0 -237 85q-88 85 -88 241q0 341 417 346l223 4v55q0 165 -86 199q-28 10 -60 10q-69 0 -106 -33q-36 -33 -46 -120l-293 14q54 321 455 321
q202 0 310 -99t107 -291v-392q0 -83 13 -111q23 -49 65 -49q43 0 73 6v-152q-108 -26 -197 -26q-180 0 -200 205h-6q-89 -159 -224 -199q-50 -14 -120 -14zM233 1458h258l252 -243v-31h-170l-340 231v43z" />
    <glyph glyph-name="aacute" unicode="&#xe1;" 
d="M399 328q0 -152 120 -152q102 0 164 80q63 80 63 190v55l-134 -2q-107 -2 -144 -25q-69 -42 -69 -146zM431 -20q-148 0 -237 85q-88 85 -88 241q0 341 417 346l223 4v55q0 165 -86 199q-28 10 -60 10q-69 0 -106 -33q-36 -33 -46 -120l-293 14q54 321 455 321
q202 0 310 -99t107 -291v-392q0 -83 13 -111q23 -49 65 -49q43 0 73 6v-152q-108 -26 -197 -26q-180 0 -200 205h-6q-89 -159 -224 -199q-50 -14 -120 -14zM444 1184v31l252 243h258v-43l-340 -231h-170z" />
    <glyph glyph-name="acircumflex" unicode="&#xe2;" 
d="M399 328q0 -152 120 -152q102 0 164 80q63 80 63 190v55l-134 -2q-107 -2 -144 -25q-69 -42 -69 -146zM431 -20q-148 0 -237 85q-88 85 -88 241q0 341 417 346l223 4v55q0 165 -86 199q-28 10 -60 10q-69 0 -106 -33q-36 -33 -46 -120l-293 14q54 321 455 321
q202 0 310 -99t107 -291v-392q0 -83 13 -111q23 -49 65 -49q43 0 73 6v-152q-108 -26 -197 -26q-180 0 -200 205h-6q-89 -159 -224 -199q-50 -14 -120 -14zM965 1183h-159l-203 134h-4l-211 -134h-160v28l258 250h229l250 -250v-28z" />
    <glyph glyph-name="atilde" unicode="&#xe3;" 
d="M399 328q0 -152 120 -152q102 0 164 80q63 80 63 190v55l-134 -2q-107 -2 -144 -25q-69 -42 -69 -146zM431 -20q-148 0 -237 85q-88 85 -88 241q0 341 417 346l223 4v55q0 165 -86 199q-28 10 -60 10q-69 0 -106 -33q-36 -33 -46 -120l-293 14q54 321 455 321
q202 0 310 -99t107 -291v-392q0 -83 13 -111q23 -49 65 -49q43 0 73 6v-152q-108 -26 -197 -26q-180 0 -200 205h-6q-89 -159 -224 -199q-50 -14 -120 -14zM776 1183q-46 -1 -92 17q-44 18 -86 40t-80 38q-38 18 -65 18q-51 0 -71 -26t-29 -87h-137q9 118 33 164
q25 47 49 69q54 50 132 50t188 -56q42 -22 78 -40t64 -17q50 0 71 27t30 86h135q-9 -120 -32 -165q-24 -47 -48 -69t-60 -36q-34 -14 -80 -13z" />
    <glyph glyph-name="adieresis" unicode="&#xe4;" 
d="M399 328q0 -152 120 -152q102 0 164 80q63 80 63 190v55l-134 -2q-107 -2 -144 -25q-69 -42 -69 -146zM431 -20q-148 0 -237 85q-88 85 -88 241q0 341 417 346l223 4v55q0 165 -86 199q-28 10 -60 10q-69 0 -106 -33q-36 -33 -46 -120l-293 14q54 321 455 321
q202 0 310 -99t107 -291v-392q0 -83 13 -111q23 -49 65 -49q43 0 73 6v-152q-108 -26 -197 -26q-180 0 -200 205h-6q-89 -159 -224 -199q-50 -14 -120 -14zM273 1219v219h224v-219h-224zM697 1219v219h227v-219h-227z" />
    <glyph glyph-name="aring" unicode="&#xe5;" 
d="M399 328q0 -152 120 -152q102 0 164 80q63 80 63 190v55l-134 -2q-107 -2 -144 -25q-69 -42 -69 -146zM431 -20q-148 0 -237 85q-88 85 -88 241q0 341 417 346l223 4v55q0 165 -86 199q-28 10 -60 10q-69 0 -106 -33q-36 -33 -46 -120l-293 14q54 321 455 321
q202 0 310 -99t107 -291v-392q0 -83 13 -111q23 -49 65 -49q43 0 73 6v-152q-108 -26 -197 -26q-180 0 -200 205h-6q-89 -159 -224 -199q-50 -14 -120 -14zM502 1356q0 -79 104 -79q78 -1 98 45q6 12 5 26q1 12 -5 25t-18 23t-32 16t-48 7q-52 0 -78 -21t-26 -42zM848 1348
q0 -39 -15 -75t-45 -64q-30 -29 -76 -45t-106 -16t-106 16t-76 45q-30 28 -45 64t-15 75t15 75q15 35 45 63t76 44t106 17q60 -1 106 -17t76 -44t45 -63q15 -36 15 -75z" />
    <glyph glyph-name="ae" unicode="&#xe6;" 
d="M866 924q-61 0 -111 -64t-54 -200h301q-17 264 -136 264zM229 316q0 -154 81 -154t134 90.5t53 192.5v54l-102 -3q-83 -2 -124.5 -43t-41.5 -137zM873 1102q335 0 335 -575v-43h-509v-2q0 -221 61.5 -271.5t112.5 -50.5q96 0 131 141l178 -45q-74 -276 -314 -276
q-166 0 -215 84t-67 148q-99 -232 -308 -232q-185 0 -221.5 123.5t-36.5 214.5q0 180 93 260t237 82l147 4v55q0 142 -43.5 171.5t-72.5 29.5q-92 0 -108 -147l-208 17q39 312 315 312q176 0 247 -139q85 139 246 139z" />
    <glyph glyph-name="ccedilla" unicode="&#xe7;" 
d="M622 909q-217 -1 -217 -369t221 -368q80 0 134 50t67 151l282 -13q-21 -160 -139 -263q-118 -102 -292 -115l-33 -84q93 -5 139 -46q46 -42 46 -94q0 -204 -303 -203q-45 0 -101 6v118q35 -7 84 -7q137 0 137 69t-122 69h-25q-12 0 -27 -2l64 177q-189 23 -308 158
q-119 136 -119 399t136 411q136 149 382 149q200 0 322 -100t151 -261l-283 -14q-12 83 -60 133t-136 49z" />
    <glyph glyph-name="egrave" unicode="&#xe8;" 
d="M466 860q-65 -65 -69 -197h460q-8 125 -71 193q-63 69 -159 69t-161 -65zM625 -20q-242 0 -384 144q-141 144 -141 427t163 427q140 124 376 124q237 0 364 -163q126 -163 126 -444v-8h-734q0 -221 138 -295q45 -24 113 -24t125 32t77 97l265 -23q-75 -194 -289 -266
q-84 -28 -199 -28zM268 1458h258l252 -243v-31h-170l-340 231v43z" />
    <glyph glyph-name="eacute" unicode="&#xe9;" 
d="M466 860q-65 -65 -69 -197h460q-8 125 -71 193q-63 69 -159 69t-161 -65zM625 -20q-242 0 -384 144q-141 144 -141 427t163 427q140 124 376 124q237 0 364 -163q126 -163 126 -444v-8h-734q0 -221 138 -295q45 -24 113 -24t125 32t77 97l265 -23q-75 -194 -289 -266
q-84 -28 -199 -28zM478 1184v31l252 243h258v-43l-340 -231h-170z" />
    <glyph glyph-name="ecircumflex" unicode="&#xea;" 
d="M466 860q-65 -65 -69 -197h460q-8 125 -71 193q-63 69 -159 69t-161 -65zM625 -20q-242 0 -384 144q-141 144 -141 427t163 427q140 124 376 124q237 0 364 -163q126 -163 126 -444v-8h-734q0 -221 138 -295q45 -24 113 -24t125 32t77 97l265 -23q-75 -194 -289 -266
q-84 -28 -199 -28zM990 1183h-159l-203 134h-4l-211 -134h-160v28l258 250h229l250 -250v-28z" />
    <glyph glyph-name="edieresis" unicode="&#xeb;" 
d="M466 860q-65 -65 -69 -197h460q-8 125 -71 193q-63 69 -159 69t-161 -65zM625 -20q-242 0 -384 144q-141 144 -141 427t163 427q140 124 376 124q237 0 364 -163q126 -163 126 -444v-8h-734q0 -221 138 -295q45 -24 113 -24t125 32t77 97l265 -23q-75 -194 -289 -266
q-84 -28 -199 -28zM297 1219v219h224v-219h-224zM721 1219v219h227v-219h-227z" />
    <glyph glyph-name="igrave" unicode="&#xec;" 
d="M794 190h353v-190h-1029v190h395v702h-290v190h571v-892zM280 1458h258l252 -243v-31h-170l-340 231v43z" />
    <glyph glyph-name="iacute" unicode="&#xed;" 
d="M794 190h353v-190h-1029v190h395v702h-290v190h571v-892zM471 1184v31l252 243h258v-43l-340 -231h-170z" />
    <glyph glyph-name="icircumflex" unicode="&#xee;" 
d="M794 190h353v-190h-1029v190h395v702h-290v190h571v-892zM993 1183h-159l-203 134h-4l-211 -134h-160v28l258 250h229l250 -250v-28z" />
    <glyph glyph-name="idieresis" unicode="&#xef;" 
d="M794 190h353v-190h-1029v190h395v702h-290v190h571v-892zM330 1219v219h224v-219h-224zM754 1219v219h227v-219h-227z" />
    <glyph glyph-name="eth" unicode="&#xf0;" 
d="M379 477q0 -307 223 -307q126 0 182.5 73t56.5 234q0 160 -53.5 234.5t-175.5 74.5t-177.5 -75.5t-55.5 -233.5zM1135 541v-4q0 -397 -195.5 -477t-329.5 -80q-258 0 -392 136t-134 363q0 352 194.5 426t302.5 74t164 -20q-57 119 -141 217l-235 -102l-77 155l186 79
q-88 71 -258 176h293q96 -48 160 -94l249 109l83 -154l-185 -79q315 -320 315 -725z" />
    <glyph glyph-name="ntilde" unicode="&#xf1;" 
d="M768 1103q336 0 336 -416v-687h-280v619q0 141 -38 207t-137 66q-98 0 -162 -88q-63 -88 -63 -224v-580h-281v840q0 190 -8 242h268q13 -78 13 -215h4q57 124 143 180t205 56zM794 1183q-46 -1 -92 17q-44 18 -86 40t-80 38q-38 18 -65 18q-51 0 -71 -26t-29 -87h-137
q9 118 33 164q25 47 49 69q54 50 132 50t188 -56q42 -22 78 -40t64 -17q50 0 71 27t30 86h135q-9 -120 -32 -165q-24 -47 -48 -69t-60 -36q-34 -14 -80 -13z" />
    <glyph glyph-name="ograve" unicode="&#xf2;" 
d="M387 542q0 -370 220 -370q125 0 180 88q56 88 56 282q-1 286 -121 346q-42 21 -102 21q-124 0 -178 -88t-55 -279zM616 1102q521 0 521 -560q-1 -398 -291 -520q-100 -42 -234 -42q-257 0 -388 151q-132 151 -132 411q0 397 286 518q100 42 238 42zM277 1458h258
l252 -243v-31h-170l-340 231v43z" />
    <glyph glyph-name="oacute" unicode="&#xf3;" 
d="M387 542q0 -370 220 -370q125 0 180 88q56 88 56 282q-1 286 -121 346q-42 21 -102 21q-124 0 -178 -88t-55 -279zM616 1102q521 0 521 -560q-1 -398 -291 -520q-100 -42 -234 -42q-257 0 -388 151q-132 151 -132 411q0 397 286 518q100 42 238 42zM468 1184v31l252 243
h258v-43l-340 -231h-170z" />
    <glyph glyph-name="ocircumflex" unicode="&#xf4;" 
d="M387 542q0 -370 220 -370q125 0 180 88q56 88 56 282q-1 286 -121 346q-42 21 -102 21q-124 0 -178 -88t-55 -279zM616 1102q521 0 521 -560q-1 -398 -291 -520q-100 -42 -234 -42q-257 0 -388 151q-132 151 -132 411q0 397 286 518q100 42 238 42zM983 1183h-159
l-203 134h-4l-211 -134h-160v28l258 250h229l250 -250v-28z" />
    <glyph glyph-name="otilde" unicode="&#xf5;" 
d="M387 542q0 -370 220 -370q125 0 180 88q56 88 56 282q-1 286 -121 346q-42 21 -102 21q-124 0 -178 -88t-55 -279zM616 1102q521 0 521 -560q-1 -398 -291 -520q-100 -42 -234 -42q-257 0 -388 151q-132 151 -132 411q0 397 286 518q100 42 238 42zM784 1183
q-46 -1 -92 17q-44 18 -86 40t-80 38q-38 18 -65 18q-51 0 -71 -26t-29 -87h-137q9 118 33 164q25 47 49 69q54 50 132 50t188 -56q42 -22 78 -40t64 -17q50 0 71 27t30 86h135q-9 -120 -32 -165q-24 -47 -48 -69t-60 -36q-34 -14 -80 -13z" />
    <glyph glyph-name="odieresis" unicode="&#xf6;" 
d="M387 542q0 -370 220 -370q125 0 180 88q56 88 56 282q-1 286 -121 346q-42 21 -102 21q-124 0 -178 -88t-55 -279zM616 1102q521 0 521 -560q-1 -398 -291 -520q-100 -42 -234 -42q-257 0 -388 151q-132 151 -132 411q0 397 286 518q100 42 238 42zM289 1219v219h224
v-219h-224zM713 1219v219h227v-219h-227z" />
    <glyph glyph-name="divide" unicode="&#xf7;" 
d="M494 170v233h238v-233h-238zM101 569v224h1027v-224h-1027zM494 961v233h238v-233h-238z" />
    <glyph glyph-name="oslash" unicode="&#xf8;" 
d="M387 542q0 -84 10 -148l387 438q-52 77 -170 77t-172.5 -88t-54.5 -279zM443 259q55 -87 172 -87t172.5 88t55.5 227t-11 211zM1137 542q0 -399 -195 -480.5t-332 -81.5q-200 0 -328 97l-85 -97l-96 78l95 107q-104 143 -104 377q0 397 193 478.5t331 81.5q205 0 329 -87
l79 89l98 -78l-87 -98q102 -140 102 -386z" />
    <glyph glyph-name="ugrave" unicode="&#xf9;" 
d="M135 395v687h281v-607q0 -203 94 -264q32 -21 77 -21q90 0 149 88t59 224v580h281v-840q0 -138 8 -242h-268q-2 12 -4 38t-4 59q-2 32 -2 64q-2 32 -2 54h-5q-107 -235 -328 -235q-176 0 -256 112t-80 303zM253 1458h258l252 -243v-31h-170l-340 231v43z" />
    <glyph glyph-name="uacute" unicode="&#xfa;" 
d="M135 395v687h281v-607q0 -203 94 -264q32 -21 77 -21q90 0 149 88t59 224v580h281v-840q0 -138 8 -242h-268q-2 12 -4 38t-4 59q-2 32 -2 64q-2 32 -2 54h-5q-107 -235 -328 -235q-176 0 -256 112t-80 303zM457 1184v31l252 243h258v-43l-340 -231h-170z" />
    <glyph glyph-name="ucircumflex" unicode="&#xfb;" 
d="M135 395v687h281v-607q0 -203 94 -264q32 -21 77 -21q90 0 149 88t59 224v580h281v-840q0 -138 8 -242h-268q-2 12 -4 38t-4 59q-2 32 -2 64q-2 32 -2 54h-5q-107 -235 -328 -235q-176 0 -256 112t-80 303zM983 1183h-159l-203 134h-4l-211 -134h-160v28l258 250h229
l250 -250v-28z" />
    <glyph glyph-name="udieresis" unicode="&#xfc;" 
d="M135 395v687h281v-607q0 -203 94 -264q32 -21 77 -21q90 0 149 88t59 224v580h281v-840q0 -138 8 -242h-268q-2 12 -4 38t-4 59q-2 32 -2 64q-2 32 -2 54h-5q-107 -235 -328 -235q-176 0 -256 112t-80 303zM289 1219v219h224v-219h-224zM713 1219v219h227v-219h-227z" />
    <glyph glyph-name="yacute" unicode="&#xfd;" 
d="M378 -180q50 40 90 143l18 48l-448 1071h297l190 -527q18 -51 41 -127t33 -110t17 -60t10 -37q2 11 9 37t15 58t19 68q10 36 25 91t22 76l180 531h294l-448 -1139q-77 -197 -170 -283q-93 -85 -247 -85q-106 0 -182 13v200q40 -8 112 -8q73 0 123 40zM474 1184v31
l252 243h258v-43l-340 -231h-170z" />
    <glyph glyph-name="thorn" unicode="&#xfe;" 
d="M844 540q0 368 -208 368q-148 0 -182 -135t-34 -235q0 -188 61.5 -277t152.5 -89q210 0 210 368zM424 -10v-415h-281v1909h281v-412q0 -64 -4 -168h4q111 199 321 199q184 0 283 -151.5t99 -406.5q0 -399 -150 -482t-250 -83q-142 0 -209 69t-94 123h-6q6 -30 6 -182z
" />
    <glyph glyph-name="ydieresis" unicode="&#xff;" 
d="M378 -180q50 40 90 143l18 48l-448 1071h297l190 -527q18 -51 41 -127t33 -110t17 -60t10 -37q2 11 9 37t15 58t19 68q10 36 25 91t22 76l180 531h294l-448 -1139q-77 -197 -170 -283q-93 -85 -247 -85q-106 0 -182 13v200q40 -8 112 -8q73 0 123 40zM294 1219v219h224
v-219h-224zM718 1219v219h227v-219h-227z" />
    <glyph glyph-name="Amacron" unicode="&#x100;" 
d="M615 1167q-19 -94 -58 -235l-108 -380h332l-108 380q-39 141 -58 235zM1229 0h-294l-92 330h-456l-92 -330h-295l443 1349h344zM310 1638h612v-168h-612v168z" />
    <glyph glyph-name="amacron" unicode="&#x101;" 
d="M399 328q0 -152 120 -152q102 0 164 80q63 80 63 190v55l-134 -2q-107 -2 -144 -25q-69 -42 -69 -146zM431 -20q-148 0 -237 85q-88 85 -88 241q0 341 417 346l223 4v55q0 165 -86 199q-28 10 -60 10q-69 0 -106 -33q-36 -33 -46 -120l-293 14q54 321 455 321
q202 0 310 -99t107 -291v-392q0 -83 13 -111q23 -49 65 -49q43 0 73 6v-152q-108 -26 -197 -26q-180 0 -200 205h-6q-89 -159 -224 -199q-50 -14 -120 -14zM301 1371h612v-168h-612v168z" />
    <glyph glyph-name="Abreve" unicode="&#x102;" 
d="M615 1167q-19 -94 -58 -235l-108 -380h332l-108 380q-39 141 -58 235zM1229 0h-294l-92 330h-456l-92 -330h-295l443 1349h344zM968 1705q-34 -278 -356 -278q-161 1 -251 73t-101 205h163q15 -121 191 -121q88 0 132 29t58 92h164z" />
    <glyph glyph-name="abreve" unicode="&#x103;" 
d="M399 328q0 -152 120 -152q102 0 164 80q63 80 63 190v55l-134 -2q-107 -2 -144 -25q-69 -42 -69 -146zM431 -20q-148 0 -237 85q-88 85 -88 241q0 341 417 346l223 4v55q0 165 -86 199q-28 10 -60 10q-69 0 -106 -33q-36 -33 -46 -120l-293 14q54 321 455 321
q202 0 310 -99t107 -291v-392q0 -83 13 -111q23 -49 65 -49q43 0 73 6v-152q-108 -26 -197 -26q-180 0 -200 205h-6q-89 -159 -224 -199q-50 -14 -120 -14zM949 1461q-34 -278 -356 -278q-161 1 -251 73t-101 205h163q15 -121 191 -121q88 0 132 29t58 92h164z" />
    <glyph glyph-name="Aogonek" unicode="&#x104;" 
d="M615 1167q-19 -94 -58 -235l-108 -380h332l-108 380q-39 141 -58 235zM1120 -271q49 0 108 27v-137q-62 -33 -132 -33q-126 0 -191 53t-65 147q0 129 109 214h-14l-92 330h-456l-92 -330h-295l443 1349h344l442 -1349h-119q-88 -80 -88 -178q0 -42 24 -68t74 -25z" />
    <glyph glyph-name="aogonek" unicode="&#x105;" 
d="M399 328q0 -152 120 -152q102 0 164 80q63 80 63 190v55l-134 -2q-107 -2 -144 -25q-69 -42 -69 -146zM965 -184q0 -98 98 -98q49 0 108 27v-137q-63 -33 -133 -33q-126 0 -190 53q-65 53 -65 147q0 137 125 225q-111 36 -127 193h-6q-89 -159 -224 -199
q-50 -14 -120 -14q-148 0 -237 85q-88 85 -88 241q0 341 417 346l223 4v55q0 165 -86 199q-28 10 -60 10q-69 0 -106 -33q-36 -33 -46 -120l-293 14q54 321 455 321q202 0 310 -99t107 -291v-392q0 -83 13 -111q23 -49 65 -49q43 0 73 6v-152q-25 -6 -52 -13t-72 -11
q-35 -31 -62 -78q-27 -48 -27 -96z" />
    <glyph glyph-name="Cacute" unicode="&#x106;" 
d="M652 1138q-272 0 -272 -457q0 -225 70 -347t209 -122q162 0 240 244l273 -52q-133 -424 -516 -424q-293 0 -435 186q-141 186 -141 515q0 689 568 689q377 0 496 -389l-272 -66q-42 159 -144 207q-34 16 -76 16zM499 1428v31l252 243h258v-43l-340 -231h-170z" />
    <glyph glyph-name="cacute" unicode="&#x107;" 
d="M622 909q-217 -1 -217 -369t221 -368q80 0 134 50t67 151l282 -13q-21 -160 -148 -270t-337 -110q-252 0 -383 150t-131 412q0 263 136 411q136 149 382 149q200 0 322 -100t151 -261l-283 -14q-12 83 -60 133t-136 49zM469 1184v31l252 243h258v-43l-340 -231h-170z" />
    <glyph glyph-name="Ccircumflex" unicode="&#x108;" 
d="M652 1138q-272 0 -272 -457q0 -225 70 -347t209 -122q162 0 240 244l273 -52q-133 -424 -516 -424q-293 0 -435 186q-141 186 -141 515q0 689 568 689q377 0 496 -389l-272 -66q-42 159 -144 207q-34 16 -76 16zM1003 1427h-159l-203 134h-4l-211 -134h-160v28l258 250
h229l250 -250v-28z" />
    <glyph glyph-name="ccircumflex" unicode="&#x109;" 
d="M622 909q-217 -1 -217 -369t221 -368q80 0 134 50t67 151l282 -13q-21 -160 -148 -270t-337 -110q-252 0 -383 150t-131 412q0 263 136 411q136 149 382 149q200 0 322 -100t151 -261l-283 -14q-12 83 -60 133t-136 49zM983 1183h-159l-203 134h-4l-211 -134h-160v28
l258 250h229l250 -250v-28z" />
    <glyph glyph-name="Cdotaccent" unicode="&#x10a;" 
d="M652 1138q-272 0 -272 -457q0 -225 70 -347t209 -122q162 0 240 244l273 -52q-133 -424 -516 -424q-293 0 -435 186q-141 186 -141 515q0 689 568 689q377 0 496 -389l-272 -66q-42 159 -144 207q-34 16 -76 16zM504 1431v207h281v-207h-281z" />
    <glyph glyph-name="cdotaccent" unicode="&#x10b;" 
d="M622 909q-217 -1 -217 -369t221 -368q80 0 134 50t67 151l282 -13q-21 -160 -148 -270t-337 -110q-252 0 -383 150t-131 412q0 263 136 411q136 149 382 149q200 0 322 -100t151 -261l-283 -14q-12 83 -60 133t-136 49zM494 1277v207h281v-207h-281z" />
    <glyph glyph-name="Ccaron" unicode="&#x10c;" 
d="M652 1138q-272 0 -272 -457q0 -225 70 -347t209 -122q162 0 240 244l273 -52q-133 -424 -516 -424q-293 0 -435 186q-141 186 -141 515q0 689 568 689q377 0 496 -389l-272 -66q-42 159 -144 207q-34 16 -76 16zM263 1705h160l211 -134h4l203 134h159v-29l-250 -249h-229
l-258 249v29z" />
    <glyph glyph-name="ccaron" unicode="&#x10d;" 
d="M622 909q-217 -1 -217 -369t221 -368q80 0 134 50t67 151l282 -13q-21 -160 -148 -270t-337 -110q-252 0 -383 150t-131 412q0 263 136 411q136 149 382 149q200 0 322 -100t151 -261l-283 -14q-12 83 -60 133t-136 49zM242 1461h160l211 -134h4l203 134h159v-29
l-250 -249h-229l-258 249v29z" />
    <glyph glyph-name="Dcaron" unicode="&#x10e;" 
d="M532 228q320 0 320 457q0 339 -201 411q-68 24 -160 25h-61v-893h102zM1149 688q0 -335 -155 -512q-155 -176 -438 -176h-421v1349h361q653 1 653 -661zM217 1705h160l211 -134h4l203 134h159v-29l-250 -249h-229l-258 249v29z" />
    <glyph glyph-name="dcaron" unicode="&#x10f;" 
d="M971 1129v33l29 322h231v-37l-121 -318h-139zM577.5 824q-49.5 85 -111.5 85q-107 0 -130 -135.5t-23 -230.5q0 -180 41.5 -275.5t105.5 -95.5t115.5 89.5t51.5 283.5t-49.5 279zM625 176h-4q-53 -107 -117.5 -151.5t-144.5 -44.5q-155 0 -243 156.5t-88 405.5t89 403.5
t254 154.5t252 -191h2l-1 19l-1 159v397h271v-1248q0 -100 8 -236h-262q-15 60 -15 176z" />
    <glyph glyph-name="Dcroat" unicode="&#x110;" 
d="M545 228q320 0 320 457q0 339 -201 411q-68 24 -160 25h-61v-338h207v-219h-207v-336h102zM1162 688q0 -335 -155 -512q-155 -176 -438 -176h-421v564h-134v219h134v566h361q653 1 653 -661z" />
    <glyph glyph-name="dcroat" unicode="&#x111;" 
d="M385 524q0 -352 201 -352q141 0 177 125t36 233q0 196 -62 271.5t-149 75.5q-203 -1 -203 -353zM795 1180h-282v169h282v135h281v-135h133v-169h-133v-944q0 -100 8 -236h-272q-15 60 -15 176h-4q-53 -107 -131 -151.5t-179 -44.5q-191 0 -291 147t-100 396
q0 391 147.5 468t248.5 77q221 0 307 -191h2l-1 23l-1 187v93z" />
    <glyph glyph-name="Emacron" unicode="&#x112;" 
d="M137 0v1349h968v-228h-673v-324h612v-228h-612v-341h714v-228h-1009zM326 1638h612v-168h-612v168z" />
    <glyph glyph-name="emacron" unicode="&#x113;" 
d="M466 860q-65 -65 -69 -197h460q-8 125 -71 193q-63 69 -159 69t-161 -65zM625 -20q-242 0 -384 144q-141 144 -141 427t163 427q140 124 376 124q237 0 364 -163q126 -163 126 -444v-8h-734q0 -221 138 -295q45 -24 113 -24t125 32t77 97l265 -23q-75 -194 -289 -266
q-84 -28 -199 -28zM310 1371h612v-168h-612v168z" />
    <glyph glyph-name="Ebreve" unicode="&#x114;" 
d="M137 0v1349h968v-228h-673v-324h612v-228h-612v-341h714v-228h-1009zM968 1705q-34 -278 -356 -278q-161 1 -251 73t-101 205h163q15 -121 191 -121q88 0 132 29t58 92h164z" />
    <glyph glyph-name="ebreve" unicode="&#x115;" 
d="M466 860q-65 -65 -69 -197h460q-8 125 -71 193q-63 69 -159 69t-161 -65zM625 -20q-242 0 -384 144q-141 144 -141 427t163 427q140 124 376 124q237 0 364 -163q126 -163 126 -444v-8h-734q0 -221 138 -295q45 -24 113 -24t125 32t77 97l265 -23q-75 -194 -289 -266
q-84 -28 -199 -28zM972 1461q-34 -278 -356 -278q-161 1 -251 73t-101 205h163q15 -121 191 -121q88 0 132 29t58 92h164z" />
    <glyph glyph-name="Edotaccent" unicode="&#x116;" 
d="M137 0v1349h968v-228h-673v-324h612v-228h-612v-341h714v-228h-1009zM474 1431v207h281v-207h-281z" />
    <glyph glyph-name="edotaccent" unicode="&#x117;" 
d="M466 860q-65 -65 -69 -197h460q-8 125 -71 193q-63 69 -159 69t-161 -65zM625 -20q-242 0 -384 144q-141 144 -141 427t163 427q140 124 376 124q237 0 364 -163q126 -163 126 -444v-8h-734q0 -221 138 -295q45 -24 113 -24t125 32t77 97l265 -23q-75 -194 -289 -266
q-84 -28 -199 -28zM476 1277v207h281v-207h-281z" />
    <glyph glyph-name="Eogonek" unicode="&#x118;" 
d="M933 -184q0 -98 98 -98q49 0 108 27v-137q-63 -33 -133 -33q-126 0 -190 53q-65 53 -65 147q0 137 124 225h-738v1349h968v-228h-673v-324h612v-228h-612v-341h714v-228h-112q-42 -35 -72 -85q-29 -51 -29 -99z" />
    <glyph glyph-name="eogonek" unicode="&#x119;" 
d="M466 860q-65 -65 -69 -197h460q-8 125 -71 193q-63 69 -159 69t-161 -65zM664 -184q0 -98 98 -98q49 0 108 27v-137q-62 -33 -132 -33q-256 0 -256 213q0 108 100 193q-336 19 -444 315q-38 106 -38 256q0 282 163 426q140 124 376 124q237 0 364 -163q126 -163 126 -444
v-8h-734q0 -221 138 -295q45 -24 113 -24t125 32t77 97l265 -23q-75 -194 -289 -266q-33 -11 -71 -18q-35 -31 -62 -78q-27 -48 -27 -96z" />
    <glyph glyph-name="Ecaron" unicode="&#x11a;" 
d="M137 0v1349h968v-228h-673v-324h612v-228h-612v-341h714v-228h-1009zM257 1705h160l211 -134h4l203 134h159v-29l-250 -249h-229l-258 249v29z" />
    <glyph glyph-name="ecaron" unicode="&#x11b;" 
d="M466 860q-65 -65 -69 -197h460q-8 125 -71 193q-63 69 -159 69t-161 -65zM625 -20q-242 0 -384 144q-141 144 -141 427t163 427q140 124 376 124q237 0 364 -163q126 -163 126 -444v-8h-734q0 -221 138 -295q45 -24 113 -24t125 32t77 97l265 -23q-75 -194 -289 -266
q-84 -28 -199 -28zM239 1461h160l211 -134h4l203 134h159v-29l-250 -249h-229l-258 249v29z" />
    <glyph glyph-name="Gcircumflex" unicode="&#x11c;" 
d="M1128 185q-243 -205 -504 -205t-403 191q-141 191 -141 510q0 689 558 689q278 0 400 -222q38 -69 62 -153l-274 -54q-53 197 -185 197q-206 0 -248 -260q-14 -86 -14 -197q0 -465 271 -465q118 0 208 74v235h-274v218h544v-558zM983 1427h-159l-203 134h-4l-211 -134
h-160v28l258 250h229l250 -250v-28z" />
    <glyph glyph-name="gcircumflex" unicode="&#x11d;" 
d="M831 554q0 187 -63 270q-63 82 -146 82q-205 0 -205 -356q0 -174 54 -258t149 -85q139 1 191 177q20 66 20 170zM1108 832v-799q0 -231 -129 -349t-363 -118q-288 0 -400 174q-34 54 -47 117l281 33q15 -65 62 -103q46 -38 100 -38q216 0 217 288v59l2 115h-2
q-93 -199 -328 -199q-185 0 -281 144t-96 394q0 394 223 510q75 39 175 39q217 0 307 -191h5q0 125 14 174h266q-6 -108 -6 -250zM974 1183h-159l-203 134h-4l-211 -134h-160v28l258 250h229l250 -250v-28z" />
    <glyph glyph-name="Gbreve" unicode="&#x11e;" 
d="M1128 185q-243 -205 -504 -205t-403 191q-141 191 -141 510q0 689 558 689q278 0 400 -222q38 -69 62 -153l-274 -54q-53 197 -185 197q-206 0 -248 -260q-14 -86 -14 -197q0 -465 271 -465q118 0 208 74v235h-274v218h544v-558zM971 1705q-34 -278 -356 -278
q-161 1 -251 73t-101 205h163q15 -121 191 -121q88 0 132 29t58 92h164z" />
    <glyph glyph-name="gbreve" unicode="&#x11f;" 
d="M831 554q0 187 -63 270q-63 82 -146 82q-205 0 -205 -356q0 -174 54 -258t149 -85q139 1 191 177q20 66 20 170zM1108 832v-799q0 -231 -129 -349t-363 -118q-288 0 -400 174q-34 54 -47 117l281 33q15 -65 62 -103q46 -38 100 -38q216 0 217 288v59l2 115h-2
q-93 -199 -328 -199q-185 0 -281 144t-96 394q0 394 223 510q75 39 175 39q217 0 307 -191h5q0 125 14 174h266q-6 -108 -6 -250zM959 1461q-34 -278 -356 -278q-161 1 -251 73t-101 205h163q15 -121 191 -121q88 0 132 29t58 92h164z" />
    <glyph glyph-name="Gdotaccent" unicode="&#x120;" 
d="M1128 185q-243 -205 -504 -205t-403 191q-141 191 -141 510q0 689 558 689q278 0 400 -222q38 -69 62 -153l-274 -54q-53 197 -185 197q-206 0 -248 -260q-14 -86 -14 -197q0 -465 271 -465q118 0 208 74v235h-274v218h544v-558zM484 1431v207h281v-207h-281z" />
    <glyph glyph-name="gdotaccent" unicode="&#x121;" 
d="M831 554q0 187 -63 270q-63 82 -146 82q-205 0 -205 -356q0 -174 54 -258t149 -85q139 1 191 177q20 66 20 170zM1108 832v-799q0 -231 -129 -349t-363 -118q-288 0 -400 174q-34 54 -47 117l281 33q15 -65 62 -103q46 -38 100 -38q216 0 217 288v59l2 115h-2
q-93 -199 -328 -199q-185 0 -281 144t-96 394q0 394 223 510q75 39 175 39q217 0 307 -191h5q0 125 14 174h266q-6 -108 -6 -250zM465 1277v207h281v-207h-281z" />
    <glyph glyph-name="Gcommaaccent" unicode="&#x122;" 
d="M1128 185q-243 -205 -504 -205t-403 191q-141 191 -141 510q0 689 558 689q278 0 400 -222q38 -69 62 -153l-274 -54q-53 197 -185 197q-206 0 -248 -260q-14 -86 -14 -197q0 -465 271 -465q118 0 208 74v235h-274v218h544v-558zM435 -453v33l89 322h257v-37l-181 -318
h-165z" />
    <glyph glyph-name="gcommaaccent" unicode="&#x123;" 
d="M831 554q0 187 -63 270q-63 82 -146 82q-205 0 -205 -356q0 -174 54 -258t149 -85q139 1 191 177q20 66 20 170zM1108 832v-799q0 -231 -129 -349t-363 -118q-288 0 -400 174q-34 54 -47 117l281 33q15 -65 62 -103q46 -38 100 -38q216 0 217 288v59l2 115h-2
q-93 -199 -328 -199q-185 0 -281 144t-96 394q0 394 223 510q75 39 175 39q217 0 307 -191h5q0 125 14 174h266q-6 -108 -6 -250zM790 1566v-33l-89 -322h-257v37l181 318h165z" />
    <glyph glyph-name="Hcircumflex" unicode="&#x124;" 
d="M796 0v574h-363v-574h-295v1349h295v-531h363v531h295v-1349h-295zM983 1427h-159l-203 134h-4l-211 -134h-160v28l258 250h229l250 -250v-28z" />
    <glyph glyph-name="hcircumflex" unicode="&#x125;" 
d="M983 1427h-159l-203 134h-4l-211 -134h-160v28l258 250h229l250 -250v-28zM420 866q108 236 338 236q194 0 270 -111.5t76 -304.5v-686h-280v621q0 137 -26 185t-60 66.5t-86 18.5q-102 0 -165 -87t-63 -225v-579h-281v1349h281v-270q0 -109 -8 -213h4z" />
    <glyph glyph-name="Hbar" unicode="&#x126;" 
d="M796 818v186h-363v-186h363zM796 0v574h-363v-574h-295v1004h-136v168h136v177h295v-177h363v177h295v-177h135v-168h-135v-1004h-295z" />
    <glyph glyph-name="hbar" unicode="&#x127;" 
d="M420 826q108 236 338 236q194 0 270 -111.5t76 -304.5v-646h-280v581q0 137 -26 185t-60 66.5t-86 18.5q-102 0 -165 -87t-63 -225v-539h-281v1180h-134v169h134v135h281v-135h300v-169h-300v-141q0 -109 -8 -213h4z" />
    <glyph glyph-name="Itilde" unicode="&#x128;" 
d="M157 1349h916v-228h-311v-893h311v-228h-916v228h311v893h-311v228zM784 1422q-46 0 -92 18q-44 18 -86 38q-42 22 -80 40t-65 17q-51 0 -71 -26t-29 -87h-137q9 118 33 164q25 48 49 70q54 50 132 49t188 -57q42 -22 78 -38q36 -18 64 -18q50 0 71 27t30 86h135
q-9 -120 -32 -165q-24 -46 -48 -68t-60 -36q-34 -14 -80 -14z" />
    <glyph glyph-name="itilde" unicode="&#x129;" 
d="M794 190h353v-190h-1029v190h395v702h-290v190h571v-892zM784 1183q-46 -1 -90 17t-87 40q-41 22 -79 38q-38 18 -66 18q-51 0 -71 -26t-29 -87h-137q9 118 33 164q24 47 48 69q54 50 133 50q78 0 188 -56q43 -22 79 -40t63 -17q50 0 71 27t30 86h135q-9 -120 -32 -165
q-25 -47 -49 -69t-58 -36q-36 -14 -82 -13z" />
    <glyph glyph-name="Imacron" unicode="&#x12a;" 
d="M157 1349h916v-228h-311v-893h311v-228h-916v228h311v893h-311v228zM310 1638h612v-168h-612v168z" />
    <glyph glyph-name="imacron" unicode="&#x12b;" 
d="M794 190h353v-190h-1029v190h395v702h-290v190h571v-892zM316 1371h612v-168h-612v168z" />
    <glyph glyph-name="Ibreve" unicode="&#x12c;" 
d="M157 1349h916v-228h-311v-893h311v-228h-916v228h311v893h-311v228zM968 1705q-34 -278 -356 -278q-161 1 -251 73t-101 205h163q15 -121 191 -121q88 0 132 29t58 92h164z" />
    <glyph glyph-name="ibreve" unicode="&#x12d;" 
d="M794 190h353v-190h-1029v190h395v702h-290v190h571v-892zM988 1461q-34 -278 -356 -278q-161 1 -251 73t-101 205h163q15 -121 191 -121q88 0 132 29t58 92h164z" />
    <glyph glyph-name="Iogonek" unicode="&#x12e;" 
d="M615 -184q0 -98 98 -98q49 0 108 27v-137q-63 -33 -133 -33q-126 0 -190 53q-65 53 -65 147q0 137 124 225h-400v228h311v893h-311v228h916v-228h-311v-893h311v-228h-357q-42 -35 -72 -85q-29 -51 -29 -99z" />
    <glyph glyph-name="iogonek" unicode="&#x12f;" 
d="M513 1277v207h281v-207h-281zM658 -184q0 -98 98 -98q49 0 108 27v-137q-62 -33 -132 -33q-126 0 -191 53t-65 147q0 137 124 225h-482v190h395v702h-290v190h571v-892h353v-190h-388q-42 -35 -72 -85q-29 -51 -29 -99z" />
    <glyph glyph-name="Idotaccent" unicode="&#x130;" 
d="M157 1349h916v-228h-311v-893h311v-228h-916v228h311v893h-311v228zM474 1431v207h281v-207h-281z" />
    <glyph glyph-name="dotlessi" unicode="&#x131;" 
d="M794 190h353v-190h-1029v190h395v702h-290v190h571v-892z" />
    <glyph glyph-name="IJ" unicode="&#x132;" 
d="M1159 446q0 -466 -375 -466q-261 0 -310 141t-57 239l264 38q11 -110 31.5 -141t38.5 -38.5t40 -7.5q46 0 64 47t18 156v704h-254v231h540v-903zM73 1349h284v-1349h-284v1349z" />
    <glyph glyph-name="ij" unicode="&#x133;" 
d="M772 1277v207h281v-207h-281zM527 -206q85 0 164.5 18.5t79.5 197.5v1072h282v-1095q0 -206 -132 -309t-316 -103t-299 43v210q136 -34 221 -34zM170 1277v207h281v-207h-281zM451 0h-281v1082h281v-1082z" />
    <glyph glyph-name="Jcircumflex" unicode="&#x134;" 
d="M393 445q40 -234 178 -234q68 0 111 59t43 169v679h-301v231h595v-903q0 -217 -120 -341q-121 -125 -331 -125q-201 0 -318 109t-148 313zM1103 1427h-159l-203 134h-4l-211 -134h-160v28l258 250h229l250 -250v-28z" />
    <glyph glyph-name="jcircumflex" unicode="&#x135;" 
d="M400 -206q85 0 122 8q122 28 122 208v882h-354v190h636v-1095q0 -206 -132 -309t-316 -103t-299 43v210q136 -34 221 -34zM1086 1183h-159l-203 134h-4l-211 -134h-160v28l258 250h229l250 -250v-28z" />
    <glyph glyph-name="Kcommaaccent" unicode="&#x136;" 
d="M431 0h-295v1349h295v-599l436 599h343l-460 -579l479 -770h-348l-323 557l-127 -142v-415zM435 -453v33l89 322h257v-37l-181 -318h-165z" />
    <glyph glyph-name="kcommaaccent" unicode="&#x137;" 
d="M454 0h-281v1484h281v-850l386 448h302l-380 -422l409 -660h-307l-289 490l-121 -84v-406zM435 -453v33l89 322h257v-37l-181 -318h-165z" />
    <glyph glyph-name="kgreenlandic" unicode="&#x138;" 
d="M454 0h-281v1082h281v-468l386 468h302l-380 -442l409 -640h-307l-289 470l-121 -84v-386z" />
    <glyph glyph-name="Lacute" unicode="&#x139;" 
d="M211 0v1349h295v-1121h616v-228h-911zM269 1429v31l252 243h258v-43l-340 -231h-170z" />
    <glyph glyph-name="lacute" unicode="&#x13a;" 
d="M496 1431v31l252 243h258v-43l-340 -231h-170zM794 190h353v-190h-1029v190h395v969h-290v190h571v-1159z" />
    <glyph glyph-name="Lcommaaccent" unicode="&#x13b;" 
d="M211 0v1349h295v-1121h616v-228h-911zM445 -453v33l89 322h257v-37l-181 -318h-165z" />
    <glyph glyph-name="lcommaaccent" unicode="&#x13c;" 
d="M794 190h353v-190h-1029v190h395v1104h-290v190h571v-1294zM435 -453v33l89 322h257v-37l-181 -318h-165z" />
    <glyph glyph-name="Lcaron" unicode="&#x13d;" 
d="M211 0v1349h295v-1121h616v-228h-911zM755 994v33l89 322h257v-37l-181 -318h-165z" />
    <glyph glyph-name="lcaron" unicode="&#x13e;" 
d="M745 190h353v-190h-1029v190h395v1104h-290v190h571v-1294zM855 1129v33l89 322h257v-37l-181 -318h-165z" />
    <glyph glyph-name="Ldot" unicode="&#x13f;" 
d="M211 0v1349h295v-1121h616v-228h-911zM660 593v207h281v-207h-281z" />
    <glyph glyph-name="ldot" unicode="&#x140;" 
d="M794 190h353v-190h-1029v190h395v1104h-290v190h571v-1294zM890 593v207h281v-207h-281z" />
    <glyph glyph-name="Lslash" unicode="&#x141;" 
d="M221 1349h295v-539l246 128l92 -181l-338 -177v-352h616v-228h-911v426l-124 -64l-97 181l221 114v692z" />
    <glyph glyph-name="lslash" unicode="&#x142;" 
d="M794 190h353v-190h-1029v190h395v397l-196 -112l-85 154l281 160v505h-290v190h571v-534l211 121l83 -155l-294 -168v-558z" />
    <glyph glyph-name="Nacute" unicode="&#x143;" 
d="M392 656v-656h-257v1349h337l393 -1037q-28 234 -28 365v672h257v-1349h-346l-384 1010q28 -252 28 -354zM489 1429v31l252 243h258v-43l-340 -231h-170z" />
    <glyph glyph-name="nacute" unicode="&#x144;" 
d="M768 1103q336 0 336 -416v-687h-280v619q0 141 -38 207t-137 66q-98 0 -162 -88q-63 -88 -63 -224v-580h-281v840q0 190 -8 242h268q13 -78 13 -215h4q57 124 143 180t205 56zM504 1184v31l252 243h258v-43l-340 -231h-170z" />
    <glyph glyph-name="Ncommaaccent" unicode="&#x145;" 
d="M392 656v-656h-257v1349h337l393 -1037q-28 234 -28 365v672h257v-1349h-346l-384 1010q28 -252 28 -354zM404 -453v33l89 322h257v-37l-181 -318h-165z" />
    <glyph glyph-name="ncommaaccent" unicode="&#x146;" 
d="M768 1103q336 0 336 -416v-687h-280v619q0 141 -38 207t-137 66q-98 0 -162 -88q-63 -88 -63 -224v-580h-281v840q0 190 -8 242h268q13 -78 13 -215h4q57 124 143 180t205 56zM408 -453v33l89 322h257v-37l-181 -318h-165z" />
    <glyph glyph-name="Ncaron" unicode="&#x147;" 
d="M392 656v-656h-257v1349h337l393 -1037q-28 234 -28 365v672h257v-1349h-346l-384 1010q28 -252 28 -354zM242 1705h160l211 -134h4l203 134h159v-29l-250 -249h-229l-258 249v29z" />
    <glyph glyph-name="ncaron" unicode="&#x148;" 
d="M768 1103q336 0 336 -416v-687h-280v619q0 141 -38 207t-137 66q-98 0 -162 -88q-63 -88 -63 -224v-580h-281v840q0 190 -8 242h268q13 -78 13 -215h4q57 124 143 180t205 56zM246 1461h160l211 -134h4l203 134h159v-29l-250 -249h-229l-258 249v29z" />
    <glyph glyph-name="napostrophe" unicode="&#x149;" 
d="M0 995v33l89 322h257v-37l-181 -318h-165zM869 1103q316 0 316 -416v-687h-280v619q0 142 -36 207.5t-120 65.5t-144 -88t-60 -224v-580h-281v840q0 190 -8 242h268q13 -78 13 -215h4q109 236 328 236z" />
    <glyph glyph-name="Eng" unicode="&#x14a;" 
d="M412 1098h4q54 125 157.5 198t200.5 73q187 0 274 -119.5t87 -380.5v-367q0 -387 -131.5 -454.5t-215.5 -67.5q-147 0 -219.5 65.5t-107.5 188.5l209 68q16 -58 36 -79t48 -21q52 0 71.5 60.5t19.5 212.5v373q0 171 -35.5 231.5t-128.5 60.5t-181 -128t-88 -303v-709
h-295v1032q0 229 -4 317h288q11 -121 11 -251z" />
    <glyph glyph-name="eng" unicode="&#x14b;" 
d="M1104 -128q0 -297 -299 -297q-89 0 -158 9v198q26 -4 58 -4q69 0 94 34t25 128v679q0 141 -38.5 207t-136.5 66t-161.5 -87.5t-63.5 -224.5v-580h-281v840q0 190 -8 242h268q13 -78 13 -215h4q57 124 143 180t205 56q336 0 336 -416v-815z" />
    <glyph glyph-name="Omacron" unicode="&#x14c;" 
d="M614 212q244 0 244 463t-244 463t-243 -463q-1 -463 243 -463zM1157 679q0 -345 -140 -522t-402 -177q-263 0 -403 177t-140 522t140 518t403 173q262 0 402 -173t140 -518zM310 1638h612v-168h-612v168z" />
    <glyph glyph-name="omacron" unicode="&#x14d;" 
d="M387 542q0 -370 220 -370q125 0 180 88q56 88 56 282q-1 286 -121 346q-42 21 -102 21q-124 0 -178 -88t-55 -279zM616 1102q521 0 521 -560q-1 -398 -291 -520q-100 -42 -234 -42q-257 0 -388 151q-132 151 -132 411q0 397 286 518q100 42 238 42zM310 1371h612v-168
h-612v168z" />
    <glyph glyph-name="Obreve" unicode="&#x14e;" 
d="M614 212q244 0 244 463t-244 463t-243 -463q-1 -463 243 -463zM1157 679q0 -345 -140 -522t-402 -177q-263 0 -403 177t-140 522t140 518t403 173q262 0 402 -173t140 -518zM968 1705q-34 -278 -356 -278q-161 1 -251 73t-101 205h163q15 -121 191 -121q88 0 132 29
t58 92h164z" />
    <glyph glyph-name="obreve" unicode="&#x14f;" 
d="M387 542q0 -370 220 -370q125 0 180 88q56 88 56 282q-1 286 -121 346q-42 21 -102 21q-124 0 -178 -88t-55 -279zM616 1102q521 0 521 -560q-1 -398 -291 -520q-100 -42 -234 -42q-257 0 -388 151q-132 151 -132 411q0 397 286 518q100 42 238 42zM968 1461
q-34 -278 -356 -278q-161 1 -251 73t-101 205h163q15 -121 191 -121q88 0 132 29t58 92h164z" />
    <glyph glyph-name="Ohungarumlaut" unicode="&#x150;" 
d="M614 212q244 0 244 463t-244 463t-243 -463q-1 -463 243 -463zM1157 679q0 -345 -140 -522t-402 -177q-263 0 -403 177t-140 522t140 518t403 173q262 0 402 -173t140 -518zM707 1426v34l225 245h235v-43l-318 -236h-142zM301 1426v34l225 245h235v-43l-318 -236h-142z
" />
    <glyph glyph-name="ohungarumlaut" unicode="&#x151;" 
d="M387 542q0 -370 220 -370q125 0 180 88q56 88 56 282q-1 286 -121 346q-42 21 -102 21q-124 0 -178 -88t-55 -279zM616 1102q521 0 521 -560q-1 -398 -291 -520q-100 -42 -234 -42q-257 0 -388 151q-132 151 -132 411q0 397 286 518q100 42 238 42zM726 1182v34l225 245
h235v-43l-318 -236h-142zM320 1182v34l225 245h235v-43l-318 -236h-142z" />
    <glyph glyph-name="OE" unicode="&#x152;" 
d="M520 1159q-110 0 -169 -104t-59 -374q0 -390 90 -440.5t143 -50.5t81 6v957q-37 6 -86 6zM521 -5q-255 0 -373 169t-118 521t121 511t372 159q38 0 89 -6h558v-202h-313v-355h287v-200h-287v-390h354v-202h-612q-58 -5 -78 -5z" />
    <glyph glyph-name="oe" unicode="&#x153;" 
d="M880 914q-60 0 -101 -52.5t-45 -201.5h264q-8 141 -29 184.5t-42 56.5t-47 13zM321 914q-84 0 -84 -325q0 -253 34.5 -337t95.5 -84q156 0 156 337t-59 373t-143 36zM1204 527v-43h-472q0 -221 55.5 -267.5t99.5 -46.5q82 0 110 131l178 -45q-67 -276 -293 -276
q-182 0 -263 183q-83 -183 -266 -183q-236 0 -280.5 209.5t-44.5 352.5q0 279 85 419.5t247 140.5q187 0 266 -177q85 177 259 177q319 0 319 -575z" />
    <glyph glyph-name="Racute" unicode="&#x154;" 
d="M608 744q252 0 252 193q0 143 -150 173q-48 10 -110 10h-168v-376h176zM432 515v-515h-295v1349h494q264 0 395 -103t131 -306q0 -202 -167 -308q-51 -32 -112 -51l349 -581h-332l-290 515h-173zM439 1429v31l252 243h258v-43l-340 -231h-170z" />
    <glyph glyph-name="racute" unicode="&#x155;" 
d="M877 867q-170 0 -258 -122q-89 -122 -89 -307v-438h-280v701q0 173 -52 381h271q36 -130 46 -228h4q91 248 334 248q126 0 228 -17v-237q-112 19 -204 19zM456 1184v31l252 243h258v-43l-340 -231h-170z" />
    <glyph glyph-name="Rcommaaccent" unicode="&#x156;" 
d="M608 744q252 0 252 193q0 143 -150 173q-48 10 -110 10h-168v-376h176zM432 515v-515h-295v1349h494q264 0 395 -103t131 -306q0 -202 -167 -308q-51 -32 -112 -51l349 -581h-332l-290 515h-173zM432 -453v33l89 322h257v-37l-181 -318h-165z" />
    <glyph glyph-name="rcommaaccent" unicode="&#x157;" 
d="M877 867q-170 0 -258 -122q-89 -122 -89 -307v-438h-280v701q0 173 -52 381h271q36 -130 46 -228h4q91 248 334 248q126 0 228 -17v-237q-112 19 -204 19zM163 -453v33l89 322h257v-37l-181 -318h-165z" />
    <glyph glyph-name="Rcaron" unicode="&#x158;" 
d="M608 744q252 0 252 193q0 143 -150 173q-48 10 -110 10h-168v-376h176zM432 515v-515h-295v1349h494q264 0 395 -103t131 -306q0 -202 -167 -308q-51 -32 -112 -51l349 -581h-332l-290 515h-173zM227 1705h160l211 -134h4l203 134h159v-29l-250 -249h-229l-258 249v29z
" />
    <glyph glyph-name="rcaron" unicode="&#x159;" 
d="M877 867q-170 0 -258 -122q-89 -122 -89 -307v-438h-280v701q0 173 -52 381h271q36 -130 46 -228h4q91 248 334 248q126 0 228 -17v-237q-112 19 -204 19zM266 1461h160l211 -134h4l203 134h159v-29l-250 -249h-229l-258 249v29z" />
    <glyph glyph-name="Sacute" unicode="&#x15a;" 
d="M842 978q-44 183 -224 183q-180 1 -216 -95q-10 -28 -11 -67q1 -76 91 -123q47 -25 149 -51q103 -27 159 -43t110 -38q122 -51 194 -135q72 -83 71 -218q0 -185 -142 -298t-394 -113q-253 0 -401 99t-190 288l285 37q23 -94 96 -148t200 -55q192 -1 241 91q18 34 18 85
t-32 85t-80 58q-48 22 -107 36t-110 29q-51 13 -103 29t-100 38q-242 109 -242 324q0 200 148 297t367 97q220 0 346 -88t163 -275zM487 1429v31l252 243h258v-43l-340 -231h-170z" />
    <glyph glyph-name="sacute" unicode="&#x15b;" 
d="M976 70q-128 -90 -356 -90q-318 0 -436 154q-42 55 -63 136l247 37q23 -86 80 -113q57 -28 138 -28q140 0 200 27t60 98t-92 105q-42 16 -100 28t-124 26q-172 39 -250 93q-116 80 -116 233t119 240t339 87q282 0 400 -159q40 -55 57 -133l-249 -26q-19 107 -131 125
q-35 6 -106 6t-121 -26t-50 -74t20 -70t58 -36t90 -26q52 -10 119 -26q69 -16 141 -36q72 -22 128 -60q126 -83 126 -243q0 -159 -128 -249zM453 1184v31l252 243h258v-43l-340 -231h-170z" />
    <glyph glyph-name="Scircumflex" unicode="&#x15c;" 
d="M842 978q-44 183 -224 183q-180 1 -216 -95q-10 -28 -11 -67q1 -76 91 -123q47 -25 149 -51q103 -27 159 -43t110 -38q122 -51 194 -135q72 -83 71 -218q0 -185 -142 -298t-394 -113q-253 0 -401 99t-190 288l285 37q23 -94 96 -148t200 -55q192 -1 241 91q18 34 18 85
t-32 85t-80 58q-48 22 -107 36t-110 29q-51 13 -103 29t-100 38q-242 109 -242 324q0 200 148 297t367 97q220 0 346 -88t163 -275zM987 1427h-159l-203 134h-4l-211 -134h-160v28l258 250h229l250 -250v-28z" />
    <glyph glyph-name="scircumflex" unicode="&#x15d;" 
d="M976 70q-128 -90 -356 -90q-318 0 -436 154q-42 55 -63 136l247 37q23 -86 80 -113q57 -28 138 -28q140 0 200 27t60 98t-92 105q-42 16 -100 28t-124 26q-172 39 -250 93q-116 80 -116 233t119 240t339 87q282 0 400 -159q40 -55 57 -133l-249 -26q-19 107 -131 125
q-35 6 -106 6t-121 -26t-50 -74t20 -70t58 -36t90 -26q52 -10 119 -26q69 -16 141 -36q72 -22 128 -60q126 -83 126 -243q0 -159 -128 -249zM998 1183h-159l-203 134h-4l-211 -134h-160v28l258 250h229l250 -250v-28z" />
    <glyph glyph-name="Scedilla" unicode="&#x15e;" 
d="M842 978q-44 183 -224 183q-180 1 -216 -95q-10 -28 -11 -67q1 -76 91 -123q47 -25 149 -51q103 -27 159 -43t110 -38q122 -51 194 -135q72 -83 71 -218q0 -185 -133 -291t-359 -118l-33 -84q94 -5 140 -46q46 -42 45 -94q0 -204 -303 -203q-45 0 -101 6v118q35 -7 84 -7
q137 0 137 69t-122 69h-26q-12 0 -26 -2l63 175q-181 14 -303 96q-148 99 -190 288l285 37q23 -94 96 -148t200 -55q192 -1 241 91q18 34 18 85t-32 85t-80 58q-48 22 -107 36t-110 29q-51 13 -103 29t-100 38q-242 109 -242 324q0 200 148 297t367 97q220 0 346 -88
t163 -275z" />
    <glyph glyph-name="scedilla" unicode="&#x15f;" 
d="M652 -259q0 69 -122 69h-26q-12 0 -26 -2l63 174q-158 10 -237 54q-78 43 -120 98t-63 136l247 37q23 -86 80 -113q57 -28 138 -28q140 0 200 27t60 98t-92 105q-42 16 -100 28t-124 26q-172 39 -250 93q-116 80 -116 233t119 240t339 87q282 0 400 -159q40 -55 57 -133
l-249 -26q-19 107 -131 125q-35 6 -106 6t-121 -26t-50 -74t20 -70t58 -36t90 -26q52 -10 119 -26q189 -44 269 -96q126 -83 126 -243t-119 -243t-302 -94l-33 -84q94 -5 140 -46q46 -42 45 -94q0 -204 -303 -203q-45 0 -101 6v118q35 -7 84 -7q137 0 137 69z" />
    <glyph glyph-name="Scaron" unicode="&#x160;" 
d="M842 978q-44 183 -224 183q-180 1 -216 -95q-10 -28 -11 -67q1 -76 91 -123q47 -25 149 -51q103 -27 159 -43t110 -38q122 -51 194 -135q72 -83 71 -218q0 -185 -142 -298t-394 -113q-253 0 -401 99t-190 288l285 37q23 -94 96 -148t200 -55q192 -1 241 91q18 34 18 85
t-32 85t-80 58q-48 22 -107 36t-110 29q-51 13 -103 29t-100 38q-242 109 -242 324q0 200 148 297t367 97q220 0 346 -88t163 -275zM246 1705h160l211 -134h4l203 134h159v-29l-250 -249h-229l-258 249v29z" />
    <glyph glyph-name="scaron" unicode="&#x161;" 
d="M976 70q-128 -90 -356 -90q-318 0 -436 154q-42 55 -63 136l247 37q23 -86 80 -113q57 -28 138 -28q140 0 200 27t60 98t-92 105q-42 16 -100 28t-124 26q-172 39 -250 93q-116 80 -116 233t119 240t339 87q282 0 400 -159q40 -55 57 -133l-249 -26q-19 107 -131 125
q-35 6 -106 6t-121 -26t-50 -74t20 -70t58 -36t90 -26q52 -10 119 -26q69 -16 141 -36q72 -22 128 -60q126 -83 126 -243q0 -159 -128 -249zM251 1461h160l211 -134h4l203 134h159v-29l-250 -249h-229l-258 249v29z" />
    <glyph glyph-name="Tcommaaccent" unicode="&#x162;" 
d="M642 -259q0 69 -122 69h-26q-12 0 -26 -2l69 192h-70v1121h-406v228h1107v-228h-406v-1121h-82l-40 -102q94 -5 140 -46q46 -42 45 -94q0 -204 -303 -203q-45 0 -101 6v118q35 -7 84 -7q137 0 137 69z" />
    <glyph glyph-name="tcommaaccent" unicode="&#x163;" 
d="M652 -259q0 69 -122 69h-26q-12 0 -26 -2l69 192h23q-218 47 -240 253q-4 42 -4 83l2 556h-167v190h181l88 282h176v-282h385v-190h-385v-530q0 -94 19 -124q67 -104 410 -33v-186q-197 -32 -324 -32h-26l-35 -89q94 -5 140 -46q46 -42 45 -94q0 -204 -303 -203
q-45 0 -101 6v118q35 -7 84 -7q137 0 137 69z" />
    <glyph glyph-name="Tcaron" unicode="&#x164;" 
d="M762 1121v-1121h-295v1121h-406v228h1107v-228h-406zM246 1705h160l211 -134h4l203 134h159v-29l-250 -249h-229l-258 249v29z" />
    <glyph glyph-name="tcaron" unicode="&#x165;" 
d="M52 892v190h181l88 282h176v-282h385v-190h-385v-530q0 -94 19 -124q67 -104 410 -33v-186q-323 -51 -472 -17q-210 49 -232 251q-4 42 -5 83l2 556h-167zM885 1129v33l89 322h257v-37l-181 -318h-165z" />
    <glyph glyph-name="Tbar" unicode="&#x166;" 
d="M762 1121v-345h228v-190h-228v-586h-295v586h-227v190h227v345h-405v228h1106v-228h-406z" />
    <glyph glyph-name="tbar" unicode="&#x167;" 
d="M340 336v156h-165v190h165v210h-165v190h181l88 282h176v-282h385v-190h-385v-210h385v-190h-385v-130q0 -94 43 -161t386 4v-186q-323 -52 -503 -10t-193 164t-13 163z" />
    <glyph glyph-name="Utilde" unicode="&#x168;" 
d="M602 -20q-235 0 -354 125t-119 423v821h295v-818q0 -177 41 -249q41 -71 142 -71q152 0 186 176q12 63 12 154v808h295v-806q0 -439 -294 -533q-92 -30 -204 -30zM784 1422q-46 0 -92 18q-44 18 -86 38q-42 22 -80 40t-65 17q-51 0 -71 -26t-29 -87h-137q9 118 33 164
q25 48 49 70q54 50 132 49t188 -57q42 -22 78 -38q36 -18 64 -18q50 0 71 27t30 86h135q-9 -120 -32 -165q-24 -46 -48 -68t-60 -36q-34 -14 -80 -14z" />
    <glyph glyph-name="utilde" unicode="&#x169;" 
d="M135 395v687h281v-607q0 -203 94 -264q32 -21 77 -21q90 0 149 88t59 224v580h281v-840q0 -138 8 -242h-268q-2 12 -4 38t-4 59q-2 32 -2 64q-2 32 -2 54h-5q-107 -235 -328 -235q-176 0 -256 112t-80 303zM784 1183q-46 -1 -90 17t-87 40q-41 22 -79 38q-38 18 -66 18
q-51 0 -71 -26t-29 -87h-137q9 118 33 164q24 47 48 69q54 50 133 50q78 0 188 -56q43 -22 79 -40t63 -17q50 0 71 27t30 86h135q-9 -120 -32 -165q-25 -47 -49 -69t-58 -36q-36 -14 -82 -13z" />
    <glyph glyph-name="Umacron" unicode="&#x16a;" 
d="M602 -20q-235 0 -354 125t-119 423v821h295v-818q0 -177 41 -249q41 -71 142 -71q152 0 186 176q12 63 12 154v808h295v-806q0 -439 -294 -533q-92 -30 -204 -30zM310 1638h612v-168h-612v168z" />
    <glyph glyph-name="umacron" unicode="&#x16b;" 
d="M135 395v687h281v-607q0 -203 94 -264q32 -21 77 -21q90 0 149 88t59 224v580h281v-840q0 -138 8 -242h-268q-2 12 -4 38t-4 59q-2 32 -2 64q-2 32 -2 54h-5q-107 -235 -328 -235q-176 0 -256 112t-80 303zM310 1371h612v-168h-612v168z" />
    <glyph glyph-name="Ubreve" unicode="&#x16c;" 
d="M602 -20q-235 0 -354 125t-119 423v821h295v-818q0 -177 41 -249q41 -71 142 -71q152 0 186 176q12 63 12 154v808h295v-806q0 -439 -294 -533q-92 -30 -204 -30zM968 1705q-34 -278 -356 -278q-161 1 -251 73t-101 205h163q15 -121 191 -121q88 0 132 29t58 92h164z" />
    <glyph glyph-name="ubreve" unicode="&#x16d;" 
d="M135 395v687h281v-607q0 -203 94 -264q32 -21 77 -21q90 0 149 88t59 224v580h281v-840q0 -138 8 -242h-268q-2 12 -4 38t-4 59q-2 32 -2 64q-2 32 -2 54h-5q-107 -235 -328 -235q-176 0 -256 112t-80 303zM968 1461q-34 -278 -356 -278q-161 1 -251 73t-101 205h163
q15 -121 191 -121q88 0 132 29t58 92h164z" />
    <glyph glyph-name="Uring" unicode="&#x16e;" 
d="M602 -20q-235 0 -354 125t-119 423v821h295v-818q0 -177 41 -249q41 -71 142 -71q152 0 186 176q12 63 12 154v808h295v-806q0 -439 -294 -533q-92 -30 -204 -30zM510 1514q0 -79 104 -79q78 -1 98 45q6 12 5 26q1 12 -5 25t-18 23t-32 16t-48 7q-52 0 -78 -21t-26 -42z
M856 1506q0 -39 -15 -75t-45 -64q-30 -29 -76 -45t-106 -16t-106 16t-76 45q-30 28 -45 64t-15 75t15 75q15 35 45 63t76 44t106 17q60 -1 106 -17t76 -44t45 -63q15 -36 15 -75z" />
    <glyph glyph-name="uring" unicode="&#x16f;" 
d="M135 395v687h281v-607q0 -203 94 -264q32 -21 77 -21q90 0 149 88t59 224v580h281v-840q0 -138 8 -242h-268q-2 12 -4 38t-4 59q-2 32 -2 64q-2 32 -2 54h-5q-107 -235 -328 -235q-176 0 -256 112t-80 303zM510 1356q0 -79 104 -79q78 -1 98 45q6 12 5 26q1 12 -5 25
t-18 23t-32 16t-48 7q-52 0 -78 -21t-26 -42zM856 1348q0 -39 -15 -75t-45 -64q-30 -29 -76 -45t-106 -16t-106 16t-76 45q-30 28 -45 64t-15 75t15 75q15 35 45 63t76 44t106 17q60 -1 106 -17t76 -44t45 -63q15 -36 15 -75z" />
    <glyph glyph-name="Uhungarumlaut" unicode="&#x170;" 
d="M602 -20q-235 0 -354 125t-119 423v821h295v-818q0 -177 41 -249q41 -71 142 -71q152 0 186 176q12 63 12 154v808h295v-806q0 -439 -294 -533q-92 -30 -204 -30zM670 1426v34l225 245h235v-43l-318 -236h-142zM264 1426v34l225 245h235v-43l-318 -236h-142z" />
    <glyph glyph-name="uhungarumlaut" unicode="&#x171;" 
d="M135 395v687h281v-607q0 -203 94 -264q32 -21 77 -21q90 0 149 88t59 224v580h281v-840q0 -138 8 -242h-268q-2 12 -4 38t-4 59q-2 32 -2 64q-2 32 -2 54h-5q-107 -235 -328 -235q-176 0 -256 112t-80 303zM667 1182v34l225 245h235v-43l-318 -236h-142zM261 1182v34
l225 245h235v-43l-318 -236h-142z" />
    <glyph glyph-name="Uogonek" unicode="&#x172;" 
d="M661 -184q0 -98 98 -98q49 0 108 27v-137q-63 -33 -133 -33q-256 0 -255 213q0 108 99 192q-216 4 -324 118q-126 132 -125 430v821h295v-818q0 -177 41 -249q41 -71 142 -71q152 0 186 176q12 63 12 154v808h295v-806q0 -439 -294 -533q-24 -8 -49 -14q-39 -33 -68 -83
q-28 -49 -28 -97z" />
    <glyph glyph-name="uogonek" unicode="&#x173;" 
d="M891 -184q0 -98 98 -98q49 0 108 27v-137q-63 -33 -133 -33q-126 0 -190 53q-65 53 -65 147q0 137 124 225h-17q-2 12 -4 38t-4 59q-2 32 -2 64q-2 32 -2 54h-5q-107 -235 -328 -235q-176 0 -256 112t-80 303v687h281v-607q0 -203 94 -264q32 -21 77 -21q90 0 149 88
t59 224v580h281v-840q0 -138 8 -242h-92q-42 -35 -72 -85q-29 -51 -29 -99z" />
    <glyph glyph-name="Wcircumflex" unicode="&#x174;" 
d="M1018 0h-248l-64 267q-5 19 -12 45q-33 121 -78 324q-18 -77 -30 -127q-12 -49 -20 -81t-14 -62q-8 -30 -15 -54q-7 -26 -12 -45l-66 -267h-248l-211 1349h259l89 -695q12 -96 16 -266q15 92 55 244l99 339h195l99 -339q12 -44 22 -88t18 -82t15 -74q1 0 2 27
q6 161 16 239l84 695h259zM983 1427h-159l-203 134h-4l-211 -134h-160v28l258 250h229l250 -250v-28z" />
    <glyph glyph-name="wcircumflex" unicode="&#x175;" 
d="M1028 0h-244l-143 471q-25 80 -27 102q-3 -25 -29 -106l-148 -467h-243l-183 1082h228l83 -607q19 -152 19 -226q4 17 9 35q4 18 10 38t13 41l145 454h193l140 -455q15 -50 29 -113q0 73 21 226l91 607h226zM983 1183h-159l-203 134h-4l-211 -134h-160v28l258 250h229
l250 -250v-28z" />
    <glyph glyph-name="Ycircumflex" unicode="&#x176;" 
d="M761 0h-294v556l-464 793h309l300 -566l304 566h309l-464 -793v-556zM983 1427h-159l-203 134h-4l-211 -134h-160v28l258 250h229l250 -250v-28z" />
    <glyph glyph-name="ycircumflex" unicode="&#x177;" 
d="M378 -180q50 40 90 143l18 48l-448 1071h297l190 -527q18 -51 41 -127t33 -110t17 -60t10 -37q2 11 9 37t15 58t19 68q10 36 25 91t22 76l180 531h294l-448 -1139q-77 -197 -170 -283q-93 -85 -247 -85q-106 0 -182 13v200q40 -8 112 -8q73 0 123 40zM983 1183h-159
l-203 134h-4l-211 -134h-160v28l258 250h229l250 -250v-28z" />
    <glyph glyph-name="Ydieresis" unicode="&#x178;" 
d="M761 0h-294v556l-464 793h309l300 -566l304 566h309l-464 -793v-556zM289 1445v219h224v-219h-224zM713 1445v219h227v-219h-227z" />
    <glyph glyph-name="Zacute" unicode="&#x179;" 
d="M1138 0h-1051v209l671 909h-595v231h934v-205l-671 -913h712v-231zM469 1429v31l252 243h258v-43l-340 -231h-170z" />
    <glyph glyph-name="zacute" unicode="&#x17a;" 
d="M138 0v199l570 680h-529v203h849v-201l-567 -676h616v-205h-939zM452 1184v31l252 243h258v-43l-340 -231h-170z" />
    <glyph glyph-name="Zdotaccent" unicode="&#x17b;" 
d="M1138 0h-1051v209l671 909h-595v231h934v-205l-671 -913h712v-231zM487 1431v207h281v-207h-281z" />
    <glyph glyph-name="zdotaccent" unicode="&#x17c;" 
d="M138 0v199l570 680h-529v203h849v-201l-567 -676h616v-205h-939zM471 1277v207h281v-207h-281z" />
    <glyph glyph-name="Zcaron" unicode="&#x17d;" 
d="M1138 0h-1051v209l671 909h-595v231h934v-205l-671 -913h712v-231zM256 1705h160l211 -134h4l203 134h159v-29l-250 -249h-229l-258 249v29z" />
    <glyph glyph-name="zcaron" unicode="&#x17e;" 
d="M138 0v199l570 680h-529v203h849v-201l-567 -676h616v-205h-939zM247 1461h160l211 -134h4l203 134h159v-29l-250 -249h-229l-258 249v29z" />
    <glyph glyph-name="longs" unicode="&#x17f;" 
d="M879 1321q-93 0 -130 -13t-66.5 -45t-29.5 -124v-1139h-280v1165q0 236 146.5 292.5t290.5 56.5t312 -28v-184q-150 19 -243 19z" />
    <glyph glyph-name="florin" unicode="&#x192;" 
d="M793 1150.5q-33 -29.5 -46 -97.5l-20 -107h302l-36 -190h-303l-232 -1181h-281l232 1181h-208l37 190h208l27 135q24 136 114.5 212.5t283.5 76.5q96 0 161.5 -14.5t80.5 -20.5l-47 -177q-66 22 -153 22t-120 -29.5z" />
    <glyph glyph-name="Aringacute" unicode="&#x1fa;" 
d="M717 1218q0 12 -5.5 25t-18 23t-32 16.5t-59.5 6.5t-66 -21t-26 -42q0 -37 26 -58t67 -21q40 0 59.5 6.5t31.5 16.5t17.5 23t5.5 25zM510 1459v31l232 215h258v-43l-340 -203h-150zM615 992q-14 -65 -58 -200l-103 -307h321l-102 307q-44 135 -58 200zM421 1090
q-49 51 -49 131t63 138t179 58t179 -57.5t63 -136.5q0 -78 -48 -132l421 -1091h-294l-88 263h-466l-86 -263h-295z" />
    <glyph glyph-name="aringacute" unicode="&#x1fb;" 
d="M399 328q0 -152 120 -152q102 0 164 80q63 80 63 190v55l-134 -2q-107 -2 -144 -25q-69 -42 -69 -146zM431 -20q-148 0 -237 85q-88 85 -88 241q0 341 417 346l223 4v55q0 165 -86 199q-28 10 -60 10q-69 0 -106 -33q-36 -33 -46 -120l-293 14q39 228 254 295
q-46 53 -46 108q0 56 15 92t45 64q29 28 75 44t107 16q116 0 179 -58t63 -136q0 -79 -48 -132q228 -80 228 -362v-392q0 -83 13 -111q23 -49 65 -49q43 0 73 6v-152q-108 -26 -197 -26q-180 0 -200 205h-6q-89 -159 -224 -199q-50 -14 -120 -14zM501 1209q0 -79 104 -79
q77 0 97 46q6 12 6 24t-6 26q-6 13 -18 23q-12 11 -32 17t-47 6q-52 0 -78 -21t-26 -42zM483 1431v31l252 243h258v-43l-340 -231h-170z" />
    <glyph glyph-name="AEacute" unicode="&#x1fc;" 
d="M616 1152h-58q-6 -31 -17 -79q-12 -47 -18 -75t-11 -46l-98 -366h202v566zM616 387h-253l-102 -387h-261l372 1349h804v-202h-309v-355h297v-200h-297v-390h348v-202h-599v387zM612 1429v31l252 243h258v-43l-340 -231h-170z" />
    <glyph glyph-name="aeacute" unicode="&#x1fd;" 
d="M866 924q-61 0 -111 -64t-54 -200h301q-17 264 -136 264zM229 316q0 -154 81 -154t134 90t53 193v54l-102 -3q-83 -2 -112 -31q-54 -53 -54 -149zM873 1102q335 0 335 -575v-43h-509v-2q0 -220 92 -296q31 -26 82 -26q96 0 131 141l178 -45q-74 -276 -314 -276
q-166 0 -238 124q-26 44 -44 108q-99 -232 -308 -232q-184 0 -240 188q-18 60 -18 150q0 180 104 269q82 71 226 73l147 4v55q1 143 -65 187q-22 14 -51 14q-92 0 -108 -147l-208 17q39 312 315 312q176 0 247 -139q85 139 246 139zM477 1184v31l252 243h258v-43l-340 -231
h-170z" />
    <glyph glyph-name="Oslashacute" unicode="&#x1fe;" 
d="M615 1138q-244 0 -244 -459q0 -120 14 -193l407 545q-60 107 -177 107zM615 212q243 0 243 467q0 109 -14 193l-408 -546q62 -114 179 -114zM1157 655q0 -321 -140 -498t-402 -177q-215 0 -349 119l-106 -142l-114 75l131 176q-105 176 -105 496t140 493t403 173
q212 0 345 -115l106 142l114 -75l-130 -173q107 -173 107 -494zM467 1429v31l252 243h258v-43l-340 -231h-170z" />
    <glyph glyph-name="oslashacute" unicode="&#x1ff;" 
d="M387 542q0 -84 10 -148l387 438q-52 77 -170 77t-172 -88t-55 -279zM443 259q55 -87 172 -87t172 88q56 88 56 227t-11 211zM1137 542q-1 -398 -291 -520q-100 -42 -236 -42q-200 0 -328 97l-85 -97l-96 78l95 107q-104 143 -104 377q0 397 286 518q100 42 238 42
q205 0 329 -87l79 89l98 -78l-87 -98q102 -140 102 -386zM467 1184v31l252 243h258v-43l-340 -231h-170z" />
    <glyph glyph-name="Scommaaccent" unicode="&#x218;" 
d="M395 -453v33l89 322h257v-37l-181 -318h-165zM842 978q-44 183 -224 183q-180 1 -216 -95q-10 -28 -11 -67q1 -76 91 -123q47 -25 149 -51q103 -27 159 -43t110 -38q122 -51 194 -135q72 -83 71 -218q0 -185 -142 -298t-394 -113q-253 0 -401 99t-190 288l285 37
q23 -94 96 -148t200 -55q192 -1 241 91q18 34 18 85t-32 85t-80 58q-48 22 -107 36t-110 29q-51 13 -103 29t-100 38q-242 109 -242 324q0 200 148 297t367 97q220 0 346 -88t163 -275z" />
    <glyph glyph-name="scommaaccent" unicode="&#x219;" 
d="M440 -453v33l89 322h257v-37l-181 -318h-165zM976 70q-128 -90 -356 -90q-318 0 -436 154q-42 55 -63 136l247 37q23 -86 80 -113q57 -28 138 -28q140 0 200 27t60 98t-92 105q-42 16 -100 28t-124 26q-172 39 -250 93q-116 80 -116 233t119 240t339 87q282 0 400 -159
q40 -55 57 -133l-249 -26q-19 107 -131 125q-35 6 -106 6t-121 -26t-50 -74t20 -70t58 -36t90 -26q52 -10 119 -26q69 -16 141 -36q72 -22 128 -60q126 -83 126 -243q0 -159 -128 -249z" />
    <glyph glyph-name="uni021A" unicode="&#x21a;" 
d="M762 1121v-1121h-295v1121h-406v228h1107v-228h-406zM395 -453v33l89 322h257v-37l-181 -318h-165z" />
    <glyph glyph-name="uni021B" unicode="&#x21b;" 
d="M161 892v190h181l88 282h176v-282h385v-190h-385v-530q0 -94 19 -124q67 -104 410 -33v-186q-323 -51 -472 -17q-211 49 -233 251q-4 42 -4 83l2 556h-167zM440 -453v33l89 322h257v-37l-181 -318h-165z" />
    <glyph glyph-name="circumflex" unicode="&#x2c6;" 
d="M983 1183h-159l-203 134h-4l-211 -134h-160v28l258 250h229l250 -250v-28z" />
    <glyph glyph-name="caron" unicode="&#x2c7;" 
d="M246 1461h160l211 -134h4l203 134h159v-29l-250 -249h-229l-258 249v29z" />
    <glyph glyph-name="uni02C9" unicode="&#x2c9;" 
d="M308 1371h612v-168h-612v168z" />
    <glyph glyph-name="breve" unicode="&#x2d8;" 
d="M968 1461q-34 -278 -356 -278q-161 0 -251 72.5t-101 205.5h163q15 -121 191 -121q88 0 132 29t58 92h164z" />
    <glyph glyph-name="dotaccent" unicode="&#x2d9;" 
d="M474 1277v207h281v-207h-281z" />
    <glyph glyph-name="ring" unicode="&#x2da;" 
d="M510 1356q0 -79 90.5 -79t103.5 29.5t13 41.5t-5.5 25t-18 23t-32 16.5t-59.5 6.5t-66 -21t-26 -42zM856 1348q0 -39 -15 -75t-45 -64t-75.5 -44.5t-106.5 -16.5t-106.5 16.5t-75.5 44.5t-45 64t-15 75t15 75t45 63.5t75.5 44t106.5 16.5t106.5 -16.5t75.5 -44t45 -63.5
t15 -75z" />
    <glyph glyph-name="ogonek" unicode="&#x2db;" 
d="M602 -184q0 -98 98 -98q49 0 108 27v-137q-62 -33 -132 -33q-126 0 -191 52.5t-65 147.5q0 128 67.5 181t90.5 65h153q-63 -42 -96 -99.5t-33 -105.5z" />
    <glyph glyph-name="tilde" unicode="&#x2dc;" 
d="M784 1183q-46 0 -91 17.5t-87 39t-79.5 39t-65.5 17.5q-51 0 -71.5 -26t-28.5 -87h-137q9 118 33 164.5t63 82.5t118 36q78 0 154 -39t112.5 -56.5t63.5 -17.5q50 0 71.5 27t29.5 86h135q-9 -120 -32.5 -165.5t-48 -68t-59 -36t-80.5 -13.5z" />
    <glyph glyph-name="hungarumlaut" unicode="&#x2dd;" 
d="M406 1182v34l225 245h235v-43l-318 -236h-142zM0 1182v34l225 245h235v-43l-318 -236h-142z" />
    <glyph glyph-name="tonos" unicode="&#x384;" 
d="M475 1201v33l54 322h257v-37l-206 -318h-105z" />
    <glyph glyph-name="dieresistonos" unicode="&#x385;" 
d="M781 1231v222h200v-222h-200zM249 1231v222h200v-222h-200zM516 1201v33l59 398h237v-37l-181 -394h-115z" />
    <glyph glyph-name="Alphatonos" unicode="&#x386;" 
d="M615 1167q-19 -94 -58 -235l-108 -380h332l-108 380q-39 141 -58 235zM1229 0h-294l-92 330h-456l-92 -330h-295l443 1349h344zM3 995v33l54 322h257v-37l-206 -318h-105z" />
    <glyph glyph-name="anoteleia" unicode="&#x387;" 
d="M470 417v305h288v-305h-288z" />
    <glyph glyph-name="Epsilontonos" unicode="&#x388;" 
d="M-55 994v33l54 322h257v-37l-206 -318h-105zM327 0v1349h808v-228h-513v-324h452v-228h-452v-341h554v-228h-849z" />
    <glyph glyph-name="Etatonos" unicode="&#x389;" 
d="M-55 994v33l54 322h257v-37l-206 -318h-105zM890 0v574h-283v-574h-280v1349h280v-531h283v531h280v-1349h-280z" />
    <glyph glyph-name="Iotatonos" unicode="&#x38a;" 
d="M282 1349h916v-228h-311v-893h311v-228h-916v228h311v893h-311v228zM-54 995v33l54 322h257v-37l-206 -318h-105z" />
    <glyph glyph-name="Omicrontonos" unicode="&#x38c;" 
d="M-55 994v33l54 322h257v-37l-206 -318h-105zM902 679q0 459 -150.5 459t-203.5 -114.5t-53 -344.5t53 -348.5t151 -118.5t150.5 118.5t52.5 348.5zM1201 680q0 -172 -33.5 -303.5t-98 -219.5t-157.5 -132.5t-274 -44.5t-311.5 178t-130.5 521q0 513 191.5 602t311.5 89
t213 -43.5t157.5 -129.5t98 -215.5t33.5 -301.5z" />
    <glyph glyph-name="Upsilontonos" unicode="&#x38e;" 
d="M-55 994v33l54 322h257v-37l-206 -318h-105zM896 0h-286v446l-333 903h287l187 -602l191 602h287l-333 -903v-446z" />
    <glyph glyph-name="Omegatonos" unicode="&#x38f;" 
d="M-55 994v33l54 322h257v-37l-206 -318h-105zM1228 228v-228h-465v294q141 146 159.5 268t18.5 208t-19 159t-51.5 120.5t-75.5 70.5t-118.5 23t-142.5 -98.5t-67 -265.5q0 -168 40.5 -276t137.5 -209v-294h-465v228h106q63 0 166 -11q-259 230 -259 581
q0 269 149.5 420.5t361.5 151.5t361.5 -151.5t149.5 -420.5q0 -353 -259 -581q106 11 170 11h102z" />
    <glyph glyph-name="iotadieresistonos" unicode="&#x390;" 
d="M403 369v523h-284v190h564v-724q0 -171 131 -171q109 0 182 108l159 -127q-122 -188 -353 -188q-316 0 -380 234q-20 72 -19 155zM768 1231v222h200v-222h-200zM236 1231v222h200v-222h-200zM503 1201v33l59 398h237v-37l-181 -394h-115z" />
    <glyph glyph-name="Alpha" unicode="&#x391;" 
d="M615 1167q-19 -94 -58 -235l-108 -380h332l-108 380q-39 141 -58 235zM1229 0h-294l-92 330h-456l-92 -330h-295l443 1349h344z" />
    <glyph glyph-name="Beta" unicode="&#x392;" 
d="M689 219q200 0 200 191q0 96 -57 140q-57 43 -150 43h-250v-374h257zM643 811q165 0 165 159q0 88 -45 124t-122 36h-209v-319h211zM1186 402q0 -211 -132 -306q-132 -96 -335 -96h-582v1349h525q322 0 412 -189q30 -64 31 -164q0 -100 -66 -180q-66 -78 -203 -107
q170 -18 260 -102q90 -85 90 -205z" />
    <glyph glyph-name="Gamma" unicode="&#x393;" 
d="M1144 1349v-228h-672v-1120h-295v1348h967z" />
    <glyph glyph-name="Delta" unicode="&#x394;" 
d="M918 244l-223 618q-44 138 -60.5 214t-18.5 83q-13 -91 -79 -299l-220 -616h601zM1212 0h-1194v226l428 1123h345l421 -1123v-226z" />
    <glyph glyph-name="Epsilon" unicode="&#x395;" 
d="M137 0v1349h968v-228h-673v-324h612v-228h-612v-341h714v-228h-1009z" />
    <glyph glyph-name="Zeta" unicode="&#x396;" 
d="M1138 0h-1051v209l671 909h-595v231h934v-205l-671 -913h712v-231z" />
    <glyph glyph-name="Eta" unicode="&#x397;" 
d="M796 0v574h-363v-574h-295v1349h295v-531h363v531h295v-1349h-295z" />
    <glyph glyph-name="Theta" unicode="&#x398;" 
d="M878 680q0 115 -18.5 201t-53 143t-83 85.5t-108.5 28.5t-108.5 -29t-83 -86.5t-53.5 -143.5t-19 -200t19 -201.5t53.5 -146.5t83 -89t108.5 -30t108.5 30t83 89t53 146.5t18.5 202.5zM1167 680q0 -172 -37 -303.5t-108 -219.5t-173.5 -132.5t-300 -44.5t-342 179
t-144.5 520q0 512 211 601.5t342 89.5t233.5 -43.5t173.5 -129.5t108 -215.5t37 -301.5zM792 787v-214h-355v214h355z" />
    <glyph glyph-name="Iota" unicode="&#x399;" 
d="M157 1349h916v-228h-311v-893h311v-228h-916v228h311v893h-311v228z" />
    <glyph glyph-name="Kappa" unicode="&#x39a;" 
d="M431 0h-295v1349h295v-599l436 599h343l-460 -579l479 -770h-348l-323 557l-127 -142v-415z" />
    <glyph glyph-name="Lambda" unicode="&#x39b;" 
d="M20 0l443 1349h304l442 -1349h-304l-248 865q-35 125 -42 190q-16 -97 -42 -190l-248 -865h-305z" />
    <glyph glyph-name="Mu" unicode="&#x39c;" 
d="M319 868v-868h-220v1349h347l135 -499q15 -47 38 -231q20 155 40 230l136 500h335v-1349h-222v868q0 105 16 301q-14 -69 -24 -115t-15 -74q-23 -110 -36 -152l-124 -468h-218l-126 468q-15 55 -21 85q-7 30 -18 81t-37 175q14 -224 14 -301z" />
    <glyph glyph-name="Nu" unicode="&#x39d;" 
d="M392 656v-656h-257v1349h337l393 -1037q-28 234 -28 365v672h257v-1349h-346l-384 1010q28 -252 28 -354z" />
    <glyph glyph-name="Xi" unicode="&#x39e;" 
d="M969 808v-228h-709v228h709zM115 0v244h999v-244h-999zM135 1105v244h959v-244h-959z" />
    <glyph glyph-name="Omicron" unicode="&#x39f;" 
d="M614 212q244 0 244 463t-244 463t-243 -463q-1 -463 243 -463zM1157 679q0 -345 -140 -522t-402 -177q-263 0 -403 177t-140 522t140 518t403 173q262 0 402 -173t140 -518z" />
    <glyph glyph-name="Pi" unicode="&#x3a0;" 
d="M796 0v1105h-363v-1105h-295v1349h953v-1349h-295z" />
    <glyph glyph-name="Rho" unicode="&#x3a1;" 
d="M591 703q254 0 254 215q1 110 -65 156t-197 46h-152v-417h160zM1142 927q0 -199 -130 -325t-384 -126h-197v-476h-295v1349h480q396 0 494 -248q32 -79 32 -174z" />
    <glyph glyph-name="Sigma" unicode="&#x3a3;" 
d="M100 0v234l458 477l-441 405v233h979v-244h-642l361 -327v-134l-394 -400h736v-244h-1057z" />
    <glyph glyph-name="Tau" unicode="&#x3a4;" 
d="M762 1121v-1121h-295v1121h-406v228h1107v-228h-406z" />
    <glyph glyph-name="Upsilon" unicode="&#x3a5;" 
d="M761 0h-294v556l-464 793h309l300 -566l304 566h309l-464 -793v-556z" />
    <glyph glyph-name="Phi" unicode="&#x3a6;" 
d="M324 479q58 -82 146 -82h26v595h-19q-89 0 -150 -74.5t-61 -215.5t58 -223zM496 -11v209h-24q-205 0 -334 142.5t-129 369.5q0 226 129.5 353.5t345.5 127.5h12v168h238v-168h12q216 0 345.5 -127.5t129.5 -353.5t-129 -369t-334 -143h-24v-209h-238zM964 702
q0 141 -60 215.5t-151 74.5h-19v-595h26q88 0 146 82t58 223z" />
    <glyph glyph-name="Chi" unicode="&#x3a7;" 
d="M919 0l-303 493l-304 -493h-312l459 711l-418 638h312l263 -430l262 430h310l-428 -638l469 -711h-310z" />
    <glyph glyph-name="Psi" unicode="&#x3a8;" 
d="M1183 916q0 -519 -439 -519h-10v-397h-239v397h-10q-439 0 -439 519v433h239v-437q0 -236 75 -265t126 -29h9v731h239v-731h9q105 0 153 65.5t48 228.5v437h239v-433z" />
    <glyph glyph-name="Omega" unicode="&#x3a9;" 
d="M1066 228h112v-228h-495v304q102 106 147.5 208.5t45.5 222.5t-21 193.5t-57 121t-83.5 70.5t-130.5 23t-157.5 -98t-74.5 -296q0 -197 72 -295.5t121 -149.5v-304h-495v228h116q64 0 174 -11q-272 217 -272 581q0 268 160.5 420t385.5 152t385.5 -152t160.5 -420
q0 -364 -272 -581q114 11 178 11z" />
    <glyph glyph-name="Iotadieresis" unicode="&#x3aa;" 
d="M157 1349h916v-228h-311v-893h311v-228h-916v228h311v893h-311v228zM289 1486v219h224v-219h-224zM713 1486v219h227v-219h-227z" />
    <glyph glyph-name="Upsilondieresis" unicode="&#x3ab;" 
d="M761 0h-294v556l-464 793h309l300 -566l304 566h309l-464 -793v-556zM289 1486v219h224v-219h-224zM713 1486v219h227v-219h-227z" />
    <glyph glyph-name="alphatonos" unicode="&#x3ac;" 
d="M407 259q42 -86 139 -86q132 1 202 207q24 70 33 162q-31 254 -137 336q-38 30 -88 30t-86 -20t-59 -64q-46 -88 -46 -284q0 -195 42 -281zM491 -20q-213 0 -317 138t-104 418q0 566 447 566q204 0 314 -154q33 -46 54 -101h3q25 124 75 235h265q-88 -159 -146 -396
q-18 -72 -23 -130q32 -309 136 -556h-270q-49 120 -71 237h-4q-88 -189 -232 -238q-56 -19 -127 -19zM535 1201v33l54 322h257v-37l-206 -318h-105z" />
    <glyph glyph-name="epsilontonos" unicode="&#x3ad;" 
d="M935 790q-101 133 -313 133q-76 1 -133 -33q-58 -34 -58 -89q0 -149 408 -149v-177q-301 -1 -389 -89q-30 -30 -30 -72q0 -70 56 -108t154 -38q188 0 340 157l163 -140q-199 -205 -512 -205q-237 0 -364 86q-126 86 -126 231q0 110 97 180t231 81v2q-125 12 -210 83
q-85 70 -85 169q0 128 133 209t360 81q308 0 460 -189zM555 1201v33l54 322h257v-37l-206 -318h-105z" />
    <glyph glyph-name="etatonos" unicode="&#x3ae;" 
d="M421 897q118 205 330 205q111 0 173 -22q184 -65 184 -359v-1145h-279v1053q0 149 -38 206t-128 57q-165 0 -217 -178q-16 -58 -17 -133v-581h-282v851q0 123 -36 231h269q38 -89 38 -185h3zM555 1201v33l54 322h257v-37l-206 -318h-105z" />
    <glyph glyph-name="iotatonos" unicode="&#x3af;" 
d="M403 369v523h-284v190h564v-724q0 -171 131 -171q109 0 182 108l159 -127q-122 -188 -353 -188q-316 0 -380 234q-20 72 -19 155zM505 1201v33l54 322h257v-37l-206 -318h-105z" />
    <glyph glyph-name="upsilondieresistonos" unicode="&#x3b0;" 
d="M1123 540q1 -106 -29 -214q-30 -110 -92 -187q-129 -159 -381 -159q-251 0 -365 110t-114 343v649h281v-622q-1 -136 47 -204t161 -69q113 0 162 96t49 298t-81 408q-22 56 -43 93h286q119 -238 119 -542zM766 1231v222h200v-222h-200zM234 1231v222h200v-222h-200z
M501 1201v33l59 398h237v-37l-181 -394h-115z" />
    <glyph glyph-name="alpha" unicode="&#x3b1;" 
d="M407.5 258.5q42.5 -85.5 138.5 -85.5q132 0 178.5 138t56.5 231q-31 255 -103 310.5t-122 55.5t-86 -20t-70.5 -86t-34.5 -262t42.5 -281.5zM491 -20q-212 0 -316.5 137.5t-104.5 418.5q0 566 447 566q204 0 275.5 -100.5t92.5 -154.5h3q25 124 75 235h265
q-88 -159 -125.5 -313.5t-43.5 -212.5q32 -309 136 -556h-270q-49 120 -71 237h-4q-88 -189 -187.5 -223t-171.5 -34z" />
    <glyph glyph-name="beta" unicode="&#x3b2;" 
d="M806 1109q0 172 -169 172q-110 0 -161.5 -67t-51.5 -223v-736q107 -83 248 -83q168 0 196.5 95.5t28.5 183t-79.5 156.5t-241.5 69v198q120 22 175 78.5t55 156.5zM1072 1135q0 -249 -213 -340q206 -42 259 -169t53 -218q0 -193 -108.5 -310.5t-334.5 -117.5
q-170 0 -303 94h-9q8 -91 8 -202v-297h-282v1452q0 237 124.5 347t371.5 110q323 0 378.5 -133.5t55.5 -215.5z" />
    <glyph glyph-name="gamma" unicode="&#x3b3;" 
d="M366 -424q33 221 101 435l-431 1071h298l227 -640q23 -69 38 -148t16 -106q15 114 63 259l216 635h295l-410 -1028q-69 -173 -91.5 -290.5t-31.5 -187.5h-290z" />
    <glyph glyph-name="delta" unicode="&#x3b4;" 
d="M76 481q0 382 465 542l-312 314v147h853v-190h-358q-13 0 -32.5 1t-57.5 3l-57 3l323 -293q246 -225 246 -525q0 -224 -143.5 -363.5t-396.5 -139.5q-252 0 -391 133t-139 368zM856 488q0 126 -53 224t-146 191q-210 -75 -250.5 -207t-40.5 -206q0 -147 59.5 -230.5
t176.5 -83.5q254 0 254 312z" />
    <glyph glyph-name="epsilon" unicode="&#x3b5;" 
d="M935 790q-101 133 -313 133q-76 0 -133.5 -33.5t-57.5 -88.5q0 -149 408 -149v-177q-300 0 -359.5 -59.5t-59.5 -101.5q0 -69 56.5 -107.5t153.5 -38.5q188 0 340 157l163 -140q-199 -205 -512 -205q-237 0 -363.5 86.5t-126.5 230.5q0 110 96.5 180t231.5 81v2
q-125 12 -210 82.5t-85 169.5q0 128 132.5 209t360.5 81q308 0 460 -189z" />
    <glyph glyph-name="zeta" unicode="&#x3b6;" 
d="M610 1294h-345v190h831v-190q-497 -423 -564.5 -614.5t-67.5 -251.5t16 -94t60 -62t178 -57q133 -29 273 -79t140 -238q0 -106 -40.5 -192t-53.5 -107l-183 74q55 92 55 150q0 59 -55 88.5t-196 60.5q-141 32 -315.5 92t-174.5 307q0 351 291.5 605.5t367.5 317.5v7
q-84 -7 -217 -7z" />
    <glyph glyph-name="eta" unicode="&#x3b7;" 
d="M421 897q118 205 330 205q110 0 233.5 -43.5t123.5 -337.5v-1145h-279v1053q0 149 -37.5 206t-128.5 57q-166 0 -200 -118t-34 -193v-581h-282v851q0 123 -36 231h269q38 -89 38 -185h3z" />
    <glyph glyph-name="theta" unicode="&#x3b8;" 
d="M469 1190.5q-60 -109.5 -64 -356.5h418q-4 246 -62 356t-145 110t-147 -109.5zM759 275q60 113 64 369h-417q4 -251 63.5 -366.5t144.5 -115.5t145 113zM1097 733q0 -373 -127.5 -563t-355.5 -190t-356 189t-128 564q0 557 184.5 653.5t300.5 96.5q482 0 482 -750z" />
    <glyph glyph-name="iota" unicode="&#x3b9;" 
d="M403 369v523h-284v190h564v-724q0 -171 131 -171q109 0 182 108l159 -127q-122 -188 -353 -188q-316 0 -357.5 152.5t-41.5 236.5z" />
    <glyph glyph-name="kappa" unicode="&#x3ba;" 
d="M454 0h-281v1082h281v-468l386 468h302l-380 -442l409 -640h-307l-289 470l-121 -84v-386z" />
    <glyph glyph-name="lambda" unicode="&#x3bb;" 
d="M372 1484q92 0 149.5 -21.5t118 -83t132.5 -267.5l394 -1112h-294l-140 461q-59 196 -74 298q-46 -178 -112 -330l-182 -429h-297l474 1006l-12 23q-57 145 -84.5 184.5t-51.5 52.5t-64 13t-85 -19l-48 194q84 30 176 30z" />
    <glyph glyph-name="mu" unicode="&#x3bc;" 
d="M826 184h-3q-78 -204 -246 -204q-52 0 -95.5 24t-66.5 66h-4q4 -43 4 -115v-380h-281v1507h281v-605q0 -284 184 -284q98 0 158.5 84.5t60.5 226.5v578h281v-840q0 -130 8 -242h-268q-13 156 -13 184z" />
    <glyph glyph-name="nu" unicode="&#x3bd;" 
d="M1100 866q0 -208 -111.5 -436.5t-278.5 -429.5h-267l-403 1082h297l274 -843q163 233 185.5 376.5t22.5 249.5t-49 217h280q50 -97 50 -216z" />
    <glyph glyph-name="xi" unicode="&#x3be;" 
d="M909 -187q0 48 -18 71t-65 44t-189 50q-142 28 -311.5 80.5t-169.5 300.5q0 161 126.5 282.5t377.5 157.5v7q-258 17 -321 104t-63 143q0 99 101 157.5t228 82.5v8q-10 -1 -57 -2t-78.5 -2t-60 -1.5t-52.5 -1t-36 -0.5h-96v190h797v-185q-218 -15 -305.5 -49t-123 -71
t-35.5 -90q0 -96 107 -133.5t314 -48.5v-191q-266 -37 -358 -80t-131.5 -92.5t-39.5 -111.5q0 -109 66 -152.5t187 -62.5q220 -36 324 -107t104 -212q0 -106 -40.5 -192t-53.5 -107l-183 74q55 92 55 140z" />
    <glyph glyph-name="omicron" unicode="&#x3bf;" 
d="M387 542q0 -370 220 -370q125 0 180.5 88t55.5 282q0 286 -81.5 326.5t-141.5 40.5q-124 0 -178.5 -88t-54.5 -279zM616 1102q521 0 521 -560q0 -399 -195.5 -480.5t-329.5 -81.5q-257 0 -388.5 151t-131.5 411q0 397 193 478.5t331 81.5z" />
    <glyph glyph-name="pi" unicode="&#x3c0;" 
d="M209 1082h979v-190h-173v-589q0 -72 18 -99.5t58 -27.5t76 11l29 -174q-97 -33 -184 -33q-155 0 -215.5 72.5t-60.5 212.5v627h-243v-124q0 -464 -78 -768h-287q91 364 91 760v132q-125 0 -192 -37v198q62 29 182 29z" />
    <glyph glyph-name="rho" unicode="&#x3c1;" 
d="M835 526q0 383 -202 383q-210 0 -210 -337v-272q105 -126 231 -126q81 0 131 95t50 257zM423 -59v-366h-295v1006q0 240 133.5 381t362.5 141t367 -157t138 -412t-119 -404.5t-297 -149.5t-290 137h-11q11 -165 11 -176z" />
    <glyph glyph-name="sigma1" unicode="&#x3c2;" 
d="M946 775q-124 130 -257 130t-201 -136t-68 -294q0 -112 67.5 -167t186.5 -83q120 -28 194 -50t158.5 -77t84.5 -196q0 -142 -113 -303l-178 74q60 95 60 143t-22.5 73t-72.5 46t-165 44q-116 22 -164 36t-172.5 78.5t-124.5 344.5q0 227 99.5 397t218.5 218.5t204 48.5
q254 0 411 -171z" />
    <glyph glyph-name="sigma" unicode="&#x3c3;" 
d="M836 492q0 216 -102 400h-54q-129 0 -217 -95t-88 -272q0 -176 60 -264.5t166 -88.5q171 0 203 122.5t32 197.5zM962 894q168 -217 168 -435t-136.5 -348.5t-388 -130.5t-388.5 142.5t-137 410.5q0 269 164 409t455 140h522v-190h-135q-10 0 -124 6v-4z" />
    <glyph glyph-name="tau" unicode="&#x3c4;" 
d="M447 251v641h-67q-118 0 -179 -15t-73 -22v198q58 29 183 29h759v-190h-345v-580q0 -110 47 -122.5t82 -12.5t99 8v-183q-78 -23 -219 -23q-287 0 -287 272z" />
    <glyph glyph-name="upsilon" unicode="&#x3c5;" 
d="M1123 540q0 -106 -29.5 -215t-125.5 -227t-347 -118q-252 0 -365.5 110.5t-113.5 342.5v649h281v-622q0 -136 47.5 -204.5t160.5 -68.5t162 96t49 298t-51.5 333t-72.5 168h286q119 -238 119 -542z" />
    <glyph glyph-name="phi" unicode="&#x3c6;" 
d="M952 567q0 272 -48.5 317.5t-74.5 45.5q-57 0 -85 -54t-28 -177v-533q236 12 236 401zM1057 137q-130 -142 -341 -155v-407h-218v405q-328 16 -392.5 219.5t-64.5 340.5q0 256 107.5 387t301.5 179l21 -179q-147 -38 -171 -175.5t-24 -207.5q0 -361 222 -377v535
q0 198 85.5 300t247.5 102t259 -146.5t97 -412.5t-130 -408z" />
    <glyph glyph-name="chi" unicode="&#x3c7;" 
d="M223 1104q94 0 135 -14.5t88 -63.5t130 -235l27 -60q7 -13 17 -39t17 -43t11 -31q26 73 59 139l155 325h297l-375 -690l413 -816h-300l-195 432q-47 102 -72 190q-25 -85 -75 -185l-214 -437h-300l452 829l-119 243q-74 152 -106 191t-53.5 49.5t-55.5 10.5t-74 -16
l-40 191q84 30 178 30z" />
    <glyph glyph-name="psi" unicode="&#x3c8;" 
d="M915 474v608h241v-624q0 -246 -102.5 -361t-325.5 -117v-405h-224v405q-219 3 -325 118.5t-106 359.5v624h241v-607q0 -237 72 -266.5t118 -31.5v1163h222v-1164q103 2 146 66t43 232z" />
    <glyph glyph-name="omega" unicode="&#x3c9;" 
d="M945 512q0 374 -148 417l31 174q174 -34 265 -195.5t91 -402.5t-85 -383t-225 -142q-101 0 -166 68t-90 189h-5q-25 -121 -90 -189t-150 -68q-156 0 -241 142t-85 395q0 356 132.5 462t223.5 124l31 -174q-148 -43 -148 -417q0 -255 45 -297t70 -42q49 0 76 95.5
t27 240.5v222h223v-222q0 -228 39 -282t64 -54q52 0 83.5 83t31.5 256z" />
    <glyph glyph-name="iotadieresis" unicode="&#x3ca;" 
d="M403 369v523h-284v190h564v-724q0 -171 131 -171q109 0 182 108l159 -127q-122 -188 -353 -188q-316 0 -380 234q-20 72 -19 155zM261 1219v219h224v-219h-224zM685 1219v219h227v-219h-227z" />
    <glyph glyph-name="upsilondieresis" unicode="&#x3cb;" 
d="M1123 540q1 -106 -29 -214q-30 -110 -92 -187q-129 -159 -381 -159q-251 0 -365 110t-114 343v649h281v-622q-1 -136 47 -204t161 -69q113 0 162 96t49 298t-81 408q-22 56 -43 93h286q119 -238 119 -542zM261 1219v219h224v-219h-224zM685 1219v219h227v-219h-227z" />
    <glyph glyph-name="omicrontonos" unicode="&#x3cc;" 
d="M387 542q0 -370 220 -370q125 0 180 88q56 88 56 282q-1 286 -121 346q-42 21 -102 21q-124 0 -178 -88t-55 -279zM616 1102q521 0 521 -560q-1 -398 -291 -520q-100 -42 -234 -42q-257 0 -388 151q-132 151 -132 411q0 397 286 518q100 42 238 42zM535 1201v33l54 322
h257v-37l-206 -318h-105z" />
    <glyph glyph-name="upsilontonos" unicode="&#x3cd;" 
d="M1123 540q1 -106 -29 -214q-30 -110 -92 -187q-129 -159 -381 -159q-251 0 -365 110t-114 343v649h281v-622q-1 -136 47 -204t161 -69q113 0 162 96t49 298t-81 408q-22 56 -43 93h286q119 -238 119 -542zM505 1201v33l54 322h257v-37l-206 -318h-105z" />
    <glyph glyph-name="omegatonos" unicode="&#x3ce;" 
d="M945 512q0 374 -148 417l31 174q174 -34 265 -196q91 -161 91 -402t-85 -383t-225 -142q-101 0 -166 68t-90 189h-5q-25 -121 -90 -189t-150 -68q-156 0 -241 142t-85 395q0 357 198 515q67 54 158 71l31 -174q-148 -43 -148 -417q0 -256 69 -320q21 -20 46 -19
q49 0 76 95t27 241v222h223v-222q1 -228 59 -309q20 -27 44 -27q52 0 84 83q31 83 31 256zM530 1201v33l54 322h257v-37l-206 -318h-105z" />
    <glyph glyph-name="uni0400" unicode="&#x400;" 
d="M137 0v1349h968v-228h-673v-324h612v-228h-612v-341h714v-228h-1009zM276 1702h258l252 -243v-31h-170l-340 231v43z" />
    <glyph glyph-name="afii10023" unicode="&#x401;" 
d="M137 0v1349h968v-228h-673v-324h612v-228h-612v-341h714v-228h-1009zM289 1445v219h224v-219h-224zM713 1445v219h227v-219h-227z" />
    <glyph glyph-name="afii10051" unicode="&#x402;" 
d="M1185 426q0 -446 -294 -446q-194 0 -245.5 99t-67.5 155l209 68q16 -58 35 -79t50 -21q37 0 48 54t11 175v37q0 138 -20.5 175.5t-46.5 49.5t-66 12q-114 0 -258 -64v-641h-265v1121h-275v228h846v-228h-306v-296q173 101 334 101t236 -100.5t75 -325.5v-74z" />
    <glyph glyph-name="afii10052" unicode="&#x403;" 
d="M1144 1349v-228h-672v-1120h-295v1348h967zM507 1429v31l252 243h258v-43l-340 -231h-170z" />
    <glyph glyph-name="afii10053" unicode="&#x404;" 
d="M80 681q0 689 568 689q377 0 496 -389l-272 -66q-43 158 -111 190.5t-109 32.5q-238 0 -272 -342h393v-228h-393q17 -173 87.5 -264.5t191.5 -91.5q162 0 240 244l273 -52q-133 -424 -516 -424q-293 0 -434.5 186t-141.5 515z" />
    <glyph glyph-name="afii10054" unicode="&#x405;" 
d="M842 978q-44 183 -224 183q-180 1 -216 -95q-10 -28 -11 -67q1 -76 91 -123q47 -25 149 -51q103 -27 159 -43t110 -38q122 -51 194 -135q72 -83 71 -218q0 -185 -142 -298t-394 -113q-253 0 -401 99t-190 288l285 37q23 -94 96 -148t200 -55q192 -1 241 91q18 34 18 85
t-32 85t-80 58q-48 22 -107 36t-110 29q-51 13 -103 29t-100 38q-242 109 -242 324q0 200 148 297t367 97q220 0 346 -88t163 -275z" />
    <glyph glyph-name="afii10055" unicode="&#x406;" 
d="M157 1349h916v-228h-311v-893h311v-228h-916v228h311v893h-311v228z" />
    <glyph glyph-name="afii10056" unicode="&#x407;" 
d="M157 1349h916v-228h-311v-893h311v-228h-916v228h311v893h-311v228zM289 1445v219h224v-219h-224zM713 1445v219h227v-219h-227z" />
    <glyph glyph-name="afii10057" unicode="&#x408;" 
d="M393 445q40 -234 178 -234q68 0 111 59t43 169v679h-301v231h595v-903q0 -217 -120 -341q-121 -125 -331 -125q-201 0 -318 109t-148 313z" />
    <glyph glyph-name="afii10058" unicode="&#x409;" 
d="M990 412q0 156 -71.5 185t-110.5 29h-17v-431h23q80 0 128 53.5t48 163.5zM50 221q57 0 86.5 57.5t37.5 197.5l51 873h566v-531h13q182 0 296.5 -108.5t114.5 -292.5t-115 -300.5t-313 -116.5h-218v1135h-136l-39 -708q-13 -220 -80 -331.5t-220 -111.5q-59 0 -89 17v227
q14 -7 45 -7z" />
    <glyph glyph-name="afii10059" unicode="&#x40a;" 
d="M783 210q201 0 201 202q0 146 -78.5 177.5t-128.5 31.5h-13v-411h19zM1084.5 111q-122.5 -111 -338.5 -111h-212v620h-227v-620h-230v1349h230v-531h227v531h230v-531h14q202 0 315.5 -107.5t113.5 -297.5q0 -191 -122.5 -302z" />
    <glyph glyph-name="afii10060" unicode="&#x40b;" 
d="M798 707q-125 0 -258 -74v-633h-265v1121h-275v228h846v-228h-306v-294q173 101 334 101t236 -100.5t75 -327.5v-500h-254v470q0 138 -20.5 175.5t-46.5 49.5t-66 12z" />
    <glyph glyph-name="afii10061" unicode="&#x40c;" 
d="M138 1349h294v-549q59 0 107 42q89 77 170 213l176 294h305l-235 -375q-65 -104 -151 -192q-22 -23 -35 -32l455 -750h-331l-343 603q-47 -33 -118 -33v-570h-294v1349zM494 1429v31l252 243h258v-43l-340 -231h-170z" />
    <glyph glyph-name="uni040D" unicode="&#x40d;" 
d="M136 0v1349h257v-672q0 -130 -28 -365l393 1037h337v-1349h-257v656q0 102 28 354l-384 -1010h-346zM353 1701h258l252 -243v-31h-170l-340 231v43z" />
    <glyph glyph-name="afii10062" unicode="&#x40e;" 
d="M286 244q52 0 80 10t62 44t94 159l-516 892h307l345 -647l261 647h299l-476 -1031q-84 -182 -174 -260t-253 -78q-101 0 -199 35q-30 11 -54 25l82 246q89 -42 142 -42zM300 1495q-76 64 -83 210h224q6 -95 48 -123q42 -27 110 -27q119 0 161 27t47 123h224
q-7 -145 -83 -210q-95 -81 -323 -81q-229 0 -325 81z" />
    <glyph glyph-name="afii10145" unicode="&#x40f;" 
d="M490 -425v425h-352v1349h295v-1105h363v1105h295v-1349h-351v-425h-250z" />
    <glyph glyph-name="afii10017" unicode="&#x410;" 
d="M615 1167q-19 -94 -58 -235l-108 -380h332l-108 380q-39 141 -58 235zM1229 0h-294l-92 330h-456l-92 -330h-295l443 1349h344z" />
    <glyph glyph-name="afii10018" unicode="&#x411;" 
d="M881 410q0 94 -69.5 137.5t-207.5 43.5h-171v-361h177q140 0 205.5 43t65.5 137zM1179 418q0 -190 -134.5 -304t-386.5 -114h-520v1349h946v-227h-651v-304h257q363 0 426 -154t63 -246z" />
    <glyph glyph-name="afii10019" unicode="&#x412;" 
d="M689 219q200 0 200 191q0 96 -57 140q-57 43 -150 43h-250v-374h257zM643 811q165 0 165 159q0 88 -45 124t-122 36h-209v-319h211zM1186 402q0 -211 -132 -306q-132 -96 -335 -96h-582v1349h525q322 0 412 -189q30 -64 31 -164q0 -100 -66 -180q-66 -78 -203 -107
q170 -18 260 -102q90 -85 90 -205z" />
    <glyph glyph-name="afii10020" unicode="&#x413;" 
d="M1144 1349v-228h-672v-1120h-295v1348h967z" />
    <glyph glyph-name="afii10021" unicode="&#x414;" 
d="M780 224v901h-191l-31 -334q-35 -372 -146 -567h368zM1025 224h175v-632h-240v408h-704v-408h-240v632h127q73 108 117 246.5t66 353.5l56 525h643v-1125z" />
    <glyph glyph-name="afii10022" unicode="&#x415;" 
d="M137 0v1349h968v-228h-673v-324h612v-228h-612v-341h714v-228h-1009z" />
    <glyph glyph-name="afii10024" unicode="&#x416;" 
d="M726 578v-578h-223v578q-13 0 -36.5 10.5t-26.5 13.5l-179 -602h-256l253 714q-87 94 -134 258l-111 377h240l88 -314q36 -129 64 -172.5t49.5 -60t48.5 -24.5v571h223v-571q79 23 111.5 107.5t50.5 149.5l88 314h240l-111 -377q-46 -164 -134 -258l253 -714h-256
l-179 602q-48 -24 -63 -24z" />
    <glyph glyph-name="afii10025" unicode="&#x417;" 
d="M602 1152q-204 0 -278 -222l-268 61q62 184 202.5 281t354.5 97t354.5 -98.5t140.5 -253.5q0 -188 -108.5 -246.5t-171.5 -74.5q219 -33 267.5 -138.5t48.5 -182.5t-38 -151.5t-147.5 -159t-343.5 -84.5q-454 0 -588 358l264 93q81 -223 315 -223q121 0 185.5 52
t64.5 140t-79.5 130t-248.5 42h-69v227h69q295 0 295 181q0 78 -60.5 125t-160.5 47z" />
    <glyph glyph-name="afii10026" unicode="&#x418;" 
d="M136 0v1349h257v-672q0 -130 -28 -365l393 1037h337v-1349h-257v656q0 102 28 354l-384 -1010h-346z" />
    <glyph glyph-name="afii10027" unicode="&#x419;" 
d="M136 0v1349h257v-672q0 -130 -28 -365l393 1037h337v-1349h-257v656q0 102 28 354l-384 -1010h-346zM290 1495q-76 64 -83 210h224q6 -95 48 -123q42 -27 110 -27q119 0 161 27t47 123h224q-7 -145 -83 -210q-95 -81 -323 -81q-229 0 -325 81z" />
    <glyph glyph-name="afii10028" unicode="&#x41a;" 
d="M138 1349h294v-549q59 0 127.5 59t149.5 196l176 294h305l-235 -375q-65 -104 -119.5 -159.5t-66.5 -64.5l455 -750h-331l-343 603q-47 -33 -118 -33v-570h-294v1349z" />
    <glyph glyph-name="afii10029" unicode="&#x41b;" 
d="M56 241q28 0 48 8.5t66 68t107 528.5l67 503h752v-1349h-284v1105h-209l-49 -378q-56 -432 -147 -587.5t-277 -155.5q-87 0 -116 17v247q14 -7 42 -7z" />
    <glyph glyph-name="afii10030" unicode="&#x41c;" 
d="M319 868v-868h-220v1349h347l135 -499q15 -47 38 -231q20 155 40 230l136 500h335v-1349h-222v868q0 105 16 301q-14 -69 -24 -115t-15 -74q-23 -110 -36 -152l-124 -468h-218l-126 468q-15 55 -21 85q-7 30 -18 81t-37 175q14 -224 14 -301z" />
    <glyph glyph-name="afii10031" unicode="&#x41d;" 
d="M796 0v574h-363v-574h-295v1349h295v-531h363v531h295v-1349h-295z" />
    <glyph glyph-name="afii10032" unicode="&#x41e;" 
d="M614 212q244 0 244 463t-244 463t-243 -463q-1 -463 243 -463zM1157 679q0 -345 -140 -522t-402 -177q-263 0 -403 177t-140 522t140 518t403 173q262 0 402 -173t140 -518z" />
    <glyph glyph-name="afii10033" unicode="&#x41f;" 
d="M796 0v1105h-363v-1105h-295v1349h953v-1349h-295z" />
    <glyph glyph-name="afii10034" unicode="&#x420;" 
d="M591 703q254 0 254 215q1 110 -65 156t-197 46h-152v-417h160zM1142 927q0 -199 -130 -325t-384 -126h-197v-476h-295v1349h480q396 0 494 -248q32 -79 32 -174z" />
    <glyph glyph-name="afii10035" unicode="&#x421;" 
d="M652 1138q-272 0 -272 -457q0 -225 70 -347t209 -122q162 0 240 244l273 -52q-133 -424 -516 -424q-293 0 -435 186q-141 186 -141 515q0 689 568 689q377 0 496 -389l-272 -66q-42 159 -144 207q-34 16 -76 16z" />
    <glyph glyph-name="afii10036" unicode="&#x422;" 
d="M762 1121v-1121h-295v1121h-406v228h1107v-228h-406z" />
    <glyph glyph-name="afii10037" unicode="&#x423;" 
d="M286 244q53 0 80.5 10t62 44t93.5 159l-516 892h307l345 -647l261 647h299l-476 -1031q-84 -182 -174.5 -260t-252.5 -78q-102 0 -166 23t-87 37l82 246q89 -42 142 -42z" />
    <glyph glyph-name="afii10038" unicode="&#x424;" 
d="M324 479q58 -82 146 -82h26v595h-19q-89 0 -150 -74t-61 -216q0 -141 58 -223zM496 -11v209h-24q-205 0 -334 143t-129 369t130 354q130 127 345 127h12v168h238v-168h12q216 0 345 -127q130 -127 130 -354q0 -226 -129 -369t-334 -143h-24v-209h-238zM964 702
q0 141 -60 215q-60 75 -151 75h-19v-595h26q88 0 146 82t58 223z" />
    <glyph glyph-name="afii10039" unicode="&#x425;" 
d="M919 0l-303 493l-304 -493h-312l459 711l-418 638h312l263 -430l262 430h310l-428 -638l469 -711h-310z" />
    <glyph glyph-name="afii10040" unicode="&#x426;" 
d="M979 -425v425h-841v1349h295v-1105h318v1105h295v-1105h183v-669h-250z" />
    <glyph glyph-name="afii10041" unicode="&#x427;" 
d="M543 643q151 0 253 33v673h295v-1349h-295v487q-158 -63 -350 -63q-381 0 -381 475v450h284v-429q0 -144 45.5 -210.5t148.5 -66.5z" />
    <glyph glyph-name="afii10042" unicode="&#x428;" 
d="M89 0v1349h241v-1125h167v1125h235v-1125h167v1125h241v-1349h-1051z" />
    <glyph glyph-name="afii10043" unicode="&#x429;" 
d="M89 0v1349h241v-1125h167v1125h235v-1125h167v1125h241v-1145h88v-629h-222v425h-917z" />
    <glyph glyph-name="afii10044" unicode="&#x42a;" 
d="M890 420q0 94 -63.5 147.5t-193.5 53.5h-80v-401h79q125 0 191.5 53t66.5 147zM640 838q258 0 403 -111t145 -300t-147 -308t-414 -119h-369v1121h-256v228h551v-511h87z" />
    <glyph glyph-name="afii10045" unicode="&#x42b;" 
d="M1150 0h-250v1349h250v-1349zM569 411q0 210 -187 210h-53v-411h59q144 0 162.5 77t18.5 124zM79 1349h250v-531h54q202 0 315.5 -107.5t113.5 -297.5q0 -191 -122.5 -302t-338.5 -111h-272v1349z" />
    <glyph glyph-name="afii10046" unicode="&#x42c;" 
d="M881 417q0 184 -277 184h-172v-371h178q140 0 205.5 49.5t65.5 137.5zM1036 116q-143 -116 -408 -116h-491v1349h295v-521h218q256 0 392.5 -108t136.5 -298t-143 -306z" />
    <glyph glyph-name="afii10047" unicode="&#x42d;" 
d="M456 568v228h393q-34 342 -272 342q-120 0 -163.5 -87.5t-56.5 -135.5l-272 66q119 389 496 389q568 0 568 -689q0 -505 -212 -603t-339 -98t-285.5 57.5t-255.5 366.5l273 52q78 -244 240 -244q121 0 191.5 91.5t87.5 264.5h-393z" />
    <glyph glyph-name="afii10048" unicode="&#x42e;" 
d="M652 681q0 -506 140 -506t140 506q0 383 -52 438t-88 55q-74 0 -107 -115.5t-33 -377.5zM798 1370q174 0 273 -172t99 -517q0 -511 -142 -606t-232 -95q-176 0 -272 159t-108 450h-99v-589h-231v1349h231v-575h99q28 596 382 596z" />
    <glyph glyph-name="afii10049" unicode="&#x42f;" 
d="M368 937q0 -193 252 -193h176v376h-168q-194 0 -227 -66t-33 -117zM71 949q0 194 131 297t395 103h494v-1349h-295v515h-173l-290 -515h-332l349 581q-196 58 -237.5 176t-41.5 192z" />
    <glyph glyph-name="afii10065" unicode="&#x430;" 
d="M399 328q0 -152 120 -152q102 0 164 80q63 80 63 190v55l-134 -2q-107 -2 -144 -25q-69 -42 -69 -146zM431 -20q-148 0 -237 85q-88 85 -88 241q0 341 417 346l223 4v55q0 165 -86 199q-28 10 -60 10q-69 0 -106 -33q-36 -33 -46 -120l-293 14q54 321 455 321
q202 0 310 -99t107 -291v-392q0 -83 13 -111q23 -49 65 -49q43 0 73 6v-152q-108 -26 -197 -26q-180 0 -200 205h-6q-89 -159 -224 -199q-50 -14 -120 -14z" />
    <glyph glyph-name="afii10066" unicode="&#x431;" 
d="M685 1027q237 0 352 -130t115 -393q0 -393 -202 -458.5t-325 -65.5q-254 0 -388.5 155t-134.5 519t136 548t452 240q205 40 405 60v-235q-467 -47 -598.5 -109t-177.5 -157.5t-52 -287.5q97 314 418 314zM639 834q-241 0 -241 -331t228 -331q232 0 232 255t-57 331
t-162 76z" />
    <glyph glyph-name="afii10067" unicode="&#x432;" 
d="M420 907v-260h168q181 0 202 48t21 83q0 67 -48 98t-162 31h-181zM420 175h187q192 0 216 54.5t24 94.5q0 83 -57 117t-194 34h-176v-300zM634 1082q470 0 470 -271q0 -147 -97 -188t-146 -50v-7q195 -23 234 -108t39 -146q0 -157 -119.5 -234.5t-338.5 -77.5h-538v1082
h496z" />
    <glyph glyph-name="afii10068" unicode="&#x433;" 
d="M1068 1082v-190h-543v-892h-282v1082h825z" />
    <glyph glyph-name="afii10069" unicode="&#x434;" 
d="M259 0v-408h-245v598h125q65 102 117.5 300t105.5 592h674v-892h146v-598h-245v408h-678zM762 892h-172q-67 -513 -168 -702h340v702z" />
    <glyph glyph-name="afii10070" unicode="&#x435;" 
d="M466 860q-65 -65 -69 -197h460q-8 125 -71 193q-63 69 -159 69t-161 -65zM625 -20q-242 0 -384 144q-141 144 -141 427t163 427q140 124 376 124q237 0 364 -163q126 -163 126 -444v-8h-734q0 -221 138 -295q45 -24 113 -24t125 32t77 97l265 -23q-75 -194 -289 -266
q-84 -28 -199 -28z" />
    <glyph glyph-name="afii10072" unicode="&#x436;" 
d="M509 474q-26 0 -39.5 8t-27.5 13l-193 -495h-247l258 581q-36 28 -67.5 83t-44.5 87l-136 331h244l86 -237q73 -203 167 -207v444h212v-444q94 4 167 207l86 237h244l-136 -331q-32 -82 -67.5 -122.5t-44.5 -47.5l258 -581h-247l-193 495q-14 -5 -27.5 -13t-39.5 -8v-474
h-212v474z" />
    <glyph glyph-name="afii10073" unicode="&#x437;" 
d="M1061 821q0 -202 -248 -254v-2q190 -20 235.5 -111.5t45.5 -155.5q0 -141 -127.5 -229.5t-357.5 -88.5q-229 0 -349.5 80.5t-161.5 227.5l241 44q17 -76 85.5 -120t166.5 -44q97 0 155.5 39.5t58.5 96.5q0 100 -88 133.5t-257 33.5v177q162 0 223.5 23t85.5 52t24 81
t-52.5 85.5t-120.5 33.5q-121 0 -186.5 -33t-74.5 -111l-237 22q39 223 212.5 262t277.5 39q207 0 328 -77.5t121 -203.5z" />
    <glyph glyph-name="afii10074" unicode="&#x438;" 
d="M400 1082v-476q0 -147 -20 -287l426 763h285v-1082h-260v540q0 123 20 223l-413 -763h-300v1082h262z" />
    <glyph glyph-name="afii10075" unicode="&#x439;" 
d="M400 1082v-476q0 -147 -20 -287l426 763h285v-1082h-260v540q0 123 20 223l-413 -763h-300v1082h262zM290 1265q-76 64 -83 210h224q6 -95 48 -123q42 -27 110 -27q119 0 161 27t47 123h224q-7 -145 -83 -210q-95 -81 -323 -81q-229 0 -325 81z" />
    <glyph glyph-name="afii10076" unicode="&#x43a;" 
d="M420 0h-282v1082h282v-444q102 0 145.5 29.5t71 64.5t60.5 89l160 261h286l-236 -381q-53 -85 -124 -136l379 -565h-302l-291 470q-78 -25 -149 -25v-445z" />
    <glyph glyph-name="afii10077" unicode="&#x43b;" 
d="M79 175q36 0 57.5 12.5t46.5 61t54.5 219t90.5 614.5h763v-1082h-282v892h-246q-56 -410 -94.5 -588t-102.5 -251t-177 -73t-171 13v191q25 -9 61 -9z" />
    <glyph glyph-name="afii10078" unicode="&#x43c;" 
d="M305 658v-658h-206v1082h327l141 -541q25 -91 53 -316q5 32 17.5 127t35.5 189l136 541h321v-1082h-206v658q0 103 18 259l-225 -917h-193l-235 915q16 -155 16 -257z" />
    <glyph glyph-name="afii10079" unicode="&#x43d;" 
d="M1091 1082v-1082h-282v463h-389v-463h-282v1082h282v-428h389v428h282z" />
    <glyph glyph-name="afii10080" unicode="&#x43e;" 
d="M387 542q0 -370 220 -370q125 0 180 88q56 88 56 282q-1 286 -121 346q-42 21 -102 21q-124 0 -178 -88t-55 -279zM616 1102q521 0 521 -560q-1 -398 -291 -520q-100 -42 -234 -42q-257 0 -388 151q-132 151 -132 411q0 397 286 518q100 42 238 42z" />
    <glyph glyph-name="afii10081" unicode="&#x43f;" 
d="M1091 1082v-1082h-282v892h-389v-892h-282v1082h953z" />
    <glyph glyph-name="afii10082" unicode="&#x440;" 
d="M839 543q-1 184 -53 276t-142 92t-154 -88q-65 -88 -65 -286q0 -197 63 -281q63 -85 148 -85q203 0 203 372zM427 906h4q98 197 316 197q185 0 285 -155t100 -405q0 -397 -220 -521q-74 -42 -176 -42q-221 0 -307 191h-2l1 -74l1 -104v-418h-281v1271q0 100 -8 236h272
q15 -52 15 -176z" />
    <glyph glyph-name="afii10083" unicode="&#x441;" 
d="M622 909q-217 -1 -217 -369t221 -368q80 0 134 50t67 151l282 -13q-21 -160 -148 -270t-337 -110q-252 0 -383 150t-131 412q0 263 136 411q136 149 382 149q200 0 322 -100t151 -261l-283 -14q-12 83 -60 133t-136 49z" />
    <glyph glyph-name="afii10084" unicode="&#x442;" 
d="M110 1082h1008v-190h-363v-892h-282v892h-363v190z" />
    <glyph glyph-name="afii10085" unicode="&#x443;" 
d="M378 -180q50 40 90 143l18 48l-448 1071h297l190 -527q18 -51 41 -127t33 -110t17 -60t10 -37q2 11 9 37t15 58t19 68q10 36 25 91t22 76l180 531h294l-448 -1139q-77 -197 -170 -283q-93 -85 -247 -85q-106 0 -182 13v200q40 -8 112 -8q73 0 123 40z" />
    <glyph glyph-name="afii10086" unicode="&#x444;" 
d="M941 542q0 254 -88 308.5t-135 66.5v-755q223 57 223 380zM511 -425v409q-207 19 -334.5 161.5t-127.5 394.5q0 251 125 393t337 165v386h207v-386q212 -23 337 -165t125 -393t-127.5 -394t-334.5 -162v-409h-207zM288 540q0 -174 62.5 -263.5t160.5 -114.5v755
q-223 -59 -223 -377z" />
    <glyph glyph-name="afii10087" unicode="&#x445;" 
d="M874 0l-262 392l-264 -392h-299l406 559l-387 523h303l241 -354l240 354h305l-387 -520l409 -562h-305z" />
    <glyph glyph-name="afii10088" unicode="&#x446;" 
d="M139 0v1082h282v-892h357v892h282v-892h146v-598h-245v408h-822z" />
    <glyph glyph-name="afii10089" unicode="&#x447;" 
d="M549 540q104 0 261 45v497h281v-1082h-281v415q-43 -15 -85.5 -30.5t-121 -35.5t-169.5 -20q-164 0 -243.5 83.5t-79.5 231.5v438h280v-386q0 -156 158 -156z" />
    <glyph glyph-name="afii10090" unicode="&#x448;" 
d="M79 0v1082h220v-901h205v901h220v-901h206v901h220v-1082h-1071z" />
    <glyph glyph-name="afii10091" unicode="&#x449;" 
d="M79 0v1082h220v-901h205v901h220v-901h206v901h220v-901h69v-589h-213v408h-927z" />
    <glyph glyph-name="afii10092" unicode="&#x44a;" 
d="M563 173h88q192 0 216 60.5t24 98.5q0 75 -53 107.5t-186 32.5h-89v-299zM711 646q235 0 351 -74t116 -238q0 -241 -174 -287.5t-292 -46.5h-431v892h-273v190h555v-436h148z" />
    <glyph glyph-name="afii10093" unicode="&#x44b;" 
d="M869 0v1082h261v-1082h-261zM341 173h32q110 0 145 36t35 96t-7.5 87.5t-36 54t-135.5 26.5h-33v-300zM800 332q0 -332 -406 -332h-295v1082h242v-435h52q316 0 361.5 -119.5t45.5 -195.5z" />
    <glyph glyph-name="afii10094" unicode="&#x44c;" 
d="M419 173h187q196 0 223 61.5t27 99.5q0 74 -57.5 106t-191.5 32h-188v-299zM666 646q477 0 477 -310q0 -159 -122.5 -247.5t-353.5 -88.5h-530v1082h282v-436h247z" />
    <glyph glyph-name="afii10095" unicode="&#x44d;" 
d="M574 172q122 0 172 69t56 212h-309v190h309q-10 197 -83 231.5t-145 34.5t-120.5 -49.5t-60.5 -132.5l-283 14q46 250 207 305.5t275 55.5q238 0 373.5 -149t135.5 -411q0 -263 -131 -412.5t-383 -149.5q-210 0 -337 110t-148 270l282 13q13 -100 67 -150.5t123 -50.5z
" />
    <glyph glyph-name="afii10096" unicode="&#x44e;" 
d="M674 540q0 -115 10.5 -187t29.5 -112t44.5 -54t55.5 -14t55.5 14t44 54t29 112t10.5 187t-9.5 187t-27 112.5t-42 55t-54.5 14.5t-56.5 -14.5t-46.5 -55t-31.5 -112.5t-11.5 -187zM310 654h133q35 334 167 391t210 57q164 0 266.5 -144t102.5 -417t-98 -417t-269 -144
t-270 124.5t-111 358.5h-131v-463h-240v1082h240v-428z" />
    <glyph glyph-name="afii10097" unicode="&#x44f;" 
d="M613 907q-205 0 -205 -150t189 -150h214v300h-198zM121 778q0 150 123.5 227t353.5 77h493v-1082h-282v435h-198l-272 -435h-307l322 471q-233 55 -233 307z" />
    <glyph glyph-name="uni0450" unicode="&#x450;" 
d="M265 1492h258l252 -243v-31h-170l-340 231v43zM466 860q-65 -65 -69 -197h460q-8 125 -71 193q-63 69 -159 69t-161 -65zM625 -20q-242 0 -384 144q-141 144 -141 427t163 427q140 124 376 124q237 0 364 -163q126 -163 126 -444v-8h-734q0 -221 138 -295q45 -24 113 -24
t125 32t77 97l265 -23q-75 -194 -289 -266q-84 -28 -199 -28z" />
    <glyph glyph-name="afii10071" unicode="&#x451;" 
d="M466 860q-65 -65 -69 -197h460q-8 125 -71 193q-63 69 -159 69t-161 -65zM625 -20q-242 0 -384 144q-141 144 -141 427t163 427q140 124 376 124q237 0 364 -163q126 -163 126 -444v-8h-734q0 -221 138 -295q45 -24 113 -24t125 32t77 97l265 -23q-75 -194 -289 -266
q-84 -28 -199 -28zM289 1219v219h224v-219h-224zM713 1219v219h227v-219h-227z" />
    <glyph glyph-name="afii10099" unicode="&#x452;" 
d="M1104 -128q0 -297 -299 -297q-89 0 -158 9v198q26 -4 58 -4q69 0 94 34t25 128v626q0 140 -26 191.5t-60 72.5t-86 21q-102 0 -165 -87t-63 -225v-539h-281v1179h-133v170h133v135h281v-135h300v-170h-300v-140q0 -109 -8 -213h4q108 236 338 236q194 0 270 -111.5
t76 -304.5v-774z" />
    <glyph glyph-name="afii10100" unicode="&#x453;" 
d="M1068 1082v-190h-543v-892h-282v1082h825zM514 1184v31l252 243h258v-43l-340 -231h-170z" />
    <glyph glyph-name="afii10101" unicode="&#x454;" 
d="M655 172q69 0 123 50.5t67 150.5l282 -13q-21 -160 -148 -270t-337 -110q-252 0 -383 149.5t-131 412.5t135.5 411.5t382.5 148.5q200 0 321.5 -100t151.5 -261l-283 -14q-12 83 -60 132.5t-120 49.5q-125 0 -174 -67t-55 -199h309v-190h-309q9 -212 84 -246.5t144 -34.5
z" />
    <glyph glyph-name="afii10102" unicode="&#x455;" 
d="M976 70q-128 -90 -356 -90q-318 0 -436 154q-42 55 -63 136l247 37q23 -86 80 -113q57 -28 138 -28q140 0 200 27t60 98t-92 105q-42 16 -100 28t-124 26q-172 39 -250 93q-116 80 -116 233t119 240t339 87q282 0 400 -159q40 -55 57 -133l-249 -26q-19 107 -131 125
q-35 6 -106 6t-121 -26t-50 -74t20 -70t58 -36t90 -26q52 -10 119 -26q69 -16 141 -36q72 -22 128 -60q126 -83 126 -243q0 -159 -128 -249z" />
    <glyph glyph-name="afii10103" unicode="&#x456;" 
d="M794 190h353v-190h-1029v190h395v702h-290v190h571v-892zM515 1277v207h281v-207h-281z" />
    <glyph glyph-name="afii10104" unicode="&#x457;" 
d="M794 190h353v-190h-1029v190h395v702h-290v190h571v-892zM330 1219v219h224v-219h-224zM754 1219v219h227v-219h-227z" />
    <glyph glyph-name="afii10105" unicode="&#x458;" 
d="M583 1277v207h281v-207h-281zM338 -206q85 0 122 8q122 28 122 208v882h-354v190h636v-1095q0 -206 -132 -309t-316 -103t-299 43v210q136 -34 221 -34z" />
    <glyph glyph-name="afii10106" unicode="&#x459;" 
d="M769 173h32q154 0 167 57.5t13 95.5q0 79 -36 112.5t-143 33.5h-33v-299zM1228 330q0 -330 -406 -330h-295v892h-102l-40 -450q-26 -289 -84 -375.5t-199 -86.5q-59 0 -97 11v170q19 -8 47 -8t47.5 12t38 62t38.5 264l53 591h540v-436h52q316 0 361.5 -120t45.5 -196z
" />
    <glyph glyph-name="afii10107" unicode="&#x45a;" 
d="M769 173h32q154 0 167 57.5t13 95.5q0 79 -36 112.5t-143 33.5h-33v-299zM1228 330q0 -330 -406 -330h-295v474h-193v-474h-242v1082h242v-436h193v435h242v-435h52q316 0 361.5 -120t45.5 -196z" />
    <glyph glyph-name="afii10108" unicode="&#x45b;" 
d="M420 826q108 236 338 236q194 0 270 -111.5t76 -304.5v-646h-280v581q0 137 -26 185t-60 66.5t-86 18.5q-102 0 -165 -87t-63 -225v-539h-281v1180h-134v169h134v135h281v-135h300v-169h-300v-141q0 -109 -8 -213h4z" />
    <glyph glyph-name="afii10109" unicode="&#x45c;" 
d="M420 0h-282v1082h282v-444q102 0 145 30t71 64q28 35 61 89l160 261h286l-236 -381q-53 -85 -124 -136l379 -565h-302l-291 470q-78 -25 -149 -25v-445zM467 1184v31l252 243h258v-43l-340 -231h-170z" />
    <glyph glyph-name="uni045D" unicode="&#x45d;" 
d="M265 1492h258l252 -243v-31h-170l-340 231v43zM400 1082v-476q0 -147 -20 -287l426 763h285v-1082h-260v540q0 123 20 223l-413 -763h-300v1082h262z" />
    <glyph glyph-name="afii10110" unicode="&#x45e;" 
d="M378 -180q50 40 90 143l18 48l-448 1071h297l190 -527q18 -51 41 -127t33 -110t17 -60t10 -37q2 11 9 37t15 58t19 68q10 36 25 91t22 76l180 531h294l-448 -1139q-77 -197 -170 -283q-93 -85 -247 -85q-106 0 -182 13v200q40 -8 112 -8q73 0 123 40zM302 1265
q-76 64 -83 210h224q6 -95 48 -123q42 -27 110 -27q119 0 161 27t47 123h224q-7 -145 -83 -210q-95 -81 -323 -81q-229 0 -325 81z" />
    <glyph glyph-name="afii10193" unicode="&#x45f;" 
d="M492 0h-354v1082h282v-891h389v891h282v-1082h-354v-408h-245v408z" />
    <glyph glyph-name="afii10050" unicode="&#x490;" 
d="M893 1349v356h250v-584h-651v-1120h-295v1348h696z" />
    <glyph glyph-name="afii10098" unicode="&#x491;" 
d="M800 1082v408h245v-598h-540v-892h-282v1082h577z" />
    <glyph glyph-name="Wgrave" unicode="&#x1e80;" 
d="M1018 0h-248l-64 267q-5 19 -12 45q-33 121 -78 324q-18 -77 -30 -127q-12 -49 -20 -81t-14 -62q-8 -30 -15 -54q-7 -26 -12 -45l-66 -267h-248l-211 1349h259l89 -695q12 -96 16 -266q15 92 55 244l99 339h195l99 -339q12 -44 22 -88t18 -82t15 -74q1 0 2 27
q6 161 16 239l84 695h259zM268 1703h258l252 -243v-31h-170l-340 231v43z" />
    <glyph glyph-name="wgrave" unicode="&#x1e81;" 
d="M1028 0h-244l-143 471q-25 80 -27 102q-3 -25 -29 -106l-148 -467h-243l-183 1082h228l83 -607q19 -152 19 -226q4 17 9 35q4 18 10 38t13 41l145 454h193l140 -455q15 -50 29 -113q0 73 21 226l91 607h226zM227 1458h258l252 -243v-31h-170l-340 231v43z" />
    <glyph glyph-name="Wacute" unicode="&#x1e82;" 
d="M1018 0h-248l-64 267q-5 19 -12 45q-33 121 -78 324q-18 -77 -30 -127q-12 -49 -20 -81t-14 -62q-8 -30 -15 -54q-7 -26 -12 -45l-66 -267h-248l-211 1349h259l89 -695q12 -96 16 -266q15 92 55 244l99 339h195l99 -339q12 -44 22 -88t18 -82t15 -74q1 0 2 27
q6 161 16 239l84 695h259zM470 1431v31l252 243h258v-43l-340 -231h-170z" />
    <glyph glyph-name="wacute" unicode="&#x1e83;" 
d="M1028 0h-244l-143 471q-25 80 -27 102q-3 -25 -29 -106l-148 -467h-243l-183 1082h228l83 -607q19 -152 19 -226q4 17 9 35q4 18 10 38t13 41l145 454h193l140 -455q15 -50 29 -113q0 73 21 226l91 607h226zM461 1184v31l252 243h258v-43l-340 -231h-170z" />
    <glyph glyph-name="Wdieresis" unicode="&#x1e84;" 
d="M1018 0h-248l-64 267q-5 19 -12 45q-33 121 -78 324q-18 -77 -30 -127q-12 -49 -20 -81t-14 -62q-8 -30 -15 -54q-7 -26 -12 -45l-66 -267h-248l-211 1349h259l89 -695q12 -96 16 -266q15 92 55 244l99 339h195l99 -339q12 -44 22 -88t18 -82t15 -74q1 0 2 27
q6 161 16 239l84 695h259zM290 1446v219h224v-219h-224zM714 1446v219h227v-219h-227z" />
    <glyph glyph-name="wdieresis" unicode="&#x1e85;" 
d="M1028 0h-244l-143 471q-25 80 -27 102q-3 -25 -29 -106l-148 -467h-243l-183 1082h228l83 -607q19 -152 19 -226q4 17 9 35q4 18 10 38t13 41l145 454h193l140 -455q15 -50 29 -113q0 73 21 226l91 607h226zM290 1219v219h224v-219h-224zM714 1219v219h227v-219h-227z
" />
    <glyph glyph-name="Ygrave" unicode="&#x1ef2;" 
d="M761 0h-294v556l-464 793h309l300 -566l304 566h309l-464 -793v-556zM267 1705h258l252 -243v-31h-170l-340 231v43z" />
    <glyph glyph-name="ygrave" unicode="&#x1ef3;" 
d="M378 -180q50 40 90 143l18 48l-448 1071h297l190 -527q18 -51 41 -127t33 -110t17 -60t10 -37q2 11 9 37t15 58t19 68q10 36 25 91t22 76l180 531h294l-448 -1139q-77 -197 -170 -283q-93 -85 -247 -85q-106 0 -182 13v200q40 -8 112 -8q73 0 123 40zM288 1458h258
l252 -243v-31h-170l-340 231v43z" />
    <glyph glyph-name="uni2010" unicode="&#x2010;" 
d="M324 409v244h580v-244h-580z" />
    <glyph glyph-name="uni2011" unicode="&#x2011;" 
d="M324 409v244h580v-244h-580z" />
    <glyph glyph-name="endash" unicode="&#x2013;" 
d="M162 418v203h904v-203h-904z" />
    <glyph glyph-name="emdash" unicode="&#x2014;" 
d="M-10 418v203h1248v-203h-1248z" />
    <glyph glyph-name="afii00208" unicode="&#x2015;" 
d="M-10 418v203h1248v-203h-1248z" />
    <glyph glyph-name="underscoredbl" unicode="&#x2017;" 
d="M-5 -425v96h1238v-96h-1238zM-5 -220v96h1238v-96h-1238z" />
    <glyph glyph-name="quoteleft" unicode="&#x2018;" 
d="M861 1484l-169 -622h-325l311 622h183z" />
    <glyph glyph-name="quoteright" unicode="&#x2019;" 
d="M369 862l169 622h325l-311 -622h-183z" />
    <glyph glyph-name="quotesinglbase" unicode="&#x201a;" 
d="M319 -363l169 622h325l-311 -622h-183z" />
    <glyph glyph-name="quotereversed" unicode="&#x201b;" 
d="M679 862l-311 622h325l169 -622h-183z" />
    <glyph glyph-name="quotedblleft" unicode="&#x201c;" 
d="M1090 1484l-169 -622h-325l311 622h183zM631 1484l-169 -622h-325l311 622h183z" />
    <glyph glyph-name="quotedblright" unicode="&#x201d;" 
d="M138 862l169 622h325l-311 -622h-183zM597 862l169 622h325l-311 -622h-183z" />
    <glyph glyph-name="quotedblbase" unicode="&#x201e;" 
d="M138 -364l169 622h325l-311 -622h-183zM597 -364l169 622h325l-311 -622h-183z" />
    <glyph glyph-name="dagger" unicode="&#x2020;" 
d="M713 960l-22 -1173h-155l-22 1173l-342 -27v204l342 -29l-28 376h255l-28 -376l343 29v-204z" />
    <glyph glyph-name="daggerdbl" unicode="&#x2021;" 
d="M513 980l-340 -27v204l340 -29l-16 356h215l-16 -356l361 29v-204l-361 27l-26 -345l26 -342l360 27v-204l-360 29l16 -356h-215l16 356l-341 -29v204l341 -27l26 342z" />
    <glyph glyph-name="bullet" unicode="&#x2022;" 
d="M820 473q-87 -87 -207 -87t-206 87t-86 208.5t85.5 207t206.5 85.5t207.5 -85.5t86.5 -207t-87 -208.5z" />
    <glyph glyph-name="ellipsis" unicode="&#x2026;" 
d="M59 0v305h258v-305h-258zM491 0v305h256v-305h-256zM921 0v305h258v-305h-258z" />
    <glyph glyph-name="perthousand" unicode="&#x2030;" 
d="M1000 469q-86 0 -86 -146q0 -113 21.5 -151.5t62.5 -38.5q80 0 80 168q0 99 -14.5 126.5t-29 34.5t-34.5 7zM998 597q107 0 168.5 -67t61.5 -229q0 -234 -92 -267.5t-140 -33.5q-106 0 -169 71t-63 230q0 238 92.5 267t141.5 29zM494 469q-86 0 -85 -146
q0 -113 21.5 -151.5t62.5 -38.5q80 0 80 168q0 99 -14.5 126.5t-29.5 34.5t-35 7zM493 597q107 0 168.5 -67t61.5 -229q0 -234 -92.5 -267.5t-140.5 -33.5q-106 0 -168.5 71t-62.5 230q0 238 92.5 267t141.5 29zM236 1283q-86 0 -86 -146q0 -113 21.5 -151.5t62.5 -38.5
q80 0 80 168q0 99 -14.5 126.5t-29 34.5t-34.5 7zM234 1411q107 0 168.5 -67t61.5 -229q0 -234 -92 -267.5t-140 -33.5q-106 0 -169 71t-63 230q0 238 92.5 267t141.5 29zM164 429h-160l601 599h162z" />
    <glyph glyph-name="minute" unicode="&#x2032;" 
d="M714 844h-199l-37 641h273z" />
    <glyph glyph-name="second" unicode="&#x2033;" 
d="M486 844h-199l-37 641h273zM942 844h-199l-37 641h275z" />
    <glyph glyph-name="guilsinglleft" unicode="&#x2039;" 
d="M850 940v-37l-254 -366l256 -361v-35h-238l-258 361v71l258 367h236z" />
    <glyph glyph-name="guilsinglright" unicode="&#x203a;" 
d="M376 141v35l256 361l-254 366v37h236l258 -367v-71l-258 -361h-238z" />
    <glyph glyph-name="exclamdbl" unicode="&#x203c;" 
d="M752 0v270h288v-270h-288zM1014 426h-230l-32 923h294zM182 0v270h288v-270h-288zM444 426h-230l-32 923h294z" />
    <glyph glyph-name="uni203E" unicode="&#x203e;" 
d="M-5 1452v96h1238v-96h-1238z" />
    <glyph glyph-name="uni2215" unicode="&#x2044;" 
d="M329 0h-162l738 1349h161z" />
    <glyph glyph-name="uni2215" unicode="&#x2215;" 
d="M329 0h-162l738 1349h161z" />
    <glyph glyph-name="uni207F" unicode="&#x207f;" 
d="M501 1058h3q32 61 80 92t143 31q202 0 202 -229v-433h-179v384q0 87 -18 113t-38 33.5t-50 7.5q-62 0 -98.5 -48t-36.5 -139v-351h-178v511l-4 139h166q1 -3 2 -16.5t3.5 -42t2.5 -52.5z" />
    <glyph glyph-name="franc" unicode="&#x20a3;" 
d="M462 1141v-336h637v-208h-637v-190h314v-149h-314v-258h-285v258h-140v149h140v942h955v-208h-670z" />
    <glyph glyph-name="lira" unicode="&#x20a4;" 
d="M796 0h-694v205q97 55 137 107t40 170v6h-188v149h178v112h-178v149h178v64q0 296 156 352t261 56q190 0 283 -74.5t133 -216.5l-233 -47q-21 77 -62 112t-119 35q-158 0 -159 -240v-41h286v-149h-286v-112h286v-149h-286v-4q0 -155 -69.5 -203t-112.5 -72h380
q104 0 157.5 49.5t70.5 143.5l233 -39q-44 -248 -174.5 -305.5t-217.5 -57.5z" />
    <glyph glyph-name="peseta" unicode="&#x20a7;" 
d="M525 151v392h-79v107h80l59 142h91v-142h131v-107h-131v-364q0 -78 58 -78q45 0 72 7v-107q-160 -35 -220.5 18t-60.5 132zM250 805q150 0 150 207q0 151 -61 167.5t-97 16.5h-16v-391h24zM1020 92q50 0 50 63t-93 127q-138 94 -138 213t74 144t111 25q70 0 118 -48
t56 -120l-119 -12q-5 36 -20.5 57.5t-34.5 21.5q-45 0 -45 -57q-1 -58 89 -119q142 -97 142 -194q0 -95 -52 -149t-140 -54q-114 0 -148.5 66.5t-40.5 106.5l118 17q17 -88 73 -88zM255 1349q327 0 327 -334q0 -159 -82.5 -260t-232.5 -101h-41v-654h-181v1349h210z" />
    <glyph glyph-name="Euro" unicode="&#x20ac;" 
d="M498 686.5q0 -49.5 4 -81.5h391v-142h-373q56 -252 249 -252q79 0 144.5 30.5t133.5 84.5l131 -184q-176 -162 -416 -162t-373.5 129t-169.5 351h-148v144h131q-3 24 -3 30v45q0 9 0.5 20.5l1 23t1 21t0.5 14.5h-131v142h147q36 225 172.5 347.5t370.5 122.5
q233 0 400 -142l-131 -202q-141 113 -270 113q-188 0 -237 -241h370v-141h-392q-3 -21 -3 -70.5z" />
    <glyph glyph-name="afii61248" unicode="&#x2105;" 
d="M332 0h-138l703 1349h135zM271 1227q-105 0 -105 -282q0 -143 28.5 -216t77.5 -73q38 0 56 41.5t28 127.5l161 -9q-21 -197 -104 -245.5t-146 -48.5q-130 0 -198.5 114.5t-68.5 305.5q0 323 109 370.5t164 47.5q102 0 161 -77t78 -202l-163 -11q-12 87 -26.5 122
t-51.5 35zM1061 404q0 290 -100 290t-100 -290q0 -214 38.5 -250t60.5 -36q45 0 73 71.5t28 214.5zM962 825q268 0 267 -417q0 -321 -107.5 -370.5t-194.5 -49.5t-160 100.5t-73 315.5q0 334 106 377.5t162 43.5z" />
    <glyph glyph-name="afii61289" unicode="&#x2113;" 
d="M693 1260q-117 0 -117 -148v-336q163 66 195.5 171.5t32.5 159.5q0 153 -111 153zM568 377q0 -182 129 -182q80 0 122.5 53t65.5 160h146q-84 -428 -415 -428q-169 0 -248.5 83.5t-79.5 246.5v166q-64 -25 -132 -48v195q58 19 132 48v390q0 251 142 309.5t242 58.5
q184 0 277.5 -77.5t93.5 -219.5q0 -288 -182 -402t-293 -152v-201z" />
    <glyph glyph-name="afii61352" unicode="&#x2116;" 
d="M744 0v156h435v-156h-435zM957 431q83 1 83 259t-75 258q-80 0 -80 -258t72 -259zM713 690q0 390 249 390q196 0 221.5 -149t25.5 -242q0 -196 -56.5 -293t-194.5 -97q-245 1 -245 391zM182 0h-160v1349h192l258 -908q-8 160 -8 274v634h161v-1349h-199l-250 900l6 -254
v-646z" />
    <glyph glyph-name="trademark" unicode="&#x2122;" 
d="M1206 1483v-641h-135v353l3 88q-5 -19 -10 -35t-9 -30.5t-7 -22.5l-136 -353h-97l-136 353q-3 8 -7 22.5t-9 30.5t-10 34l3 -87v-353h-135v641h183l142 -372q3 -8 5.5 -18.5t6.5 -22.5t6 -26q2 14 6 26t6.5 22.5t5.5 18.5l141 372h183zM315 1351v-509h-157v509h-158v132
h477v-132h-162z" />
    <glyph glyph-name="uni2126" unicode="&#x2126;" 
d="M1066 228h112v-228h-495v304q102 106 147.5 208.5t45.5 222.5t-21 193.5t-57 121t-83.5 70.5t-130.5 23t-157.5 -98t-74.5 -296q0 -197 72 -295.5t121 -149.5v-304h-495v228h116q64 0 174 -11q-272 217 -272 581q0 268 160.5 420t385.5 152t385.5 -152t160.5 -420
q0 -364 -272 -581q114 11 178 11z" />
    <glyph glyph-name="estimated" unicode="&#x212e;" 
d="M624 975q-137 0 -236 -76v-266h477v264q-104 78 -241 78zM626 88q186 0 263 88.5t111 143.5l103 -61q-89 -141 -196.5 -216.5t-258.5 -75.5q-269 0 -411.5 164.5t-142.5 399.5q0 275 161 420t381 145t369.5 -160t149.5 -424h-767v-343q105 -81 238 -81z" />
    <glyph glyph-name="oneeighth" unicode="&#x215b;" 
d="M1 1068v165q85 0 165 61q28 22 46 55h181v-760h-191v570q-34 -67 -160 -87q-28 -4 -41 -4zM256 0h-162l738 1349h161zM1074 403q145 -33 145 -166q0 -246 -290 -246q-225 -1 -277 141q-16 42 -15 91q0 144 143 179v3q-123 61 -123 175q0 85 68 140q68 56 201 56
q206 0 257 -122q15 -36 15 -75q0 -118 -124 -173v-3zM1015 241q0 106 -88 106q-72 1 -82 -67q-3 -20 -3 -44q0 -115 76 -115q65 0 81 29q16 28 16 91zM927 646q-66 0 -66 -92q1 -92 67 -91q66 0 66 91q0 40 -14 66t-53 26z" />
    <glyph glyph-name="threeeighths" unicode="&#x215c;" 
d="M261 1361q258 -1 258 -215q0 -111 -136 -162v-6q157 -34 157 -185q0 -107 -77 -165q-77 -59 -207 -59q-128 -1 -200 53t-96 179l205 26q8 -57 29 -89t64 -32q82 0 82 104q0 82 -83 95q-25 4 -54 4h-41v131h37q68 0 95 24t27 74t-15 72q-14 21 -54 21t-57 -28t-22 -82
l-194 12q16 114 84 171t198 57zM325 0h-162l738 1349h161zM1114 403q145 -33 145 -166q0 -246 -290 -246q-225 -1 -277 141q-16 42 -15 91q0 144 143 179v3q-123 61 -123 175q0 85 68 140q68 56 201 56q206 0 257 -122q15 -36 15 -75q0 -118 -124 -173v-3zM882 236
q0 -115 76 -115q65 0 81 29t16 91q0 106 -88 106q-72 1 -82 -67q-3 -20 -3 -44zM967 646q-66 0 -66 -92q1 -92 67 -91q66 0 66 91q0 40 -14 66t-53 26z" />
    <glyph glyph-name="fiveeighths" unicode="&#x215d;" 
d="M180 802q14 -94 70 -94q86 0 86 109q0 86 -21 110t-69 24t-74 -40h-184l45 438h462v-153h-300l-16 -162q44 46 143 46q98 0 158 -63t59 -183t-73 -190q-72 -68 -198 -68q-248 0 -287 211zM325 0h-162l738 1349h161zM1114 403q145 -33 145 -166q0 -246 -290 -246
q-225 -1 -277 141q-16 42 -15 91q0 144 143 179v3q-123 61 -123 175q0 85 68 140q68 56 201 56q206 0 257 -122q15 -36 15 -75q0 -118 -124 -173v-3zM882 236q0 -115 76 -115q65 0 81 29t16 91q0 106 -88 106q-72 1 -82 -67q-3 -20 -3 -44zM967 646q-66 0 -66 -92
q1 -92 67 -91q66 0 66 91q0 40 -14 66t-53 26z" />
    <glyph glyph-name="seveneighths" unicode="&#x215e;" 
d="M336 589h-203q0 175 59 301t205 306h-390v153h589v-141q-152 -198 -191 -282t-54 -160t-15 -177zM231 0h-162l738 1349h161zM1074 403q145 -33 145 -166q0 -246 -290 -246q-225 -1 -277 141q-16 42 -15 91q0 144 143 179v3q-123 61 -123 175q0 85 68 140q68 56 201 56
q206 0 257 -122q15 -36 15 -75q0 -118 -124 -173v-3zM1015 241q0 106 -88 106q-72 1 -82 -67q-3 -20 -3 -44q0 -115 76 -115q65 0 81 29q16 28 16 91zM927 646q-66 0 -66 -92q1 -92 67 -91q66 0 66 91q0 40 -14 66t-53 26z" />
    <glyph glyph-name="arrowleft" unicode="&#x2190;" 
d="M1220 595v-86h-989q57 -67 119 -197h-72q-127 149 -270 222v36q143 73 270 222h72q-62 -130 -119 -197h989z" />
    <glyph glyph-name="arrowup" unicode="&#x2191;" 
d="M657 -61h-86v989q-67 -57 -197 -119v72q149 127 222 270h36q73 -143 222 -270v-72q-130 62 -197 119v-989z" />
    <glyph glyph-name="arrowright" unicode="&#x2192;" 
d="M8 499v86h989q-57 67 -119 197h72q127 -149 270 -222v-36q-143 -73 -270 -222h-72q62 130 119 197h-989z" />
    <glyph glyph-name="arrowdown" unicode="&#x2193;" 
d="M571 1151h86v-989q67 57 197 119v-72q-149 -127 -222 -270h-36q-73 143 -222 270v72q130 -62 197 -119v989z" />
    <glyph glyph-name="arrowboth" unicode="&#x2194;" 
d="M1220 531q-143 -73 -270 -222h-72q62 130 119 197h-766q57 -67 119 -197h-72q-127 149 -270 222v36q143 73 270 222h72q-62 -130 -119 -197h766q-57 67 -119 197h72q127 -149 270 -222v-36z" />
    <glyph glyph-name="arrowupdn" unicode="&#x2195;" 
d="M596 -61q-73 143 -222 270v72q130 -62 197 -119v766q-67 -57 -197 -119v72q149 127 222 270h36q73 -143 222 -270v-72q-130 62 -197 119v-766q67 57 197 119v-72q-149 -127 -222 -270h-36z" />
    <glyph glyph-name="arrowupdnbse" unicode="&#x21a8;" 
d="M596 -61q-73 143 -222 270v72q130 -62 197 -119v766q-67 -57 -197 -119v72q149 127 222 270h36q73 -143 222 -270v-72q-130 62 -197 119v-766q67 57 197 119v-72q-149 -127 -222 -270h-36zM374 -104h480v-80h-480v80z" />
    <glyph glyph-name="partialdiff" unicode="&#x2202;" 
d="M360 222.5q46 -54.5 128 -54.5q145 0 242.5 146.5t128.5 348.5q-18 73 -78 122t-128 49q-69 0 -115.5 -23t-99 -76.5t-88.5 -164.5t-36 -202t46 -145.5zM910 941q0 166 -74.5 254.5t-222.5 88.5q-102 0 -172 -34t-97 -54l45 208q113 73 259 73q263 0 376 -150.5
t113 -374.5q0 -225 -47 -389q-47 -163 -103 -266t-173.5 -213.5t-331.5 -110.5t-309.5 109.5t-95.5 278.5q0 219 104 385.5t213.5 211.5t181.5 45q124 0 204 -45.5t117 -119.5h6q7 77 7 103z" />
    <glyph glyph-name="uni2206" unicode="&#x2206;" 
d="M918 244l-223 618q-44 138 -60.5 214t-18.5 83q-13 -91 -79 -299l-220 -616h601zM1212 0h-1194v226l428 1123h345l421 -1123v-226z" />
    <glyph glyph-name="product" unicode="&#x220f;" 
d="M841 -455v1560h-442v-1560h-295v1804h1019v-1804h-282z" />
    <glyph glyph-name="summation" unicode="&#x2211;" 
d="M22 -455v160l606 746l-586 746v152h1117v-227h-746l528 -667l-548 -682h823v-228h-1194z" />
    <glyph glyph-name="minus" unicode="&#x2212;" 
d="M101 569v224h1027v-224h-1027z" />
    <glyph glyph-name="uni2219" unicode="&#x2219;" 
d="M470 417v305h288v-305h-288z" />
    <glyph glyph-name="radical" unicode="&#x221a;" 
d="M60 729v166h311l219 -635l412 1360h186l-506 -1645h-168l-270 754h-184z" />
    <glyph glyph-name="infinity" unicode="&#x221e;" 
d="M244 748.5q-35 -64.5 -35 -128.5q0 -114 33 -177t92 -63q60 0 105.5 54t95.5 161q-52 115 -94.5 166.5t-101.5 51.5q-60 0 -95 -64.5zM895 369q91 0 108 87.5t17 154.5t-30.5 129t-93.5 62q-102 0 -204 -217q47 -101 94 -158.5t109 -57.5zM1133 310q-77 -114 -217 -114
t-204.5 92.5t-97.5 156.5q-68 -119 -134.5 -179t-152.5 -60q-153 0 -230.5 107.5t-77.5 276.5q0 170 76.5 282t216.5 112t205 -97.5t97 -161.5q68 122 131.5 186t150.5 64t144 -29t113.5 -108t56.5 -247q0 -167 -77 -281z" />
    <glyph glyph-name="orthogonal" unicode="&#x221f;" 
d="M52 1223h94v-1129h1030v-94h-1124v1223z" />
    <glyph glyph-name="intersection" unicode="&#x2229;" 
d="M156 -2v512q0 231 128.5 376.5t327.5 145.5t329.5 -146.5t130.5 -375.5v-512h-103v514q0 193 -99 305.5t-257.5 112.5t-256 -112t-97.5 -308v-512h-103z" />
    <glyph glyph-name="integral" unicode="&#x222b;" 
d="M924 1294q-95 0 -132.5 -54t-37.5 -141v-1173q0 -272 -150.5 -326.5t-248.5 -54.5t-156 21v217q66 -25 119 -25q155 0 155 197v1171q0 177 104 279t298 102q88 0 155 -19v-219q-50 25 -106 25z" />
    <glyph glyph-name="approxequal" unicode="&#x2248;" 
d="M607 332q-165 58 -276 57q-110 0 -236 -88v213q113 84 271 84q106 0 292 -62q87 -29 134 -42t93 -13q134 0 248 92v-219q-95 -65 -160.5 -72.5t-132.5 -7.5q-68 0 -233 58zM885 963q134 0 248 92v-219q-111 -80 -267 -80q-75 0 -147.5 21t-176.5 57t-192 36
q-129 0 -255 -88v213q110 84 271 84q109 0 275 -58t244 -58z" />
    <glyph glyph-name="notequal" unicode="&#x2260;" 
d="M91 291v221h317l166 330h-483v223h592l133 258h211l-131 -258h242v-223h-351l-166 -330h517v-221h-625l-129 -254h-213l129 254h-209z" />
    <glyph glyph-name="equivalence" unicode="&#x2261;" 
d="M116 600v148h995v-148h-995zM116 244v148h995v-148h-995zM116 956v148h995v-148h-995z" />
    <glyph glyph-name="lessequal" unicode="&#x2264;" 
d="M91 0v223h1024v-223h-1024zM91 631v321l1026 346v-227l-832 -280l832 -279v-227z" />
    <glyph glyph-name="greaterequal" unicode="&#x2265;" 
d="M113 0v223h1024v-223h-1024zM111 285v227l832 279l-832 280v227l1026 -346v-321z" />
    <glyph glyph-name="house" unicode="&#x2302;" 
d="M221 85h786v512l-393 370l-393 -370v-512zM138 0v635l476 448l476 -448v-635h-952z" />
    <glyph glyph-name="revlogicalnot" unicode="&#x2310;" 
d="M262 608v-428h-147l1 574h995v-146h-849z" />
    <glyph glyph-name="integraltp" unicode="&#x2320;" 
d="M687 -615h-145v1822q0 347 115.5 422.5t190.5 75.5t126.5 -35.5t51.5 -83.5q0 -49 -25 -73.5t-62 -24.5t-58.5 18t-36 39.5t-27.5 39.5t-37 18q-48 0 -70.5 -72t-22.5 -246v-1900z" />
    <glyph glyph-name="integralbt" unicode="&#x2321;" 
d="M542 1705h145v-1822q0 -347 -115.5 -422.5t-190.5 -75.5t-126.5 35.5t-51.5 83.5q0 49 25 73.5t62 24.5t58.5 -18t36 -39.5t28 -39.5t37.5 -18q48 0 70 72t22 246v1900z" />
    <glyph glyph-name="SF100000" unicode="&#x2500;" 
d="M-10 555v145h1249v-145h-1249z" />
    <glyph glyph-name="SF110000" unicode="&#x2502;" 
d="M542 1705h145v-2320h-145v2320z" />
    <glyph glyph-name="SF010000" unicode="&#x250c;" 
d="M542 700h697v-145h-552v-1170h-145v1315z" />
    <glyph glyph-name="SF030000" unicode="&#x2510;" 
d="M-10 555v145h697v-1315h-145v1170h-552z" />
    <glyph glyph-name="SF020000" unicode="&#x2514;" 
d="M542 1705h145v-1005h552v-145h-697v1150z" />
    <glyph glyph-name="SF040000" unicode="&#x2518;" 
d="M-10 555v145h552v1005h145v-1150h-697z" />
    <glyph glyph-name="SF080000" unicode="&#x251c;" 
d="M542 1705h145v-1005h552v-145h-552v-1170h-145v2320z" />
    <glyph glyph-name="SF090000" unicode="&#x2524;" 
d="M-10 555v145h552v1005h145v-2320h-145v1170h-552z" />
    <glyph glyph-name="SF060000" unicode="&#x252c;" 
d="M-10 555v145h1249v-145h-552v-1170h-145v1170h-552z" />
    <glyph glyph-name="SF070000" unicode="&#x2534;" 
d="M-10 555v145h552v1005h145v-1005h552v-145h-1249z" />
    <glyph glyph-name="SF050000" unicode="&#x253c;" 
d="M-10 555v145h552v1005h145v-1005h552v-145h-552v-1170h-145v1170h-552z" />
    <glyph glyph-name="SF430000" unicode="&#x2550;" 
d="M-10 375v145h1249v-145h-1249zM-10 735v145h1249v-145h-1249z" />
    <glyph glyph-name="SF240000" unicode="&#x2551;" 
d="M722 1705h145v-2320h-145v2320zM362 1705h145v-2320h-145v2320z" />
    <glyph glyph-name="SF510000" unicode="&#x2552;" 
d="M542 880h697v-145h-552v-215h552v-145h-552v-990h-145v1495z" />
    <glyph glyph-name="SF520000" unicode="&#x2553;" 
d="M1239 700v-145h-372v-1170h-145v1170h-215v-1170h-145v1315h877z" />
    <glyph glyph-name="SF390000" unicode="&#x2554;" 
d="M722 520h517v-145h-372v-990h-145v1135zM362 880h877v-145h-732v-1350h-145v1495z" />
    <glyph glyph-name="SF220000" unicode="&#x2555;" 
d="M-10 375v145h552v215h-552v145h697v-1495h-145v990h-552z" />
    <glyph glyph-name="SF210000" unicode="&#x2556;" 
d="M-10 555v145h877v-1315h-145v1170h-215v-1170h-145v1170h-372z" />
    <glyph glyph-name="SF250000" unicode="&#x2557;" 
d="M507 -615h-145v990h-372v145h517v-1135zM867 880v-1495h-145v1350h-732v145h877z" />
    <glyph glyph-name="SF500000" unicode="&#x2558;" 
d="M542 1705h145v-825h552v-145h-552v-215h552v-145h-697v1330z" />
    <glyph glyph-name="SF490000" unicode="&#x2559;" 
d="M722 1705h145v-1005h372v-145h-877v1150h145v-1005h215v1005z" />
    <glyph glyph-name="SF380000" unicode="&#x255a;" 
d="M722 1705h145v-825h372v-145h-517v970zM362 1705h145v-1185h732v-145h-877v1330z" />
    <glyph glyph-name="SF280000" unicode="&#x255b;" 
d="M-10 375v145h552v215h-552v145h552v825h145v-1330h-697z" />
    <glyph glyph-name="SF270000" unicode="&#x255c;" 
d="M867 555h-877v145h372v1005h145v-1005h215v1005h145v-1150z" />
    <glyph glyph-name="SF260000" unicode="&#x255d;" 
d="M362 1705h145v-970h-517v145h372v825zM867 375h-877v145h732v1185h145v-1330z" />
    <glyph glyph-name="SF360000" unicode="&#x255e;" 
d="M542 1705h145v-825h552v-145h-552v-215h552v-145h-552v-990h-145v2320z" />
    <glyph glyph-name="SF370000" unicode="&#x255f;" 
d="M362 1705h145v-2320h-145v2320zM722 1705h145v-1005h372v-145h-372v-1170h-145v2320z" />
    <glyph glyph-name="SF420000" unicode="&#x2560;" 
d="M722 1705h145v-825h372v-145h-517v970zM722 520h517v-145h-372v-990h-145v1135zM507 -615h-145v2320h145v-2320z" />
    <glyph glyph-name="SF190000" unicode="&#x2561;" 
d="M-10 375v145h552v215h-552v145h552v825h145v-2320h-145v990h-552z" />
    <glyph glyph-name="SF200000" unicode="&#x2562;" 
d="M722 1705h145v-2320h-145v2320zM-10 555v145h372v1005h145v-2320h-145v1170h-372z" />
    <glyph glyph-name="SF230000" unicode="&#x2563;" 
d="M507 -615h-145v990h-372v145h517v-1135zM362 1705h145v-970h-517v145h372v825zM722 1705h145v-2320h-145v2320z" />
    <glyph glyph-name="SF470000" unicode="&#x2564;" 
d="M-10 735v145h1249v-145h-1249zM-10 375v145h1249v-145h-552v-990h-145v990h-552z" />
    <glyph glyph-name="SF480000" unicode="&#x2565;" 
d="M-10 555v145h1249v-145h-372v-1170h-145v1170h-215v-1170h-145v1170h-372z" />
    <glyph glyph-name="SF410000" unicode="&#x2566;" 
d="M1239 880v-145h-1249v145h1249zM722 520h517v-145h-372v-990h-145v1135zM507 -615h-145v990h-372v145h517v-1135z" />
    <glyph glyph-name="SF450000" unicode="&#x2567;" 
d="M-10 375v145h1249v-145h-1249zM-10 735v145h552v825h145v-825h552v-145h-1249z" />
    <glyph glyph-name="SF460000" unicode="&#x2568;" 
d="M-10 555v145h372v1005h145v-1005h215v1005h145v-1005h372v-145h-1249z" />
    <glyph glyph-name="SF400000" unicode="&#x2569;" 
d="M-10 375v145h1249v-145h-1249zM362 1705h145v-970h-517v145h372v825zM722 1705h145v-825h372v-145h-517v970z" />
    <glyph glyph-name="SF540000" unicode="&#x256a;" 
d="M-10 375v145h552v215h-552v145h552v825h145v-825h552v-145h-552v-215h552v-145h-552v-990h-145v990h-552z" />
    <glyph glyph-name="SF530000" unicode="&#x256b;" 
d="M722 1705h145v-1005h372v-145h-372v-1170h-145v1170h-215v-1170h-145v1170h-372v145h372v1005h145v-1005h215v1005z" />
    <glyph glyph-name="SF440000" unicode="&#x256c;" 
d="M362 1705h145v-970h-517v145h372v825zM722 520h517v-145h-372v-990h-145v1135zM507 -615h-145v990h-372v145h517v-1135zM722 1705h145v-825h372v-145h-517v970z" />
    <glyph glyph-name="upblock" unicode="&#x2580;" 
d="M1229 627h-1229v1078h1229v-1078z" />
    <glyph glyph-name="dnblock" unicode="&#x2584;" 
d="M1229 -445h-1229v1072h1229v-1072z" />
    <glyph glyph-name="block" unicode="&#x2588;" 
d="M1229 -445h-1229v2150h1229v-2150z" />
    <glyph glyph-name="lfblock" unicode="&#x258c;" 
d="M615 -444h-615v2149h615v-2149z" />
    <glyph glyph-name="rtblock" unicode="&#x2590;" 
d="M1229 -445h-615v2150h615v-2150z" />
    <glyph glyph-name="ltshade" unicode="&#x2591;" 
d="M820 1705h103v-96h-103v96zM410 1705h103v-96h-103v96zM0 1705h103v-96h-103v96zM1025 1512h102v-98h-102v98zM615 1512h102v-98h-102v98zM205 1512h102v-98h-102v98zM1025 -421h102v-96h-102v96zM615 -421h102v-96h-102v96zM205 -421h102v-96h-102v96zM0 -228h103v-97
h-103v97zM410 -228h103v-97h-103v97zM820 -228h103v-97h-103v97zM1025 -36h102v-94h-102v94zM615 -36h102v-94h-102v94zM205 -36h102v-94h-102v94zM0 159h103v-97h-103v97zM410 159h103v-97h-103v97zM820 159h103v-97h-103v97zM205 351h102v-96h-102v96zM1025 351h102v-96
h-102v96zM615 351h102v-96h-102v96zM820 546h103v-96h-103v96zM410 546h103v-96h-103v96zM0 546h103v-96h-103v96zM1025 738h102v-96h-102v96zM615 738h102v-96h-102v96zM205 738h102v-96h-102v96zM820 933h103v-96h-103v96zM410 933h103v-96h-103v96zM0 933h103v-96h-103
v96zM1025 1125h102v-96h-102v96zM615 1125h102v-96h-102v96zM205 1125h102v-96h-102v96zM820 1320h103v-98h-103v98zM410 1320h103v-98h-103v98zM0 1320h103v-98h-103v98z" />
    <glyph glyph-name="shade" unicode="&#x2592;" 
d="M1127 1705h103v-96h-103v96zM922 1705h103v-96h-103v96zM717 1705h103v-96h-103v96zM512 1705h103v-96h-103v96zM307 1705h103v-96h-103v96zM102 1705h103v-96h-103v96zM1025 1512h102v-98h-102v98zM820 1512h102v-98h-102v98zM615 1512h102v-98h-102v98zM410 1512h102
v-98h-102v98zM205 1512h102v-98h-102v98zM0 1512h102v-98h-102v98zM1025 -421h102v-96h-102v96zM820 -421h102v-96h-102v96zM615 -421h102v-96h-102v96zM410 -421h102v-96h-102v96zM205 -421h102v-96h-102v96zM0 -421h102v-96h-102v96zM102 -228h103v-97h-103v97zM307 -228
h103v-97h-103v97zM512 -228h103v-97h-103v97zM717 -228h103v-97h-103v97zM922 -228h103v-97h-103v97zM1127 -228h103v-97h-103v97zM1025 -36h102v-94h-102v94zM820 -36h102v-94h-102v94zM615 -36h102v-94h-102v94zM410 -36h102v-94h-102v94zM205 -36h102v-94h-102v94zM0 -36
h102v-94h-102v94zM102 159h103v-97h-103v97zM307 159h103v-97h-103v97zM512 159h103v-97h-103v97zM717 159h103v-97h-103v97zM922 159h103v-97h-103v97zM1127 159h103v-97h-103v97zM205 351h102v-96h-102v96zM1025 351h102v-96h-102v96zM820 351h102v-96h-102v96zM615 351
h102v-96h-102v96zM410 351h102v-96h-102v96zM0 351h102v-96h-102v96zM1127 546h103v-96h-103v96zM922 546h103v-96h-103v96zM717 546h103v-96h-103v96zM512 546h103v-96h-103v96zM307 546h103v-96h-103v96zM102 546h103v-96h-103v96zM1025 738h102v-96h-102v96zM820 738h102
v-96h-102v96zM615 738h102v-96h-102v96zM410 738h102v-96h-102v96zM205 738h102v-96h-102v96zM0 738h102v-96h-102v96zM1127 933h103v-96h-103v96zM922 933h103v-96h-103v96zM717 933h103v-96h-103v96zM512 933h103v-96h-103v96zM307 933h103v-96h-103v96zM102 933h103v-96
h-103v96zM1025 1125h102v-96h-102v96zM820 1125h102v-96h-102v96zM615 1125h102v-96h-102v96zM410 1125h102v-96h-102v96zM205 1125h102v-96h-102v96zM0 1125h102v-96h-102v96zM1127 1320h103v-98h-103v98zM922 1320h103v-98h-103v98zM717 1320h103v-98h-103v98zM512 1320
h103v-98h-103v98zM307 1320h103v-98h-103v98zM102 1320h103v-98h-103v98z" />
    <glyph glyph-name="dkshade" unicode="&#x2593;" 
d="M1025 1512h-103v-98h103v98zM1127 1320h-102v-98h102v98zM922 -421v-96h103v96h-103zM1127 -325v97h-102v-97h102zM922 -36v-94h103v94h-103zM1127 62v97h-102v-97h102zM922 351v-96h103v96h-103zM1025 546v-96h102v96h-102zM922 738v-96h103v96h-103zM1127 933h-102v-98
h102v98zM922 1125v-96h103v96h-103zM205 1512h-103v-98h103v98zM410 1512h-103v-98h103v98zM615 1512h-103v-98h103v98zM820 1512h-103v-98h103v98zM307 1320h-102v-98h102v98zM512 1320h-102v-98h102v98zM717 1320h-102v-98h102v98zM922 1320h-102v-98h102v98zM717 -421
v-96h103v96h-103zM512 -421v-96h103v96h-103zM307 -421v-96h103v96h-103zM102 -421v-96h103v96h-103zM307 -325v97h-102v-97h102zM512 -325v97h-102v-97h102zM717 -325v97h-102v-97h102zM922 -325v97h-102v-97h102zM717 -36v-94h103v94h-103zM512 -36v-94h103v94h-103z
M307 -36v-94h103v94h-103zM102 -36v-94h103v94h-103zM307 62v97h-102v-97h102zM512 62v97h-102v-97h102zM717 62v97h-102v-97h102zM922 62v97h-102v-97h102zM717 351v-96h103v96h-103zM410 255v96h-103v-96h103zM512 351v-96h103v96h-103zM102 351v-96h103v96h-103zM820 546
v-96h102v96h-102zM615 546v-96h102v96h-102zM410 546v-96h102v96h-102zM307 546h-102v-96h102v96zM717 738v-96h103v96h-103zM512 738v-96h103v96h-103zM307 738v-96h103v96h-103zM102 738v-96h103v96h-103zM307 933h-102v-98h102v98zM512 933h-102v-98h102v98zM717 933
h-102v-98h102v98zM922 933h-102v-98h102v98zM717 1125v-96h103v96h-103zM512 1125v-96h103v96h-103zM307 1125v-96h103v96h-103zM102 1125v-96h103v96h-103zM1230 -615h-1230v290h102v97h-102v290h102v97h-102v291h102v96h-102v289h102v98h-102v289h102v98h-102v289h102v96
h103v-96h102v96h103v-96h102v96h103v-96h102v96h103v-96h102v96h103v-96h102v96h103v-193h-103v-98h103v-289h-103v-96h103v-291h-103v-96h103v-291h-103v-96h103v-291h-103v-94h103v-291h-103v-96h103v-98z" />
    <glyph glyph-name="filledbox" unicode="&#x25a0;" 
d="M119 1108h991v-991h-991v991z" />
    <glyph glyph-name="H22073" unicode="&#x25a1;" 
d="M78 1149v-1073h1073v1073h-1073zM2 1225h1225v-1225h-1225v1225z" />
    <glyph glyph-name="H18543" unicode="&#x25aa;" 
d="M868 383h-508v508h508v-508z" />
    <glyph glyph-name="H18551" unicode="&#x25ab;" 
d="M792 459v354h-356v-354h356zM868 383h-508v508h508v-508z" />
    <glyph glyph-name="filledrect" unicode="&#x25ac;" 
d="M8 546h1213v-476h-1213v476z" />
    <glyph glyph-name="triagup" unicode="&#x25b2;" 
d="M15 50l600 1148l598 -1148h-1198z" />
    <glyph glyph-name="triagrt" unicode="&#x25ba;" 
d="M52 1196l1175 -610l-1175 -613v1223z" />
    <glyph glyph-name="triagdn" unicode="&#x25bc;" 
d="M1213 1121l-598 -1148l-600 1148h1198z" />
    <glyph glyph-name="triaglf" unicode="&#x25c4;" 
d="M1177 1196v-1223l-1175 613z" />
    <glyph glyph-name="lozenge" unicode="&#x25ca;" 
d="M614 1204l-289 -481l289 -494l289 494zM665 0h-104l-451 721l451 725h104l454 -723z" />
    <glyph glyph-name="circle" unicode="&#x25cb;" 
d="M249 612q0 -76 28.5 -142t77.5 -115.5t115.5 -78t142.5 -28.5t143 28.5t116.5 78t78.5 115.5t29 142t-29 143t-78.5 116.5t-116.5 78.5t-143 29t-142.5 -29t-115.5 -78.5t-77.5 -116.5t-28.5 -143zM163 612q0 94 35 176.5t96 144t143 97t176 35.5t176.5 -35.5t144 -97
t97 -144t35.5 -176.5t-35.5 -176t-97 -143t-144 -96t-176.5 -35t-176 35t-143 96t-96 143t-35 176z" />
    <glyph glyph-name="H18533" unicode="&#x25cf;" 
d="M614 1018q110 0 217 -57q155 -82 189.5 -204t34.5 -179q0 -183 -129.5 -312t-311.5 -129t-311 129t-129 312q0 111 59 219t165 164q106 57 216 57z" />
    <glyph glyph-name="invbullet" unicode="&#x25d8;" 
d="M172 577q0 -91 34.5 -171t94.5 -140t140 -94.5t171 -34.5t171.5 34.5t140.5 94.5t94.5 140t34.5 171t-34.5 171.5t-94.5 140.5t-140.5 94.5t-171.5 34.5t-171 -34.5t-140 -94.5t-94.5 -140.5t-34.5 -171.5zM37 0v1155h1155v-1155h-1155z" />
    <glyph glyph-name="invcircle" unicode="&#x25d9;" 
d="M172 577q0 -91 34.5 -171t94.5 -140t140 -94.5t171 -34.5t171.5 34.5t140.5 94.5t94.5 140t34.5 171t-34.5 171.5t-94.5 140.5t-140.5 94.5t-171.5 34.5t-171 -34.5t-140 -94.5t-94.5 -140.5t-34.5 -171.5zM249 577q0 75 29 141.5t78.5 116t116 78.5t141.5 29t141.5 -29
t116 -78.5t78.5 -116t29 -141.5t-29 -141.5t-78.5 -116t-116 -78.5t-141.5 -29t-141.5 29t-116 78.5t-78.5 116t-29 141.5zM37 0v1155h1155v-1155h-1155z" />
    <glyph glyph-name="openbullet" unicode="&#x25e6;" 
d="M614 464q72 0 122 52t50 122t-51 120.5t-121 50.5t-121 -50.5t-51 -120.5t50 -122t122 -52zM366 638q0 101 73 174t175 73t174 -74q74 -71 74 -173t-74 -177q-76 -72 -176 -72q-99 0 -174 72q-72 76 -72 177z" />
    <glyph glyph-name="smileface" unicode="&#x263a;" 
d="M614 306q99 0 156.5 37t104.5 99l58 -49q-112 -177 -319 -177q-175 0 -237 73.5t-82 103.5l58 49q47 -62 104.5 -99t156.5 -37zM761 741q0 29 20.5 50t49.5 21t50 -21t21 -50t-21 -49.5t-50 -20.5t-49.5 20.5t-20.5 49.5zM326 741q0 29 20.5 50t49.5 21t50 -21t21 -50
t-21 -49.5t-50 -20.5t-49.5 20.5t-20.5 49.5zM90 589q0 -108 41 -203.5t112.5 -167t167 -112.5t203.5 -41t203 41t166.5 112.5t112.5 167t41 203.5t-41 203t-112.5 166.5t-166.5 112.5t-203 41t-203.5 -41t-167 -112.5t-112.5 -166.5t-41 -203zM27 589q0 243 113 356
t214 172t241 59q262 0 434 -172t172 -415t-172 -415t-415 -172t-415 172t-172 415z" />
    <glyph glyph-name="invsmileface" unicode="&#x263b;" 
d="M614 216q206 0 319 177l-58 49q-47 -62 -85 -86.5t-79 -37t-118.5 -12.5t-135 37t-104.5 99l-58 -49q53 -80 126 -128.5t193 -48.5zM761 741q0 -29 20.5 -49.5t49.5 -20.5t50 20.5t21 49.5t-21 50t-50 21t-49.5 -21t-20.5 -50zM326 741q0 -29 20.5 -49.5t49.5 -20.5
t50 20.5t21 49.5t-21 50t-50 21t-49.5 -21t-20.5 -50zM27 589q0 243 113 356t214 172t241 59q262 0 434 -172t172 -415t-172 -415t-415 -172t-415 172t-172 415z" />
    <glyph glyph-name="sun" unicode="&#x263c;" 
d="M329 466q0 -118 83 -201.5t202 -83.5t202 83.5t83 201.5t-83.5 201.5t-201.5 83.5t-201.5 -83.5t-83.5 -201.5zM578 1054h72v-233q102 -9 189 -79l165 165l51 -51l-165 -165q70 -87 79 -189h233v-72h-233q-10 -103 -79 -190l165 -164l-51 -51l-165 164q-87 -70 -189 -79
v-232h-72v232q-103 10 -190 79l-164 -164l-51 51l164 164q-69 87 -79 190h-232v72h232q9 102 79 189l-164 165l51 51l164 -165q87 69 190 79v233z" />
    <glyph glyph-name="female" unicode="&#x2640;" 
d="M388 874q0 -47 17.5 -88t48.5 -72t72 -48.5t88 -17.5t88 17.5t71.5 48.5t48.5 72t18 88t-18 88t-48.5 71.5t-71.5 48.5t-88 18t-88 -18t-72 -48.5t-48.5 -71.5t-17.5 -88zM344 376h234v202q-112 14 -187 98.5t-75 202.5t87.5 205.5t210.5 87.5t210.5 -87.5t87.5 -205.5
t-75 -202.5t-187 -98.5v-202h234v-72h-234v-234h-72v234h-234v72z" />
    <glyph glyph-name="male" unicode="&#x2642;" 
d="M236 412q0 -47 17.5 -88t48.5 -72t72 -48.5t88 -17.5t88 17.5t71.5 48.5t48.5 72t18 88t-18 88t-48.5 71.5t-71.5 48.5t-88 18t-88 -18t-72 -48.5t-48.5 -71.5t-17.5 -88zM696 595q64 -81 64 -194q0 -112 -87.5 -199.5t-210.5 -87.5t-210.5 87.5t-87.5 210.5t87.5 210.5
t199.5 87.5t194 -64l257 257l-226 20l-2 55h331l23 -23v-331l-55 2l-20 226z" />
    <glyph glyph-name="spade" unicode="&#x2660;" 
d="M640 1195q0 -134 100.5 -239.5t153.5 -147.5q232 -182 232 -316q0 -125 -69.5 -188.5t-169.5 -63.5q-99 0 -155 42t-70 58q0 -134 88.5 -209t231.5 -75v-56h-736v56q143 0 231.5 75t88.5 209q-55 -62 -124.5 -81t-109.5 -19q-91 0 -160.5 63t-69.5 180t90 200t142 125
q108 85 181 191.5t73 195.5h52z" />
    <glyph glyph-name="club" unicode="&#x2663;" 
d="M614 1195q139 0 208 -72t69 -170q0 -97 -47 -154t-71 -74q162 16 260 -54.5t98 -187.5t-69.5 -180t-169.5 -63t-158 42t-72 58q0 -134 88.5 -209t231.5 -75v-56h-736v56q143 0 231.5 75t88.5 209q-54 -61 -126 -80.5t-112 -19.5q-91 0 -161 63t-70 180t98 187.5t260 54.5
q-79 56 -98.5 128.5t-19.5 108.5t15 78t69 98.5t193 56.5z" />
    <glyph glyph-name="heart" unicode="&#x2665;" 
d="M588 -1q0 135 -243 427t-243 454q0 110 74.5 179t170.5 69q138 0 194 -91.5t70 -138.5h6q29 96 101 163t166 67t168 -69t74 -179q0 -161 -235 -446q-117 -144 -184 -248.5t-67 -186.5h-52z" />
    <glyph glyph-name="diamond" unicode="&#x2666;" 
d="M608 -1q-227 314 -476 598v3q249 284 476 598h12q227 -314 476 -598v-3q-249 -284 -476 -598h-12z" />
    <glyph glyph-name="musicalnote" unicode="&#x266a;" 
d="M788 272q76 83 76 205q0 123 -58 204t-142 108v-598q0 -71 -70 -119t-145 -48t-121 33.5t-46 95.5q0 61 69 110.5t139 49.5t112 -23v836h38q12 -116 133 -239q87 -89 125.5 -172t38.5 -184q0 -150 -103 -259h-46z" />
    <glyph glyph-name="musicalnotedbl" unicode="&#x266b;" 
d="M1084 131q0 -71 -70 -119t-145 -48t-108 24q-59 43 -59 105q0 61 69 111q69 49 139 49t112 -23v715l-528 79v-803q0 -71 -70 -119t-145 -48t-108 24q-59 43 -59 105q0 61 69 111q69 49 139 49t112 -23v835l652 -80v-944z" />
    <glyph glyph-name="uni266C" unicode="&#x266c;" 
d="M494 804l528 81v120l-528 -81v-120zM1084 211q0 -71 -70 -119t-145 -48t-108 24q-59 43 -59 105q0 61 69 111q69 49 139 49t112 -23v435l-528 -81v-543q0 -71 -70 -119t-145 -48t-108 24q-59 43 -59 105q0 61 69 111q69 49 139 49t112 -23v835l652 100v-944z" />
    <glyph glyph-name="uniFB01" unicode="&#xfb01;" 
d="M808 1277v207h281v-207h-281zM1089 0h-281v1082h281v-1082zM560 1321q-58 0 -82.5 -34.5t-24.5 -117.5v-87h223v-190h-223v-892h-280v892h-146v190h146v113q0 218 115.5 268.5t212.5 50.5t201 -28v-184q-84 19 -142 19z" />
    <glyph glyph-name="uniFB02" unicode="&#xfb02;" 
d="M808 0v1484h281v-1484h-281zM560 1321q-58 0 -82.5 -34.5t-24.5 -117.5v-87h223v-190h-223v-892h-280v892h-146v190h146v113q0 218 115.5 268.5t212.5 50.5t201 -28v-184q-84 19 -142 19z" />
    <glyph glyph-name="afii10066.alt1" 
d="M982 132q-135 -144 -372 -144q-236 0 -373 138t-137 380q0 117 38 208q38 92 72 150t89 111q-163 129 -151 295q0 134 104 235t273 101h508q9 0 17 -8t8 -17v-147q0 -10 -8 -18t-17 -7h-472q-89 0 -131 -40t-42 -126q0 -105 134 -171q334 43 503 -228q92 -146 92 -358
q0 -210 -135 -354zM610 171q268 0 268 333q0 82 -28 164t-41 97q-95 109 -184 108q-89 -2 -182 -93q-44 -46 -74 -118t-30 -152q-1 -240 149 -314q50 -25 122 -25z" />
    <glyph glyph-name="undercommaaccent" 
d="M435 -453v33l89 322h257v-37l-181 -318h-165z" />
    <glyph glyph-name="cyrillicbreve" 
d="M300 1256.5q-86 72.5 -93 218.5h224q6 -95 48 -122.5t135.5 -27.5t135 27t47.5 123h224q-7 -145 -92 -218t-314 -73t-315 72.5z" />
    <glyph glyph-name="caroncommaaccent" 
d="M435 1129v33l89 322h257v-37l-181 -318h-165z" />
    <glyph glyph-name="commaaccentrotate" 
d="M791 1566v-33l-89 -322h-257v37l181 318h165z" />
    <glyph glyph-name="dotlessj" 
d="M400 -206q85 0 164.5 18.5t79.5 197.5v882h-354v190h636v-1095q0 -206 -132 -309t-316 -103t-299 43v210q136 -34 221 -34z" />
    <glyph glyph-name="onefraction" 
d="M325 1068v165q86 0 140 41.5t71 74.5h181v-760h-191v570q-33 -67 -110.5 -79t-90.5 -12z" />
    <glyph glyph-name="twofraction" 
d="M627 1361q131 0 196.5 -57t65.5 -158q0 -146 -101 -210t-141 -88.5t-72 -49.5t-45 -56h350v-153h-542v143q59 135 187 213.5t153.5 116t25.5 78.5q0 91 -78 91t-88 -47.5t-13 -70.5l-180 10q32 238 282 238z" />
    <glyph glyph-name="threefraciton" 
d="M626 1361q258 -1 258 -215q0 -111 -136 -162v-6q157 -34 157 -185q0 -107 -77 -165.5t-207 -58.5q-129 0 -200.5 53.5t-95.5 178.5l205 26q8 -58 29 -89.5t64 -31.5q82 0 82 104q0 82 -54 90.5t-83 8.5h-41v131h37q68 0 95 24t27 74t-15 71.5t-55 21.5t-56.5 -28
t-21.5 -82l-194 12q16 114 84 171t198 57z" />
    <glyph glyph-name="fourfraction" 
d="M638 899v198q0 52 6 95q-7 -13 -34 -63.5t-62 -103.5l-87 -126h177zM829 748v-160h-191v160h-341v149l321 452h211v-450h82v-151h-82z" />
    <glyph glyph-name="fivefraction" 
d="M535 802q14 -94 70 -94q86 0 86 109q0 86 -21 110t-69 24t-74 -40h-184l45 438h462v-153h-300l-16 -162q44 46 143 46q98 0 157.5 -63t59.5 -183t-72.5 -189t-198.5 -69q-248 0 -287 211z" />
    <glyph glyph-name="sevenfraction" 
d="M649 589h-203q0 175 59 300.5t205 306.5h-390v153h589v-141q-152 -198 -191 -282.5t-54 -160t-15 -176.5z" />
    <glyph glyph-name="eightfraction" 
d="M760 988q145 -33 145 -166q0 -246 -290 -246q-225 0 -258.5 92t-33.5 140q0 144 143 179v3q-123 61 -123 175q0 85 68 140.5t201 55.5q206 0 239 -79t33 -118q0 -118 -124 -173v-3zM528 821q0 -115 76 -115q65 0 81 28.5t16 91.5q0 106 -88 106q-72 0 -78.5 -43.5
t-6.5 -67.5zM613 1231q-66 1 -66 -91q1 -92 67 -92t66 91q0 40 -13.5 66t-53.5 26z" />
  </font>
</defs>
</svg>
