<?xml version="1.0" standalone="no"?>
<!DOCTYPE svg PUBLIC "-//W3C//DTD SVG 1.1//EN" "http://www.w3.org/Graphics/SVG/1.1/DTD/svg11.dtd" >
<svg xmlns="http://www.w3.org/2000/svg">
<metadata>
Created by FontPrep 20130207 at Sun Sep 18 01:19:39 2016
 By Daniel Givens
Copyright (c) 2007 Red Hat, Inc. All rights reserved. LIBERATION is a trademark of Red Hat, Inc.
</metadata>
<defs>
<font id="266da6c5e06961a544851d061644d04e" horiz-adv-x='1024' >
  <font-face 
    font-family="LiberationMono"
    font-weight="400"
    font-stretch="normal"
    units-per-em="2048"
    panose-1="2 7 4 9 2 2 5 2 4 4"
    ascent="1638"
    descent="-410"
    x-height="1082"
    cap-height="1349"
    bbox="-50 -615 1247 1705"
    underline-thickness="84"
    underline-position="-435"
    unicode-range="U+0020-FB02"
  />
<missing-glyph 
d="M136 68h408v1229h-408v-1229zM68 0v1365h544v-1365h-544z" />
    <glyph glyph-name=".notdef" 
d="M136 68h408v1229h-408v-1229zM68 0v1365h544v-1365h-544z" />
    <glyph glyph-name=".null" horiz-adv-x="0" 
 />
    <glyph glyph-name="nonmarkingreturn" horiz-adv-x="682" 
 />
    <glyph glyph-name="uni00A0" unicode=" " 
 />
    <glyph glyph-name="uni00A0" unicode="&#xa0;" 
 />
    <glyph glyph-name="exclam" unicode="!" 
d="M515 0v201h194v-201h-194zM689 397h-148l-24 951h196z" />
    <glyph glyph-name="quotedbl" unicode="&#x22;" 
d="M459 845h-141l-41 639h224zM908 845h-142l-40 639h224z" />
    <glyph glyph-name="numbersign" unicode="#" 
d="M459 833l-69 -317h362l67 317h-360zM1123 516v-108h-283l-88 -408h-110l86 408h-363l-84 -408h-110l84 408h-201v108h225l67 317h-241v108h263l89 408h110l-88 -408h363l88 408h110l-88 -408h211v-108h-233l-67 -317h260z" />
    <glyph glyph-name="dollar" unicode="$" 
d="M978 387q0 109 -71 155t-221 85v-471q209 13 250.5 92.5t41.5 138.5zM302 1010q0 -90 61.5 -132t194.5 -76v413q-256 -11 -256 -205zM235 777q-105 76 -105 239t115.5 243.5t312.5 86.5v130h128v-130q285 -11 349 -128t84 -193l-174 -33q-43 206 -259 221v-426
q152 -37 244.5 -75.5t156 -117.5t63.5 -214q0 -243 -172.5 -299t-291.5 -61v-161h-128v161q-422 14 -492 359l170 37q50 -244 322 -258v489l-30 8q-188 46 -293 122z" />
    <glyph glyph-name="percent" unicode="%" 
d="M946 557q-143 0 -143 -197q0 -154 35 -206.5t107 -52.5q138 0 138 229q0 126 -33.5 176.5t-103.5 50.5zM947 665q283 0 283 -336q0 -265 -113.5 -303t-208.5 -38t-173.5 79.5t-78.5 261.5q0 269 114.5 302.5t176.5 33.5zM290 1253q-143 0 -143 -197q0 -154 35 -206.5
t107 -52.5q138 0 138 229q0 126 -33.5 176.5t-103.5 50.5zM291 1361q283 0 283 -336q0 -265 -113.5 -303t-208.5 -38t-173.5 79.5t-78.5 261.5q0 269 114.5 302.5t176.5 33.5zM221 0h-145l932 1353h147z" />
    <glyph glyph-name="ampersand" unicode="&#x26;" 
d="M211 362q0 -173 96.5 -212t148.5 -39q150 0 250 106q-180 203 -316 441q-179 -97 -179 -296zM733 1195q-47 41 -108 41q-105 0 -161 -48.5t-56 -122.5q0 -119 61 -233q168 71 239.5 119.5t71.5 125.5t-47 118zM910 234q84 -105 189 -105q49 0 86 16v-135
q-48 -22 -101 -22q-167 0 -276 129q-153 -137 -355 -137q-201 0 -305.5 104.5t-104.5 273.5q0 268 292 419q-75 140 -75 276t89.5 220t247.5 84q157 0 246 -70.5t89 -196.5q0 -178 -164.5 -256.5t-242.5 -111.5q98 -171 166.5 -257t110.5 -132q88 182 125 406l145 -43
q-44 -236 -162 -462z" />
    <glyph glyph-name="quotesingle" unicode="'" 
d="M684 845h-141l-41 639h224z" />
    <glyph glyph-name="parenleft" unicode="(" 
d="M529 530q0 -274 85 -496.5t277 -458.5h-190q-188 231 -273.5 452t-85.5 568t133.5 561.5t225.5 327.5h190q-283 -348 -322.5 -582t-39.5 -372z" />
    <glyph glyph-name="parenright" unicode=")" 
d="M801 27q-84 -220 -273 -452h-192q194 238 279 460.5t85 494.5q0 399 -134 617.5t-230 336.5h192q190 -233 273.5 -450.5t83.5 -502t-84 -504.5z" />
    <glyph glyph-name="asterisk" unicode="*" 
d="M671 1188l264 103l45 -132l-282 -73l185 -250l-119 -72l-150 258l-156 -256l-119 72l189 248l-280 73l45 134l267 -107l-12 297h136z" />
    <glyph glyph-name="plus" unicode="+" 
d="M687 608v-428h-147v428h-424v146h424v428h147v-428h424v-146h-424z" />
    <glyph glyph-name="comma" unicode="," 
d="M259 -363l169 662h265l-311 -662h-123z" />
    <glyph glyph-name="uni00AD" unicode="-" 
d="M334 464v160h560v-160h-560z" />
    <glyph glyph-name="uni00AD" unicode="&#xad;" 
d="M334 464v160h560v-160h-560z" />
    <glyph glyph-name="period" unicode="." 
d="M496 0v299h235v-299h-235z" />
    <glyph glyph-name="slash" unicode="/" 
d="M114 -20l821 1504h178l-817 -1504h-182z" />
    <glyph glyph-name="zero" unicode="0" 
d="M496 555v249h235v-249h-235zM845 1102.5q-75 121.5 -231 121.5t-232 -121.5t-76 -427.5q0 -433 117 -490.5t189 -57.5t129 28t118 127t61 399t-75 421.5zM969 145q-134 -165 -358 -165q-346 0 -416.5 250t-70.5 450q0 377 130 533.5t359 156.5t359.5 -157.5t130.5 -529.5
q0 -373 -134 -538z" />
    <glyph glyph-name="one" unicode="1" 
d="M157 0v145h439v1021q-37 -79 -176 -136.5t-272 -57.5v148q148 0 279.5 65t183.5 164h166v-1204h353v-145h-973z" />
    <glyph glyph-name="two" unicode="2" 
d="M144 0v117q71 157 211 281.5t222.5 190.5t191 171t108.5 231q0 173 -103.5 202t-159.5 29q-114 0 -185.5 -61t-85.5 -177l-184 17q19 161 133.5 265t322.5 104t327.5 -95t119.5 -273q0 -224 -260.5 -430.5t-334.5 -281t-106 -144.5h723v-146h-940z" />
    <glyph glyph-name="three" unicode="3" 
d="M834.5 192q77.5 63 77.5 185t-107.5 177t-236.5 55h-102v156h98q120 0 215.5 58t95.5 169t-66.5 170.5t-191.5 59.5t-198.5 -61t-85.5 -172l-181 14q21 179 148 273t332 94q206 0 317 -98.5t111 -267.5t-110.5 -232.5t-184.5 -78.5v-4q157 -17 245.5 -109t88.5 -196
q0 -198 -124.5 -301t-358.5 -103t-350.5 107.5t-137.5 274.5l186 17q36 -250 307 -250q136 0 213.5 63z" />
    <glyph glyph-name="four" unicode="4" 
d="M757 461v693l-500 -693h500zM937 319v-319h-180v319h-654v140l635 890h199v-888h188v-142h-188z" />
    <glyph glyph-name="five" unicode="5" 
d="M353 779q117 90 307 90t314.5 -119t124.5 -317t-131 -325.5t-369 -127.5q-311 0 -384 132.5t-87 202.5l182 21q57 -209 293 -209q140 0 224.5 83t84.5 218q0 134 -82 214t-225 80t-260 -101h-176l47 728h801v-145h-635z" />
    <glyph glyph-name="six" unicode="6" 
d="M838.5 659.5q-74.5 82.5 -195.5 82.5q-122 0 -208.5 -69.5t-86.5 -204.5t79.5 -239t207.5 -104t203 85t75 226t-74.5 223.5zM653 1224q-151 0 -237 -137.5t-86 -391.5q49 91 137.5 138.5t194.5 47.5q202 0 318 -119t116 -321t-119 -331.5t-348 -129.5t-353.5 175.5
t-124.5 506.5t133 519.5t371 188.5q319 0 402 -287l-172 -31q-53 172 -232 172z" />
    <glyph glyph-name="seven" unicode="7" 
d="M596 0h-188q0 536 487 1204h-737v145h911v-139q-473 -680 -473 -1210z" />
    <glyph glyph-name="eight" unicode="8" 
d="M838 572q-69 72 -222 72t-225 -74.5t-72 -178.5q0 -196 108 -236t190 -40t137.5 20.5t104 74t48.5 171.5q0 119 -69 191zM809.5 1175.5q-62.5 60.5 -197.5 60.5t-198.5 -61t-63.5 -163q0 -153 91 -193t174 -40t134 23t87 68t36 145t-62.5 160.5zM974 91
q-120 -111 -359 -111t-360.5 109.5t-121.5 286.5q0 136 82.5 224t198.5 107v4q-116 27 -182 115.5t-66 197.5q0 144 118 245t330 101q213 0 329 -100.5t116 -247.5q0 -108 -67 -197t-183 -112v-4q126 -21 205.5 -107.5t79.5 -243.5q0 -156 -120 -267z" />
    <glyph glyph-name="nine" unicode="9" 
d="M814 1120q-77 104 -208 104q-132 0 -207 -86.5t-75 -225.5t72.5 -229t194.5 -90t211 72t89 211q0 140 -77 244zM610 1370q477 0 477 -667q0 -350 -134.5 -536.5t-378.5 -186.5t-313 107.5t-91 186.5l172 27q54 -176 238 -176q229 0 278.5 198t50.5 327
q-63 -141 -178.5 -170t-191.5 -29t-153.5 34t-161 128.5t-83.5 300.5q0 207 124.5 331.5t344.5 124.5z" />
    <glyph glyph-name="colon" unicode=":" 
d="M496 783v299h235v-299h-235zM496 0v299h235v-299h-235z" />
    <glyph glyph-name="uni037E" unicode=";" 
d="M352 -363l169 662h265l-311 -662h-123zM496 783v299h235v-299h-235z" />
    <glyph glyph-name="uni037E" unicode="&#x37e;" 
d="M352 -363l169 662h265l-311 -662h-123zM496 783v299h235v-299h-235z" />
    <glyph glyph-name="less" unicode="&#x3c;" 
d="M116 571v205l995 418v-154l-858 -366l858 -367v-153z" />
    <glyph glyph-name="equal" unicode="=" 
d="M116 344v148h995v-148h-995zM116 856v148h995v-148h-995z" />
    <glyph glyph-name="greater" unicode="&#x3e;" 
d="M116 154v153l858 367l-858 366v154l995 -418v-205z" />
    <glyph glyph-name="question" unicode="?" 
d="M448 0v201h195v-201h-195zM1073 1012q0 -80 -18.5 -131.5t-49.5 -92.5t-70.5 -74t-117 -89t-131 -113.5t-55.5 -154.5h-175q5 168 93 241.5t163.5 129.5t127 114t51.5 152q0 164 -113.5 195t-215 31t-186 -73t-98.5 -199l-184 12q39 289 213.5 349.5t284.5 60.5
t198.5 -24t151.5 -70.5t97 -115t34 -148.5z" />
    <glyph glyph-name="at" unicode="@" 
d="M412 491q0 -281 114 -281q118 0 166 149t56 202t17.5 115t9.5 138t-35 130.5t-83 54.5t-80 -22t-70.5 -77t-66.5 -173.5t-28 -235.5zM737 299q-75 -195 -245 -195q-52 0 -133.5 61t-81.5 313t103 437.5t264 185.5q114 0 144.5 -68.5t39.5 -104.5h5l32 151h116l-99 -507
q-40 -210 -40 -288t49 -78q79 0 128 151t49 407q0 255 -106 429.5t-292 174.5q-120 0 -213.5 -67t-190 -242.5t-96.5 -513.5t115.5 -524t318.5 -186q156 0 243.5 62.5t125.5 95.5l71 -87q-220 -189 -462 -189t-390 217t-148 580q0 428 167.5 699t460.5 271q250 0 383.5 -208
t133.5 -511t-81.5 -482t-223.5 -179q-143 0 -143 157v1l2 37h-6z" />
    <glyph glyph-name="A" unicode="A" 
d="M701 954q-13 38 -27 77t-25.5 74t-20 61.5t-12.5 38.5q-4 -12 -12 -39t-19.5 -62t-24 -74t-25.5 -76l-151 -423h463zM1034 0l-138 382h-563l-137 -382h-196l510 1349h217l501 -1349h-194z" />
    <glyph glyph-name="B" unicode="B" 
d="M619 153q340 0 340 239t-354 239h-252v-478h266zM578 780q300 0 300 218q0 107 -75.5 152.5t-226.5 45.5h-223v-416h225zM574 1349q496 0 496 -327q0 -179 -100 -238t-168 -73q253 -27 301.5 -146t48.5 -203t-81 -223t-437 -139h-472v1349h412z" />
    <glyph glyph-name="C" unicode="C" 
d="M314 541.5q0 -406.5 347 -406.5q212 0 322 282l159 -65q-149 -372 -483 -372q-272 0 -409 187t-137 514q0 689 536 689q339 0 466 -335l-168 -65q-54 165 -145.5 204.5t-165.5 39.5t-138 -34t-124 -133t-60 -505.5z" />
    <glyph glyph-name="D" unicode="D" 
d="M515 156q418 0 418 532q0 268 -112 386.5t-347 118.5h-121v-1037h162zM1125 690q0 -335 -155 -512.5t-438 -177.5h-370v1349h311q652 0 652 -659z" />
    <glyph glyph-name="E" unicode="E" 
d="M162 0v1349h919v-156h-728v-422h668v-154h-668v-461h769v-156h-960z" />
    <glyph glyph-name="F" unicode="F" 
d="M385 1193v-494h676v-158h-676v-541h-191v1349h891v-156h-700z" />
    <glyph glyph-name="G" unicode="G" 
d="M1101 133q-230 -153 -475 -153q-246 0 -379.5 191.5t-133.5 509.5q0 689 529 689q346 0 461 -331l-171 -56q-80 231 -288 231q-259 0 -294.5 -201.5t-35.5 -331.5q0 -546 341 -546q153 0 260 74v336h-293v160h479v-572z" />
    <glyph glyph-name="H" unicode="H" 
d="M875 0v623h-522v-623h-191v1349h191v-566h522v566h191v-1349h-191z" />
    <glyph glyph-name="I" unicode="I" 
d="M202 1349h823v-156h-316v-1037h316v-156h-823v156h316v1037h-316v156z" />
    <glyph glyph-name="J" unicode="J" 
d="M587 135q209 0 209 281v777h-311v156h501v-929q0 -315 -151 -377.5t-249 -62.5q-171 0 -273 89t-137 281l187 31q29 -185 106 -215.5t118 -30.5z" />
    <glyph glyph-name="K" unicode="K" 
d="M353 0h-191v1349h191v-673l572 673h225l-504 -572l581 -777h-224l-487 638l-163 -169v-469z" />
    <glyph glyph-name="L" unicode="L" 
d="M237 0v1349h191v-1193h672v-156h-863z" />
    <glyph glyph-name="M" unicode="M" 
d="M289 868v-868h-160v1349h237l185 -489q21 -53 68 -231q14 47 34 115t36 115l185 490h225v-1349h-162v868q1 136 3 194t3 107q-64 -206 -95 -291l-164 -438h-137l-166 438q-11 26 -27 76.5t-33 102.5t-36 112q4 -192 4 -301z" />
    <glyph glyph-name="N" unicode="N" 
d="M332 876v-876h-170v1349h222l528 -1138q-18 144 -18 274v864h172v-1349h-230l-520 1130q16 -172 16 -254z" />
    <glyph glyph-name="O" unicode="O" 
d="M614 1214q-311 0 -311 -539.5t316 -539.5q306 -1 306 539t-311 540zM102 681q0 514 194.5 601.5t318.5 87.5q247 0 379 -173.5t132 -515.5t-134 -521.5t-383 -179.5q-248 0 -377.5 181.5t-129.5 519.5z" />
    <glyph glyph-name="P" unicode="P" 
d="M927 942q0 254 -328 254h-246v-531h254q157 0 238.5 76.5t81.5 200.5zM992.5 639.5q-126.5 -125.5 -358.5 -125.5h-281v-514h-191v1349h460q243 0 370 -108.5t127 -292.5q0 -183 -126.5 -308.5z" />
    <glyph glyph-name="Q" unicode="Q" 
d="M614 1214q-311 0 -311 -539.5t316 -539.5q306 -1 306 539t-311 540zM959 -387q-162 0 -256 92t-152 279q-221 22 -335 201t-114 496q0 514 194.5 601.5t318.5 87.5q247 0 379 -173.5t132 -515.5q0 -439 -145 -551t-235 -134q41 -126 108 -183t168 -57q55 0 115 13v-134
q-93 -22 -178 -22z" />
    <glyph glyph-name="R" unicode="R" 
d="M929 973q0 223 -304 223h-272v-470h280q228 0 262 98.5t34 148.5zM353 575v-575h-191v1349h482q355 0 416 -143.5t61 -217.5q0 -150 -87 -256.5t-257 -134.5l400 -597h-220l-366 575h-238z" />
    <glyph glyph-name="S" unicode="S" 
d="M998 86.5q-130 -106.5 -376 -106.5q-469 0 -543 358l185 37q54 -246 351 -246q231 0 277.5 87.5t46.5 153.5t-32.5 110.5t-85.5 72.5t-119.5 45.5t-125.5 32.5t-110 29.5t-186 70.5t-135 264q0 198 128 286.5t342 88.5q323 0 391.5 -122t88.5 -202l-188 -33
q-46 213 -293 213q-221 0 -252 -84t-31 -136t26.5 -90t72 -62.5t106 -40.5t122.5 -32t118 -31.5t107.5 -36.5t96 -49.5t96.5 -93t52 -221.5q0 -156 -130 -262.5z" />
    <glyph glyph-name="T" unicode="T" 
d="M709 1193v-1193h-190v1193h-443v156h1076v-156h-443z" />
    <glyph glyph-name="U" unicode="U" 
d="M1085 490q0 -271 -115.5 -390.5t-359.5 -119.5q-243 0 -355.5 114.5t-112.5 377.5v877h191v-851q0 -199 57 -281t217 -82t224 83.5t64 292.5v838h190v-859z" />
    <glyph glyph-name="V" unicode="V" 
d="M713 0h-198l-505 1349h201l320 -902q31 -86 84 -279q40 149 84 279l318 902h201z" />
    <glyph glyph-name="W" unicode="W" 
d="M1018 0h-208l-104 387q-5 19 -25 92.5t-65 276.5q-18 -77 -30 -127t-19.5 -81.5t-15 -61t-14.5 -55t-12 -44.5l-106 -387h-208l-211 1349h189l109 -835q8 -65 13.5 -127t10.5 -115t9 -104q15 69 27 117t22.5 94.5t38.5 152.5l109 399h175l109 -399q6 -22 13 -50
t14.5 -57.5t14 -60t18.5 -78.5t28 -118q1 0 9.5 97t25.5 249l104 835h189z" />
    <glyph glyph-name="X" unicode="X" 
d="M614 836l333 513h205l-435 -644l476 -705h-205l-374 573l-373 -573h-205l476 705l-435 644h205z" />
    <glyph glyph-name="Y" unicode="Y" 
d="M708 0h-188v584l-484 765h205l374 -611l372 611h205l-484 -765v-584z" />
    <glyph glyph-name="Z" unicode="Z" 
d="M1155 0h-1082v143l818 1050h-745v156h962v-139l-818 -1054h865v-156z" />
    <glyph glyph-name="bracketleft" unicode="[" 
d="M410 -425v1909h547v-139h-367v-1631h367v-139h-547z" />
    <glyph glyph-name="backslash" unicode="\" 
d="M932 -20l-817 1504h178l821 -1504h-182z" />
    <glyph glyph-name="bracketright" unicode="]" 
d="M270 -425v139h367v1631h-367v139h547v-1909h-547z" />
    <glyph glyph-name="asciicircum" unicode="^" 
d="M940 442l-329 803l-326 -803h-152l378 907h203l380 -907h-154z" />
    <glyph glyph-name="underscore" unicode="_" 
d="M-5 -220v96h1238v-96h-1238z" />
    <glyph glyph-name="grave" unicode="`" 
d="M402 1460h197l227 -239v-20h-124l-300 230v29z" />
    <glyph glyph-name="a" unicode="a" 
d="M490 117q153 0 240.5 103t87.5 225v89l-190 -4q-141 -3 -198 -33.5t-85 -76t-28 -124.5t44.5 -129t128.5 -50zM599 1102q200 0 300.5 -93.5t100.5 -270.5v-466q0 -80 21 -120.5t80 -40.5q26 0 59 7v-112q-68 -16 -129 -16q-111 0 -156 53.5t-51 163.5h-6
q-91 -169 -194.5 -198t-177.5 -29q-158 0 -238 86t-80 236q0 349 454 354l236 4v59q0 193 -83 219.5t-136 26.5q-112 0 -168 -37.5t-67 -134.5l-188 17q46 292 423 292z" />
    <glyph glyph-name="b" unicode="b" 
d="M904 538q0 114 -15 194.5t-46.5 132t-79 76t-150.5 24.5t-175.5 -102t-72.5 -339q0 -330 109 -370.5t173 -40.5t112 23t80 74t48.5 132.5t16.5 195.5zM699 1104q391 0 391 -558q0 -284 -101.5 -425t-290.5 -141q-244 0 -334 184h-2q0 -128 -9 -164h-174q6 54 6 223v1261
h180v-423q0 -65 -4 -157h4q91 200 334 200z" />
    <glyph glyph-name="c" unicode="c" 
d="M631 -20q-501 0 -501 584q0 142 79 340t423 198q188 0 303.5 -90.5t142.5 -232.5l-192 -14q-16 91 -80 143.5t-166 52.5t-160.5 -27.5t-94 -80t-51 -130t-15.5 -233t69.5 -263.5t234.5 -108q108 0 179 53t88 162l190 -12q-19 -143 -139.5 -242.5t-309.5 -99.5z" />
    <glyph glyph-name="d" unicode="d" 
d="M383.5 214q59.5 -101 193.5 -101q215 0 250.5 160.5t35.5 278.5q0 226 -70.5 319.5t-207.5 93.5q-138 0 -199.5 -100t-61.5 -325t59.5 -326zM867 174h-5q-49 -105 -130 -152.5t-202 -47.5q-202 0 -297 139t-95 419q0 566 392 566q121 0 202.5 -43t130.5 -141h2l-2 151
v419h180v-1261q0 -169 6 -223h-172q-10 40 -10 174z" />
    <glyph glyph-name="e" unicode="e" 
d="M623 969q-117 0 -205.5 -76t-93.5 -252h584q-22 258 -128.5 293t-156.5 35zM617 1102q477 0 477 -575v-24h-772q0 -273 114 -330.5t178 -57.5q115 0 191.5 45.5t101.5 120.5l158 -45q-61 -170 -199 -213t-248 -43q-228 0 -356.5 145t-128.5 429q0 285 135.5 416.5
t348.5 131.5z" />
    <glyph glyph-name="f" unicode="f" 
d="M846 1484q142 0 253 -21v-145q-102 17 -214 17t-161 -10t-96.5 -50t-47.5 -183v-10h491v-142h-491v-940h-180v940h-262v142h262v25q0 203 72.5 269t152 87t221.5 21z" />
    <glyph glyph-name="g" unicode="g" 
d="M869 552q0 210 -81 311.5t-209 101.5q-127 0 -188.5 -95t-61.5 -321t59.5 -315t196.5 -89q191 0 237.5 147.5t46.5 259.5zM1048 858v-826q0 -227 -106 -341.5t-327 -114.5q-258 0 -322.5 103.5t-77.5 163.5l184 25q35 -156 222 -156q248 0 248 315v194h-2
q-99 -209 -343 -209q-201 0 -291 131.5t-90 405.5q0 409 144.5 479.5t256.5 70.5t195.5 -52.5t128.5 -149.5h3q0 149 12 185h171q-6 -54 -6 -224z" />
    <glyph glyph-name="h" unicode="h" 
d="M699 1102q350 0 350 -381v-721h-181v695q0 216 -86 242t-140 26q-116 0 -196.5 -89.5t-80.5 -246.5v-627h-180v1484h181v-390q0 -59 -9 -197h3q105 205 339 205z" />
    <glyph glyph-name="i" unicode="i" 
d="M545 1292v192h200v-192h-200zM745 142h380v-142h-982v142h422v798h-319v142h499v-940z" />
    <glyph glyph-name="j" unicode="j" 
d="M636 1292v192h200v-192h-200zM356 -276q90 0 138.5 14t105 62t56.5 175v965h-407v142h587v-1110q0 -203 -120.5 -300t-302.5 -97t-296 43v140q149 -34 239 -34z" />
    <glyph glyph-name="k" unicode="k" 
d="M416 0h-180v1484h180v-927l475 525h211l-439 -465l462 -617h-211l-366 499l-132 -98v-401z" />
    <glyph glyph-name="l" unicode="l" 
d="M736 142h380v-142h-982v142h422v1200h-289v142h469v-1342z" />
    <glyph glyph-name="m" unicode="m" 
d="M254 907h2q30 90 79.5 142.5t137.5 52.5q87 0 130.5 -48t62.5 -148h2q38 100 92 148t130 48q75 0 117 -22t79.5 -88.5t37.5 -270.5v-721h-168v686q0 156 -19.5 203t-41 60.5t-53.5 13.5q-66 0 -104.5 -84t-38.5 -252v-627h-168v686q0 156 -19.5 203t-41.5 60.5t-54 13.5
q-64 0 -103 -96.5t-39 -259.5v-607h-169v851q0 189 -6 231h149q6 -30 6 -175z" />
    <glyph glyph-name="n" unicode="n" 
d="M706 1102q343 0 343 -381v-721h-181v695q0 216 -86 242t-140 26q-116 0 -196.5 -89.5t-80.5 -246.5v-627h-180v851q0 189 -6 231h170q1 -5 2 -27t3.5 -69.5t2.5 -88.5h3q105 205 346 205z" />
    <glyph glyph-name="o" unicode="o" 
d="M832.5 873q-75.5 96 -215.5 96q-141 0 -219.5 -98t-78.5 -329q0 -341 115.5 -385t176.5 -44t116.5 19.5t118 96t62.5 312.5t-75.5 332zM1097 542q0 -279 -127.5 -420.5t-360.5 -141.5q-344 0 -411.5 209.5t-67.5 352.5q0 279 126.5 419.5t364.5 140.5q476 0 476 -560z
" />
    <glyph glyph-name="p" unicode="p" 
d="M847 861.5q-57 103.5 -193 103.5t-212 -95.5t-76 -345.5q0 -326 108 -368.5t178 -42.5t119 28.5t91 107t42 294.5q0 215 -57 318.5zM185 858q0 170 -6 224h175q3 -8 6.5 -80t3.5 -98h4q75 156 171.5 178t182.5 22t227 -75t141 -483q0 -566 -392 -566q-246 0 -331 184h-5
q4 -8 4 -166v-423h-181v1283z" />
    <glyph glyph-name="q" unicode="q" 
d="M790.5 872.5q-72.5 92.5 -209.5 92.5t-197 -103t-60 -324q0 -322 92 -373.5t156 -51.5t116 19.5t113.5 97.5t61.5 314t-72.5 328.5zM138 532q0 566 391 566q187 0 247.5 -68.5t84.5 -115.5h2q0 133 12 169h175q-6 -54 -6 -282v-1226h-181v439q0 56 4 168h-2
q-78 -158 -174 -183t-161 -25q-202 0 -297 140.5t-95 417.5z" />
    <glyph glyph-name="r" unicode="r" 
d="M474 508v-508h-180v701q0 173 -52 381h171q40 -138 48 -250h5q63 140 142 205t207 65t230 -17v-167q-112 19 -204 19q-173 0 -270 -123.5t-97 -305.5z" />
    <glyph glyph-name="s" unicode="s" 
d="M378 814q0 -82 60.5 -111.5t114.5 -43t119 -29.5q182 -46 285 -110t103 -214t-116 -238t-323 -88q-292 0 -364 96t-90 172l159 31q31 -142 134.5 -153.5t160.5 -11.5q270 0 270 171q0 87 -69.5 120t-129.5 48t-128 33q-177 47 -265.5 105t-88.5 200t106 225t307 83
q257 0 327.5 -95.5t84.5 -164.5l-162 -20q-23 146 -259 146t-236 -151z" />
    <glyph glyph-name="t" unicode="t" 
d="M358 269v671h-168v142h170l58 282h120v-282h432v-142h-432v-652q0 -79 42.5 -117t157.5 -38t279 34v-137q-169 -46 -333 -46t-245 68.5t-81 216.5z" />
    <glyph glyph-name="u" unicode="u" 
d="M1049 231q0 -189 6 -231h-170q-1 5 -2 27t-3.5 69.5t-2.5 88.5h-3q-113 -205 -325 -205q-200 0 -282 89.5t-82 291.5v721h180v-686q0 -157 49 -217t176 -60t202.5 87.5t75.5 248.5v627h181v-851z" />
    <glyph glyph-name="v" unicode="v" 
d="M715 0h-213l-433 1082h202l268 -704q8 -22 17 -53.5t19 -65.5t18.5 -65.5t14.5 -52.5q42 147 74 235l276 706h201z" />
    <glyph glyph-name="w" unicode="w" 
d="M1018 0h-204l-143 471q-44 148 -57 202q-9 -37 -19 -71t-20 -69t-20 -66l-148 -467h-203l-183 1082h178l93 -607q3 -24 18 -140t15 -186q39 160 58 214l135 424h193l130 -425q32 -105 55 -213q0 72 16 186.5t19 139.5l101 607h176z" />
    <glyph glyph-name="x" unicode="x" 
d="M932 0l-321 444l-323 -444h-194l415 556l-397 526h199l300 -421l298 421h201l-397 -524l420 -558h-201z" />
    <glyph glyph-name="y" unicode="y" 
d="M252 -285q79 0 148.5 59t117.5 188l18 49l-470 1071h192l264 -642q91 -224 98 -254q6 22 31 84.5t40.5 102t27.5 68.5l252 641h190l-456 -1082q-81 -214 -174 -319.5t-239 -105.5q-74 0 -124 11v135q38 -6 84 -6z" />
    <glyph glyph-name="z" unicode="z" 
d="M147 0v137l681 806h-641v139h844v-137l-682 -806h719v-139h-921z" />
    <glyph glyph-name="braceleft" unicode="{" 
d="M796 -425q-130 0 -212 84t-82 219v351q0 117 -79.5 172t-195.5 60v137q187 7 231 88t44 143v352q0 138 81 220.5t213 82.5h265v-139h-213q-135 0 -153 -70.5t-18 -124.5v-346q0 -106 -68.5 -177.5t-162.5 -94.5v-2q153 -36 192 -126t39 -148v-347q0 -106 40 -150.5
t131 -44.5h213v-139h-265z" />
    <glyph glyph-name="bar" unicode="|" 
d="M531 -425v1909h166v-1909h-166z" />
    <glyph glyph-name="braceright" unicode="}" 
d="M167 -425v139h213q91 0 131.5 44.5t40.5 150.5v347q0 109 68.5 180.5t161.5 93.5v2q-151 37 -190.5 126t-39.5 146v346q0 154 -63.5 174.5t-108.5 20.5h-213v139h265q132 0 213 -82.5t81 -220.5v-352q0 -115 79 -170.5t196 -60.5v-137q-188 -7 -231.5 -88t-43.5 -144
v-351q0 -135 -82 -219t-212 -84h-265z" />
    <glyph glyph-name="asciitilde" unicode="~" 
d="M371 807q102 0 253 -52.5t190 -58.5t62 -6q130 0 244 92v-149q-91 -65 -155.5 -72.5t-129.5 -7.5q-65 -1 -228 57t-251 58q-126 0 -248 -88v143q111 84 263 84z" />
    <glyph glyph-name="exclamdown" unicode="&#xa1;" 
d="M713 1082v-201h-194v201h194zM539 685h148l24 -951h-196z" />
    <glyph glyph-name="cent" unicode="&#xa2;" 
d="M698 -61h-128v195q-214 16 -326 156t-111 366q0 360 251 488q82 42 186 51v184h128v-184q246 -20 346 -203q31 -56 44 -119l-185 -14q-32 169 -205 195v-780q184 31 214 212l182 -12q-30 -210 -236 -301q-70 -31 -160 -39v-195zM316 663.5q0 -193.5 84 -293.5
q65 -78 170 -96v779q-110 -16 -182 -106t-72 -283.5z" />
    <glyph glyph-name="sterling" unicode="&#xa3;" 
d="M890 1083q-44 127 -239 127q-100 0 -160 -57.5t-60 -182.5v-216h408v-142h-408v-139q0 -123 -25.5 -177.5t-55.5 -84.5t-74 -53h600q59 0 87.5 26.5t39.5 79.5l168 -24q-50 -240 -234 -240h-881v154q102 52 148.5 116t46.5 201v141h-186v142h186v220q0 287 157 341.5
t248 54.5q335 0 408 -230q-19 -10 -72 -25q-52 -16 -102 -32z" />
    <glyph glyph-name="currency" unicode="&#xa4;" 
d="M418.5 488.5q82.5 -82.5 197.5 -82.5t198 81.5t83 198t-82.5 199t-198.5 82.5t-198 -83.5t-82 -198t82.5 -197zM182 684q0 138 78 252l-100 100l104 103l99 -101q114 82 252 82q139 0 253 -80l97 97l104 -105l-96 -96q80 -117 80 -253.5t-82 -250.5l100 -100l-102 -105
l-101 101q-114 -78 -254 -78t-249 80l-105 -105l-102 105l102 102q-78 114 -78 252z" />
    <glyph glyph-name="yen" unicode="&#xa5;" 
d="M1085 679v-142h-383v-137h383v-144h-383v-256h-178v256h-381v144h381l2 137h-383v142h320l-411 670h199l361 -617l365 617h199l-412 -670h321z" />
    <glyph glyph-name="brokenbar" unicode="&#xa6;" 
d="M531 -455v779h166v-779h-166zM531 676v778h166v-778h-166z" />
    <glyph glyph-name="section" unicode="&#xa7;" 
d="M910 664q0 85 -83.5 133.5t-231.5 82.5q-112 -6 -175 -60.5t-63 -135.5q0 -119 119.5 -156.5t179.5 -52.5q177 3 215.5 72.5t38.5 116.5zM632 1364q-125 0 -189.5 -44.5t-64.5 -115.5q0 -116 121 -151.5t185 -50.5q171 -40 277.5 -110t106.5 -212q0 -143 -82.5 -198.5
t-136.5 -68.5q213 -91 213 -268q0 -147 -114.5 -232t-326.5 -85q-295 0 -369 97.5t-93 174.5l161 31q32 -149 138 -166t164 -17q124 0 202 46t78 135q0 135 -137.5 174t-202.5 55q-164 39 -264.5 109.5t-100.5 203.5q0 89 61.5 163t166.5 104q-142 47 -174.5 125.5
t-32.5 126.5q0 139 105.5 216.5t308.5 77.5q256 0 327 -95.5t86 -164.5l-161 -20q-28 160 -252 160z" />
    <glyph glyph-name="dieresis" unicode="&#xa8;" 
d="M335 1219v184h165v-184h-165zM729 1219v184h163v-184h-163z" />
    <glyph glyph-name="copyright" unicode="&#xa9;" 
d="M968 1234q-137 155 -354 155q-339 0 -413.5 -230.5t-74.5 -398.5q0 -318 135 -473t353 -155t354.5 154.5t136.5 473.5t-137 474zM1035 221q-162 -183 -420 -183q-257 0 -420.5 183t-163.5 540t163.5 540t420 183t419.5 -182.5t163 -540t-162 -540.5zM617 1082
q-219 0 -219 -274.5t84 -322.5t140 -48q129 0 196 156l115 -35q-45 -102 -117.5 -163.5t-177.5 -61.5q-190 0 -279.5 117t-89.5 313q0 306 129.5 365t206.5 59q132 0 203.5 -59t109.5 -150l-114 -33q-53 137 -187 137z" />
    <glyph glyph-name="ordfeminine" unicode="&#xaa;" 
d="M353 898q0 -68 39.5 -107t105.5 -39q115 0 186 74.5t71 156.5v51l-154 -4q-248 -4 -248 -132zM898 874q0 -118 65 -118q34 0 58 8v-94q-50 -13 -102 -13q-154 0 -160 160h-4q-93 -166 -291 -166q-121 0 -189.5 57t-68.5 174t98.5 172.5t259.5 57.5l191 4v43
q0 182 -180 182q-84 0 -130 -34t-57 -111l-149 10q27 158 144 192t196 34q153 0 236 -67t83 -200v-291z" />
    <glyph glyph-name="guillemotleft" unicode="&#xab;" 
d="M640 940v-31l-335 -372l337 -367v-29h-179l-336 365v63l336 371h177zM1118 940v-31l-338 -372l340 -367v-29h-180l-338 365v63l338 371h178z" />
    <glyph glyph-name="logicalnot" unicode="&#xac;" 
d="M966 180v428h-850v146h995v-574h-145z" />
    <glyph glyph-name="registered" unicode="&#xae;" 
d="M801 932q0 72 -47.5 108t-128.5 36h-170v-301h182q80 0 122 42.5t42 114.5zM455 679v-336h-127v831h307q142 0 217.5 -63t75.5 -169t-52 -168t-137 -81l221 -350h-145l-199 336h-161zM968 1234q-137 155 -354 155q-339 0 -413.5 -230.5t-74.5 -398.5q0 -318 135 -473
t353 -155t354.5 154.5t136.5 473.5t-137 474zM1035 221q-162 -183 -420 -183q-257 0 -420.5 183t-163.5 540t163.5 540t420 183t419.5 -182.5t163 -540t-162 -540.5z" />
    <glyph glyph-name="macron" unicode="&#xaf;" 
d="M-5 1522v96h1238v-96h-1238z" />
    <glyph glyph-name="degree" unicode="&#xb0;" 
d="M792 1086q0 75 -51 127t-127 52q-75 0 -126.5 -52.5t-51.5 -126.5t52 -127.5t126 -53.5t126 53t52 128zM901 1086q0 -119 -84.5 -202.5t-202 -83.5t-202.5 84t-85 202t84.5 201t203 83t202.5 -82.5t84 -201.5z" />
    <glyph glyph-name="plusminus" unicode="&#xb1;" 
d="M116 0v145h995v-145h-995zM687 680v-395h-147v395h-424v145h424v394h147v-394h424v-145h-424z" />
    <glyph glyph-name="uni00B2" unicode="&#xb2;" 
d="M764 1184q0 56 -35.5 93.5t-106.5 37.5t-115 -36.5t-52 -104.5l-133 8q12 105 92 172t211 67t203.5 -63.5t72.5 -175.5q0 -142 -164.5 -258.5t-212 -161.5t-69.5 -92h459l2 -107h-602l-2 103q56 126 218.5 238.5t198 168t35.5 111.5z" />
    <glyph glyph-name="uni00B3" unicode="&#xb3;" 
d="M784 803q0 137 -189 137h-61v109h57q113 0 142.5 48.5t29.5 98.5t-36.5 84.5t-106.5 34.5t-112 -35t-48 -100l-135 12q20 170 129.5 199.5t173.5 29.5q128 0 200 -60.5t72 -146.5q0 -176 -176 -215v-2q98 -9 147.5 -65t49.5 -137q0 -116 -77.5 -180t-219.5 -64
q-286 0 -318 227l136 13q18 -136 180 -136t162 148z" />
    <glyph glyph-name="acute" unicode="&#xb4;" 
d="M402 1201v20l227 239h197v-29l-300 -230h-124z" />
    <glyph glyph-name="uni00B5" unicode="&#xb5;" 
d="M1078 233q0 -191 6 -233h-168q-2 12 -6 96t-4 103h-4q-106 -219 -334 -219q-82 0 -146 32t-96 90h-4q4 -43 4 -122v-373h-182v1475h182v-644q0 -317 264 -317q132 0 219.5 97t87.5 247v617h181v-849z" />
    <glyph glyph-name="paragraph" unicode="&#xb6;" 
d="M951 1227v-1551h-132v1551h-197v-1551h-133v958q-164 0 -263 91t-99 261q0 171 98 267t272 96h583v-122h-129z" />
    <glyph glyph-name="periodcentered" unicode="&#xb7;" 
d="M496 420v299h235v-299h-235z" />
    <glyph glyph-name="cedilla" unicode="&#xb8;" 
d="M205 -348q147 0 147 84t-133 84h-21q-22 0 -36 -2l65 182h107l-39 -100q94 -3 141 -44.5t47 -113.5q0 -186 -274 -186q-57 0 -90 4v98q50 -6 86 -6z" />
    <glyph glyph-name="uni00B9" unicode="&#xb9;" 
d="M291 563v107h265v610q-39 -78 -133.5 -96.5t-137.5 -18.5v109q149 0 206.5 51.5t74.5 84.5h121v-740h236v-107h-632z" />
    <glyph glyph-name="ordmasculine" unicode="&#xba;" 
d="M609 756q244 0 244 285q0 152 -60 219t-174 67q-241 0 -241 -285q0 -218 90 -252t141 -34zM901.5 757.5q-100.5 -106.5 -287.5 -106.5t-287.5 108t-100.5 283q0 272 146 331t246 59t173.5 -29t142 -105.5t68.5 -255.5q0 -178 -100.5 -284.5z" />
    <glyph glyph-name="guillemotright" unicode="&#xbb;" 
d="M107 141v29l338 367l-336 372v31h178l335 -371v-63l-335 -365h-180zM584 141v29l338 367l-336 372v31h176l338 -371v-63l-338 -365h-178z" />
    <glyph glyph-name="onequarter" unicode="&#xbc;" 
d="M63 589v107h135v513q-23 -45 -78 -70t-93 -25v119q75 0 141 61q24 22 40 55h121v-653h116v-107h-382zM322 0h-118l703 1349h115zM980 263v321v28q0 14 1 23q-28 -42 -51 -74t-30 -42l-185 -256h265zM1107 162v-161h-127v161h-375v99l361 502h141v-500h122v-101h-122z" />
    <glyph glyph-name="onehalf" unicode="&#xbd;" 
d="M53 589v107h135v513q-23 -45 -78 -70t-93 -25v119q75 0 141 61q24 22 40 55h121v-653h116v-107h-382zM306 0h-118l703 1349h115zM1054 552q0 121 -111 121q-61 0 -91 -31t-37 -92l-130 5q19 153 156 201q46 16 107 17q120 0 180 -56t61 -159q0 -132 -160 -252
q-120 -91 -156 -125q-37 -35 -53 -73h380v-107h-522v97q49 112 224 244q96 72 124 119t28 91z" />
    <glyph glyph-name="threequarters" unicode="&#xbe;" 
d="M368 1146q0 110 -97 109q-43 1 -76 -31t-39 -89l-135 12q14 104 83 159t148 55q133 0 193 -57t60 -145q0 -126 -136 -177v-2q157 -34 157 -186q0 -104 -71 -164q-71 -59 -187 -59q-117 0 -180 61t-77 151l136 13q18 -121 125 -121q51 0 84 30t33 95q0 120 -149 120h-41
v109h37q132 1 132 117zM347 0h-118l703 1349h115zM980 263v321v28q0 14 1 23q-28 -42 -51 -74t-30 -42l-185 -256h265zM1107 162v-161h-127v161h-375v99l361 502h141v-500h122v-101h-122z" />
    <glyph glyph-name="questiondown" unicode="&#xbf;" 
d="M778 1081v-201h-195v201h195zM153 68q0 80 18.5 132t49.5 93t70.5 74t117 89t131 113.5t55.5 154.5h175q-5 -168 -93 -241.5t-163.5 -129.5t-127 -114t-51.5 -152q0 -164 113.5 -195t215 -31t186 73t98.5 199l184 -12q-38 -289 -213 -349.5t-285 -60.5t-198.5 24
t-151.5 70.5t-97 114.5t-34 148z" />
    <glyph glyph-name="Agrave" unicode="&#xc0;" 
d="M701 954q-13 38 -27 77t-26 74t-20 61l-12 39q-4 -12 -12 -39t-20 -62t-24 -74t-25 -76l-151 -423h463zM1034 0l-138 382h-563l-137 -382h-196l510 1349h217l501 -1349h-194zM309 1703h197l227 -239v-20h-124l-300 230v29z" />
    <glyph glyph-name="Aacute" unicode="&#xc1;" 
d="M701 954q-13 38 -27 77t-26 74t-20 61l-12 39q-4 -12 -12 -39t-20 -62t-24 -74t-25 -76l-151 -423h463zM1034 0l-138 382h-563l-137 -382h-196l510 1349h217l501 -1349h-194zM495 1445v20l227 239h197v-29l-300 -230h-124z" />
    <glyph glyph-name="Acircumflex" unicode="&#xc2;" 
d="M701 954q-13 38 -27 77t-26 74t-20 61l-12 39q-4 -12 -12 -39t-20 -62t-24 -74t-25 -76l-151 -423h463zM1034 0l-138 382h-563l-137 -382h-196l510 1349h217l501 -1349h-194zM945 1445h-105l-219 138h-2l-232 -138h-104v20l254 239h164l244 -239v-20z" />
    <glyph glyph-name="Atilde" unicode="&#xc3;" 
d="M701 954q-13 38 -27 77t-26 74t-20 61l-12 39q-4 -12 -12 -39t-20 -62t-24 -74t-25 -76l-151 -423h463zM1034 0l-138 382h-563l-137 -382h-196l510 1349h217l501 -1349h-194zM779 1445q-51 1 -93 19t-115 59t-107 41q-53 0 -70 -26q-16 -26 -28 -93h-111q13 113 41 159
q57 89 162 89q62 1 168 -59t138 -60q52 0 69 27q18 27 27 92h112q-13 -112 -40 -157q-28 -46 -65 -68t-88 -23z" />
    <glyph glyph-name="Adieresis" unicode="&#xc4;" 
d="M701 954q-13 38 -27 77t-26 74t-20 61l-12 39q-4 -12 -12 -39t-20 -62t-24 -74t-25 -76l-151 -423h463zM1034 0l-138 382h-563l-137 -382h-196l510 1349h217l501 -1349h-194zM335 1445v184h165v-184h-165zM729 1445v184h163v-184h-163z" />
    <glyph glyph-name="Aring" unicode="&#xc5;" 
d="M701 954q-13 38 -27 77t-26 74t-20 61l-12 39q-4 -12 -12 -39t-20 -62t-24 -74t-25 -76l-151 -423h463zM375 1433q0 84 63 141q63 58 179 58t179 -58t63 -141q0 -113 -101 -168l470 -1265h-194l-138 382h-563l-137 -382h-196l478 1264q-103 54 -103 169zM738 1433
q0 15 -6 29t-22 27q-14 11 -37 19t-56 8t-56 -8t-38 -19q-15 -13 -21 -27t-7 -29q1 -15 7 -30t21 -27t38 -20t56 -7q33 -1 56 7t37 20t22 27q6 15 6 30z" />
    <glyph glyph-name="AE" unicode="&#xc6;" 
d="M646 1202h-73q-4 -16 -14 -49t-26.5 -89t-31.5 -102l-139 -401h284v641zM646 412h-335l-142 -412h-168l486 1349h667v-152h-337v-430h327v-150h-327v-465h378v-152h-549v412z" />
    <glyph glyph-name="Ccedilla" unicode="&#xc7;" 
d="M314 681q0 -546 347 -546q212 0 322 282l159 -65q-104 -257 -304 -340q-69 -29 -158 -32l-31 -80q94 -2 141 -44t47 -114q0 -186 -274 -186q-57 0 -90 4v98q50 -6 86 -6q147 0 147 84t-133 84h-29q-14 0 -28 -2l60 167q-211 25 -337 197t-126 499q0 689 536 689
q339 0 466 -335l-168 -65q-55 165 -189 223q-48 21 -122 21t-138 -34t-105 -102q-79 -130 -79 -397z" />
    <glyph glyph-name="Egrave" unicode="&#xc8;" 
d="M162 0v1349h919v-156h-728v-422h668v-154h-668v-461h769v-156h-960zM331 1704h197l227 -239v-20h-124l-300 230v29z" />
    <glyph glyph-name="Eacute" unicode="&#xc9;" 
d="M162 0v1349h919v-156h-728v-422h668v-154h-668v-461h769v-156h-960zM493 1445v20l227 239h197v-29l-300 -230h-124z" />
    <glyph glyph-name="Ecircumflex" unicode="&#xca;" 
d="M162 0v1349h919v-156h-728v-422h668v-154h-668v-461h769v-156h-960zM945 1445h-105l-219 138h-2l-232 -138h-104v20l254 239h164l244 -239v-20z" />
    <glyph glyph-name="Edieresis" unicode="&#xcb;" 
d="M162 0v1349h919v-156h-728v-422h668v-154h-668v-461h769v-156h-960zM355 1445v184h165v-184h-165zM749 1445v184h163v-184h-163z" />
    <glyph glyph-name="Igrave" unicode="&#xcc;" 
d="M202 1349h823v-156h-316v-1037h316v-156h-823v156h316v1037h-316v156zM321 1704h197l227 -239v-20h-124l-300 230v29z" />
    <glyph glyph-name="Iacute" unicode="&#xcd;" 
d="M202 1349h823v-156h-316v-1037h316v-156h-823v156h316v1037h-316v156zM505 1445v20l227 239h197v-29l-300 -230h-124z" />
    <glyph glyph-name="Icircumflex" unicode="&#xce;" 
d="M202 1349h823v-156h-316v-1037h316v-156h-823v156h316v1037h-316v156zM945 1445h-105l-219 138h-2l-232 -138h-104v20l254 239h164l244 -239v-20z" />
    <glyph glyph-name="Idieresis" unicode="&#xcf;" 
d="M202 1349h823v-156h-316v-1037h316v-156h-823v156h316v1037h-316v156zM335 1445v184h165v-184h-165zM729 1445v184h163v-184h-163z" />
    <glyph glyph-name="Eth" unicode="&#xd0;" 
d="M515 156q418 0 418 532q0 268 -112 386.5t-347 118.5h-121v-447h289v-149h-289v-441h162zM1125 690q0 -335 -155 -512.5t-438 -177.5h-370v597h-135v149h135v603h311q652 0 652 -659z" />
    <glyph glyph-name="Ntilde" unicode="&#xd1;" 
d="M332 876v-876h-170v1349h222l528 -1138q-18 144 -18 274v864h172v-1349h-230l-520 1130q16 -172 16 -254zM779 1446q-51 0 -93 18t-115 60q-73 41 -107 41q-53 0 -70 -26q-16 -26 -28 -93h-111q13 113 41 159q57 89 162 89q62 0 168 -60t138 -59q52 0 69 27q18 27 27 92
h112q-13 -112 -40 -157q-28 -47 -65 -69t-88 -22z" />
    <glyph glyph-name="Ograve" unicode="&#xd2;" 
d="M614 1214q-311 0 -311 -540t316 -539q306 -1 306 539t-311 540zM102 681q0 514 294 646q96 43 219 43q247 0 379 -174t132 -515q0 -342 -134 -521q-134 -180 -383 -180q-248 0 -377 181q-130 182 -130 520zM316 1704h197l227 -239v-20h-124l-300 230v29z" />
    <glyph glyph-name="Oacute" unicode="&#xd3;" 
d="M614 1214q-311 0 -311 -540t316 -539q306 -1 306 539t-311 540zM102 681q0 514 294 646q96 43 219 43q247 0 379 -174t132 -515q0 -342 -134 -521q-134 -180 -383 -180q-248 0 -377 181q-130 182 -130 520zM500 1445v20l227 239h197v-29l-300 -230h-124z" />
    <glyph glyph-name="Ocircumflex" unicode="&#xd4;" 
d="M614 1214q-311 0 -311 -540t316 -539q306 -1 306 539t-311 540zM102 681q0 514 294 646q96 43 219 43q247 0 379 -174t132 -515q0 -342 -134 -521q-134 -180 -383 -180q-248 0 -377 181q-130 182 -130 520zM945 1445h-105l-219 138h-2l-232 -138h-104v20l254 239h164
l244 -239v-20z" />
    <glyph glyph-name="Otilde" unicode="&#xd5;" 
d="M614 1214q-311 0 -311 -540t316 -539q306 -1 306 539t-311 540zM102 681q0 514 294 646q96 43 219 43q247 0 379 -174t132 -515q0 -342 -134 -521q-134 -180 -383 -180q-248 0 -377 181q-130 182 -130 520zM779 1445q-51 1 -93 19t-115 59t-107 41q-53 0 -70 -26
q-16 -26 -28 -93h-111q13 113 41 159q57 89 162 89q62 1 168 -59t138 -60q52 0 69 27q18 27 27 92h112q-13 -112 -40 -157q-28 -46 -65 -68t-88 -23z" />
    <glyph glyph-name="Odieresis" unicode="&#xd6;" 
d="M614 1214q-311 0 -311 -540t316 -539q306 -1 306 539t-311 540zM102 681q0 514 294 646q96 43 219 43q247 0 379 -174t132 -515q0 -342 -134 -521q-134 -180 -383 -180q-248 0 -377 181q-130 182 -130 520zM338 1445v184h165v-184h-165zM732 1445v184h163v-184h-163z" />
    <glyph glyph-name="multiply" unicode="&#xd7;" 
d="M157 330l354 354l-352 352l104 103l350 -353l350 351l105 -105l-350 -348l352 -352l-102 -105l-353 353l-356 -355z" />
    <glyph glyph-name="Oslash" unicode="&#xd8;" 
d="M615 1214q-312 0 -312 -533q0 -166 30 -282l512 684q-77 131 -230 131zM925 681q0 164 -30 278l-512 -686q79 -138 237 -138q306 0 305 546zM1030 1140q96 -170 96 -485t-134 -495t-366 -180q-231 0 -359 138l-117 -156l-94 65l141 189q-95 174 -95 465
q0 514 194.5 601.5t318.5 87.5q217 0 345 -134l116 156l94 -65z" />
    <glyph glyph-name="Ugrave" unicode="&#xd9;" 
d="M1085 490q0 -271 -116 -391q-116 -119 -359 -119t-355 115q-113 115 -113 377v877h191v-851q0 -199 57 -281t217 -82t224 83t64 293v838h190v-859zM305 1704h197l227 -239v-20h-124l-300 230v29z" />
    <glyph glyph-name="Uacute" unicode="&#xda;" 
d="M1085 490q0 -271 -116 -391q-116 -119 -359 -119t-355 115q-113 115 -113 377v877h191v-851q0 -199 57 -281t217 -82t224 83t64 293v838h190v-859zM488 1445v20l227 239h197v-29l-300 -230h-124z" />
    <glyph glyph-name="Ucircumflex" unicode="&#xdb;" 
d="M1085 490q0 -271 -116 -391q-116 -119 -359 -119t-355 115q-113 115 -113 377v877h191v-851q0 -199 57 -281t217 -82t224 83t64 293v838h190v-859zM945 1445h-105l-219 138h-2l-232 -138h-104v20l254 239h164l244 -239v-20z" />
    <glyph glyph-name="Udieresis" unicode="&#xdc;" 
d="M1085 490q0 -271 -116 -391q-116 -119 -359 -119t-355 115q-113 115 -113 377v877h191v-851q0 -199 57 -281t217 -82t224 83t64 293v838h190v-859zM335 1445v184h165v-184h-165zM729 1445v184h163v-184h-163z" />
    <glyph glyph-name="Yacute" unicode="&#xdd;" 
d="M708 0h-188v584l-484 765h205l374 -611l372 611h205l-484 -765v-584zM503 1445v20l227 239h197v-29l-300 -230h-124z" />
    <glyph glyph-name="Thorn" unicode="&#xde;" 
d="M599 971h-246v-576h254q159 0 239.5 80.5t80.5 213.5t-82 207.5t-246 74.5zM1119 696q0 -192 -126 -317t-359 -125h-281v-254h-191v1349h191v-235h269q244 0 370.5 -113t126.5 -305z" />
    <glyph glyph-name="germandbls" unicode="&#xdf;" 
d="M805 115q92 0 141 47.5t49 116.5t-27 110t-67.5 72.5t-88 60t-115 87.5t-67.5 175q0 115 89 189t111 115.5t22 81.5q0 78 -66 125.5t-156 47.5q-163 0 -235.5 -76.5t-72.5 -245.5v-1021h-180v1027q0 457 467 457q197 0 306 -83t109 -218q0 -134 -94 -218t-113 -113
t-19 -65t27.5 -66.5t68.5 -59.5t157 -107t116 -259q0 -223 -131.5 -273.5t-219.5 -50.5q-178 0 -290 49l-2 164q120 -69 281 -69z" />
    <glyph glyph-name="agrave" unicode="&#xe0;" 
d="M490 117q153 0 241 103q87 103 87 225v89l-190 -4q-141 -3 -198 -33q-57 -31 -85 -77t-28 -124q1 -79 45 -129t128 -50zM599 1102q201 0 301 -94t100 -270v-466q0 -80 21 -120t80 -41q26 0 59 7v-112q-68 -16 -129 -16q-111 0 -156 53t-51 164h-6q-91 -169 -241 -211
q-57 -16 -131 -16q-158 0 -238 86t-80 236q0 349 454 354l236 4v59q0 193 -124 233q-42 14 -95 13q-112 0 -168 -38t-67 -134l-188 17q46 292 423 292zM288 1460h197l227 -239v-20h-124l-300 230v29z" />
    <glyph glyph-name="aacute" unicode="&#xe1;" 
d="M490 117q153 0 241 103q87 103 87 225v89l-190 -4q-141 -3 -198 -33q-57 -31 -85 -77t-28 -124q1 -79 45 -129t128 -50zM599 1102q201 0 301 -94t100 -270v-466q0 -80 21 -120t80 -41q26 0 59 7v-112q-68 -16 -129 -16q-111 0 -156 53t-51 164h-6q-91 -169 -241 -211
q-57 -16 -131 -16q-158 0 -238 86t-80 236q0 349 454 354l236 4v59q0 193 -124 233q-42 14 -95 13q-112 0 -168 -38t-67 -134l-188 17q46 292 423 292zM479 1201v20l227 239h197v-29l-300 -230h-124z" />
    <glyph glyph-name="acircumflex" unicode="&#xe2;" 
d="M490 117q153 0 241 103q87 103 87 225v89l-190 -4q-141 -3 -198 -33q-57 -31 -85 -77t-28 -124q1 -79 45 -129t128 -50zM599 1102q201 0 301 -94t100 -270v-466q0 -80 21 -120t80 -41q26 0 59 7v-112q-68 -16 -129 -16q-111 0 -156 53t-51 164h-6q-91 -169 -241 -211
q-57 -16 -131 -16q-158 0 -238 86t-80 236q0 349 454 354l236 4v59q0 193 -124 233q-42 14 -95 13q-112 0 -168 -38t-67 -134l-188 17q46 292 423 292zM927 1201h-105l-219 138h-2l-232 -138h-104v20l254 239h164l244 -239v-20z" />
    <glyph glyph-name="atilde" unicode="&#xe3;" 
d="M490 117q153 0 241 103q87 103 87 225v89l-190 -4q-141 -3 -198 -33q-57 -31 -85 -77t-28 -124q1 -79 45 -129t128 -50zM599 1102q201 0 301 -94t100 -270v-466q0 -80 21 -120t80 -41q26 0 59 7v-112q-68 -16 -129 -16q-111 0 -156 53t-51 164h-6q-91 -169 -241 -211
q-57 -16 -131 -16q-158 0 -238 86t-80 236q0 349 454 354l236 4v59q0 193 -124 233q-42 14 -95 13q-112 0 -168 -38t-67 -134l-188 17q46 292 423 292zM771 1201q-51 1 -93 19t-115 59t-107 41q-53 0 -70 -26q-16 -26 -28 -93h-111q13 113 41 159q57 89 162 89q62 1 168 -59
t138 -60q52 0 69 27q18 27 27 92h112q-13 -112 -40 -157q-28 -46 -65 -68t-88 -23z" />
    <glyph glyph-name="adieresis" unicode="&#xe4;" 
d="M490 117q153 0 241 103q87 103 87 225v89l-190 -4q-141 -3 -198 -33q-57 -31 -85 -77t-28 -124q1 -79 45 -129t128 -50zM599 1102q201 0 301 -94t100 -270v-466q0 -80 21 -120t80 -41q26 0 59 7v-112q-68 -16 -129 -16q-111 0 -156 53t-51 164h-6q-91 -169 -241 -211
q-57 -16 -131 -16q-158 0 -238 86t-80 236q0 349 454 354l236 4v59q0 193 -124 233q-42 14 -95 13q-112 0 -168 -38t-67 -134l-188 17q46 292 423 292zM319 1219v184h165v-184h-165zM713 1219v184h163v-184h-163z" />
    <glyph glyph-name="aring" unicode="&#xe5;" 
d="M490 117q153 0 241 103q87 103 87 225v89l-190 -4q-141 -3 -198 -33q-57 -31 -85 -77t-28 -124q1 -79 45 -129t128 -50zM599 1102q201 0 301 -94t100 -270v-466q0 -80 21 -120t80 -41q26 0 59 7v-112q-68 -16 -129 -16q-111 0 -156 53t-51 164h-6q-91 -169 -241 -211
q-57 -16 -131 -16q-158 0 -238 86t-80 236q0 349 454 354l236 4v59q0 193 -124 233q-42 14 -95 13q-112 0 -168 -38t-67 -134l-188 17q46 292 423 292zM727 1348q-1 16 -7 30t-20 26t-38 20q-23 8 -56 7q-33 1 -56 -7t-38 -20q-16 -12 -22 -26t-6 -30q0 -15 6 -30t22 -27
q15 -11 38 -19t56 -8t56 8q24 8 38 19q14 12 20 27t7 30zM848 1348q0 -39 -15 -75t-45 -64q-30 -29 -76 -45t-106 -16t-106 16t-76 45q-30 28 -45 64t-15 75t15 75q15 35 45 63t76 44t106 17q60 -1 106 -17t76 -44t45 -63q15 -36 15 -75z" />
    <glyph glyph-name="ae" unicode="&#xe6;" 
d="M859 969q-113 0 -144.5 -115t-33.5 -213h361q-9 171 -53 249.5t-130 78.5zM189 296q0 -79 28.5 -129t84.5 -50q103 0 159 102.5t56 225.5v89l-122 -4q-95 -3 -132 -33.5t-55.5 -76t-18.5 -124.5zM873 1102q335 0 335 -575v-24h-529v-17q5 -371 185 -371q75 0 119.5 47
t60.5 119l138 -45q-68 -256 -314 -256q-174 0 -224 84t-68 148q-99 -232 -298 -232q-258 0 -258 322q0 349 330 354l167 4v59q0 135 -24 177t-50 55.5t-60 13.5q-70 0 -106 -37t-44 -135l-168 17q36 292 315 292q176 0 247 -139q85 139 246 139z" />
    <glyph glyph-name="ccedilla" unicode="&#xe7;" 
d="M542 -348q147 0 147 84t-133 84h-28q-14 0 -29 -2l59 165q-205 20 -317 161q-111 141 -111 398q0 301 156 443q129 117 332 117q202 0 318 -90q115 -90 142 -233l-192 -14q-16 91 -80 143t-166 53t-160 -27t-94 -80t-52 -130t-15 -178q0 -211 70 -319t234 -108
q108 0 179 53t88 162l190 -12q-19 -143 -134 -238t-282 -103l-32 -81q94 -2 141 -44t47 -114q0 -186 -274 -186q-57 0 -90 4v98q50 -6 86 -6z" />
    <glyph glyph-name="egrave" unicode="&#xe8;" 
d="M623 969q-117 0 -194 -66q-100 -86 -105 -262h584q-22 258 -186 312q-49 16 -99 16zM617 1102q477 0 477 -575v-24h-772q0 -273 170 -359q56 -28 122 -29q115 -1 191 45q77 46 102 121l158 -45q-61 -170 -262 -232q-75 -24 -185 -24q-228 0 -357 145q-128 145 -128 429
q0 285 146 427q125 121 338 121zM323 1460h197l227 -239v-20h-124l-300 230v29z" />
    <glyph glyph-name="eacute" unicode="&#xe9;" 
d="M623 969q-117 0 -194 -66q-100 -86 -105 -262h584q-22 258 -186 312q-49 16 -99 16zM617 1102q477 0 477 -575v-24h-772q0 -273 170 -359q56 -28 122 -29q115 -1 191 45q77 46 102 121l158 -45q-61 -170 -262 -232q-75 -24 -185 -24q-228 0 -357 145q-128 145 -128 429
q0 285 146 427q125 121 338 121zM513 1201v20l227 239h197v-29l-300 -230h-124z" />
    <glyph glyph-name="ecircumflex" unicode="&#xea;" 
d="M623 969q-117 0 -194 -66q-100 -86 -105 -262h584q-22 258 -186 312q-49 16 -99 16zM617 1102q477 0 477 -575v-24h-772q0 -273 170 -359q56 -28 122 -29q115 -1 191 45q77 46 102 121l158 -45q-61 -170 -262 -232q-75 -24 -185 -24q-228 0 -357 145q-128 145 -128 429
q0 285 146 427q125 121 338 121zM952 1201h-105l-219 138h-2l-232 -138h-104v20l254 239h164l244 -239v-20z" />
    <glyph glyph-name="edieresis" unicode="&#xeb;" 
d="M623 969q-117 0 -194 -66q-100 -86 -105 -262h584q-22 258 -186 312q-49 16 -99 16zM617 1102q477 0 477 -575v-24h-772q0 -273 170 -359q56 -28 122 -29q115 -1 191 45q77 46 102 121l158 -45q-61 -170 -262 -232q-75 -24 -185 -24q-228 0 -357 145q-128 145 -128 429
q0 285 146 427q125 121 338 121zM343 1219v184h165v-184h-165zM737 1219v184h163v-184h-163z" />
    <glyph glyph-name="igrave" unicode="&#xec;" 
d="M745 142h380v-142h-982v142h422v798h-319v142h499v-940zM335 1460h197l227 -239v-20h-124l-300 230v29z" />
    <glyph glyph-name="iacute" unicode="&#xed;" 
d="M745 142h380v-142h-982v142h422v798h-319v142h499v-940zM506 1201v20l227 239h197v-29l-300 -230h-124z" />
    <glyph glyph-name="icircumflex" unicode="&#xee;" 
d="M745 142h380v-142h-982v142h422v798h-319v142h499v-940zM955 1201h-105l-219 138h-2l-232 -138h-104v20l254 239h164l244 -239v-20z" />
    <glyph glyph-name="idieresis" unicode="&#xef;" 
d="M745 142h380v-142h-982v142h422v798h-319v142h499v-940zM376 1219v184h165v-184h-165zM770 1219v184h163v-184h-163z" />
    <glyph glyph-name="eth" unicode="&#xf0;" 
d="M913 480q0 190 -69.5 278t-227.5 88q-236 0 -269 -136.5t-33 -228.5q0 -190 72 -279t217 -89q239 0 274.5 136.5t35.5 230.5zM1102 516v-6q0 -384 -183 -457t-311 -73q-244 0 -363.5 134t-119.5 367q0 355 177 426.5t279 71.5q168 0 262 -59q-85 195 -220 317l-260 -115
l-55 110l218 94q-109 87 -242 158h209q80 -36 170 -102l264 114l55 -108l-211 -92q331 -301 331 -780z" />
    <glyph glyph-name="ntilde" unicode="&#xf1;" 
d="M706 1102q343 0 343 -381v-721h-181v695q0 216 -132 256q-40 12 -94 12q-116 0 -196 -89q-81 -89 -81 -247v-627h-180v851q0 189 -6 231h170q1 -5 2 -27q1 -21 3 -69t3 -89h3q105 205 346 205zM789 1201q-51 1 -93 19t-115 59t-107 41q-53 0 -70 -26q-16 -26 -28 -93
h-111q13 113 41 159q57 89 162 89q62 1 168 -59t138 -60q52 0 69 27q18 27 27 92h112q-13 -112 -40 -157q-28 -46 -65 -68t-88 -23z" />
    <glyph glyph-name="ograve" unicode="&#xf2;" 
d="M833 873q-75 96 -216 96t-220 -98q-78 -98 -78 -329q1 -341 179 -409q52 -20 113 -20q61 -1 117 19t95 69q85 104 85 340t-75 332zM1097 542q0 -279 -128 -420q-128 -142 -360 -142q-344 0 -445 314q-34 106 -34 248q0 280 126 420t365 140q476 0 476 -560zM332 1460h197
l227 -239v-20h-124l-300 230v29z" />
    <glyph glyph-name="oacute" unicode="&#xf3;" 
d="M833 873q-75 96 -216 96t-220 -98q-78 -98 -78 -329q1 -341 179 -409q52 -20 113 -20q61 -1 117 19t95 69q85 104 85 340t-75 332zM1097 542q0 -279 -128 -420q-128 -142 -360 -142q-344 0 -445 314q-34 106 -34 248q0 280 126 420t365 140q476 0 476 -560zM503 1201v20
l227 239h197v-29l-300 -230h-124z" />
    <glyph glyph-name="ocircumflex" unicode="&#xf4;" 
d="M833 873q-75 96 -216 96t-220 -98q-78 -98 -78 -329q1 -341 179 -409q52 -20 113 -20q61 -1 117 19t95 69q85 104 85 340t-75 332zM1097 542q0 -279 -128 -420q-128 -142 -360 -142q-344 0 -445 314q-34 106 -34 248q0 280 126 420t365 140q476 0 476 -560zM945 1201
h-105l-219 138h-2l-232 -138h-104v20l254 239h164l244 -239v-20z" />
    <glyph glyph-name="otilde" unicode="&#xf5;" 
d="M833 873q-75 96 -216 96t-220 -98q-78 -98 -78 -329q1 -341 179 -409q52 -20 113 -20q61 -1 117 19t95 69q85 104 85 340t-75 332zM1097 542q0 -279 -128 -420q-128 -142 -360 -142q-344 0 -445 314q-34 106 -34 248q0 280 126 420t365 140q476 0 476 -560zM779 1201
q-51 1 -93 19t-115 59t-107 41q-53 0 -70 -26q-16 -26 -28 -93h-111q13 113 41 159q57 89 162 89q62 1 168 -59t138 -60q52 0 69 27q18 27 27 92h112q-13 -112 -40 -157q-28 -46 -65 -68t-88 -23z" />
    <glyph glyph-name="odieresis" unicode="&#xf6;" 
d="M833 873q-75 96 -216 96t-220 -98q-78 -98 -78 -329q1 -341 179 -409q52 -20 113 -20q61 -1 117 19t95 69q85 104 85 340t-75 332zM1097 542q0 -279 -128 -420q-128 -142 -360 -142q-344 0 -445 314q-34 106 -34 248q0 280 126 420t365 140q476 0 476 -560zM335 1219v184
h165v-184h-165zM729 1219v184h163v-184h-163z" />
    <glyph glyph-name="divide" unicode="&#xf7;" 
d="M529 223v183h168v-183h-168zM116 608v146h995v-146h-995zM529 958v183h168v-183h-168z" />
    <glyph glyph-name="oslash" unicode="&#xf8;" 
d="M299 542q0 -146 34 -238l509 576q-75 89 -225 89t-234 -98t-84 -329zM928 542q0 147 -33 242l-509 -576q77 -95 225 -95t232.5 96t84.5 333zM110 542q0 417 192 488.5t313 71.5q213 0 335 -100l72 82l78 -68l-80 -90q97 -137 97 -400t-133 -404.5t-356 -141.5t-350 107
l-77 -87l-76 68l84 95q-99 142 -99 379z" />
    <glyph glyph-name="ugrave" unicode="&#xf9;" 
d="M1049 231q0 -189 6 -231h-170q-1 5 -2 27q-1 21 -3 69t-3 89h-3q-113 -205 -325 -205q-200 0 -282 89t-82 292v721h180v-686q0 -157 49 -217t176 -60t203 88q75 88 75 248v627h181v-851zM308 1460h197l227 -239v-20h-124l-300 230v29z" />
    <glyph glyph-name="uacute" unicode="&#xfa;" 
d="M1049 231q0 -189 6 -231h-170q-1 5 -2 27q-1 21 -3 69t-3 89h-3q-113 -205 -325 -205q-200 0 -282 89t-82 292v721h180v-686q0 -157 49 -217t176 -60t203 88q75 88 75 248v627h181v-851zM492 1201v20l227 239h197v-29l-300 -230h-124z" />
    <glyph glyph-name="ucircumflex" unicode="&#xfb;" 
d="M1049 231q0 -189 6 -231h-170q-1 5 -2 27q-1 21 -3 69t-3 89h-3q-113 -205 -325 -205q-200 0 -282 89t-82 292v721h180v-686q0 -157 49 -217t176 -60t203 88q75 88 75 248v627h181v-851zM945 1201h-105l-219 138h-2l-232 -138h-104v20l254 239h164l244 -239v-20z" />
    <glyph glyph-name="udieresis" unicode="&#xfc;" 
d="M1049 231q0 -189 6 -231h-170q-1 5 -2 27q-1 21 -3 69t-3 89h-3q-113 -205 -325 -205q-200 0 -282 89t-82 292v721h180v-686q0 -157 49 -217t176 -60t203 88q75 88 75 248v627h181v-851zM335 1219v184h165v-184h-165zM729 1219v184h163v-184h-163z" />
    <glyph glyph-name="yacute" unicode="&#xfd;" 
d="M252 -285q78 0 148 59t118 188l18 49l-470 1071h192l264 -642q91 -224 98 -254q6 22 31 84t41 102t27 69l252 641h190l-456 -1082q-81 -214 -174 -319q-93 -106 -239 -106q-74 0 -124 11v135q38 -6 84 -6zM509 1201v20l227 239h197v-29l-300 -230h-124z" />
    <glyph glyph-name="thorn" unicode="&#xfe;" 
d="M365 1061q0 -65 -4 -157h7q75 156 171.5 178t182.5 22t227 -75t141 -483q0 -566 -392 -566q-246 0 -331 184h-5q4 -8 4 -166v-423h-181v1909h180v-423zM847 861.5q-57 103.5 -193 103.5t-212 -95.5t-76 -345.5q0 -326 108 -368.5t178 -42.5t119 28.5t91 107t42 294.5
q0 215 -57 318.5z" />
    <glyph glyph-name="ydieresis" unicode="&#xff;" 
d="M252 -285q78 0 148 59t118 188l18 49l-470 1071h192l264 -642q91 -224 98 -254q6 22 31 84t41 102t27 69l252 641h190l-456 -1082q-81 -214 -174 -319q-93 -106 -239 -106q-74 0 -124 11v135q38 -6 84 -6zM340 1219v184h165v-184h-165zM734 1219v184h163v-184h-163z" />
    <glyph glyph-name="Amacron" unicode="&#x100;" 
d="M701 954q-13 38 -27 77t-26 74t-20 61l-12 39q-4 -12 -12 -39t-20 -62t-24 -74t-25 -76l-151 -423h463zM1034 0l-138 382h-563l-137 -382h-196l510 1349h217l501 -1349h-194zM890 1503h-551v127h551v-127z" />
    <glyph glyph-name="amacron" unicode="&#x101;" 
d="M490 117q153 0 241 103q87 103 87 225v89l-190 -4q-141 -3 -198 -33q-57 -31 -85 -77t-28 -124q1 -79 45 -129t128 -50zM599 1102q201 0 301 -94t100 -270v-466q0 -80 21 -120t80 -41q26 0 59 7v-112q-68 -16 -129 -16q-111 0 -156 53t-51 164h-6q-91 -169 -241 -211
q-57 -16 -131 -16q-158 0 -238 86t-80 236q0 349 454 354l236 4v59q0 193 -124 233q-42 14 -95 13q-112 0 -168 -38t-67 -134l-188 17q46 292 423 292zM851 1236h-551v127h551v-127z" />
    <glyph glyph-name="Abreve" unicode="&#x102;" 
d="M701 954q-13 38 -27 77t-26 74t-20 61l-12 39q-4 -12 -12 -39t-20 -62t-24 -74t-25 -76l-151 -423h463zM1034 0l-138 382h-563l-137 -382h-196l510 1349h217l501 -1349h-194zM613 1572q85 0 127 35t60 98h127q-34 -171 -183 -235q-55 -24 -130 -24q-137 0 -216 78
t-97 181h127q36 -133 185 -133z" />
    <glyph glyph-name="abreve" unicode="&#x103;" 
d="M490 117q153 0 241 103q87 103 87 225v89l-190 -4q-141 -3 -198 -33q-57 -31 -85 -77t-28 -124q1 -79 45 -129t128 -50zM599 1102q201 0 301 -94t100 -270v-466q0 -80 21 -120t80 -41q26 0 59 7v-112q-68 -16 -129 -16q-111 0 -156 53t-51 164h-6q-91 -169 -241 -211
q-57 -16 -131 -16q-158 0 -238 86t-80 236q0 349 454 354l236 4v59q0 193 -124 233q-42 14 -95 13q-112 0 -168 -38t-67 -134l-188 17q46 292 423 292zM594 1327q86 0 128 35t59 98h127q-34 -172 -183 -236q-55 -24 -130 -23q-137 0 -216 78t-97 181h127q36 -133 185 -133z
" />
    <glyph glyph-name="Aogonek" unicode="&#x104;" 
d="M701 954q-13 38 -27 77t-26 74t-20 61l-12 39q-4 -12 -12 -39t-20 -62t-24 -74t-25 -76l-151 -423h463zM897 -229q0 133 137 229l-138 382h-563l-137 -382h-196l510 1349h217l501 -1349h-61q-81 -55 -115 -142q-14 -36 -14 -76t24 -64t74 -24q49 0 111 24v-107
q-63 -27 -153 -27t-144 51q-53 51 -53 136z" />
    <glyph glyph-name="aogonek" unicode="&#x105;" 
d="M490 117q153 0 241 103q87 103 87 225v89l-190 -4q-141 -3 -198 -33q-57 -31 -85 -77t-28 -124q1 -79 45 -129t128 -50zM599 1102q201 0 301 -94t100 -270v-466q0 -80 21 -120t80 -41q26 0 59 7v-112q-37 -9 -73 -13q-87 -55 -123 -146q-14 -35 -13 -75t25 -65
q24 -24 73 -24t111 24v-107q-64 -27 -154 -27t-143 51t-53 135t47 143q47 60 102 94q-124 28 -135 211h-6q-91 -169 -241 -211q-57 -16 -131 -16q-158 0 -238 86t-80 236q0 349 454 354l236 4v59q0 193 -124 233q-42 14 -95 13q-112 0 -168 -38t-67 -134l-188 17
q46 292 423 292z" />
    <glyph glyph-name="Cacute" unicode="&#x106;" 
d="M314 681q0 -546 347 -546q212 0 322 282l159 -65q-149 -372 -483 -372q-272 0 -409 187t-137 514q0 689 536 689q339 0 466 -335l-168 -65q-55 165 -189 223q-48 21 -122 21t-138 -34t-105 -102q-79 -130 -79 -397zM534 1445v20l227 239h197v-29l-300 -230h-124z" />
    <glyph glyph-name="cacute" unicode="&#x107;" 
d="M631 -20q-501 0 -501 584q0 142 43 249q115 289 459 289q188 0 304 -90q115 -90 142 -233l-192 -14q-16 91 -80 143t-166 53t-160 -27t-94 -80t-52 -130t-15 -178q0 -211 70 -319t234 -108q108 0 179 53t88 162l190 -12q-19 -143 -140 -243q-120 -99 -309 -99zM504 1201
v20l227 239h197v-29l-300 -230h-124z" />
    <glyph glyph-name="Ccircumflex" unicode="&#x108;" 
d="M314 681q0 -546 347 -546q212 0 322 282l159 -65q-149 -372 -483 -372q-272 0 -409 187t-137 514q0 689 536 689q339 0 466 -335l-168 -65q-55 165 -189 223q-48 21 -122 21t-138 -34t-105 -102q-79 -130 -79 -397zM965 1446h-105l-219 138h-2l-232 -138h-104v20l254 239
h164l244 -239v-20z" />
    <glyph glyph-name="ccircumflex" unicode="&#x109;" 
d="M631 -20q-501 0 -501 584q0 142 43 249q115 289 459 289q188 0 304 -90q115 -90 142 -233l-192 -14q-16 91 -80 143t-166 53t-160 -27t-94 -80t-52 -130t-15 -178q0 -211 70 -319t234 -108q108 0 179 53t88 162l190 -12q-19 -143 -140 -243q-120 -99 -309 -99zM945 1201
h-105l-219 138h-2l-232 -138h-104v20l254 239h164l244 -239v-20z" />
    <glyph glyph-name="Cdotaccent" unicode="&#x10a;" 
d="M314 681q0 -546 347 -546q212 0 322 282l159 -65q-149 -372 -483 -372q-272 0 -409 187t-137 514q0 689 536 689q339 0 466 -335l-168 -65q-55 165 -189 223q-48 21 -122 21t-138 -34t-105 -102q-79 -130 -79 -397zM545 1446v192h200v-192h-200z" />
    <glyph glyph-name="cdotaccent" unicode="&#x10b;" 
d="M631 -20q-501 0 -501 584q0 142 43 249q115 289 459 289q188 0 304 -90q115 -90 142 -233l-192 -14q-16 91 -80 143t-166 53t-160 -27t-94 -80t-52 -130t-15 -178q0 -211 70 -319t234 -108q108 0 179 53t88 162l190 -12q-19 -143 -140 -243q-120 -99 -309 -99zM535 1292
v192h200v-192h-200z" />
    <glyph glyph-name="Ccaron" unicode="&#x10c;" 
d="M314 681q0 -546 347 -546q212 0 322 282l159 -65q-149 -372 -483 -372q-272 0 -409 187t-137 514q0 689 536 689q339 0 466 -335l-168 -65q-55 165 -189 223q-48 21 -122 21t-138 -34t-105 -102q-79 -130 -79 -397zM300 1705h104l232 -138h2l219 138h105v-20l-244 -239
h-164l-254 239v20z" />
    <glyph glyph-name="ccaron" unicode="&#x10d;" 
d="M631 -20q-501 0 -501 584q0 142 43 249q115 289 459 289q188 0 304 -90q115 -90 142 -233l-192 -14q-16 91 -80 143t-166 53t-160 -27t-94 -80t-52 -130t-15 -178q0 -211 70 -319t234 -108q108 0 179 53t88 162l190 -12q-19 -143 -140 -243q-120 -99 -309 -99zM279 1460
h104l232 -138h2l219 138h105v-20l-244 -239h-164l-254 239v20z" />
    <glyph glyph-name="Dcaron" unicode="&#x10e;" 
d="M515 156q418 0 418 532q0 268 -112 386q-112 119 -347 119h-121v-1037h162zM1125 690q0 -335 -155 -513q-155 -177 -438 -177h-370v1349h311q652 0 652 -659zM254 1705h104l232 -138h2l219 138h105v-20l-244 -239h-164l-254 239v20z" />
    <glyph glyph-name="dcaron" unicode="&#x10f;" 
d="M955 1159v33l79 292h197v-37l-171 -288h-105zM217 540q0 -222 47.5 -324.5t151.5 -102.5t175.5 114t71.5 322q0 207 -70.5 311.5t-223 104.5t-152.5 -425zM663 174q-93 -200 -271 -200q-174 0 -267.5 142.5t-93.5 417.5t96.5 419.5t256.5 144.5q98 0 164 -43t115 -141h2
l-2 151v419h180v-1261q0 -169 6 -223h-172q-10 40 -10 174h-4z" />
    <glyph glyph-name="Dcroat" unicode="&#x110;" 
d="M515 156q418 0 418 532q0 268 -112 386q-112 119 -347 119h-121v-447h289v-149h-289v-441h162zM1125 690q0 -335 -155 -513q-155 -177 -438 -177h-370v597h-135v149h135v603h311q652 0 652 -659z" />
    <glyph glyph-name="dcroat" unicode="&#x111;" 
d="M383.5 210.5q59.5 -97.5 193.5 -97.5q215 0 250.5 154.5t35.5 268.5q0 218 -70 310.5t-208 92.5q-137 0 -199 -98.5t-62 -315.5t59.5 -314.5zM863 1196h-300v131h300v157h180v-157h131v-131h-131v-973q0 -169 6 -223h-172q-10 40 -10 174h-5q-49 -105 -130 -152.5
t-202 -47.5q-202 0 -297 135.5t-95 407.5q0 555 392 555q121 0 202.5 -43t130.5 -141h2l-2 151v157z" />
    <glyph glyph-name="Emacron" unicode="&#x112;" 
d="M162 0v1349h919v-156h-728v-422h668v-154h-668v-461h769v-156h-960zM906 1503h-551v127h551v-127z" />
    <glyph glyph-name="emacron" unicode="&#x113;" 
d="M623 969q-117 0 -194 -66q-100 -86 -105 -262h584q-22 258 -186 312q-49 16 -99 16zM617 1102q477 0 477 -575v-24h-772q0 -273 170 -359q56 -28 122 -29q115 -1 191 45q77 46 102 121l158 -45q-61 -170 -262 -232q-75 -24 -185 -24q-228 0 -357 145q-128 145 -128 429
q0 285 146 427q125 121 338 121zM890 1236h-551v127h551v-127z" />
    <glyph glyph-name="Ebreve" unicode="&#x114;" 
d="M162 0v1349h919v-156h-728v-422h668v-154h-668v-461h769v-156h-960zM613 1572q85 0 127 35t60 98h127q-34 -171 -183 -235q-55 -24 -130 -24q-137 0 -216 78t-97 181h127q36 -133 185 -133z" />
    <glyph glyph-name="ebreve" unicode="&#x115;" 
d="M623 969q-117 0 -194 -66q-100 -86 -105 -262h584q-22 258 -186 312q-49 16 -99 16zM617 1102q477 0 477 -575v-24h-772q0 -273 170 -359q56 -28 122 -29q115 -1 191 45q77 46 102 121l158 -45q-61 -170 -262 -232q-75 -24 -185 -24q-228 0 -357 145q-128 145 -128 429
q0 285 146 427q125 121 338 121zM617 1327q85 0 127 35t60 98h127q-34 -172 -183 -236q-55 -24 -130 -23q-137 0 -216 78t-97 181h127q36 -133 185 -133z" />
    <glyph glyph-name="Edotaccent" unicode="&#x116;" 
d="M162 0v1349h919v-156h-728v-422h668v-154h-668v-461h769v-156h-960zM515 1446v192h200v-192h-200z" />
    <glyph glyph-name="edotaccent" unicode="&#x117;" 
d="M623 969q-117 0 -194 -66q-100 -86 -105 -262h584q-22 258 -186 312q-49 16 -99 16zM617 1102q477 0 477 -575v-24h-772q0 -273 170 -359q56 -28 122 -29q115 -1 191 45q77 46 102 121l158 -45q-61 -170 -262 -232q-75 -24 -185 -24q-228 0 -357 145q-128 145 -128 429
q0 285 146 427q125 121 338 121zM517 1292v192h200v-192h-200z" />
    <glyph glyph-name="Eogonek" unicode="&#x118;" 
d="M825 -376q-53 51 -53 135t49 146t106 95h-765v1349h919v-156h-728v-422h668v-154h-668v-461h769v-156h-62q-96 -53 -134 -153q-14 -35 -13 -75t25 -65q24 -24 73 -24t111 24v-107q-63 -27 -153 -27q-91 0 -144 51z" />
    <glyph glyph-name="eogonek" unicode="&#x119;" 
d="M623 969q-117 0 -194 -66q-100 -86 -105 -262h584q-22 258 -186 312q-49 16 -99 16zM617 1102q477 0 477 -575v-24h-772q0 -273 170 -359q56 -28 122 -29q115 -1 191 45q77 46 102 121l158 -45q-63 -178 -274 -236q-95 -53 -133 -153q-14 -35 -14 -75t24 -65
q24 -24 74 -24q49 0 111 24v-107q-63 -27 -153 -27t-144 51q-53 51 -53 136q0 129 125 220h-5q-357 0 -457 320q-34 106 -33 256q0 284 146 425q125 121 338 121z" />
    <glyph glyph-name="Ecaron" unicode="&#x11a;" 
d="M162 0v1349h919v-156h-728v-422h668v-154h-668v-461h769v-156h-960zM283 1705h104l232 -138h2l219 138h105v-20l-244 -239h-164l-254 239v20z" />
    <glyph glyph-name="ecaron" unicode="&#x11b;" 
d="M623 969q-117 0 -194 -66q-100 -86 -105 -262h584q-22 258 -186 312q-49 16 -99 16zM617 1102q477 0 477 -575v-24h-772q0 -273 170 -359q56 -28 122 -29q115 -1 191 45q77 46 102 121l158 -45q-61 -170 -262 -232q-75 -24 -185 -24q-228 0 -357 145q-128 145 -128 429
q0 285 146 427q125 121 338 121zM276 1460h104l232 -138h2l219 138h105v-20l-244 -239h-164l-254 239v20z" />
    <glyph glyph-name="Gcircumflex" unicode="&#x11c;" 
d="M1101 133q-230 -153 -475 -153q-246 0 -379 191q-134 191 -134 510q0 689 529 689q346 0 461 -331l-171 -56q-80 231 -288 231q-258 0 -312 -304q-18 -100 -18 -229q0 -546 341 -546q153 0 260 74v336h-293v160h479v-572zM945 1446h-105l-219 138h-2l-232 -138h-104v20
l254 239h164l244 -239v-20z" />
    <glyph glyph-name="gcircumflex" unicode="&#x11d;" 
d="M869 552q0 210 -81 311q-81 102 -209 102q-127 0 -188 -95q-62 -95 -62 -321t60 -315t196 -89q191 1 259 217q24 78 25 190zM1048 858v-826q0 -228 -106 -342t-327 -114q-259 0 -357 158q-30 49 -43 109l184 25q35 -156 222 -156q248 0 248 315v194h-2
q-99 -209 -343 -209q-201 0 -291 131t-90 406q0 409 214 513q75 37 187 37q112 -1 196 -53t128 -149h3q0 149 12 185h171q-6 -54 -6 -224zM936 1201h-105l-219 138h-2l-232 -138h-104v20l254 239h164l244 -239v-20z" />
    <glyph glyph-name="Gbreve" unicode="&#x11e;" 
d="M1101 133q-230 -153 -475 -153q-246 0 -379 191q-134 191 -134 510q0 689 529 689q346 0 461 -331l-171 -56q-80 231 -288 231q-258 0 -312 -304q-18 -100 -18 -229q0 -546 341 -546q153 0 260 74v336h-293v160h479v-572zM617 1446q-137 0 -216 78t-97 181h127
q36 -133 185 -133q86 0 128 35t59 98h127q-34 -171 -183 -235q-55 -24 -130 -24z" />
    <glyph glyph-name="gbreve" unicode="&#x11f;" 
d="M869 552q0 210 -81 311q-81 102 -209 102q-127 0 -188 -95q-62 -95 -62 -321t60 -315t196 -89q191 1 259 217q24 78 25 190zM1048 858v-826q0 -228 -106 -342t-327 -114q-259 0 -357 158q-30 49 -43 109l184 25q35 -156 222 -156q248 0 248 315v194h-2
q-99 -209 -343 -209q-201 0 -291 131t-90 406q0 409 214 513q75 37 187 37q112 -1 196 -53t128 -149h3q0 149 12 185h171q-6 -54 -6 -224zM604 1327q86 0 128 35t59 98h127q-34 -172 -183 -236q-55 -24 -130 -23q-137 0 -216 78t-97 181h127q36 -133 185 -133z" />
    <glyph glyph-name="Gdotaccent" unicode="&#x120;" 
d="M1101 133q-230 -153 -475 -153q-246 0 -379 191q-134 191 -134 510q0 689 529 689q346 0 461 -331l-171 -56q-80 231 -288 231q-258 0 -312 -304q-18 -100 -18 -229q0 -546 341 -546q153 0 260 74v336h-293v160h479v-572zM525 1446v192h200v-192h-200z" />
    <glyph glyph-name="gdotaccent" unicode="&#x121;" 
d="M869 552q0 210 -81 311q-81 102 -209 102q-127 0 -188 -95q-62 -95 -62 -321t60 -315t196 -89q191 1 259 217q24 78 25 190zM1048 858v-826q0 -228 -106 -342t-327 -114q-259 0 -357 158q-30 49 -43 109l184 25q35 -156 222 -156q248 0 248 315v194h-2
q-99 -209 -343 -209q-201 0 -291 131t-90 406q0 409 214 513q75 37 187 37q112 -1 196 -53t128 -149h3q0 149 12 185h171q-6 -54 -6 -224zM506 1292v192h200v-192h-200z" />
    <glyph glyph-name="Gcommaaccent" unicode="&#x122;" 
d="M1101 133q-230 -153 -475 -153q-246 0 -379 191q-134 191 -134 510q0 689 529 689q346 0 461 -331l-171 -56q-80 231 -288 231q-258 0 -312 -304q-18 -100 -18 -229q0 -546 341 -546q153 0 260 74v336h-293v160h479v-572zM475 -423v33l79 292h197v-37l-171 -288h-105z
" />
    <glyph glyph-name="gcommaaccent" unicode="&#x123;" 
d="M869 552q0 210 -81 311q-81 102 -209 102q-127 0 -188 -95q-62 -95 -62 -321t60 -315t196 -89q191 1 259 217q24 78 25 190zM1048 858v-826q0 -228 -106 -342t-327 -114q-259 0 -357 158q-30 49 -43 109l184 25q35 -156 222 -156q248 0 248 315v194h-2
q-99 -209 -343 -209q-201 0 -291 131t-90 406q0 409 214 513q75 37 187 37q112 -1 196 -53t128 -149h3q0 149 12 185h171q-6 -54 -6 -224zM750 1536v-33l-79 -292h-197v37l171 288h105z" />
    <glyph glyph-name="Hcircumflex" unicode="&#x124;" 
d="M875 0v623h-522v-623h-191v1349h191v-566h522v566h191v-1349h-191zM945 1446h-105l-219 138h-2l-232 -138h-104v20l254 239h164l244 -239v-20z" />
    <glyph glyph-name="hcircumflex" unicode="&#x125;" 
d="M945 1445h-105l-219 139h-2l-232 -139h-104v20l254 240h164l244 -240v-20zM699 1042q350 0 350 -381v-661h-181v635q0 216 -86 242t-140 26q-116 0 -196.5 -89.5t-80.5 -246.5v-567h-180v1349h181v-315q0 -59 -9 -197h3q105 205 339 205z" />
    <glyph glyph-name="Hbar" unicode="&#x126;" 
d="M875 783v222h-522v-222h522zM162 1153v196h191v-196h522v196h191v-196h160v-148h-160v-1005h-191v623h-522v-623h-191v1005h-160v148h160z" />
    <glyph glyph-name="hbar" unicode="&#x127;" 
d="M699 1072q350 0 350 -381v-691h-181v665q0 216 -86 242t-140 26q-116 0 -196.5 -89.5t-80.5 -246.5v-597h-180v1196h-132v131h132v157h181v-157h299v-131h-299v-132q0 -59 -9 -197h3q105 205 339 205z" />
    <glyph glyph-name="Itilde" unicode="&#x128;" 
d="M202 1349h823v-156h-316v-1037h316v-156h-823v156h316v1037h-316v156zM780 1446q-51 0 -93 18t-115 60q-73 41 -107 41q-53 0 -70 -26q-16 -26 -28 -93h-111q13 113 41 159q57 89 162 89q62 0 168 -60t138 -59q52 0 69 27q18 27 27 92h112q-13 -112 -40 -157
q-28 -47 -65 -69t-88 -22z" />
    <glyph glyph-name="itilde" unicode="&#x129;" 
d="M745 142h380v-142h-982v142h422v798h-319v142h499v-940zM779 1201q-51 1 -93 19t-115 59t-107 41q-53 0 -70 -26q-16 -26 -28 -93h-111q13 113 41 159q57 89 162 89q62 1 168 -59t138 -60q52 0 69 27q18 27 27 92h112q-13 -112 -40 -157q-28 -46 -65 -68t-88 -23z" />
    <glyph glyph-name="Imacron" unicode="&#x12a;" 
d="M202 1349h823v-156h-316v-1037h316v-156h-823v156h316v1037h-316v156zM890 1503h-551v127h551v-127z" />
    <glyph glyph-name="imacron" unicode="&#x12b;" 
d="M745 142h380v-142h-982v142h422v798h-319v142h499v-940zM896 1236h-551v127h551v-127z" />
    <glyph glyph-name="Ibreve" unicode="&#x12c;" 
d="M202 1349h823v-156h-316v-1037h316v-156h-823v156h316v1037h-316v156zM613 1571q85 0 127 35t60 98h127q-34 -172 -183 -236q-55 -24 -130 -23q-137 0 -216 78t-97 181h127q36 -133 185 -133z" />
    <glyph glyph-name="ibreve" unicode="&#x12d;" 
d="M745 142h380v-142h-982v142h422v798h-319v142h499v-940zM634 1201q-137 0 -216 78t-97 181h127q36 -133 185 -133q85 0 127 35t60 98h127q-34 -172 -183 -236q-55 -24 -130 -23z" />
    <glyph glyph-name="Iogonek" unicode="&#x12e;" 
d="M650 -427q-90 0 -143 51t-53 135t49 146t106 95h-407v156h316v1037h-316v156h823v-156h-316v-1037h316v-156h-283q-96 -53 -134 -153q-14 -35 -13 -75t25 -65q24 -24 73 -24t111 24v-107q-64 -27 -154 -27z" />
    <glyph glyph-name="iogonek" unicode="&#x12f;" 
d="M545 1292v192h200v-192h-200zM694 -427q-90 0 -144 51q-53 51 -53 135t49 146t106 95h-509v142h422v798h-319v142h499v-940h380v-142h-340q-95 -53 -133 -153q-14 -35 -14 -75t24 -65q24 -24 74 -24q49 0 111 24v-107q-63 -27 -153 -27z" />
    <glyph glyph-name="Idotaccent" unicode="&#x130;" 
d="M202 1349h823v-156h-316v-1037h316v-156h-823v156h316v1037h-316v156zM515 1446v192h200v-192h-200z" />
    <glyph glyph-name="dotlessi" unicode="&#x131;" 
d="M745 142h380v-142h-982v142h422v798h-319v142h499v-940z" />
    <glyph glyph-name="IJ" unicode="&#x132;" 
d="M967 416v777h-271v156h461v-929q0 -317 -145.5 -378.5t-237.5 -61.5q-177 0 -269 88t-128 282l186 31q38 -246 205 -246q104 0 151.5 71.5t47.5 209.5zM98 1349h191v-1349h-191v1349z" />
    <glyph glyph-name="ij" unicode="&#x133;" 
d="M861 1292v192h200v-192h-200zM581 -276q90 0 138.5 14t105 62t56.5 175v1107h180v-1110q0 -203 -120.5 -300t-302.5 -97t-296 43v140q149 -34 239 -34zM216 1292v192h200v-192h-200zM416 1082v-1082h-180l1 1082h179z" />
    <glyph glyph-name="Jcircumflex" unicode="&#x134;" 
d="M587 135q209 0 209 281v777h-311v156h501v-929q0 -315 -227 -409q-75 -31 -173 -31q-171 0 -273 89t-137 281l187 31q29 -185 147 -231q36 -14 77 -15zM1065 1446h-105l-219 138h-2l-232 -138h-104v20l254 239h164l244 -239v-20z" />
    <glyph glyph-name="jcircumflex" unicode="&#x135;" 
d="M452 -276q90 0 138 14t85 44q77 65 77 193v965h-407v142h587v-1110q0 -204 -130 -308q-111 -90 -293 -89q-182 0 -296 43v140q149 -34 239 -34zM1048 1201h-105l-219 138h-2l-232 -138h-104v20l254 239h164l244 -239v-20z" />
    <glyph glyph-name="Kcommaaccent" unicode="&#x136;" 
d="M353 0h-191v1349h191v-673l572 673h225l-504 -572l581 -777h-224l-487 638l-163 -169v-469zM475 -423v33l79 292h197v-37l-171 -288h-105z" />
    <glyph glyph-name="kcommaaccent" unicode="&#x137;" 
d="M416 0h-180v1484h180v-927l475 525h211l-439 -465l462 -617h-211l-366 499l-132 -98v-401zM475 -423v33l79 292h197v-37l-171 -288h-105z" />
    <glyph glyph-name="kgreenlandic" unicode="&#x138;" 
d="M416 0h-180v1082h180v-538l475 538h211l-439 -465l462 -617h-211l-366 494l-132 -98v-396z" />
    <glyph glyph-name="Lacute" unicode="&#x139;" 
d="M237 0v1349h191v-1193h672v-156h-863zM304 1446v20l227 239h197v-29l-300 -230h-124z" />
    <glyph glyph-name="lacute" unicode="&#x13a;" 
d="M531 1445v20l227 240h197v-29l-300 -231h-124zM736 142h380v-142h-982v142h422v1065h-289v142h469v-1207z" />
    <glyph glyph-name="Lcommaaccent" unicode="&#x13b;" 
d="M237 0v1349h191v-1193h672v-156h-863zM485 -423v33l79 292h197v-37l-171 -288h-105z" />
    <glyph glyph-name="lcommaaccent" unicode="&#x13c;" 
d="M736 142h380v-142h-982v142h422v1200h-289v142h469v-1342zM475 -423v33l79 292h197v-37l-171 -288h-105z" />
    <glyph glyph-name="Lcaron" unicode="&#x13d;" 
d="M237 0v1349h191v-1193h672v-156h-863zM775 1024v33l79 292h197v-37l-171 -288h-105z" />
    <glyph glyph-name="lcaron" unicode="&#x13e;" 
d="M687 142h380v-142h-982v142h422v1200h-289v142h469v-1342zM895 1159v33l79 292h197v-37l-171 -288h-105z" />
    <glyph glyph-name="Ldot" unicode="&#x13f;" 
d="M237 0v1349h191v-1193h672v-156h-863zM671 608v192h200v-192h-200z" />
    <glyph glyph-name="ldot" unicode="&#x140;" 
d="M736 142h380v-142h-982v142h422v1200h-289v142h469v-1342zM931 608v192h200v-192h-200z" />
    <glyph glyph-name="Lslash" unicode="&#x141;" 
d="M237 0v458l-117 -61l-66 121l183 96v735h191v-636l292 151l61 -121l-353 -185v-402h672v-156h-863z" />
    <glyph glyph-name="lslash" unicode="&#x142;" 
d="M736 142h380v-142h-982v142h422v493l-218 -123l-64 112l282 159v559h-339v142h519v-600l225 129l62 -113l-287 -164v-594z" />
    <glyph glyph-name="Nacute" unicode="&#x143;" 
d="M332 876v-876h-170v1349h222l528 -1138q-18 144 -18 274v864h172v-1349h-230l-520 1130q16 -172 16 -254zM524 1446v20l227 239h197v-29l-300 -230h-124z" />
    <glyph glyph-name="nacute" unicode="&#x144;" 
d="M706 1102q343 0 343 -381v-721h-181v695q0 216 -132 256q-40 12 -94 12q-116 0 -196 -89q-81 -89 -81 -247v-627h-180v851q0 189 -6 231h170q1 -5 2 -27q1 -21 3 -69t3 -89h3q105 205 346 205zM539 1201v20l227 239h197v-29l-300 -230h-124z" />
    <glyph glyph-name="Ncommaaccent" unicode="&#x145;" 
d="M332 876v-876h-170v1349h222l528 -1138q-18 144 -18 274v864h172v-1349h-230l-520 1130q16 -172 16 -254zM444 -423v33l79 292h197v-37l-171 -288h-105z" />
    <glyph glyph-name="ncommaaccent" unicode="&#x146;" 
d="M706 1102q343 0 343 -381v-721h-181v695q0 216 -132 256q-40 12 -94 12q-116 0 -196 -89q-81 -89 -81 -247v-627h-180v851q0 189 -6 231h170q1 -5 2 -27q1 -21 3 -69t3 -89h3q105 205 346 205zM448 -423v33l79 292h197v-37l-171 -288h-105z" />
    <glyph glyph-name="Ncaron" unicode="&#x147;" 
d="M332 876v-876h-170v1349h222l528 -1138q-18 144 -18 274v864h172v-1349h-230l-520 1130q16 -172 16 -254zM289 1705h104l232 -138h2l219 138h105v-20l-244 -239h-164l-254 239v20z" />
    <glyph glyph-name="ncaron" unicode="&#x148;" 
d="M706 1102q343 0 343 -381v-721h-181v695q0 216 -132 256q-40 12 -94 12q-116 0 -196 -89q-81 -89 -81 -247v-627h-180v851q0 189 -6 231h170q1 -5 2 -27q1 -21 3 -69t3 -89h3q105 205 346 205zM283 1460h104l232 -138h2l219 138h105v-20l-244 -239h-164l-254 239v20z" />
    <glyph glyph-name="napostrophe" unicode="&#x149;" 
d="M811 1102q343 0 343 -381v-721h-181v695q0 216 -132 256q-39 12 -93 12q-116 0 -197 -89t-81 -247v-627h-180v851q0 189 -6 231h170q1 -5 2 -27q2 -21 4 -69t2 -89h3q105 205 346 205zM5 1025v33l79 292h197v-37l-171 -288h-105z" />
    <glyph glyph-name="Eng" unicode="&#x14a;" 
d="M746 1370q363 0 363 -381v-447q0 -279 -74.5 -420.5t-264.5 -141.5q-158 0 -211 61t-74 91l131 100q36 -50 69.5 -74.5t84.5 -24.5q91 0 124.5 102.5t33.5 310.5v417q0 216 -95 242t-153 26q-130 0 -222.5 -89.5t-92.5 -246.5v-895h-180v1119q0 189 -6 231h170
q1 -5 2 -27t3.5 -69.5t2.5 -88.5h3q106 205 386 205z" />
    <glyph glyph-name="eng" unicode="&#x14b;" 
d="M750 -283q66 0 92 39t26 137v802q0 216 -86 242t-140 26q-116 0 -196.5 -89.5t-80.5 -246.5v-627h-180v851q0 189 -6 231h170q1 -5 2 -27t3.5 -69.5t2.5 -88.5h3q105 205 346 205q343 0 343 -381v-855q0 -209 -84.5 -250t-158.5 -41t-125 9v139q39 -6 69 -6z" />
    <glyph glyph-name="Omacron" unicode="&#x14c;" 
d="M614 1214q-311 0 -311 -540t316 -539q306 -1 306 539t-311 540zM102 681q0 514 294 646q96 43 219 43q247 0 379 -174t132 -515q0 -342 -134 -521q-134 -180 -383 -180q-248 0 -377 181q-130 182 -130 520zM890 1503h-551v127h551v-127z" />
    <glyph glyph-name="omacron" unicode="&#x14d;" 
d="M833 873q-75 96 -216 96t-220 -98q-78 -98 -78 -329q1 -341 179 -409q52 -20 113 -20q61 -1 117 19t95 69q85 104 85 340t-75 332zM1097 542q0 -279 -128 -420q-128 -142 -360 -142q-344 0 -445 314q-34 106 -34 248q0 280 126 420t365 140q476 0 476 -560zM890 1236
h-551v127h551v-127z" />
    <glyph glyph-name="Obreve" unicode="&#x14e;" 
d="M614 1214q-311 0 -311 -540t316 -539q306 -1 306 539t-311 540zM102 681q0 514 294 646q96 43 219 43q247 0 379 -174t132 -515q0 -342 -134 -521q-134 -180 -383 -180q-248 0 -377 181q-130 182 -130 520zM613 1572q85 0 127 35t60 98h127q-34 -171 -183 -235
q-55 -24 -130 -24q-137 0 -216 78t-97 181h127q36 -133 185 -133z" />
    <glyph glyph-name="obreve" unicode="&#x14f;" 
d="M833 873q-75 96 -216 96t-220 -98q-78 -98 -78 -329q1 -341 179 -409q52 -20 113 -20q61 -1 117 19t95 69q85 104 85 340t-75 332zM1097 542q0 -279 -128 -420q-128 -142 -360 -142q-344 0 -445 314q-34 106 -34 248q0 280 126 420t365 140q476 0 476 -560zM613 1327
q85 0 127 35t60 98h127q-34 -172 -183 -236q-55 -24 -130 -23q-137 0 -216 78t-97 181h127q36 -133 185 -133z" />
    <glyph glyph-name="Ohungarumlaut" unicode="&#x150;" 
d="M614 1214q-311 0 -311 -540t316 -539q306 -1 306 539t-311 540zM102 681q0 514 294 646q96 43 219 43q247 0 379 -174t132 -515q0 -342 -134 -521q-134 -180 -383 -180q-248 0 -377 181q-130 182 -130 520zM330 1445v20l207 239h187v-29l-300 -230h-94zM694 1445v20
l207 239h187v-29l-300 -230h-94z" />
    <glyph glyph-name="ohungarumlaut" unicode="&#x151;" 
d="M833 873q-75 96 -216 96t-220 -98q-78 -98 -78 -329q1 -341 179 -409q52 -20 113 -20q61 -1 117 19t95 69q85 104 85 340t-75 332zM1097 542q0 -279 -128 -420q-128 -142 -360 -142q-344 0 -445 314q-34 106 -34 248q0 280 126 420t365 140q476 0 476 -560zM349 1201v20
l207 239h187v-29l-300 -230h-94zM713 1201v20l207 239h187v-29l-300 -230h-94z" />
    <glyph glyph-name="OE" unicode="&#x152;" 
d="M201 681q0 -541 309 -541q74 0 102 6v1057q-38 6 -108 6q-151 0 -227 -124t-76 -404zM511 -5q-255 0 -373 169t-118 521t121 511t372 159q58 0 109 -6h558v-152h-398v-440h367v-150h-367v-455h439v-152h-612q-58 -5 -98 -5z" />
    <glyph glyph-name="oe" unicode="&#x153;" 
d="M875 969q-101 0 -130 -115t-31 -213h324q-8 171 -48 249.5t-115 78.5zM197 542q0 -429 170 -429q87 0 131.5 95t44.5 387.5t-65.5 333t-127.5 40.5t-107.5 -96.5t-45.5 -330.5zM1204 527v-24h-492q0 -278 62 -333t116 -55t93.5 47t53.5 119l138 -45q-63 -256 -293 -256
q-182 0 -263 183q-83 -183 -266 -183q-236 0 -280.5 209.5t-44.5 352.5q0 279 85 419.5t247 140.5q187 0 266 -177q85 177 259 177q319 0 319 -575z" />
    <glyph glyph-name="Racute" unicode="&#x154;" 
d="M929 973q0 223 -304 223h-272v-470h280q229 0 281 152q16 45 15 95zM353 575v-575h-191v1349h482q356 0 448 -217q30 -70 29 -144q0 -150 -87 -256q-87 -107 -257 -135l400 -597h-220l-366 575h-238zM474 1446v20l227 239h197v-29l-300 -230h-124z" />
    <glyph glyph-name="racute" unicode="&#x155;" 
d="M474 508v-508h-180v701q0 173 -52 381h171q40 -138 48 -250h5q63 140 142 205t207 65t230 -17v-167q-112 19 -204 19q-173 0 -270 -124q-97 -123 -97 -305zM491 1201v20l227 239h197v-29l-300 -230h-124z" />
    <glyph glyph-name="Rcommaaccent" unicode="&#x156;" 
d="M929 973q0 223 -304 223h-272v-470h280q229 0 281 152q16 45 15 95zM353 575v-575h-191v1349h482q356 0 448 -217q30 -70 29 -144q0 -150 -87 -256q-87 -107 -257 -135l400 -597h-220l-366 575h-238zM472 -423v33l79 292h197v-37l-171 -288h-105z" />
    <glyph glyph-name="rcommaaccent" unicode="&#x157;" 
d="M474 508v-508h-180v701q0 173 -52 381h171q40 -138 48 -250h5q63 140 142 205t207 65t230 -17v-167q-112 19 -204 19q-173 0 -270 -124q-97 -123 -97 -305zM203 -423v33l79 292h197v-37l-171 -288h-105z" />
    <glyph glyph-name="Rcaron" unicode="&#x158;" 
d="M929 973q0 223 -304 223h-272v-470h280q229 0 281 152q16 45 15 95zM353 575v-575h-191v1349h482q356 0 448 -217q30 -70 29 -144q0 -150 -87 -256q-87 -107 -257 -135l400 -597h-220l-366 575h-238zM264 1705h104l232 -138h2l219 138h105v-20l-244 -239h-164l-254 239
v20z" />
    <glyph glyph-name="rcaron" unicode="&#x159;" 
d="M474 508v-508h-180v701q0 173 -52 381h171q40 -138 48 -250h5q63 140 142 205t207 65t230 -17v-167q-112 19 -204 19q-173 0 -270 -124q-97 -123 -97 -305zM303 1460h104l232 -138h2l219 138h105v-20l-244 -239h-164l-254 239v20z" />
    <glyph glyph-name="Sacute" unicode="&#x15a;" 
d="M998 86q-130 -106 -376 -106q-469 0 -543 358l185 37q54 -246 351 -246q231 0 300 130q24 45 24 111q-1 66 -33 111q-32 44 -85 72q-53 27 -119 45t-126 33q-59 15 -110 29t-98 34q-223 93 -223 301q0 198 128 287q128 88 342 88q323 0 426 -184q34 -60 54 -140l-188 -33
q-46 213 -293 213q-220 0 -268 -129q-14 -39 -15 -91q1 -52 27 -90t72 -62t106 -41q60 -16 122 -32q62 -15 118 -31t108 -37t96 -49t77 -70q71 -88 71 -245t-130 -263zM522 1446v20l227 239h197v-29l-300 -230h-124z" />
    <glyph glyph-name="sacute" unicode="&#x15b;" 
d="M378 814q0 -82 82 -122q39 -18 93 -32t119 -30q182 -46 258 -94q130 -80 130 -230t-116 -238t-323 -88q-291 0 -397 140q-38 52 -57 128l159 31q31 -141 189 -159q49 -6 106 -6q270 0 270 171q0 87 -95 132q-44 21 -104 36t-128 33q-178 46 -244 90q-110 73 -110 215
t106 225t307 83q257 1 361 -141q36 -50 51 -119l-162 -20q-23 146 -259 146t-236 -151zM488 1201v20l227 239h197v-29l-300 -230h-124z" />
    <glyph glyph-name="Scircumflex" unicode="&#x15c;" 
d="M998 86q-130 -106 -376 -106q-469 0 -543 358l185 37q54 -246 351 -246q231 0 300 130q24 45 24 111q-1 66 -33 111q-32 44 -85 72q-53 27 -119 45t-126 33q-59 15 -110 29t-98 34q-223 93 -223 301q0 198 128 287q128 88 342 88q323 0 426 -184q34 -60 54 -140l-188 -33
q-46 213 -293 213q-220 0 -268 -129q-14 -39 -15 -91q1 -52 27 -90t72 -62t106 -41q60 -16 122 -32q62 -15 118 -31t108 -37t96 -49t77 -70q71 -88 71 -245t-130 -263zM949 1446h-105l-219 138h-2l-232 -138h-104v20l254 239h164l244 -239v-20z" />
    <glyph glyph-name="scircumflex" unicode="&#x15d;" 
d="M378 814q0 -82 82 -122q39 -18 93 -32t119 -30q182 -46 258 -94q130 -80 130 -230t-116 -238t-323 -88q-291 0 -397 140q-38 52 -57 128l159 31q31 -141 189 -159q49 -6 106 -6q270 0 270 171q0 87 -95 132q-44 21 -104 36t-128 33q-178 46 -244 90q-110 73 -110 215
t106 225t307 83q257 1 361 -141q36 -50 51 -119l-162 -20q-23 146 -259 146t-236 -151zM960 1201h-105l-219 138h-2l-232 -138h-104v20l254 239h164l244 -239v-20z" />
    <glyph glyph-name="Scedilla" unicode="&#x15e;" 
d="M537 -348q147 0 147 84t-133 84h-29q-14 0 -28 -2l58 163q-404 21 -473 357l185 37q54 -246 351 -246q231 0 300 130q24 45 24 111q-1 66 -33 111q-32 44 -85 72q-53 27 -119 45t-126 33q-59 15 -110 29t-98 34q-223 93 -223 301q0 198 128 287q128 88 342 88
q323 0 426 -184q34 -60 54 -140l-188 -33q-46 213 -293 213q-220 0 -268 -129q-14 -39 -15 -91q1 -52 27 -90t72 -62t106 -41q60 -16 122 -32q62 -15 118 -31t108 -37q116 -47 180 -127t64 -216q0 -177 -124 -278t-345 -111l-32 -81q94 -2 141 -44t47 -114q0 -186 -274 -186
q-57 0 -90 4v98q50 -6 86 -6z" />
    <glyph glyph-name="scedilla" unicode="&#x15f;" 
d="M378 814q0 -82 82 -122q39 -18 93 -32t119 -30q182 -46 258 -94q130 -80 130 -230t-109 -233t-282 -92l-32 -81q94 -2 141 -44t47 -114q0 -186 -274 -186q-57 0 -90 4v98q50 -6 86 -6q147 0 147 84t-133 84h-29q-14 0 -28 -2l58 163q-153 8 -226 48q-74 39 -112 91
t-57 128l159 31q31 -141 189 -159q49 -6 106 -6q270 0 270 171q0 87 -95 132q-44 21 -104 36t-128 33q-178 46 -244 90q-110 73 -110 215t106 225t307 83q257 1 361 -141q36 -50 51 -119l-162 -20q-23 146 -259 146t-236 -151z" />
    <glyph glyph-name="Scaron" unicode="&#x160;" 
d="M998 86q-130 -106 -376 -106q-469 0 -543 358l185 37q54 -246 351 -246q231 0 300 130q24 45 24 111q-1 66 -33 111q-32 44 -85 72q-53 27 -119 45t-126 33q-59 15 -110 29t-98 34q-223 93 -223 301q0 198 128 287q128 88 342 88q323 0 426 -184q34 -60 54 -140l-188 -33
q-46 213 -293 213q-220 0 -268 -129q-14 -39 -15 -91q1 -52 27 -90t72 -62t106 -41q60 -16 122 -32q62 -15 118 -31t108 -37t96 -49t77 -70q71 -88 71 -245t-130 -263zM283 1704h104l232 -138h2l219 138h105v-20l-244 -239h-164l-254 239v20z" />
    <glyph glyph-name="scaron" unicode="&#x161;" 
d="M378 814q0 -82 82 -122q39 -18 93 -32t119 -30q182 -46 258 -94q130 -80 130 -230t-116 -238t-323 -88q-291 0 -397 140q-38 52 -57 128l159 31q31 -141 189 -159q49 -6 106 -6q270 0 270 171q0 87 -95 132q-44 21 -104 36t-128 33q-178 46 -244 90q-110 73 -110 215
t106 225t307 83q257 1 361 -141q36 -50 51 -119l-162 -20q-23 146 -259 146t-236 -151zM288 1460h104l232 -138h2l219 138h105v-20l-244 -239h-164l-254 239v20z" />
    <glyph glyph-name="Tcommaaccent" unicode="&#x162;" 
d="M537 -348q147 0 147 84t-133 84h-29q-14 0 -28 -2l65 182h-40v1193h-443v156h1076v-156h-443v-1193h-43l-39 -100q94 -2 141 -44t47 -114q0 -186 -274 -186q-57 0 -90 4v98q50 -6 86 -6z" />
    <glyph glyph-name="tcommaaccent" unicode="&#x163;" 
d="M825 -258q0 -186 -274 -186q-57 0 -90 4v98q50 -6 86 -6q147 0 147 84t-133 84h-29q-14 0 -28 -2l63 177q-209 43 -209 274v671h-168v142h170l58 282h120v-282h432v-142h-432v-652q0 -79 42 -117t158 -38q115 0 279 34v-137q-169 -46 -335 -46h-12l-33 -84q94 -2 141 -44
t47 -114z" />
    <glyph glyph-name="Tcaron" unicode="&#x164;" 
d="M709 1193v-1193h-190v1193h-443v156h1076v-156h-443zM283 1705h104l232 -138h2l219 138h105v-20l-244 -239h-164l-254 239v20z" />
    <glyph glyph-name="tcaron" unicode="&#x165;" 
d="M269 269v671h-168v142h170l58 282h120v-282h432v-142h-432v-652q1 -79 43 -117t157 -38t279 34v-137q-169 -46 -333 -46t-245 68t-81 217zM945 1159v33l79 292h197v-37l-171 -288h-105z" />
    <glyph glyph-name="Tbar" unicode="&#x166;" 
d="M709 1193v-424h240v-149h-240v-620h-190v620h-240v149h240v424h-443v156h1076v-156h-443z" />
    <glyph glyph-name="tbar" unicode="&#x167;" 
d="M368 269v246h-168v132h168v293h-168v142h170l58 282h120v-282h432v-142h-432v-293h432v-132h-432v-227q0 -79 42.5 -117t157.5 -38t279 34v-137q-169 -46 -333 -46t-245 68.5t-81 216.5z" />
    <glyph glyph-name="Utilde" unicode="&#x168;" 
d="M1085 490q0 -271 -116 -391q-116 -119 -359 -119t-355 115q-113 115 -113 377v877h191v-851q0 -199 57 -281t217 -82t224 83t64 293v838h190v-859zM780 1446q-51 0 -93 18t-115 60q-73 41 -107 41q-53 0 -70 -26q-16 -26 -28 -93h-111q13 113 41 159q57 89 162 89
q62 0 168 -60t138 -59q52 0 69 27q18 27 27 92h112q-13 -112 -40 -157q-28 -47 -65 -69t-88 -22z" />
    <glyph glyph-name="utilde" unicode="&#x169;" 
d="M1049 231q0 -189 6 -231h-170q-1 5 -2 27q-1 21 -3 69t-3 89h-3q-113 -205 -325 -205q-200 0 -282 89t-82 292v721h180v-686q0 -157 49 -217t176 -60t203 88q75 88 75 248v627h181v-851zM780 1201q-51 1 -93 19t-115 59t-107 41q-53 0 -70 -26q-16 -26 -28 -93h-111
q13 113 41 159q57 89 162 89q62 1 168 -59t138 -60q52 0 69 27q18 27 27 92h112q-13 -112 -40 -157q-28 -46 -65 -68t-88 -23z" />
    <glyph glyph-name="Umacron" unicode="&#x16a;" 
d="M1085 490q0 -271 -116 -391q-116 -119 -359 -119t-355 115q-113 115 -113 377v877h191v-851q0 -199 57 -281t217 -82t224 83t64 293v838h190v-859zM890 1503h-551v127h551v-127z" />
    <glyph glyph-name="umacron" unicode="&#x16b;" 
d="M1049 231q0 -189 6 -231h-170q-1 5 -2 27q-1 21 -3 69t-3 89h-3q-113 -205 -325 -205q-200 0 -282 89t-82 292v721h180v-686q0 -157 49 -217t176 -60t203 88q75 88 75 248v627h181v-851zM890 1236h-551v127h551v-127z" />
    <glyph glyph-name="Ubreve" unicode="&#x16c;" 
d="M1085 490q0 -271 -116 -391q-116 -119 -359 -119t-355 115q-113 115 -113 377v877h191v-851q0 -199 57 -281t217 -82t224 83t64 293v838h190v-859zM613 1572q85 0 127 35t60 98h127q-34 -171 -183 -235q-55 -24 -130 -24q-137 0 -216 78t-97 181h127q36 -133 185 -133z
" />
    <glyph glyph-name="ubreve" unicode="&#x16d;" 
d="M1049 231q0 -189 6 -231h-170q-1 5 -2 27q-1 21 -3 69t-3 89h-3q-113 -205 -325 -205q-200 0 -282 89t-82 292v721h180v-686q0 -157 49 -217t176 -60t203 88q75 88 75 248v627h181v-851zM613 1327q85 0 127 35t60 98h127q-34 -172 -183 -236q-55 -24 -130 -23
q-137 0 -216 78t-97 181h127q36 -133 185 -133z" />
    <glyph glyph-name="Uring" unicode="&#x16e;" 
d="M1085 490q0 -271 -116 -391q-116 -119 -359 -119t-355 115q-113 115 -113 377v877h191v-851q0 -199 57 -281t217 -82t224 83t64 293v838h190v-859zM735 1506q-1 16 -7 30t-20 26t-38 20q-23 8 -56 7q-33 1 -56 -7t-38 -20q-16 -12 -22 -26t-6 -30q0 -15 6 -30t22 -27
q15 -11 38 -19t56 -8t56 8q24 8 38 19q14 12 20 27t7 30zM856 1506q0 -39 -15 -75t-45 -64q-30 -29 -76 -45t-106 -16t-106 16t-76 45q-30 28 -45 64t-15 75t15 75q15 35 45 63t76 44t106 17q60 -1 106 -17t76 -44t45 -63q15 -36 15 -75z" />
    <glyph glyph-name="uring" unicode="&#x16f;" 
d="M1049 231q0 -189 6 -231h-170q-1 5 -2 27q-1 21 -3 69t-3 89h-3q-113 -205 -325 -205q-200 0 -282 89t-82 292v721h180v-686q0 -157 49 -217t176 -60t203 88q75 88 75 248v627h181v-851zM735 1348q-1 16 -7 30t-20 26t-38 20q-23 8 -56 7q-33 1 -56 -7t-38 -20
q-16 -12 -22 -26t-6 -30q0 -15 6 -30t22 -27q15 -11 38 -19t56 -8t56 8q24 8 38 19q14 12 20 27t7 30zM856 1348q0 -39 -15 -75t-45 -64q-30 -29 -76 -45t-106 -16t-106 16t-76 45q-30 28 -45 64t-15 75t15 75q15 35 45 63t76 44t106 17q60 -1 106 -17t76 -44t45 -63
q15 -36 15 -75z" />
    <glyph glyph-name="Uhungarumlaut" unicode="&#x170;" 
d="M1085 490q0 -271 -116 -391q-116 -119 -359 -119t-355 115q-113 115 -113 377v877h191v-851q0 -199 57 -281t217 -82t224 83t64 293v838h190v-859zM341 1446v20l207 239h187v-29l-300 -230h-94zM705 1446v20l207 239h187v-29l-300 -230h-94z" />
    <glyph glyph-name="uhungarumlaut" unicode="&#x171;" 
d="M1049 231q0 -189 6 -231h-170q-1 5 -2 27q-1 21 -3 69t-3 89h-3q-113 -205 -325 -205q-200 0 -282 89t-82 292v721h180v-686q0 -157 49 -217t176 -60t203 88q75 88 75 248v627h181v-851zM347 1201v20l207 239h187v-29l-300 -230h-94zM711 1201v20l207 239h187v-29
l-300 -230h-94z" />
    <glyph glyph-name="Uogonek" unicode="&#x172;" 
d="M500 -240q0 129 125 220h-20q-238 0 -350 115q-113 115 -113 377v877h191v-851q0 -199 57 -281t217 -82t224 83t64 293v838h190v-859q1 -270 -117 -392q-68 -70 -181 -98q-95 -53 -133 -153q-14 -35 -13 -75t25 -65q24 -24 73 -24t111 24v-107q-64 -27 -154 -27t-143 51
t-53 136z" />
    <glyph glyph-name="uogonek" unicode="&#x173;" 
d="M783 -376q-53 51 -53 135t49 146t106 95q-1 5 -2 27q-1 21 -3 69t-3 89h-3q-113 -205 -325 -205q-200 0 -282 89t-82 292v721h180v-686q0 -157 49 -217t176 -60t203 88q75 88 75 248v627h181v-851q0 -189 6 -231h-37q-96 -53 -134 -153q-14 -35 -13 -75t25 -65
q24 -24 73 -24t111 24v-107q-64 -27 -154 -27t-143 51z" />
    <glyph glyph-name="Wcircumflex" unicode="&#x174;" 
d="M1018 0h-208l-104 387q-5 19 -12 45q-33 121 -78 324q-18 -77 -30 -127q-12 -49 -20 -81t-14 -62q-8 -30 -15 -54q-7 -26 -12 -45l-106 -387h-208l-211 1349h189l109 -835q8 -65 14 -127t10 -115q5 -53 9 -104q15 69 27 117q12 49 19 79q14 62 42 168l109 399h175
l109 -399q6 -22 13 -50t15 -58t14 -60t18 -78t28 -118q1 0 4 34q14 160 31 312l104 835h189zM941 1446h-105l-219 138h-2l-232 -138h-104v20l254 239h164l244 -239v-20z" />
    <glyph glyph-name="wcircumflex" unicode="&#x175;" 
d="M1018 0h-204l-143 471q-44 148 -57 202q-9 -37 -19 -71l-20 -68q-10 -36 -20 -67l-148 -467h-203l-183 1082h178l93 -607q2 -25 8 -67q24 -189 25 -259q39 160 58 214l135 424h193l130 -425q32 -105 55 -213q0 72 16 186q16 115 19 140l101 607h176zM941 1201h-105
l-219 138h-2l-232 -138h-104v20l254 239h164l244 -239v-20z" />
    <glyph glyph-name="Ycircumflex" unicode="&#x176;" 
d="M708 0h-188v584l-484 765h205l374 -611l372 611h205l-484 -765v-584zM941 1446h-105l-219 138h-2l-232 -138h-104v20l254 239h164l244 -239v-20z" />
    <glyph glyph-name="ycircumflex" unicode="&#x177;" 
d="M252 -285q78 0 148 59t118 188l18 49l-470 1071h192l264 -642q91 -224 98 -254q6 22 31 84t41 102t27 69l252 641h190l-456 -1082q-81 -214 -174 -319q-93 -106 -239 -106q-74 0 -124 11v135q38 -6 84 -6zM941 1201h-105l-219 138h-2l-232 -138h-104v20l254 239h164
l244 -239v-20z" />
    <glyph glyph-name="Ydieresis" unicode="&#x178;" 
d="M708 0h-188v584l-484 765h205l374 -611l372 611h205l-484 -765v-584zM336 1445v184h165v-184h-165zM730 1445v184h163v-184h-163z" />
    <glyph glyph-name="Zacute" unicode="&#x179;" 
d="M1155 0h-1082v143l818 1050h-745v156h962v-139l-818 -1054h865v-156zM504 1446v20l227 239h197v-29l-300 -230h-124z" />
    <glyph glyph-name="zacute" unicode="&#x17a;" 
d="M147 0v137l681 806h-641v139h844v-137l-682 -806h719v-139h-921zM487 1201v20l227 239h197v-29l-300 -230h-124z" />
    <glyph glyph-name="Zdotaccent" unicode="&#x17b;" 
d="M1155 0h-1082v143l818 1050h-745v156h962v-139l-818 -1054h865v-156zM528 1446v192h200v-192h-200z" />
    <glyph glyph-name="zdotaccent" unicode="&#x17c;" 
d="M147 0v137l681 806h-641v139h844v-137l-682 -806h719v-139h-921zM512 1292v192h200v-192h-200z" />
    <glyph glyph-name="Zcaron" unicode="&#x17d;" 
d="M1155 0h-1082v143l818 1050h-745v156h962v-139l-818 -1054h865v-156zM293 1704h104l232 -138h2l219 138h105v-20l-244 -239h-164l-254 239v20z" />
    <glyph glyph-name="zcaron" unicode="&#x17e;" 
d="M147 0v137l681 806h-641v139h844v-137l-682 -806h719v-139h-921zM284 1460h104l232 -138h2l219 138h105v-20l-244 -239h-164l-254 239v20z" />
    <glyph glyph-name="longs" unicode="&#x17f;" 
d="M846 1484q142 0 253 -21v-145q-102 17 -214 17t-161 -10t-96.5 -50t-47.5 -183v-1092h-180v1107q0 203 72.5 269t152 87t221.5 21z" />
    <glyph glyph-name="florin" unicode="&#x192;" 
d="M774.5 1196q-36.5 -33 -55.5 -123l-27 -137h302l-25 -131h-303l-243 -1230h-180l243 1230h-252l27 131h251l29 152q32 135 113 208t255 73q79 0 160 -23l-40 -136q-54 19 -136 19t-118.5 -33z" />
    <glyph glyph-name="Aringacute" unicode="&#x1fa;" 
d="M735 1211q0 15 -6.5 29.5t-21 26.5t-37.5 19.5t-56 7.5t-56 -7.5t-38 -19.5t-21.5 -26.5t-6.5 -29.5t6.5 -30t21.5 -27t38 -19.5t56 -7.5t56 7.5t37.5 19.5t21 27t6.5 30zM525 1445v20l227 240h197v-29l-300 -231h-124zM701 811q-10 26 -32.5 83.5t-43.5 116.5h-18
q-6 -17 -28.5 -85t-43.5 -115l-140 -335h441zM465 1047q-93 57 -93 152t63 153t179 58t179 -58t63 -151t-87 -150l459 -1051h-194l-138 323h-563l-137 -323h-196z" />
    <glyph glyph-name="aringacute" unicode="&#x1fb;" 
d="M725 1256q0 15 -6.5 29.5t-21 26.5t-37.5 19.5t-56 7.5t-56 -7.5t-38 -19.5t-21.5 -26.5t-6.5 -29.5t6.5 -30t21.5 -27t38 -19.5t56 -7.5t56 7.5t37.5 19.5t21 27t6.5 30zM508 1496v20l227 189h197v-29l-300 -180h-124zM490 117q153 0 240.5 103t87.5 225v89l-190 -4
q-141 -3 -198 -33.5t-85 -76t-28 -124.5t44.5 -129t128.5 -50zM362 1256q0 84 63 141.5t179 57.5t179 -57.5t63 -141.5q0 -115 -104 -170q258 -60 258 -348v-466q0 -80 21 -120.5t80 -40.5q26 0 59 7v-112q-68 -16 -129 -16q-111 0 -156 53.5t-51 163.5h-6
q-91 -169 -194.5 -198t-177.5 -29q-158 0 -238 86t-80 236q0 349 454 354l236 4v59q0 193 -83 219.5t-136 26.5q-112 0 -168 -37.5t-67 -134.5l-188 17q36 233 283 280q-97 55 -97 166z" />
    <glyph glyph-name="AEacute" unicode="&#x1fc;" 
d="M646 1202h-73q-4 -16 -14 -49t-26 -89t-32 -102l-139 -401h284v641zM646 412h-335l-142 -412h-168l486 1349h667v-152h-337v-430h327v-150h-327v-465h378v-152h-549v412zM647 1446v20l227 239h197v-29l-300 -230h-124z" />
    <glyph glyph-name="aeacute" unicode="&#x1fd;" 
d="M859 969q-113 -1 -159 -167q-18 -64 -19 -161h361q-9 171 -53 249t-130 79zM189 296q1 -79 29 -129t84 -50q103 0 159 103t56 225v89l-122 -4q-95 -3 -132 -33q-37 -31 -55 -77t-19 -124zM873 1102q335 0 335 -575v-24h-529v-17q5 -371 185 -371q76 0 120 47t60 119
l138 -45q-68 -256 -314 -256q-174 0 -248 124q-26 44 -44 108q-99 -232 -298 -232q-258 0 -258 322q0 349 330 354l167 4v59q0 135 -24 177t-50 56t-60 13q-70 0 -106 -37t-44 -135l-168 17q36 292 315 292q176 0 247 -139q85 139 246 139zM492 1201v20l227 239h197v-29
l-300 -230h-124z" />
    <glyph glyph-name="Oslashacute" unicode="&#x1fe;" 
d="M615 1214q-312 0 -312 -533q0 -166 30 -282l512 684q-77 131 -230 131zM925 681q0 164 -30 278l-512 -686q79 -138 237 -138q306 0 305 546zM1030 1140q96 -170 96 -485t-134 -495t-366 -180q-231 0 -359 138l-117 -156l-94 65l141 189q-95 174 -95 465q0 514 294 646
q96 43 219 43q217 0 345 -134l116 156l94 -65zM502 1446v20l227 239h197v-29l-300 -230h-124z" />
    <glyph glyph-name="oslashacute" unicode="&#x1ff;" 
d="M299 542q0 -146 34 -238l509 576q-75 89 -225 89t-234 -98t-84 -329zM928 542q0 147 -33 242l-509 -576q77 -95 225 -95t233 96q84 96 84 333zM110 542q0 417 290 525q94 35 215 35q213 0 335 -100l72 82l78 -68l-80 -90q97 -137 97 -400t-133 -404q-133 -142 -356 -142
t-350 107l-77 -87l-76 68l84 95q-99 142 -99 379zM502 1201v20l227 239h197v-29l-300 -230h-124z" />
    <glyph glyph-name="Scommaaccent" unicode="&#x218;" 
d="M446 -423v33l79 292h197v-37l-171 -288h-105zM998 86q-130 -106 -376 -106q-469 0 -543 358l185 37q54 -246 351 -246q231 0 300 130q24 45 24 111q-1 66 -33 111q-32 44 -85 72q-53 27 -119 45t-126 33q-59 15 -110 29t-98 34q-223 93 -223 301q0 198 128 287
q128 88 342 88q323 0 426 -184q34 -60 54 -140l-188 -33q-46 213 -293 213q-220 0 -268 -129q-14 -39 -15 -91q1 -52 27 -90t72 -62t106 -41q60 -16 122 -32q62 -15 118 -31t108 -37t96 -49t77 -70q71 -88 71 -245t-130 -263z" />
    <glyph glyph-name="scommaaccent" unicode="&#x219;" 
d="M480 -423v33l79 292h197v-37l-171 -288h-105zM378 814q0 -82 82 -122q39 -18 93 -32t119 -30q182 -46 258 -94q130 -80 130 -230t-116 -238t-323 -88q-291 0 -397 140q-38 52 -57 128l159 31q31 -141 189 -159q49 -6 106 -6q270 0 270 171q0 87 -95 132q-44 21 -104 36
t-128 33q-178 46 -244 90q-110 73 -110 215t106 225t307 83q257 1 361 -141q36 -50 51 -119l-162 -20q-23 146 -259 146t-236 -151z" />
    <glyph glyph-name="uni021A" unicode="&#x21a;" 
d="M446 -423v33l79 292h197v-37l-171 -288h-105zM709 1193v-1193h-190v1193h-443v156h1076v-156h-443z" />
    <glyph glyph-name="uni021B" unicode="&#x21b;" 
d="M480 -423v33l79 292h197v-37l-171 -288h-105zM358 269v671h-168v142h170l58 282h120v-282h432v-142h-432v-652q0 -79 42 -117t158 -38q115 0 279 34v-137q-169 -46 -333 -46t-245 68t-81 217z" />
    <glyph glyph-name="circumflex" unicode="&#x2c6;" 
d="M945 1201h-105l-219 138h-2l-232 -138h-104v20l254 239h164l244 -239v-20z" />
    <glyph glyph-name="caron" unicode="&#x2c7;" 
d="M283 1460h104l232 -138h2l219 138h105v-20l-244 -239h-164l-254 239v20z" />
    <glyph glyph-name="uni02C9" unicode="&#x2c9;" 
d="M888 1236h-551v127h551v-127z" />
    <glyph glyph-name="breve" unicode="&#x2d8;" 
d="M613 1327q85 0 127.5 35t59.5 98h127q-34 -172 -136 -215.5t-177 -43.5q-137 0 -216 77.5t-97 181.5h127q36 -133 185 -133z" />
    <glyph glyph-name="dotaccent" unicode="&#x2d9;" 
d="M515 1292v192h200v-192h-200z" />
    <glyph glyph-name="ring" unicode="&#x2da;" 
d="M735 1348q0 15 -6.5 29.5t-21 26.5t-37.5 19.5t-56 7.5t-56 -7.5t-38 -19.5t-21.5 -26.5t-6.5 -29.5t6.5 -30t21.5 -27t38 -19.5t56 -7.5t56 7.5t37.5 19.5t21 27t6.5 30zM856 1348q0 -39 -15 -75t-45 -64t-75.5 -44.5t-106.5 -16.5t-106.5 16.5t-75.5 44.5t-45 64
t-15 75t15 75t45 63.5t75.5 44t106.5 16.5t106.5 -16.5t75.5 -44t45 -63.5t15 -75z" />
    <glyph glyph-name="ogonek" unicode="&#x2db;" 
d="M638 -427q-90 0 -143.5 51t-53.5 135t49 146t106 95h133q-95 -53 -121 -120.5t-26 -107.5t24.5 -64.5t73.5 -24.5t111 24v-107q-63 -27 -153 -27z" />
    <glyph glyph-name="tilde" unicode="&#x2dc;" 
d="M779 1201q-51 0 -93 18.5t-115 59.5t-107 41q-53 0 -69.5 -25.5t-28.5 -93.5h-111q13 113 55.5 180.5t147.5 67.5q62 0 168 -59.5t138 -59.5q52 0 69.5 27t26.5 92h112q-13 -112 -40.5 -157.5t-64.5 -68t-88 -22.5z" />
    <glyph glyph-name="hungarumlaut" unicode="&#x2dd;" 
d="M29 1201v20l207 239h187v-29l-300 -230h-94zM393 1201v20l207 239h187v-29l-300 -230h-94z" />
    <glyph glyph-name="tonos" unicode="&#x384;" 
d="M475 1201v33l79 292h197v-37l-171 -288h-105z" />
    <glyph glyph-name="dieresistonos" unicode="&#x385;" 
d="M311 1219v184h145v-184h-145zM775 1219v184h143v-184h-143zM521 1201v33l54 367h197v-37l-146 -363h-105z" />
    <glyph glyph-name="Alphatonos" unicode="&#x386;" 
d="M701 954q-13 38 -27 77t-26 74t-20 61l-12 39q-4 -12 -12 -39t-20 -62t-24 -74t-25 -76l-151 -423h463zM1034 0l-138 382h-563l-137 -382h-196l510 1349h217l501 -1349h-194zM1 1025v33l79 292h197v-37l-171 -288h-105z" />
    <glyph glyph-name="anoteleia" unicode="&#x387;" 
d="M496 420v299h235v-299h-235z" />
    <glyph glyph-name="Epsilontonos" unicode="&#x388;" 
d="M259 0v1349h919v-156h-728v-422h668v-154h-668v-461h769v-156h-960zM-49 1025v33l79 292h197v-37l-171 -288h-105z" />
    <glyph glyph-name="Etatonos" unicode="&#x389;" 
d="M0 1024v33l79 292h197v-37l-171 -288h-105zM943 0v623h-424v-623h-191v1349h191v-566h424v566h186v-1349h-186z" />
    <glyph glyph-name="Iotatonos" unicode="&#x38a;" 
d="M329 1349h823v-156h-316v-1037h316v-156h-823v156h316v1037h-316v156zM1 1025v33l79 292h197v-37l-171 -288h-105z" />
    <glyph glyph-name="Omicrontonos" unicode="&#x38c;" 
d="M684 1214q-311 0 -311 -540t316 -539q306 -1 306 539t-311 540zM172 681q0 514 294 646q96 43 219 43q247 0 379 -174t132 -515q0 -342 -134 -521q-134 -180 -383 -180q-248 0 -377 181q-130 182 -130 520zM-49 1025v33l79 292h197v-37l-171 -288h-105z" />
    <glyph glyph-name="Upsilontonos" unicode="&#x38e;" 
d="M0 1024v33l79 292h197v-37l-171 -288h-105zM845 0h-188v584l-354 765h201l248 -601l246 601h201l-354 -765v-584z" />
    <glyph glyph-name="Omegatonos" unicode="&#x38f;" 
d="M-50 1024v33l79 292h197v-37l-171 -288h-105zM654 1370q226 0 363.5 -164t137.5 -448q0 -285 -118 -422t-199 -191q95 11 141 11h200v-156h-463v224q201 147 222.5 303.5t21.5 246.5q0 196 -78 318t-228 122t-229 -121.5t-79 -311.5t37 -283.5t84.5 -156t122.5 -117.5
v-224h-463v156h200q46 0 141 -11q-317 211 -317 626q0 270 138.5 434.5t364.5 164.5z" />
    <glyph glyph-name="iotadieresistonos" unicode="&#x390;" 
d="M468 349v591h-319v142h499v-736q0 -112 40 -162t137 -50t198 106l94 -120q-127 -140 -306 -140q-267 0 -324 207q-19 69 -19 162zM298 1219v184h145v-184h-145zM762 1219v184h143v-184h-143zM508 1201v33l54 367h197v-37l-146 -363h-105z" />
    <glyph glyph-name="Alpha" unicode="&#x391;" 
d="M701 954q-13 38 -27 77t-26 74t-20 61l-12 39q-4 -12 -12 -39t-20 -62t-24 -74t-25 -76l-151 -423h463zM1034 0l-138 382h-563l-137 -382h-196l510 1349h217l501 -1349h-194z" />
    <glyph glyph-name="Beta" unicode="&#x392;" 
d="M619 153q340 0 340 239t-354 239h-252v-478h266zM578 780q300 0 300 218q0 106 -76 152t-226 46h-223v-416h225zM574 1349q496 0 496 -327q0 -180 -150 -268q-50 -30 -118 -43q253 -27 327 -209q23 -56 23 -140t-42 -157q-120 -205 -476 -205h-472v1349h412z" />
    <glyph glyph-name="Gamma" unicode="&#x393;" 
d="M415 0h-191v1349h891v-156h-700v-1193z" />
    <glyph glyph-name="Delta" unicode="&#x394;" 
d="M710 937q-51 131 -73.5 202t-24.5 75q-21 -85 -98 -277l-310 -781h820zM12 0v145l477 1204h244l483 -1202v-147h-1204z" />
    <glyph glyph-name="Epsilon" unicode="&#x395;" 
d="M162 0v1349h919v-156h-728v-422h668v-154h-668v-461h769v-156h-960z" />
    <glyph glyph-name="Zeta" unicode="&#x396;" 
d="M1155 0h-1082v143l818 1050h-745v156h962v-139l-818 -1054h865v-156z" />
    <glyph glyph-name="Eta" unicode="&#x397;" 
d="M875 0v623h-522v-623h-191v1349h191v-566h522v566h191v-1349h-191z" />
    <glyph glyph-name="Theta" unicode="&#x398;" 
d="M782 757v-154h-335v154h335zM614 1214q-311 0 -311 -539.5t316 -539.5q306 -1 306 539t-311 540zM102 681q0 514 194.5 601.5t318.5 87.5q247 0 379 -173.5t132 -515.5t-134 -521.5t-383 -179.5q-248 0 -377.5 181.5t-129.5 519.5z" />
    <glyph glyph-name="Iota" unicode="&#x399;" 
d="M202 1349h823v-156h-316v-1037h316v-156h-823v156h316v1037h-316v156z" />
    <glyph glyph-name="Kappa" unicode="&#x39a;" 
d="M353 0h-191v1349h191v-673l572 673h225l-504 -572l581 -777h-224l-487 638l-163 -169v-469z" />
    <glyph glyph-name="Lambda" unicode="&#x39b;" 
d="M1218 0h-201l-318 902q-48 144 -84 279q-53 -193 -84 -279l-320 -902h-201l505 1349h198z" />
    <glyph glyph-name="Mu" unicode="&#x39c;" 
d="M289 868v-868h-160v1349h237l185 -489q21 -53 68 -231q14 47 34 115t36 115l185 490h225v-1349h-162v868q1 136 3 194t3 107q-64 -206 -95 -291l-164 -438h-137l-166 438q-11 26 -27 76t-33 103q-17 52 -36 112q4 -192 4 -301z" />
    <glyph glyph-name="Nu" unicode="&#x39d;" 
d="M332 876v-876h-170v1349h222l528 -1138q-18 144 -18 274v864h172v-1349h-230l-520 1130q16 -172 16 -254z" />
    <glyph glyph-name="Xi" unicode="&#x39e;" 
d="M949 771v-154h-669v154h669zM135 0v156h959v-156h-959zM155 1193v156h919v-156h-919z" />
    <glyph glyph-name="Omicron" unicode="&#x39f;" 
d="M614 1214q-311 0 -311 -540t316 -539q306 -1 306 539t-311 540zM102 681q0 514 294 646q96 43 219 43q247 0 379 -174t132 -515q0 -342 -134 -521q-134 -180 -383 -180q-248 0 -377 181q-130 182 -130 520z" />
    <glyph glyph-name="Pi" unicode="&#x3a0;" 
d="M163 0v1349h903v-1349h-191v1193h-521v-1193h-191z" />
    <glyph glyph-name="Rho" unicode="&#x3a1;" 
d="M927 942q0 254 -328 254h-246v-531h254q157 0 239 76q81 77 81 201zM993 639q-126 -125 -359 -125h-281v-514h-191v1349h460q243 -1 370 -109t127 -292t-126 -309z" />
    <glyph glyph-name="Sigma" unicode="&#x3a3;" 
d="M108 0v162l538 549l-521 477v161h999v-156h-784l458 -415v-124l-490 -498h877v-156h-1077z" />
    <glyph glyph-name="Tau" unicode="&#x3a4;" 
d="M709 1193v-1193h-190v1193h-443v156h1076v-156h-443z" />
    <glyph glyph-name="Upsilon" unicode="&#x3a5;" 
d="M708 0h-188v584l-484 765h205l374 -611l372 611h205l-484 -765v-584z" />
    <glyph glyph-name="Phi" unicode="&#x3a6;" 
d="M202 705q0 -165 81.5 -261t228.5 -96h12v696h-8q-226 0 -270 -128t-44 -211zM943 956.5q-84 87.5 -233 87.5h-5v-696h12q147 0 228.5 96t81.5 261q0 164 -84 251.5zM1093 353q-128 -147 -347 -147h-41v-217h-181v217h-41q-219 0 -347 147t-128 358t129 343.5t357 132.5
h30v172h181v-172h29q229 0 358 -132.5t129 -343.5t-128 -358z" />
    <glyph glyph-name="Chi" unicode="&#x3a7;" 
d="M614 836l333 513h205l-435 -644l476 -705h-205l-374 573l-373 -573h-205l476 705l-435 644h205z" />
    <glyph glyph-name="Psi" unicode="&#x3a8;" 
d="M537 0v397h-58q-216 0 -323 147t-107 372v433h161v-437q0 -267 101.5 -323t174.5 -56h51v816h155v-816h51q139 0 207.5 104.5t68.5 274.5v437h161v-433q0 -225 -108 -372t-322 -147h-58v-397h-155z" />
    <glyph glyph-name="Omega" unicode="&#x3a9;" 
d="M420 145q-337 225 -337 647q0 116 36.5 226t105.5 188.5t167.5 121t283.5 42.5t328 -162.5t143 -445.5t-128 -423t-209 -194q117 11 161 11h200v-156h-483v224q264 194 264 529t-124 398t-212 63q-171 0 -254.5 -120.5t-83.5 -335.5q0 -340 264 -534v-224h-483v156h200
q44 0 161 -11z" />
    <glyph glyph-name="Iotadieresis" unicode="&#x3aa;" 
d="M202 1349h823v-156h-316v-1037h316v-156h-823v156h316v1037h-316v156zM337 1486v184h165v-184h-165zM731 1486v184h163v-184h-163z" />
    <glyph glyph-name="Upsilondieresis" unicode="&#x3ab;" 
d="M708 0h-188v584l-484 765h205l374 -611l372 611h205l-484 -765v-584zM353 1486v184h165v-184h-165zM747 1486v184h163v-184h-163z" />
    <glyph glyph-name="alphatonos" unicode="&#x3ac;" 
d="M575 969q-133 0 -195 -99t-62 -328q0 -330 134 -399q46 -24 106 -24q120 0 205 111t112 316q-59 423 -300 423zM129 538q1 282 109 423t309 141t307 -154q32 -46 51 -101h2q23 119 73 235h188q-73 -156 -122 -384q-15 -70 -20 -127q10 -353 111 -571h-183
q-46 117 -64 237h-4q-115 -257 -359 -257q-205 0 -301 138t-97 420zM535 1201v33l79 292h197v-37l-171 -288h-105z" />
    <glyph glyph-name="epsilontonos" unicode="&#x3ad;" 
d="M362 298q0 -184 259 -184q228 0 363 161l105 -100q-160 -195 -484 -195t-405 188q-25 58 -25 122q0 117 80 190t194 84v2q-105 12 -173 79t-68 168q0 129 112 209t288 80t282 -43t172 -142l-128 -88q-92 139 -297 139q-127 0 -187 -42t-60 -108t36 -101t115 -59t277 -25
v-135q-287 0 -385 -66q-71 -48 -71 -134zM555 1201v33l79 292h197v-37l-171 -288h-105z" />
    <glyph glyph-name="etatonos" unicode="&#x3ae;" 
d="M706 1102q343 0 343 -381v-1146h-181v1120q0 216 -132 256q-40 12 -94 12q-116 0 -196 -89q-81 -89 -81 -247v-627h-180v851q0 189 -6 231h170q1 -5 2 -27q1 -21 3 -69t3 -89h3q105 205 346 205zM555 1201v33l79 292h197v-37l-171 -288h-105z" />
    <glyph glyph-name="iotatonos" unicode="&#x3af;" 
d="M468 349v591h-319v142h499v-736q0 -112 40 -162t137 -50t198 106l94 -120q-127 -140 -306 -140q-267 0 -324 207q-19 69 -19 162zM505 1201v33l79 292h197v-37l-171 -288h-105z" />
    <glyph glyph-name="upsilondieresistonos" unicode="&#x3b0;" 
d="M981 1082q111 -248 111 -542q0 -106 -30 -214q-30 -110 -90 -187q-125 -159 -365 -159q-333 0 -415 240q-28 83 -29 199v663h181v-669q0 -294 271 -294q149 0 221 106q71 106 71 320q0 215 -73 437q-20 60 -41 100h188zM296 1219v184h145v-184h-145zM760 1219v184h143
v-184h-143zM506 1201v33l54 367h197v-37l-146 -363h-105z" />
    <glyph glyph-name="alpha" unicode="&#x3b1;" 
d="M575 969q-133 0 -195 -98.5t-62 -328.5q0 -330 90 -376.5t150 -46.5q120 0 205 111t112 316q-59 423 -300 423zM129 538q0 282 108.5 423t309.5 141t269.5 -100.5t88.5 -154.5h2q23 119 73 235h188q-73 -156 -105 -304.5t-37 -206.5q10 -353 111 -571h-183
q-46 117 -64 237h-4q-115 -257 -359 -257q-205 0 -301.5 138t-96.5 420z" />
    <glyph glyph-name="beta" unicode="&#x3b2;" 
d="M955 402q0 137 -98.5 219t-304.5 82v142q307 23 307 288q0 147 -85.5 178.5t-150.5 31.5q-138 0 -204.5 -75.5t-66.5 -246.5v-816q136 -92 310 -92q213 0 253 111.5t40 177.5zM1032 1135q0 -253 -223 -340q214 -41 266 -168.5t52 -218.5q0 -191 -113.5 -309.5
t-343.5 -118.5q-183 0 -318 94h-6q6 -114 6 -202v-297h-180v1452q0 237 114 347t340 110q297 0 351.5 -133.5t54.5 -215.5z" />
    <glyph glyph-name="gamma" unicode="&#x3b3;" 
d="M435 -424q25 192 89 435l-471 1071h202l271 -657q76 -187 91 -254q7 25 31.5 89t40 105t27.5 70l255 647h197l-437 -1029q-69 -182 -105 -477h-191z" />
    <glyph glyph-name="delta" unicode="&#x3b4;" 
d="M648 1341q-24 0 -61.5 2.5t-58.5 3.5t-34 2l316 -313q144 -141 221.5 -263.5t77.5 -297.5q0 -221 -133.5 -358t-363.5 -137t-365 132t-135 351q0 398 480 563l-319 328v130h748v-143h-373zM852.5 721.5q-67.5 103.5 -167.5 207.5q-262 -93 -323 -230t-61 -221
q0 -165 81.5 -265t233.5 -100t228 96.5t76 252.5t-67.5 259.5z" />
    <glyph glyph-name="epsilon" unicode="&#x3b5;" 
d="M362 298q0 -184 259 -184q228 0 363 161l105 -100q-160 -195 -484 -195t-377 123t-53 187q0 117 80 190t194 84v2q-105 12 -173 79t-68 168q0 129 112.5 209t287.5 80q176 0 281.5 -43t172.5 -142l-128 -88q-92 139 -297 139q-128 0 -187.5 -42t-59.5 -108t36 -101
t115 -59.5t277 -24.5v-135q-287 0 -371.5 -57.5t-84.5 -142.5z" />
    <glyph glyph-name="zeta" unicode="&#x3b6;" 
d="M727 1342h-462v142h802v-138q-423 -385 -557.5 -604t-134.5 -363q0 -152 215.5 -198.5t307 -78.5t148 -84.5t56.5 -145.5q0 -94 -83 -235l-126 56q55 73 55 141q0 86 -126 117t-179 41t-104 23t-203 67.5t-152 278.5q0 341 310.5 627t389.5 354v6q-72 -6 -157 -6z" />
    <glyph glyph-name="eta" unicode="&#x3b7;" 
d="M706 1102q343 0 343 -381v-1146h-181v1120q0 216 -86 242t-140 26q-116 0 -196.5 -89.5t-80.5 -246.5v-627h-180v851q0 189 -6 231h170q1 -5 2 -27t3.5 -69.5t2.5 -88.5h3q105 205 346 205z" />
    <glyph glyph-name="theta" unicode="&#x3b8;" 
d="M618 1354q-131 0 -201 -123t-76 -427h547q-8 444 -109 497t-161 53zM612 113q129 0 199.5 124.5t76.5 435.5h-547q8 -447 110.5 -503.5t160.5 -56.5zM151 733q0 750 465 750q241 0 351.5 -186t110.5 -565q0 -380 -120 -566t-348 -186q-336 0 -397.5 280.5t-61.5 472.5z
" />
    <glyph glyph-name="iota" unicode="&#x3b9;" 
d="M468 349v591h-319v142h499v-736q0 -111 40 -161.5t137 -50.5t198 106l94 -120q-127 -140 -306 -140q-267 0 -305 138t-38 231z" />
    <glyph glyph-name="kappa" unicode="&#x3ba;" 
d="M416 0h-180v1082h180v-538l475 538h211l-439 -465l462 -617h-211l-366 494l-132 -98v-396z" />
    <glyph glyph-name="lambda" unicode="&#x3bb;" 
d="M351 1484q70 0 114 -18t91.5 -72t122.5 -253l427 -1141h-190l-207 577q-41 112 -65 214q-30 -90 -86 -216l-257 -575h-187l449 965l-36 99q-65 177 -92.5 215t-54 49.5t-60.5 11.5t-85 -12l-35 132q81 24 151 24z" />
    <glyph glyph-name="mu" unicode="&#x3bc;" 
d="M1033 -20q-179 0 -188 194h-3q-106 -194 -299 -194q-143 0 -207 79v-484h-180v1507h181v-686q0 -219 87 -248t139 -29q128 0 201 87t73 249v627h180v-816q0 -118 30 -131.5t51 -13.5t51 8v-129q-65 -20 -116 -20z" />
    <glyph glyph-name="nu" unicode="&#x3bd;" 
d="M1078 864q0 -211 -114.5 -434.5t-291.5 -429.5h-170l-410 1082h189l331 -928q286 355 286 683q0 135 -49 245h177q52 -98 52 -218z" />
    <glyph glyph-name="xi" unicode="&#x3be;" 
d="M905 -161q0 86 -106 114.5t-159 38.5t-103.5 23t-198 67t-147.5 272q0 165 127.5 292.5t383.5 163.5v2q-264 16 -319 112t-55 159q0 117 81.5 176.5t221.5 82.5v8q-8 -1 -28.5 -1.5t-48 -1.5t-59 -2t-60 -1.5t-52.5 -1t-36 -0.5h-94v142h734v-136q-202 -24 -283.5 -54.5
t-139.5 -71t-58 -113.5q0 -72 37 -112.5t117.5 -72.5t283.5 -47v-131q-225 -27 -393.5 -118.5t-168.5 -246.5q0 -156 141 -190.5t201 -48.5q163 -40 249 -91t86 -172q0 -96 -83 -237l-126 56q55 73 55 141z" />
    <glyph glyph-name="omicron" unicode="&#x3bf;" 
d="M833 873q-75 96 -216 96t-220 -98q-78 -98 -78 -329q1 -341 179 -409q52 -20 113 -20q61 -1 117 19t95 69q85 104 85 340t-75 332zM1097 542q0 -279 -128 -420q-128 -142 -360 -142q-344 0 -445 314q-34 106 -34 248q0 280 126 420t365 140q476 0 476 -560z" />
    <glyph glyph-name="pi" unicode="&#x3c0;" 
d="M205 1082h981v-142h-204v-674q0 -145 86 -145q39 0 74 8l20 -129q-78 -20 -139 -20q-120 0 -170.5 57t-50.5 190v713h-372v-72q0 -603 -68 -868h-188q80 320 80 860v80q-112 0 -166 -15t-66 -22v150q58 29 183 29z" />
    <glyph glyph-name="rho" unicode="&#x3c1;" 
d="M337 260q123 -147 323 -147q119 0 187 109t68 310t-85.5 319.5t-229.5 118.5q-263 0 -263 -393v-317zM337 0v-425h-180v1006q0 242 119.5 382t334.5 140t356 -158t141 -412t-121 -403.5t-316 -149.5q-117 0 -194 35.5t-140 107.5h-4q4 -60 4 -123z" />
    <glyph glyph-name="sigma1" unicode="&#x3c2;" 
d="M367 490q0 -93 20.5 -140.5t79 -94.5t254.5 -106q57 -17 200 -62t143 -211q0 -87 -36.5 -151t-46.5 -81l-126 56q55 73 55 141q0 78 -109 110.5t-193 54.5q-214 54 -323 147t-109 311t96 382.5t207 210t195 45.5q249 0 374 -152l-113 -114q-115 125 -247 125
q-215 0 -268 -189t-53 -282z" />
    <glyph glyph-name="sigma" unicode="&#x3c3;" 
d="M282 526q0 -413 298 -413q230 0 269.5 144t39.5 231q0 244 -124 452h-89q-276 0 -335 -152t-59 -262zM1074 940q-46 0 -148 6v-4q152 -228 152 -456t-126.5 -367t-366.5 -139t-366.5 142t-126.5 410t156 409t422 141h559v-142h-155z" />
    <glyph glyph-name="tau" unicode="&#x3c4;" 
d="M775 -20q-88 0 -182.5 25.5t-94.5 221.5v713h-97q-118 0 -179 -15t-73 -22v150q58 29 183 29h720v-142h-374v-684q0 -135 124 -135q56 0 136 10v-131q-75 -20 -163 -20z" />
    <glyph glyph-name="upsilon" unicode="&#x3c5;" 
d="M981 1082q111 -248 111 -542q0 -106 -29.5 -215t-122 -227t-333.5 -118q-333 0 -388.5 161.5t-55.5 277.5v663h181v-669q0 -294 271 -294q149 0 220.5 105.5t71.5 320.5t-46.5 356t-67.5 181h188z" />
    <glyph glyph-name="phi" unicode="&#x3c6;" 
d="M836 981q-149 0 -149 -289v-583q321 13 321 458q0 296 -66 355t-106 59zM1045 136q-132 -141 -358 -154v-407h-160v407q-347 16 -412 219t-65 325q0 237 102 391.5t303 188.5l21 -136q-126 -29 -191.5 -145t-65.5 -307q0 -190 78.5 -295.5t229.5 -113.5v580
q0 300 116 357.5t194 57.5t141.5 -38t131 -146t67.5 -376q0 -267 -132 -408z" />
    <glyph glyph-name="chi" unicode="&#x3c7;" 
d="M173 1104q106 0 168.5 -58t143.5 -208l162 -295l294 539h187l-398 -697l436 -809h-190l-349 663l-363 -663h-188l470 825l-190 343q-59 107 -106 163t-88 56t-70 -15l-34 131q54 25 115 25z" />
    <glyph glyph-name="psi" unicode="&#x3c8;" 
d="M978 436v646h159v-644q0 -243 -104 -349.5t-341 -108.5v-405h-160v405q-236 2 -340 108.5t-104 349.5v644h161v-646q0 -177 64 -247.5t219 -74.5v1226h160v-1226q156 2 221 73t65 249z" />
    <glyph glyph-name="omega" unicode="&#x3c9;" 
d="M613 247q-53 -267 -265 -267q-60 0 -116 36t-117.5 142.5t-61.5 340.5t87.5 402t252.5 202l31 -134q-200 -54 -200 -457q0 -286 54.5 -342.5t93.5 -56.5q76 0 120 95.5t44 240.5v252h159v-252q0 -236 64 -286t118.5 -50t91.5 107.5t37 240.5q0 230 -48 355t-152 153
l31 134q165 -34 252.5 -202t87.5 -402t-82.5 -376.5t-225.5 -142.5t-191.5 103.5t-60.5 163.5h-4z" />
    <glyph glyph-name="iotadieresis" unicode="&#x3ca;" 
d="M468 349v591h-319v142h499v-736q0 -112 40 -162t137 -50t198 106l94 -120q-127 -140 -306 -140q-267 0 -324 207q-19 69 -19 162zM307 1219v184h165v-184h-165zM701 1219v184h163v-184h-163z" />
    <glyph glyph-name="upsilondieresis" unicode="&#x3cb;" 
d="M981 1082q111 -248 111 -542q0 -106 -30 -214q-30 -110 -90 -187q-125 -159 -365 -159q-333 0 -415 240q-28 83 -29 199v663h181v-669q0 -294 271 -294q149 0 221 106q71 106 71 320q0 215 -73 437q-20 60 -41 100h188zM307 1219v184h165v-184h-165zM701 1219v184h163
v-184h-163z" />
    <glyph glyph-name="omicrontonos" unicode="&#x3cc;" 
d="M833 873q-75 96 -216 96t-220 -98q-78 -98 -78 -329q1 -341 179 -409q52 -20 113 -20q61 -1 117 19t95 69q85 104 85 340t-75 332zM1097 542q0 -279 -128 -420q-128 -142 -360 -142q-344 0 -445 314q-34 106 -34 248q0 280 126 420t365 140q476 0 476 -560zM535 1201v33
l79 292h197v-37l-171 -288h-105z" />
    <glyph glyph-name="upsilontonos" unicode="&#x3cd;" 
d="M981 1082q111 -248 111 -542q0 -106 -30 -214q-30 -110 -90 -187q-125 -159 -365 -159q-333 0 -415 240q-28 83 -29 199v663h181v-669q0 -294 271 -294q149 0 221 106q71 106 71 320q0 215 -73 437q-20 60 -41 100h188zM495 1201v33l79 292h197v-37l-171 -288h-105z" />
    <glyph glyph-name="omegatonos" unicode="&#x3ce;" 
d="M613 247q-53 -267 -265 -267q-60 0 -116 36t-96 104q-84 145 -83 379q0 234 88 402t252 202l31 -134q-200 -54 -200 -457q0 -286 82 -370q28 -28 66 -29q76 0 120 95t44 241v252h159v-252q0 -237 98 -313q30 -24 67 -23q72 0 109 107t37 241q0 230 -48 355t-152 153
l31 134q165 -34 252 -202q88 -168 88 -402t-82 -376q-82 -143 -226 -143q-143 0 -217 158q-23 49 -35 109h-4zM520 1201v33l79 292h197v-37l-171 -288h-105z" />
    <glyph glyph-name="uni0400" unicode="&#x400;" 
d="M162 0v1349h919v-156h-728v-422h668v-154h-668v-461h769v-156h-960zM331 1704h197l227 -239v-20h-124l-300 230v29z" />
    <glyph glyph-name="afii10023" unicode="&#x401;" 
d="M162 0v1349h919v-156h-728v-422h668v-154h-668v-461h769v-156h-960zM355 1445v184h165v-184h-165zM749 1445v184h163v-184h-163z" />
    <glyph glyph-name="afii10051" unicode="&#x402;" 
d="M798 930q192 0 278 -90.5t86 -274.5v-224q0 -257 -110 -309t-166 -52q-94 0 -159 39.5t-99 102.5l101 114q58 -102 139 -102q44 0 74 51t30 161v199q0 122 -40 176.5t-145 54.5t-303 -50v-726h-190v1193h-294v156h823v-156h-339v-322q212 59 314 59z" />
    <glyph glyph-name="afii10052" unicode="&#x403;" 
d="M415 0h-191v1349h891v-156h-700v-1193zM522 1446v20l227 239h197v-29l-300 -230h-124z" />
    <glyph glyph-name="afii10053" unicode="&#x404;" 
d="M113 681q0 689 536 689q339 0 466 -335l-168 -65q-54 165 -145.5 204.5t-162.5 39.5q-304 0 -324 -460h427v-145h-427q21 -474 346 -474q212 0 322 282l159 -65q-149 -372 -483 -372q-272 0 -409 187t-137 514z" />
    <glyph glyph-name="afii10054" unicode="&#x405;" 
d="M998 86q-130 -106 -376 -106q-469 0 -543 358l185 37q54 -246 351 -246q231 0 300 130q24 45 24 111q-1 66 -33 111q-32 44 -85 72q-53 27 -119 45t-126 33q-59 15 -110 29t-98 34q-223 93 -223 301q0 198 128 287q128 88 342 88q323 0 426 -184q34 -60 54 -140l-188 -33
q-46 213 -293 213q-220 0 -268 -129q-14 -39 -15 -91q1 -52 27 -90t72 -62t106 -41q60 -16 122 -32q62 -15 118 -31t108 -37t96 -49t77 -70q71 -88 71 -245t-130 -263z" />
    <glyph glyph-name="afii10055" unicode="&#x406;" 
d="M202 1349h823v-156h-316v-1037h316v-156h-823v156h316v1037h-316v156z" />
    <glyph glyph-name="afii10056" unicode="&#x407;" 
d="M202 1349h823v-156h-316v-1037h316v-156h-823v156h316v1037h-316v156zM336 1445v184h165v-184h-165zM730 1445v184h163v-184h-163z" />
    <glyph glyph-name="afii10057" unicode="&#x408;" 
d="M587 135q209 0 209 281v777h-311v156h501v-929q0 -315 -227 -409q-75 -31 -173 -31q-171 0 -273 89t-137 281l187 31q29 -185 147 -231q36 -14 77 -15z" />
    <glyph glyph-name="afii10058" unicode="&#x409;" 
d="M980 566.5q-59 66.5 -149 66.5h-49v-492h57q89 0 144.5 68t55.5 179q0 112 -59 178.5zM49 119q30 0 52 7t49 41t51.5 175.5t48.5 456.5l41 550h491v-576h42q173 0 275 -103.5t102 -274.5t-100.5 -283t-264.5 -112h-225v1209h-181l-29 -428q-22 -340 -46.5 -467
t-47.5 -183.5t-67.5 -101.5t-158.5 -45q-53 0 -81 10v132q19 -7 49 -7z" />
    <glyph glyph-name="afii10059" unicode="&#x40a;" 
d="M980 566.5q-59 66.5 -149 66.5h-99v-492h107q89 0 144.5 68t55.5 179q0 112 -59 178.5zM732 1349v-576h92q173 0 275 -103.5t102 -274.5t-100.5 -283t-264.5 -112h-275v633h-329v-633h-161v1349h161v-576h329v576h171z" />
    <glyph glyph-name="afii10060" unicode="&#x40b;" 
d="M798 930q192 0 278 -90.5t86 -274.5v-565h-190v545q0 122 -40 176.5t-145 54.5t-303 -50v-726h-190v1193h-294v156h823v-156h-339v-322q212 59 314 59z" />
    <glyph glyph-name="afii10061" unicode="&#x40c;" 
d="M359 609v-609h-191v1349h191v-589q89 0 147 36q100 61 177 174l251 379h202l-296 -430q-80 -116 -140 -163l-28 -21l509 -735h-222l-427 647q-92 -38 -173 -38zM489 1446v20l227 239h197v-29l-300 -230h-124z" />
    <glyph glyph-name="uni040D" unicode="&#x40d;" 
d="M338 1705h197l227 -239v-20h-124l-300 230v29zM162 0v1349h172v-864q0 -130 -18 -274l528 1138h222v-1349h-170v876q0 82 16 254l-520 -1130h-230z" />
    <glyph glyph-name="afii10062" unicode="&#x40e;" 
d="M110 194q94 -59 149 -59t84 10t67 47t109 174l39 74l-538 909h215l417 -739l349 739h205l-532 -1031q-99 -191 -179 -265q-80 -73 -223 -73q-142 0 -243 70zM831 1705h164q-9 -260 -367 -260t-367 260h164q9 -121 121 -142q36 -7 108 -7q167 0 177 149z" />
    <glyph glyph-name="afii10145" unicode="&#x40f;" 
d="M524 -425v425h-368v1349h191v-1189h534v1189h191v-1349h-368v-425h-180z" />
    <glyph glyph-name="afii10017" unicode="&#x410;" 
d="M701 954q-13 38 -27 77t-26 74t-20 61l-12 39q-4 -12 -12 -39t-20 -62t-24 -74t-25 -76l-151 -423h463zM1034 0l-138 382h-563l-137 -382h-196l510 1349h217l501 -1349h-194z" />
    <glyph glyph-name="afii10018" unicode="&#x411;" 
d="M980 387q0 236 -328 236h-299v-472h307q164 0 242 56t78 180zM1172 394q0 -180 -124.5 -287t-360.5 -107h-525v1349h918v-156h-727v-410h322q368 0 432.5 -150.5t64.5 -238.5z" />
    <glyph glyph-name="afii10019" unicode="&#x412;" 
d="M619 153q340 0 340 239t-354 239h-252v-478h266zM578 780q300 0 300 218q0 106 -76 152t-226 46h-223v-416h225zM574 1349q496 0 496 -327q0 -180 -150 -268q-50 -30 -118 -43q253 -27 327 -209q23 -56 23 -140t-42 -157q-120 -205 -476 -205h-472v1349h412z" />
    <glyph glyph-name="afii10020" unicode="&#x413;" 
d="M415 0h-191v1349h891v-156h-700v-1193z" />
    <glyph glyph-name="afii10021" unicode="&#x414;" 
d="M858 1199h-295l-49 -378q-50 -374 -106.5 -497t-88.5 -174h539v1049zM1024 150h175v-558h-160v408h-874v-408h-160v558h119q87 108 141 266t88 423l67 510h604v-1199z" />
    <glyph glyph-name="afii10022" unicode="&#x415;" 
d="M162 0v1349h919v-156h-728v-422h668v-154h-668v-461h769v-156h-960z" />
    <glyph glyph-name="afii10024" unicode="&#x416;" 
d="M694 0h-160v607l-102 26l-247 -633h-185l314 719q-61 61 -104 158l-201 472h173l148 -386q43 -109 91.5 -155.5t112.5 -61.5v603h160v-603q100 23 141 92t63 125l148 386h173l-201 -472q-40 -92 -105 -157l315 -720h-185l-247 633l-102 -26v-607z" />
    <glyph glyph-name="afii10025" unicode="&#x417;" 
d="M630 1369q214 0 339 -98t125 -255q0 -182 -108.5 -238.5t-171.5 -71.5q221 -33 271.5 -140.5t50.5 -185.5t-34.5 -153.5t-138 -161t-342.5 -85.5q-320 0 -419 134.5t-135 213.5l165 77q119 -272 382 -272q153 0 241 69t88 189q0 119 -96 176t-298 57h-71v148h71
q180 0 267 61t87 166q0 153 -107.5 184t-172.5 31q-256 0 -352 -247l-175 61q137 341 534 341z" />
    <glyph glyph-name="afii10026" unicode="&#x418;" 
d="M162 0v1349h172v-864q0 -130 -18 -274l528 1138h222v-1349h-170v876q0 82 16 254l-520 -1130h-230z" />
    <glyph glyph-name="afii10027" unicode="&#x419;" 
d="M162 0v1349h172v-864q0 -130 -18 -274l528 1138h222v-1349h-170v876q0 82 16 254l-520 -1130h-230zM813 1705h164q-9 -260 -367 -260t-367 260h164q9 -121 121 -142q36 -7 108 -7q167 0 177 149z" />
    <glyph glyph-name="afii10028" unicode="&#x41a;" 
d="M359 609v-609h-191v1349h191v-589q89 0 168 48t156 162l251 379h202l-296 -430q-80 -116 -118 -145.5t-50 -38.5l509 -735h-222l-427 647q-92 -38 -173 -38z" />
    <glyph glyph-name="afii10029" unicode="&#x41b;" 
d="M51 139q33 0 59.5 9.5t87 79t131.5 641.5l61 480h727v-1349h-186v1189h-378l-43 -338q-47 -366 -81.5 -497t-65 -195.5t-87.5 -119.5t-192 -55q-58 0 -86 10v152q20 -7 53 -7z" />
    <glyph glyph-name="afii10030" unicode="&#x41c;" 
d="M289 868v-868h-160v1349h237l185 -489q21 -53 68 -231q14 47 34 115t36 115l185 490h225v-1349h-162v868q1 136 3 194t3 107q-64 -206 -95 -291l-164 -438h-137l-166 438q-11 26 -27 76t-33 103q-17 52 -36 112q4 -192 4 -301z" />
    <glyph glyph-name="afii10031" unicode="&#x41d;" 
d="M875 0v623h-522v-623h-191v1349h191v-566h522v566h191v-1349h-191z" />
    <glyph glyph-name="afii10032" unicode="&#x41e;" 
d="M614 1214q-311 0 -311 -540t316 -539q306 -1 306 539t-311 540zM102 681q0 514 294 646q96 43 219 43q247 0 379 -174t132 -515q0 -342 -134 -521q-134 -180 -383 -180q-248 0 -377 181q-130 182 -130 520z" />
    <glyph glyph-name="afii10033" unicode="&#x41f;" 
d="M875 0v1189h-522v-1189h-191v1349h904v-1349h-191z" />
    <glyph glyph-name="afii10034" unicode="&#x420;" 
d="M927 942q0 254 -328 254h-246v-531h254q157 0 239 76q81 77 81 201zM993 639q-126 -125 -359 -125h-281v-514h-191v1349h460q243 -1 370 -109t127 -292t-126 -309z" />
    <glyph glyph-name="afii10035" unicode="&#x421;" 
d="M314 681q0 -546 347 -546q212 0 322 282l159 -65q-149 -372 -483 -372q-272 0 -409 187t-137 514q0 689 536 689q339 0 466 -335l-168 -65q-55 165 -189 223q-48 21 -122 21t-138 -34t-105 -102q-79 -130 -79 -397z" />
    <glyph glyph-name="afii10036" unicode="&#x422;" 
d="M709 1193v-1193h-190v1193h-443v156h1076v-156h-443z" />
    <glyph glyph-name="afii10037" unicode="&#x423;" 
d="M110 194q94 -59 149 -59t84 10t67 47t109 174l39 74l-538 909h215l417 -739l349 739h205l-532 -1031q-99 -191 -179.5 -264.5t-222.5 -73.5t-243 70z" />
    <glyph glyph-name="afii10038" unicode="&#x424;" 
d="M202 705q0 -165 82 -261t228 -96h12v696h-8q-226 0 -292 -192q-22 -64 -22 -147zM943 957q-84 87 -233 87h-5v-696h12q147 0 228 96q82 96 82 261t-84 252zM1093 353q-128 -147 -347 -147h-41v-217h-181v217h-41q-219 0 -347 147t-128 358t129 344q129 132 357 132h30
v172h181v-172h29q229 0 358 -132t129 -344q0 -211 -128 -358z" />
    <glyph glyph-name="afii10039" unicode="&#x425;" 
d="M614 836l333 513h205l-435 -644l476 -705h-205l-374 573l-373 -573h-205l476 705l-435 644h205z" />
    <glyph glyph-name="afii10040" unicode="&#x426;" 
d="M1207 160v-585h-180v425h-899v1349h191v-1189h522v1189h191v-1189h175z" />
    <glyph glyph-name="afii10041" unicode="&#x427;" 
d="M519 574q119 0 364 49v726h190v-1349h-190v478l-131 -29q-130 -29 -247 -29q-206 0 -308 93.5t-102 271.5v564h190v-544q0 -231 234 -231z" />
    <glyph glyph-name="afii10042" unicode="&#x428;" 
d="M89 0v1349h162v-1209h282v1209h162v-1209h282v1209h162v-1349h-1050z" />
    <glyph glyph-name="afii10043" unicode="&#x429;" 
d="M1086 -425v425h-1000v1349h162v-1209h257v1209h162v-1209h257v1209h162v-1209h142v-565h-142z" />
    <glyph glyph-name="afii10044" unicode="&#x42a;" 
d="M963 390q0 122 -82 177.5t-246 55.5h-109v-472h117q164 0 242 58.5t78 180.5zM526 783h132q368 0 432.5 -150.5t64.5 -238.5q0 -180 -124.5 -287t-360.5 -107h-335v1193h-335v156h526v-566z" />
    <glyph glyph-name="afii10045" unicode="&#x42b;" 
d="M952 0v1349h171v-1349h-171zM353 141q320 0 320 250q0 242 -328 242h-69v-492h77zM105 0v1349h171v-576h62q246 0 371.5 -100t125.5 -279t-126 -286.5t-359 -107.5h-245z" />
    <glyph glyph-name="afii10046" unicode="&#x42c;" 
d="M980 387q0 236 -328 236h-299v-472h307q164 0 242 56t78 180zM1172 394q0 -180 -124.5 -287t-360.5 -107h-525v1349h191v-566h322q368 0 432.5 -150.5t64.5 -238.5z" />
    <glyph glyph-name="afii10047" unicode="&#x42d;" 
d="M487 609v145h426q-10 226 -89.5 343t-244.5 117t-223.5 -99t-73.5 -145l-168 65q132 335 466 335q536 0 536 -689q0 -501 -202 -601t-324 -100t-199.5 32t-156 103.5t-147.5 236.5l159 65q110 -282 322 -282q324 0 345 474h-426z" />
    <glyph glyph-name="afii10048" unicode="&#x42e;" 
d="M571 542q0 -417 216 -417t216 417t-53 549.5t-163 132.5t-163 -132.5t-53 -549.5zM400 754q22 616 392 616q183 0 283 -172t100 -517q0 -512 -146.5 -606.5t-240.5 -94.5q-183 0 -280.5 162.5t-107.5 466.5h-153v-609h-161v1349h161v-595h153z" />
    <glyph glyph-name="afii10049" unicode="&#x42f;" 
d="M300 973q0 -172 107 -209.5t189 -37.5h280v470h-272q-304 0 -304 -223zM228.5 1251q120.5 98 356.5 98h482v-1349h-191v575h-238l-366 -575h-220l400 597q-170 28 -257 135t-87 264t120.5 255z" />
    <glyph glyph-name="afii10065" unicode="&#x430;" 
d="M490 117q153 0 241 103q87 103 87 225v89l-190 -4q-141 -3 -198 -33q-57 -31 -85 -77t-28 -124q1 -79 45 -129t128 -50zM599 1102q201 0 301 -94t100 -270v-466q0 -80 21 -120t80 -41q26 0 59 7v-112q-68 -16 -129 -16q-111 0 -156 53t-51 164h-6q-91 -169 -241 -211
q-57 -16 -131 -16q-158 0 -238 86t-80 236q0 349 454 354l236 4v59q0 193 -124 233q-42 14 -95 13q-112 0 -168 -38t-67 -134l-188 17q46 292 423 292z" />
    <glyph glyph-name="afii10066" unicode="&#x431;" 
d="M675 1027q222 0 327 -130.5t105 -394.5t-125 -393t-362 -129t-358.5 154t-121.5 519t122 549t417 240q138 27 163 30l214 30v-161q-331 -42 -435.5 -70t-175.5 -65.5t-112 -139t-47 -304.5q67 186 188.5 225.5t200.5 39.5zM847 806.5q-71 88.5 -214 88.5
q-144 0 -224 -89.5t-80 -303.5q0 -312 113.5 -350.5t178.5 -38.5t121 18t116 85.5t60 284.5t-71 305.5z" />
    <glyph glyph-name="afii10067" unicode="&#x432;" 
d="M365 945v-320h256q192 0 214.5 59.5t22.5 102.5q0 82 -51 120t-172 38h-270zM365 133h276q197 0 223.5 65.5t26.5 113.5q0 99 -60 141t-202 42h-264v-362zM824 566q258 -33 258 -262q0 -143 -112 -223.5t-300 -80.5h-485v1082h462q276 0 338 -95t62 -161
q0 -210 -223 -253v-7z" />
    <glyph glyph-name="afii10068" unicode="&#x433;" 
d="M1050 1082v-142h-605v-940h-180v1082h785z" />
    <glyph glyph-name="afii10069" unicode="&#x434;" 
d="M996 1082v-940h146v-550h-163v408h-794v-408h-163v550h119q146 241 231 940h624zM831 940h-316q-74 -543 -191 -798h507v798z" />
    <glyph glyph-name="afii10070" unicode="&#x435;" 
d="M623 969q-117 0 -194 -66q-100 -86 -105 -262h584q-22 258 -186 312q-49 16 -99 16zM617 1102q477 0 477 -575v-24h-772q0 -273 170 -359q56 -28 122 -29q115 -1 191 45q77 46 102 121l158 -45q-61 -170 -262 -232q-75 -24 -185 -24q-228 0 -357 145q-128 145 -128 429
q0 285 146 427q125 121 338 121z" />
    <glyph glyph-name="afii10072" unicode="&#x436;" 
d="M691 0h-154v480q-59 8 -98 37l-253 -517h-185l335 608q-43 47 -110 149l-216 325h178l148 -239q93 -148 135 -178t66 -39v456h154v-456q48 18 92.5 66t108.5 151l148 239h178l-216 -325q-71 -106 -111 -149l336 -608h-185l-253 517q-39 -29 -98 -37v-480z" />
    <glyph glyph-name="afii10073" unicode="&#x437;" 
d="M870 299q0 108 -119.5 154t-276.5 46v137q253 0 315.5 60t62.5 123t-58.5 106t-182.5 43t-173.5 -23t-72 -51t-29.5 -70l-162 20q24 137 131.5 197.5t305.5 60.5t311 -78.5t113 -195.5t-84.5 -181t-188.5 -76v-2q121 -13 210 -84t89 -181q0 -229 -168.5 -276.5
t-280.5 -47.5q-211 0 -319 61t-155 193l159 44q50 -164 312 -164q261 0 261 185z" />
    <glyph glyph-name="afii10074" unicode="&#x438;" 
d="M359 1082v-592q0 -23 -1.5 -61.5t-4 -103t-4.5 -112.5l499 869h197v-1082h-172v660q0 65 4.5 129t5.5 84l-506 -873h-192v1082h174z" />
    <glyph glyph-name="afii10075" unicode="&#x439;" 
d="M359 1082v-592q1 -24 -1 -62t-4 -103t-5 -112l499 869h197v-1082h-172v660q1 65 5 129t5 84l-506 -873h-192v1082h174zM818 1460h164q-9 -260 -367 -260t-367 260h164q8 -121 120 -142q36 -7 109 -7q167 0 177 149z" />
    <glyph glyph-name="afii10076" unicode="&#x43a;" 
d="M398 0h-180v1082h180v-474q105 0 160 31t94 71t81 103l180 269h194l-226 -325q-78 -111 -150 -163l385 -594h-204l-317 509q-79 -35 -197 -35v-474z" />
    <glyph glyph-name="afii10077" unicode="&#x43b;" 
d="M68 113q37 0 62 21t56 91.5t65.5 273.5t86.5 583h710v-1082h-181v940h-381q-26 -184 -46 -326.5t-52.5 -303.5t-95.5 -245.5t-192 -84.5q-50 0 -94 13v129q25 -9 62 -9z" />
    <glyph glyph-name="afii10078" unicode="&#x43c;" 
d="M256 724v-724h-154v1082h250l200 -641q53 -169 68 -306q22 159 68 306l200 641h239v-1082h-153v724q0 65 3.5 136t4.5 93l-285 -953h-153l-294 951q6 -75 6 -227z" />
    <glyph glyph-name="afii10079" unicode="&#x43d;" 
d="M361 1082v-458h507v458h180v-1082h-180v493h-507v-493h-180v1082h180z" />
    <glyph glyph-name="afii10080" unicode="&#x43e;" 
d="M833 873q-75 96 -216 96t-220 -98q-78 -98 -78 -329q1 -341 179 -409q52 -20 113 -20q61 -1 117 19t95 69q85 104 85 340t-75 332zM1097 542q0 -279 -128 -420q-128 -142 -360 -142q-344 0 -445 314q-34 106 -34 248q0 280 126 420t365 140q476 0 476 -560z" />
    <glyph glyph-name="afii10081" unicode="&#x43f;" 
d="M1048 1082v-1082h-180v940h-507v-940h-180v1082h867z" />
    <glyph glyph-name="afii10082" unicode="&#x440;" 
d="M847 862q-57 103 -193 103q-136 1 -204 -85q-84 -105 -84 -356q0 -326 162 -390q54 -21 124 -21q70 1 119 29t79 83q54 102 54 318t-57 319zM185 858q0 170 -6 224h175q3 -8 6 -80q4 -72 4 -98h4q75 156 218 188q50 12 136 12t161 -40q207 -110 207 -518
q0 -566 -392 -566q-246 0 -331 184h-5q4 -8 4 -166v-423h-181v1283z" />
    <glyph glyph-name="afii10083" unicode="&#x441;" 
d="M631 -20q-501 0 -501 584q0 142 43 249q115 289 459 289q188 0 304 -90q115 -90 142 -233l-192 -14q-16 91 -80 143t-166 53t-160 -27t-94 -80t-52 -130t-15 -178q0 -211 70 -319t234 -108q108 0 179 53t88 162l190 -12q-19 -143 -140 -243q-120 -99 -309 -99z" />
    <glyph glyph-name="afii10084" unicode="&#x442;" 
d="M130 1082h968v-142h-394v-940h-180v940h-394v142z" />
    <glyph glyph-name="afii10085" unicode="&#x443;" 
d="M252 -285q78 0 148 59t118 188l18 49l-470 1071h192l264 -642q91 -224 98 -254q6 22 31 84t41 102t27 69l252 641h190l-456 -1082q-81 -214 -174 -319q-93 -106 -239 -106q-74 0 -124 11v135q38 -6 84 -6z" />
    <glyph glyph-name="afii10086" unicode="&#x444;" 
d="M968 542q0 304 -106.5 359t-168.5 63v-845q275 41 275 423zM538 963q-279 -40 -279 -421t279 -425v846zM1157 542q0 -383 -177 -465.5t-287 -92.5v-409h-155v408q-337 28 -402.5 227.5t-65.5 329.5q0 256 121 397.5t347 161.5v385h155v-385q235 -19 349.5 -157.5
t114.5 -399.5z" />
    <glyph glyph-name="afii10087" unicode="&#x445;" 
d="M932 0l-321 444l-323 -444h-194l415 556l-397 526h199l300 -421l298 421h201l-397 -524l420 -558h-201z" />
    <glyph glyph-name="afii10088" unicode="&#x446;" 
d="M356 1082v-951h507v951h180v-951h147v-539h-163v408h-851v1082h180z" />
    <glyph glyph-name="afii10089" unicode="&#x447;" 
d="M456 375q-154 0 -228 79t-74 217v411h180v-402q0 -114 71.5 -138t157.5 -24t278 52v512h180v-1082h-180v466q-231 -91 -385 -91z" />
    <glyph glyph-name="afii10090" unicode="&#x448;" 
d="M102 0v1082h160v-951h272v951h160v-951h273v951h160v-1082h-1025z" />
    <glyph glyph-name="afii10091" unicode="&#x449;" 
d="M92 0v1082h160v-951h249v951h160v-951h249v951h160v-951h143v-539h-143v408h-978z" />
    <glyph glyph-name="afii10092" unicode="&#x44a;" 
d="M507 127h202q197 0 223.5 72.5t26.5 118.5q0 94 -58 137.5t-191 43.5h-203v-372zM735 624q205 0 310 -73.5t105 -232.5q0 -230 -155.5 -274t-258.5 -44h-409v940h-328v142h508v-458h228z" />
    <glyph glyph-name="afii10093" unicode="&#x44b;" 
d="M958 0v1082h164v-1082h-164zM270 127h155q187 0 213.5 72.5t26.5 118.5q0 94 -56.5 137.5t-182.5 43.5h-156v-372zM425 624q205 0 310 -73.5t105 -232.5q0 -230 -155.5 -274t-258.5 -44h-320v1082h164v-458h155z" />
    <glyph glyph-name="afii10094" unicode="&#x44c;" 
d="M384 127h240q197 0 223.5 72.5t26.5 118.5q0 94 -58 137.5t-191 43.5h-241v-372zM650 624q205 0 310 -73.5t105 -232.5q0 -230 -155.5 -274t-258.5 -44h-447v1082h180v-458h266z" />
    <glyph glyph-name="afii10095" unicode="&#x44d;" 
d="M1084 564q0 -584 -501 -584q-191 0 -315.5 100t-143.5 242l190 12q23 -157 123 -186t166 -29q273 0 290 363h-382v131h382q-12 260 -118.5 304t-204.5 44t-167 -52.5t-85 -143.5l-192 14q29 143 148 233t308 90q344 0 423 -198t79 -340z" />
    <glyph glyph-name="afii10096" unicode="&#x44e;" 
d="M574 488.5q0 -177.5 61.5 -276.5t153.5 -99q147 0 180.5 152.5t33.5 276.5q0 226 -63.5 326.5t-144.5 100.5q-152 0 -186.5 -151.5t-34.5 -329zM234 624h169q17 233 123 355.5t270 122.5t272 -145t108 -416t-103.5 -416t-279.5 -145t-281 135t-111 378h-167v-493h-164
v1082h164v-458z" />
    <glyph glyph-name="afii10097" unicode="&#x44f;" 
d="M839 955h-234q-130 0 -190 -45.5t-60 -139.5t53.5 -140.5t177.5 -46.5h253v372zM164 783q0 299 423 299h432v-1082h-180v458h-252l-315 -458h-203l344 471q-249 52 -249 312z" />
    <glyph glyph-name="uni0450" unicode="&#x450;" 
d="M304 1473h197l227 -239v-20h-124l-300 230v29zM623 969q-117 0 -194 -66q-100 -86 -105 -262h584q-22 258 -186 312q-49 16 -99 16zM617 1102q477 0 477 -575v-24h-772q0 -273 170 -359q56 -28 122 -29q115 -1 191 45q77 46 102 121l158 -45q-61 -170 -262 -232
q-75 -24 -185 -24q-228 0 -357 145q-128 145 -128 429q0 285 146 427q125 121 338 121z" />
    <glyph glyph-name="afii10071" unicode="&#x451;" 
d="M623 969q-117 0 -194 -66q-100 -86 -105 -262h584q-22 258 -186 312q-49 16 -99 16zM617 1102q477 0 477 -575v-24h-772q0 -273 170 -359q56 -28 122 -29q115 -1 191 45q77 46 102 121l158 -45q-61 -170 -262 -232q-75 -24 -185 -24q-228 0 -357 145q-128 145 -128 429
q0 285 146 427q125 121 338 121zM343 1219v184h165v-184h-165zM737 1219v184h163v-184h-163z" />
    <glyph glyph-name="afii10099" unicode="&#x452;" 
d="M752 -283q67 0 91.5 39.5t24.5 136.5v772q0 216 -86 242t-140 26q-116 0 -196.5 -89.5t-80.5 -246.5v-597h-180v1196h-132v131h132v157h181v-157h299v-131h-299v-132q0 -59 -9 -197h3q105 205 339 205q350 0 350 -381v-825q0 -210 -84 -250.5t-158 -40.5t-125 9v139
q40 -6 70 -6z" />
    <glyph glyph-name="afii10100" unicode="&#x453;" 
d="M1050 1082v-142h-605v-940h-180v1082h785zM549 1201v20l227 239h197v-29l-300 -230h-124z" />
    <glyph glyph-name="afii10101" unicode="&#x454;" 
d="M646 -20q-501 0 -501 584q0 142 79 340t423 198q189 0 309 -91t147 -232l-192 -14q-16 91 -85 143.5t-167 52.5t-153.5 -23t-107.5 -86.5t-62 -238.5h382v-131h-382q11 -182 81 -272.5t231 -90.5t210 80.5t57 134.5l190 -12q-19 -142 -143.5 -242t-315.5 -100z" />
    <glyph glyph-name="afii10102" unicode="&#x455;" 
d="M378 814q0 -82 82 -122q39 -18 93 -32t119 -30q182 -46 258 -94q130 -80 130 -230t-116 -238t-323 -88q-291 0 -397 140q-38 52 -57 128l159 31q31 -141 189 -159q49 -6 106 -6q270 0 270 171q0 87 -95 132q-44 21 -104 36t-128 33q-178 46 -244 90q-110 73 -110 215
t106 225t307 83q257 1 361 -141q36 -50 51 -119l-162 -20q-23 146 -259 146t-236 -151z" />
    <glyph glyph-name="afii10103" unicode="&#x456;" 
d="M745 142h380v-142h-982v142h422v798h-319v142h499v-940zM556 1292v192h200v-192h-200z" />
    <glyph glyph-name="afii10104" unicode="&#x457;" 
d="M745 142h380v-142h-982v142h422v798h-319v142h499v-940zM376 1219v184h165v-184h-165zM770 1219v184h163v-184h-163z" />
    <glyph glyph-name="afii10105" unicode="&#x458;" 
d="M636 1292v192h200v-192h-200zM356 -276q90 0 138 14t85 44q77 65 77 193v965h-407v142h587v-1110q0 -204 -130 -308q-111 -89 -293 -89t-296 43v140q149 -34 239 -34z" />
    <glyph glyph-name="afii10106" unicode="&#x459;" 
d="M1026 318q0 191 -229 191h-52v-392h51q230 0 230 201zM82 113q36 0 60 19t47 86t47 323l53 541h456v-458h51q395 0 395 -306q0 -149 -103 -233.5t-291 -84.5h-207v961h-165l-40 -443q-29 -316 -86.5 -427t-180.5 -111q-56 0 -93 11v129q21 -7 57 -7z" />
    <glyph glyph-name="afii10107" unicode="&#x45a;" 
d="M731 117h54q196 0 223 77.5t27 123.5q0 94 -58 142.5t-191 48.5h-55v-392zM246 1082v-458h331v458h154v-458h54q205 0 310 -73.5t105 -232.5q0 -230 -155.5 -274t-258.5 -44h-209v503h-331v-503h-154v1082h154z" />
    <glyph glyph-name="afii10108" unicode="&#x45b;" 
d="M699 1072q350 0 350 -381v-691h-181v665q0 216 -86 242t-140 26q-116 0 -196.5 -89.5t-80.5 -246.5v-597h-180v1196h-132v131h132v157h181v-157h299v-131h-299v-132q0 -59 -9 -197h3q105 205 339 205z" />
    <glyph glyph-name="afii10109" unicode="&#x45c;" 
d="M398 0h-180v1082h180v-474q105 0 160 31t94 71t81 103l180 269h194l-226 -325q-78 -111 -150 -163l385 -594h-204l-317 509q-79 -35 -197 -35v-474zM508 1201v20l227 239h197v-29l-300 -230h-124z" />
    <glyph glyph-name="uni045D" unicode="&#x45d;" 
d="M304 1473h197l227 -239v-20h-124l-300 230v29zM359 1082v-592q1 -24 -1 -62t-4 -103t-5 -112l499 869h197v-1082h-172v660q1 65 5 129t5 84l-506 -873h-192v1082h174z" />
    <glyph glyph-name="afii10110" unicode="&#x45e;" 
d="M252 -285q78 0 148 59t118 188l18 49l-470 1071h192l264 -642q91 -224 98 -254q6 22 31 84t41 102t27 69l252 641h190l-456 -1082q-81 -214 -174 -319q-93 -106 -239 -106q-74 0 -124 11v135q38 -6 84 -6zM816 1460h164q-9 -260 -367 -260t-367 260h164q8 -121 120 -142
q36 -7 109 -7q167 0 177 149z" />
    <glyph glyph-name="afii10193" unicode="&#x45f;" 
d="M181 0v1082h180v-951h507v951h180v-1082h-352v-425h-163v425h-352z" />
    <glyph glyph-name="afii10050" unicode="&#x490;" 
d="M962 1349v356h180v-512h-725v-1192h-191v1348h736z" />
    <glyph glyph-name="afii10098" unicode="&#x491;" 
d="M424 0h-180v1082h623v402h163v-544h-606v-940z" />
    <glyph glyph-name="Wgrave" unicode="&#x1e80;" 
d="M1018 0h-208l-104 387q-5 19 -12 45q-33 121 -78 324q-18 -77 -30 -127q-12 -49 -20 -81t-14 -62q-8 -30 -15 -54q-7 -26 -12 -45l-106 -387h-208l-211 1349h189l109 -835q8 -65 14 -127t10 -115q5 -53 9 -104q15 69 27 117q12 49 19 79q14 62 42 168l109 399h175
l109 -399q6 -22 13 -50t15 -58t14 -60t18 -78t28 -118q1 0 4 34q14 160 31 312l104 835h189zM343 1705h197l227 -239v-20h-124l-300 230v29z" />
    <glyph glyph-name="wgrave" unicode="&#x1e81;" 
d="M1018 0h-204l-143 471q-44 148 -57 202q-9 -37 -19 -71l-20 -68q-10 -36 -20 -67l-148 -467h-203l-183 1082h178l93 -607q2 -25 8 -67q24 -189 25 -259q39 160 58 214l135 424h193l130 -425q32 -105 55 -213q0 72 16 186q16 115 19 140l101 607h176zM282 1460h197
l227 -239v-20h-124l-300 230v29z" />
    <glyph glyph-name="Wacute" unicode="&#x1e82;" 
d="M1018 0h-208l-104 387q-5 19 -12 45q-33 121 -78 324q-18 -77 -30 -127q-12 -49 -20 -81t-14 -62q-8 -30 -15 -54q-7 -26 -12 -45l-106 -387h-208l-211 1349h189l109 -835q8 -65 14 -127t10 -115q5 -53 9 -104q15 69 27 117q12 49 19 79q14 62 42 168l109 399h175
l109 -399q6 -22 13 -50t15 -58t14 -60t18 -78t28 -118q1 0 4 34q14 160 31 312l104 835h189zM505 1446v20l227 239h197v-29l-300 -230h-124z" />
    <glyph glyph-name="wacute" unicode="&#x1e83;" 
d="M1018 0h-204l-143 471q-44 148 -57 202q-9 -37 -19 -71l-20 -68q-10 -36 -20 -67l-148 -467h-203l-183 1082h178l93 -607q2 -25 8 -67q24 -189 25 -259q39 160 58 214l135 424h193l130 -425q32 -105 55 -213q0 72 16 186q16 115 19 140l101 607h176zM496 1201v20l227 239
h197v-29l-300 -230h-124z" />
    <glyph glyph-name="Wdieresis" unicode="&#x1e84;" 
d="M1018 0h-208l-104 387q-5 19 -12 45q-33 121 -78 324q-18 -77 -30 -127q-12 -49 -20 -81t-14 -62q-8 -30 -15 -54q-7 -26 -12 -45l-106 -387h-208l-211 1349h189l109 -835q8 -65 14 -127t10 -115q5 -53 9 -104q15 69 27 117q12 49 19 79q14 62 42 168l109 399h175
l109 -399q6 -22 13 -50t15 -58t14 -60t18 -78t28 -118q1 0 4 34q14 160 31 312l104 835h189zM336 1446v184h165v-184h-165zM730 1446v184h163v-184h-163z" />
    <glyph glyph-name="wdieresis" unicode="&#x1e85;" 
d="M1018 0h-204l-143 471q-44 148 -57 202q-9 -37 -19 -71l-20 -68q-10 -36 -20 -67l-148 -467h-203l-183 1082h178l93 -607q2 -25 8 -67q24 -189 25 -259q39 160 58 214l135 424h193l130 -425q32 -105 55 -213q0 72 16 186q16 115 19 140l101 607h176zM336 1219v184h165
v-184h-165zM730 1219v184h163v-184h-163z" />
    <glyph glyph-name="Ygrave" unicode="&#x1ef2;" 
d="M708 0h-188v584l-484 765h205l374 -611l372 611h205l-484 -765v-584zM332 1705h197l227 -239v-20h-124l-300 230v29z" />
    <glyph glyph-name="ygrave" unicode="&#x1ef3;" 
d="M252 -285q78 0 148 59t118 188l18 49l-470 1071h192l264 -642q91 -224 98 -254q6 22 31 84t41 102t27 69l252 641h190l-456 -1082q-81 -214 -174 -319q-93 -106 -239 -106q-74 0 -124 11v135q38 -6 84 -6zM343 1460h197l227 -239v-20h-124l-300 230v29z" />
    <glyph glyph-name="uni2010" unicode="&#x2010;" 
d="M334 464v160h560v-160h-560z" />
    <glyph glyph-name="uni2011" unicode="&#x2011;" 
d="M334 464v160h560v-160h-560z" />
    <glyph glyph-name="endash" unicode="&#x2013;" 
d="M170 451v137h888v-137h-888z" />
    <glyph glyph-name="emdash" unicode="&#x2014;" 
d="M-10 451v137h1248v-137h-1248z" />
    <glyph glyph-name="afii00208" unicode="&#x2015;" 
d="M-10 451v137h1248v-137h-1248z" />
    <glyph glyph-name="underscoredbl" unicode="&#x2017;" 
d="M-5 -425v96h1238v-96h-1238zM-5 -220v96h1238v-96h-1238z" />
    <glyph glyph-name="quoteleft" unicode="&#x2018;" 
d="M831 1484l-169 -622h-265l311 622h123z" />
    <glyph glyph-name="quoteright" unicode="&#x2019;" 
d="M399 862l169 622h265l-311 -622h-123z" />
    <glyph glyph-name="quotesinglbase" unicode="&#x201a;" 
d="M349 -363l169 622h265l-311 -622h-123z" />
    <glyph glyph-name="quotereversed" unicode="&#x201b;" 
d="M709 862l-311 622h265l169 -622h-123z" />
    <glyph glyph-name="quotedblleft" unicode="&#x201c;" 
d="M1050 1484l-169 -622h-265l311 622h123zM611 1484l-169 -622h-265l311 622h123z" />
    <glyph glyph-name="quotedblright" unicode="&#x201d;" 
d="M178 862l169 622h265l-311 -622h-123zM617 862l169 622h265l-311 -622h-123z" />
    <glyph glyph-name="quotedblbase" unicode="&#x201e;" 
d="M178 -364l169 622h265l-311 -622h-123zM617 -364l169 622h265l-311 -622h-123z" />
    <glyph glyph-name="dagger" unicode="&#x2020;" 
d="M685 989l-14 -1202h-115l-14 1202l-360 -17v164l360 -19l-26 366h195l-26 -366l361 19v-164z" />
    <glyph glyph-name="daggerdbl" unicode="&#x2021;" 
d="M1046 298v-164l-361 19l26 -366h-195l26 366l-360 -19v164l360 -17l34 354l-34 354l-360 -17v164l360 -19l-26 366h195l-26 -366l361 19v-164l-361 17l-34 -354l34 -354z" />
    <glyph glyph-name="bullet" unicode="&#x2022;" 
d="M807.5 483q-83.5 -82 -196.5 -82t-194 82.5t-81 197.5q0 116 81 195.5t194 79.5q114 0 197 -79.5t83 -195.5t-83.5 -198z" />
    <glyph glyph-name="ellipsis" unicode="&#x2026;" 
d="M117 0v219h175v-219h-175zM529 0v219h172v-219h-172zM938 0v219h174v-219h-174z" />
    <glyph glyph-name="perthousand" unicode="&#x2030;" 
d="M998 489q-104 -1 -104 -163q0 -129 26 -171t78 -42q101 0 101 188q0 106 -19.5 138t-38 41t-43.5 9zM998 597q107 0 168.5 -67t61.5 -229q0 -234 -92 -267.5t-140 -33.5q-105 0 -168.5 70.5t-63.5 230.5q0 238 93 267t141 29zM493 489q-104 0 -104 -162
q0 -127 25.5 -170.5t78.5 -43.5q101 0 101 188q0 106 -19.5 138t-38 41t-43.5 9zM495 597q229 0 229 -296q0 -234 -92 -267.5t-140 -33.5q-106 0 -169.5 70.5t-63.5 230.5q0 238 93 267t143 29zM234 1303q-104 -1 -104 -163q0 -129 26 -171t78 -42q100 0 100 188
q0 105 -19 137.5t-37.5 41.5t-43.5 9zM234 1411q107 0 168.5 -67t61.5 -229q0 -234 -92 -267.5t-140 -33.5q-106 0 -169 71t-63 230q0 238 92.5 267t141.5 29zM147 395h-145l583 639h147z" />
    <glyph glyph-name="minute" unicode="&#x2032;" 
d="M684 845h-141l-41 639h224z" />
    <glyph glyph-name="second" unicode="&#x2033;" 
d="M459 845h-141l-41 639h224zM908 845h-142l-40 639h224z" />
    <glyph glyph-name="guilsinglleft" unicode="&#x2039;" 
d="M859 940v-31l-335 -372l337 -367v-29h-179l-336 365v63l336 371h177z" />
    <glyph glyph-name="guilsinglright" unicode="&#x203a;" 
d="M366 141v29l338 367l-336 372v31h176l337 -371v-63l-337 -365h-178z" />
    <glyph glyph-name="exclamdbl" unicode="&#x203c;" 
d="M794 0v201h194v-201h-194zM968 397h-148l-24 951h196zM237 0v201h194v-201h-194zM411 397h-148l-24 951h196z" />
    <glyph glyph-name="uni203E" unicode="&#x203e;" 
d="M-5 1452v96h1238v-96h-1238z" />
    <glyph glyph-name="uni2215" unicode="&#x2044;" 
d="M322 0h-118l703 1349h115z" />
    <glyph glyph-name="uni2215" unicode="&#x2215;" 
d="M322 0h-118l703 1349h115z" />
    <glyph glyph-name="uni207F" unicode="&#x207f;" 
d="M707 1181q95 0 143.5 -54t48.5 -175v-433h-129v398q0 90 -21 117t-44.5 35t-58.5 8q-72 0 -114.5 -50t-42.5 -144v-364h-128v511l-4 139h119l6 -111h2q32 61 80 92t143 31z" />
    <glyph glyph-name="franc" unicode="&#x20a3;" 
d="M400 1193v-444h676v-158h-676v-203h391v-129h-391v-259h-191v259h-175v129h175v961h891v-156h-700z" />
    <glyph glyph-name="lira" unicode="&#x20a4;" 
d="M760 153q174 0 203 176l163 -18q-26 -233 -148 -272t-189 -39h-698v154q95 50 135 109t40 175v25h-186v142h186v152h-186v141h186v76q0 288 150 342t236 54q160 0 261 -59.5t136 -170.5l-174 -57q-30 97 -98.5 118t-104.5 21q-114 0 -170 -57.5t-56 -182.5v-84h408v-141
h-408v-152h408v-142h-408v-7q0 -215 -169 -303h483z" />
    <glyph glyph-name="peseta" unicode="&#x20a7;" 
d="M534 151v402h-89v97h90l59 142h71v-142h149v-97h-149v-384q0 -78 68 -78q45 0 72 7v-97q-51 -11 -103 -11q-168 0 -168 161zM270 795q150 0 150 217q0 153 -61 173.5t-97 20.5h-56v-411h64zM845 499q1 165 197 165q54 0 98 -43t52 -115l-109 -12q-5 44 -22.5 61.5
t-36.5 17.5q-55 0 -55 -73q-1 -58 89 -119q72 -49 109 -96.5t37 -121.5q0 -73 -48 -123t-130 -50q-169 0 -191 163l108 17q16 -88 77 -88q26 0 43 18.5t17 56.5q0 69 -93 133q-142 97 -142 209zM255 1349q327 0 327 -334q0 -159 -82.5 -260t-232.5 -101h-61v-654h-161v1349
h210z" />
    <glyph glyph-name="Euro" unicode="&#x20ac;" 
d="M396 683q0 -46 3 -78h474v-142h-459q25 -247 134 -287.5t175 -40.5q108 0 178.5 28t145.5 76l76 -135q-186 -124 -396 -124q-448 0 -505 480h-131v144h119q-4 46 -4 82t4 72h-119v142h129q58 470 509 470q213 0 379 -116l-82 -140q-138 100 -287 100t-227.5 -67
t-99.5 -249h461v-141h-475q-2 -28 -2 -74z" />
    <glyph glyph-name="afii61248" unicode="&#x2105;" 
d="M322 0h-118l703 1349h115zM271 1247q-125 0 -125 -302q0 -211 47 -260t79 -49q83 0 104 169l141 -9q-13 -115 -76 -194.5t-165 -79.5q-206 0 -241 164t-35 268q0 205 75 305.5t200 100.5q148 0 188 -102t49 -157l-143 -11q-10 72 -31.5 114.5t-66.5 42.5zM962 714
q-121 0 -121 -266q0 -205 30 -277.5t90 -72.5q120 0 120 306q0 171 -22.5 225t-44.5 69.5t-52 15.5zM962 825q268 0 267 -417q0 -321 -107.5 -370.5t-194.5 -49.5t-160 100.5t-73 315.5q0 334 106 377.5t162 43.5z" />
    <glyph glyph-name="afii61289" unicode="&#x2113;" 
d="M685 1353q-101 0 -101 -224v-507q158 106 193 263t35 223q0 116 -36 180.5t-91 64.5zM418 1130q0 208 91 253.5t153 45.5q114 0 177.5 -81t63.5 -200q0 -211 -90.5 -368.5t-228.5 -237.5v-244q0 -160 51.5 -190t74.5 -30q51 0 90 52t56 161h69q-40 -311 -259 -311
q-113 0 -180.5 81t-67.5 233v175q-51 -27 -132 -58v73q79 31 132 59v587z" />
    <glyph glyph-name="afii61352" unicode="&#x2116;" 
d="M744 0v136h435v-136h-435zM886 471.5q21 -60.5 74 -60.5t76.5 58.5t23.5 218.5t-21.5 220t-75.5 60q-53 0 -75.5 -60t-22.5 -218t21 -218.5zM713 690q0 390 249 390q196 0 221.5 -149t25.5 -242q0 -196 -56.5 -293t-194.5 -97q-245 1 -245 391zM162 0h-140v1349h192
l278 -1058q-8 160 -8 274v784h141v-1349h-199l-270 1050l6 -254v-796z" />
    <glyph glyph-name="trademark" unicode="&#x2122;" 
d="M286 1391v-549h-111v549h-171v92h457v-92h-175zM1224 1483v-641h-105v512q-1 -10 -5 -18t-6.5 -15t-4.5 -12l-190 -467h-89l-135 342q-2 4 -12 31t-23 61t-30 78v-512h-105v641h156l184 -465q7 -10 13 -35q61 151 61 158l139 342h152z" />
    <glyph glyph-name="uni2126" unicode="&#x2126;" 
d="M420 145q-337 225 -337 647q0 116 36.5 226t105.5 188.5t167.5 121t283.5 42.5t328 -162.5t143 -445.5t-128 -423t-209 -194q117 11 161 11h200v-156h-483v224q264 194 264 529t-124 398t-212 63q-171 0 -254.5 -120.5t-83.5 -335.5q0 -340 264 -534v-224h-483v156h200
q44 0 161 -11z" />
    <glyph glyph-name="estimated" unicode="&#x212e;" 
d="M624 1011q-179 0 -296 -117v-278h596v277q-73 77 -160 97.5t-140 20.5zM328 175q114 -124 312 -124q127 0 218 58.5t163 175.5l72 -42q-84 -133 -188.5 -205t-296.5 -72q-112 0 -211 46.5t-200.5 165.5t-101.5 353q0 274 160 419.5t380 145.5t370 -154t150 -411h-827
v-356z" />
    <glyph glyph-name="oneeighth" unicode="&#x215b;" 
d="M37 589v107h135v513q-23 -45 -78 -70t-93 -25v119q75 0 141 61q24 22 40 55h121v-653h116v-107h-382zM301 0h-118l703 1349h115zM1096 398q123 -34 123 -172q0 -238 -250 -238q-127 0 -189 60t-62 164q0 147 121 185v3q-101 49 -101 180q0 132 129 178q43 16 101 15
q114 0 172 -56t58 -142q0 -128 -102 -174v-3zM1085 221q-1 128 -117 128t-116 -130t118 -130q96 -1 110 79q4 24 5 53zM871 564q0 -114 97 -114q84 0 94 76q2 20 2 42q0 51 -21 78t-76 27q-56 1 -76 -29t-20 -80z" />
    <glyph glyph-name="threeeighths" unicode="&#x215c;" 
d="M366 1146q0 110 -97 109q-43 1 -76 -31t-39 -89l-135 12q14 104 83 159t148 55q133 0 193 -57t60 -145q0 -126 -136 -177v-2q157 -34 157 -186q0 -104 -71 -164q-71 -59 -187 -59q-117 0 -180 61t-77 151l136 13q18 -121 125 -121q51 0 84 30t33 95q0 120 -149 120h-41
v109h37q132 1 132 117zM318 0h-118l703 1349h115zM1096 398q123 -34 123 -172q0 -238 -250 -238q-127 0 -189 60t-62 164q0 147 121 185v3q-101 49 -101 180q0 132 129 178q43 16 101 15q114 0 172 -56t58 -142q0 -128 -102 -174v-3zM1085 221q-1 128 -117 128t-116 -130
t118 -130q96 -1 110 79q4 24 5 53zM871 564q0 -114 97 -114q84 0 94 76q2 20 2 42q0 51 -21 78t-76 27q-56 1 -76 -29t-20 -80z" />
    <glyph glyph-name="fiveeighths" unicode="&#x215d;" 
d="M320 1080q96 0 158 -63t62 -183t-66 -186t-183 -66q-219 0 -254 191l133 15q12 -54 40 -78t78 -23q117 0 117 142t-116 142q-69 0 -111 -60h-129l33 438h426v-113h-318l-19 -215q52 59 149 59zM330 0h-118l703 1349h115zM1096 398q123 -34 123 -172q0 -238 -250 -238
q-127 0 -189 60t-62 164q0 147 121 185v3q-101 49 -101 180q0 132 129 178q43 16 101 15q114 0 172 -56t58 -142q0 -128 -102 -174v-3zM1085 221q-1 128 -117 128t-116 -130t118 -130q96 -1 110 79q4 24 5 53zM871 564q0 -114 97 -114q84 0 94 76q2 20 2 42q0 51 -21 78
t-76 27q-56 1 -76 -29t-20 -80z" />
    <glyph glyph-name="seveneighths" unicode="&#x215e;" 
d="M316 589h-133q1 255 151 487q50 76 113 160h-390v113h519v-101q-149 -207 -189 -302q-71 -169 -71 -357zM247 0h-118l703 1349h115zM1064 398q123 -34 123 -172q0 -238 -250 -238q-127 0 -189 60t-62 164q0 147 121 185v3q-101 49 -101 180q0 132 129 178q43 16 101 15
q114 0 172 -56t58 -142q0 -128 -102 -174v-3zM1053 221q-1 128 -117 128t-116 -130t118 -130q96 -1 110 79q4 24 5 53zM839 564q0 -114 97 -114q84 0 94 76q2 20 2 42q0 51 -21 78t-76 27q-56 1 -76 -29t-20 -80z" />
    <glyph glyph-name="arrowleft" unicode="&#x2190;" 
d="M1220 594v-86h-989q57 -67 119 -197h-72q-127 149 -270 222v36q143 73 270 222h72q-62 -130 -119 -197h989z" />
    <glyph glyph-name="arrowup" unicode="&#x2191;" 
d="M657 -61h-86v989q-67 -57 -197 -119v72q149 127 222 270h36q73 -143 222 -270v-72q-130 62 -197 119v-989z" />
    <glyph glyph-name="arrowright" unicode="&#x2192;" 
d="M8 506v86h989q-57 67 -119 197h72q127 -149 270 -222v-36q-143 -73 -270 -222h-72q62 130 119 197h-989z" />
    <glyph glyph-name="arrowdown" unicode="&#x2193;" 
d="M571 1151h86v-989q67 57 197 119v-72q-149 -127 -222 -270h-36q-73 143 -222 270v72q130 -62 197 -119v989z" />
    <glyph glyph-name="arrowboth" unicode="&#x2194;" 
d="M1220 531q-143 -73 -270 -222h-72q62 130 119 197h-766q57 -67 119 -197h-72q-127 149 -270 222v36q143 73 270 222h72q-62 -130 -119 -197h766q-57 67 -119 197h72q127 -149 270 -222v-36z" />
    <glyph glyph-name="arrowupdn" unicode="&#x2195;" 
d="M596 -61q-73 143 -222 270v72q130 -62 197 -119v766q-67 -57 -197 -119v72q149 127 222 270h36q73 -143 222 -270v-72q-130 62 -197 119v-766q67 57 197 119v-72q-149 -127 -222 -270h-36z" />
    <glyph glyph-name="arrowupdnbse" unicode="&#x21a8;" 
d="M596 -61q-73 143 -222 270v72q130 -62 197 -119v766q-67 -57 -197 -119v72q149 127 222 270h36q73 -143 222 -270v-72q-130 62 -197 119v-766q67 57 197 119v-72q-149 -127 -222 -270h-36zM374 -104h480v-80h-480v80z" />
    <glyph glyph-name="partialdiff" unicode="&#x2202;" 
d="M336.5 588.5q-41.5 -123.5 -41.5 -203.5q0 -138 53.5 -207t146.5 -69q163 0 270.5 170.5t140.5 400.5q-21 87 -87.5 145t-169.5 58q-104 0 -187.5 -85.5t-125 -209zM941 938q0 196 -73 300.5t-215 104.5t-253 -75l39 147q125 62 247 62q230 0 333.5 -150.5t103.5 -370.5
q0 -221 -45 -389q-45 -167 -159 -380.5t-437 -213.5q-197 0 -287 108.5t-90 274.5q0 221 106 388t219.5 213.5t211.5 46.5t175.5 -49.5t114.5 -133.5h4q5 63 5 117z" />
    <glyph glyph-name="uni2206" unicode="&#x2206;" 
d="M710 997q-51 138 -73.5 205.5t-24.5 71.5q-2 -8 -40.5 -115t-57.5 -162l-310 -841h820zM12 0v145l477 1264h244l483 -1262v-147h-1204z" />
    <glyph glyph-name="product" unicode="&#x220f;" 
d="M938 -455v1642h-642v-1642h-191v1804h1017v-1804h-184z" />
    <glyph glyph-name="summation" unicode="&#x2211;" 
d="M27 -455v109l635 802l-619 787v106h1090v-152h-846l584 -739l-600 -761h930v-152h-1174z" />
    <glyph glyph-name="minus" unicode="&#x2212;" 
d="M117 608v146h995v-146h-995z" />
    <glyph glyph-name="uni2219" unicode="&#x2219;" 
d="M496 420v299h235v-299h-235z" />
    <glyph glyph-name="radical" unicode="&#x221a;" 
d="M78 778v117h270l242 -690l430 1415h129l-500 -1634h-106l-283 792h-182z" />
    <glyph glyph-name="infinity" unicode="&#x221e;" 
d="M169 594q0 -171 62.5 -212.5t112.5 -41.5t102 63t100 193q-44 128 -95.5 192t-121.5 64t-115 -73.5t-45 -184.5zM773 398q51 -64 121 -64t116 73.5t46 182.5t-47 182.5t-120 73.5q-117 0 -212 -256q45 -128 96 -192zM915 977q126 0 203 -106.5t77 -274.5t-78.5 -280.5
t-203.5 -112.5q-185 0 -304 282q-87 -196 -170.5 -236t-135.5 -40t-104.5 27.5t-111 105.5t-58.5 250t79 281.5t205 109.5q183 0 298 -283q130 277 304 277z" />
    <glyph glyph-name="orthogonal" unicode="&#x221f;" 
d="M52 1223h94v-1129h1030v-94h-1124v1223z" />
    <glyph glyph-name="intersection" unicode="&#x2229;" 
d="M156 -2v512q0 231 128.5 376.5t327.5 145.5t329.5 -146.5t130.5 -375.5v-512h-103v514q0 193 -99 305.5t-257.5 112.5t-256 -112t-97.5 -308v-512h-103z" />
    <glyph glyph-name="integral" unicode="&#x222b;" 
d="M522 1153q0 354 346 354q81 0 125 -18v-148q-49 27 -107 27q-101 0 -140.5 -66t-39.5 -167v-1235q0 -268 -131.5 -311.5t-208.5 -43.5t-131 19v147q60 -24 117 -24q170 0 170 233v1233z" />
    <glyph glyph-name="approxequal" unicode="&#x2248;" 
d="M371 590q102 0 253 -52.5t190 -58.5t62 -6q130 0 244 92v-147q-90 -67 -155 -74.5t-130 -7.5t-196 46t-184.5 58.5t-98.5 12.5q-126 0 -248 -88v141q111 84 263 84zM876 893q130 0 244 94v-149q-91 -65 -155.5 -72.5t-131.5 -7.5t-230 57t-247 57q-126 0 -248 -88v144
q114 84 263 84q103 0 261 -58q37 -14 40.5 -14t15.5 -4q118 -42 188 -43z" />
    <glyph glyph-name="notequal" unicode="&#x2260;" 
d="M116 344v148h311l190 364h-501v148h573l154 292h143l-152 -292h277v-148h-350l-191 -364h541v-148h-612l-152 -289h-145l151 289h-237z" />
    <glyph glyph-name="equivalence" unicode="&#x2261;" 
d="M116 600v148h995v-148h-995zM116 244v148h995v-148h-995zM116 956v148h995v-148h-995z" />
    <glyph glyph-name="lessequal" unicode="&#x2264;" 
d="M115 0v145h995v-145h-995zM117 631v205l995 395v-154l-858 -344l858 -344v-153z" />
    <glyph glyph-name="greaterequal" unicode="&#x2265;" 
d="M116 0v145h995v-145h-995zM116 236v153l858 344l-858 344v154l995 -395v-205z" />
    <glyph glyph-name="house" unicode="&#x2302;" 
d="M221 85h786v512l-393 370l-393 -370v-512zM138 0v635l476 448l476 -448v-635h-952z" />
    <glyph glyph-name="revlogicalnot" unicode="&#x2310;" 
d="M262 608v-428h-147l1 574h995v-146h-849z" />
    <glyph glyph-name="integraltp" unicode="&#x2320;" 
d="M687 -615h-145v1822q0 347 115.5 422.5t190.5 75.5t126.5 -35.5t51.5 -83.5q0 -49 -25 -73.5t-62 -24.5t-58.5 18t-36 39.5t-27.5 39.5t-37 18q-48 0 -70.5 -72t-22.5 -246v-1900z" />
    <glyph glyph-name="integralbt" unicode="&#x2321;" 
d="M542 1705h145v-1822q0 -347 -115.5 -422.5t-190.5 -75.5t-126.5 35.5t-51.5 83.5q0 49 25 73.5t62 24.5t58.5 -18t36 -39.5t28 -39.5t37.5 -18q48 0 70 72t22 246v1900z" />
    <glyph glyph-name="SF100000" unicode="&#x2500;" 
d="M-10 555v145h1249v-145h-1249z" />
    <glyph glyph-name="SF110000" unicode="&#x2502;" 
d="M542 1705h145v-2320h-145v2320z" />
    <glyph glyph-name="SF010000" unicode="&#x250c;" 
d="M542 700h697v-145h-552v-1170h-145v1315z" />
    <glyph glyph-name="SF030000" unicode="&#x2510;" 
d="M-10 555v145h697v-1315h-145v1170h-552z" />
    <glyph glyph-name="SF020000" unicode="&#x2514;" 
d="M542 1705h145v-1005h552v-145h-697v1150z" />
    <glyph glyph-name="SF040000" unicode="&#x2518;" 
d="M-10 555v145h552v1005h145v-1150h-697z" />
    <glyph glyph-name="SF080000" unicode="&#x251c;" 
d="M542 1705h145v-1005h552v-145h-552v-1170h-145v2320z" />
    <glyph glyph-name="SF090000" unicode="&#x2524;" 
d="M-10 555v145h552v1005h145v-2320h-145v1170h-552z" />
    <glyph glyph-name="SF060000" unicode="&#x252c;" 
d="M-10 555v145h1249v-145h-552v-1170h-145v1170h-552z" />
    <glyph glyph-name="SF070000" unicode="&#x2534;" 
d="M-10 555v145h552v1005h145v-1005h552v-145h-1249z" />
    <glyph glyph-name="SF050000" unicode="&#x253c;" 
d="M-10 555v145h552v1005h145v-1005h552v-145h-552v-1170h-145v1170h-552z" />
    <glyph glyph-name="SF430000" unicode="&#x2550;" 
d="M-10 375v145h1249v-145h-1249zM-10 735v145h1249v-145h-1249z" />
    <glyph glyph-name="SF240000" unicode="&#x2551;" 
d="M722 1705h145v-2320h-145v2320zM362 1705h145v-2320h-145v2320z" />
    <glyph glyph-name="SF510000" unicode="&#x2552;" 
d="M542 880h697v-145h-552v-215h552v-145h-552v-990h-145v1495z" />
    <glyph glyph-name="SF520000" unicode="&#x2553;" 
d="M1239 700v-145h-372v-1170h-145v1170h-215v-1170h-145v1315h877z" />
    <glyph glyph-name="SF390000" unicode="&#x2554;" 
d="M722 520h517v-145h-372v-990h-145v1135zM362 880h877v-145h-732v-1350h-145v1495z" />
    <glyph glyph-name="SF220000" unicode="&#x2555;" 
d="M-10 375v145h552v215h-552v145h697v-1495h-145v990h-552z" />
    <glyph glyph-name="SF210000" unicode="&#x2556;" 
d="M-10 555v145h877v-1315h-145v1170h-215v-1170h-145v1170h-372z" />
    <glyph glyph-name="SF250000" unicode="&#x2557;" 
d="M507 -615h-145v990h-372v145h517v-1135zM867 880v-1495h-145v1350h-732v145h877z" />
    <glyph glyph-name="SF500000" unicode="&#x2558;" 
d="M542 1705h145v-825h552v-145h-552v-215h552v-145h-697v1330z" />
    <glyph glyph-name="SF490000" unicode="&#x2559;" 
d="M722 1705h145v-1005h372v-145h-877v1150h145v-1005h215v1005z" />
    <glyph glyph-name="SF380000" unicode="&#x255a;" 
d="M722 1705h145v-825h372v-145h-517v970zM362 1705h145v-1185h732v-145h-877v1330z" />
    <glyph glyph-name="SF280000" unicode="&#x255b;" 
d="M-10 375v145h552v215h-552v145h552v825h145v-1330h-697z" />
    <glyph glyph-name="SF270000" unicode="&#x255c;" 
d="M867 555h-877v145h372v1005h145v-1005h215v1005h145v-1150z" />
    <glyph glyph-name="SF260000" unicode="&#x255d;" 
d="M362 1705h145v-970h-517v145h372v825zM867 375h-877v145h732v1185h145v-1330z" />
    <glyph glyph-name="SF360000" unicode="&#x255e;" 
d="M542 1705h145v-825h552v-145h-552v-215h552v-145h-552v-990h-145v2320z" />
    <glyph glyph-name="SF370000" unicode="&#x255f;" 
d="M362 1705h145v-2320h-145v2320zM722 1705h145v-1005h372v-145h-372v-1170h-145v2320z" />
    <glyph glyph-name="SF420000" unicode="&#x2560;" 
d="M722 1705h145v-825h372v-145h-517v970zM722 520h517v-145h-372v-990h-145v1135zM507 -615h-145v2320h145v-2320z" />
    <glyph glyph-name="SF190000" unicode="&#x2561;" 
d="M-10 375v145h552v215h-552v145h552v825h145v-2320h-145v990h-552z" />
    <glyph glyph-name="SF200000" unicode="&#x2562;" 
d="M722 1705h145v-2320h-145v2320zM-10 555v145h372v1005h145v-2320h-145v1170h-372z" />
    <glyph glyph-name="SF230000" unicode="&#x2563;" 
d="M507 -615h-145v990h-372v145h517v-1135zM362 1705h145v-970h-517v145h372v825zM722 1705h145v-2320h-145v2320z" />
    <glyph glyph-name="SF470000" unicode="&#x2564;" 
d="M-10 735v145h1249v-145h-1249zM-10 375v145h1249v-145h-552v-990h-145v990h-552z" />
    <glyph glyph-name="SF480000" unicode="&#x2565;" 
d="M-10 555v145h1249v-145h-372v-1170h-145v1170h-215v-1170h-145v1170h-372z" />
    <glyph glyph-name="SF410000" unicode="&#x2566;" 
d="M1239 880v-145h-1249v145h1249zM722 520h517v-145h-372v-990h-145v1135zM507 -615h-145v990h-372v145h517v-1135z" />
    <glyph glyph-name="SF450000" unicode="&#x2567;" 
d="M-10 375v145h1249v-145h-1249zM-10 735v145h552v825h145v-825h552v-145h-1249z" />
    <glyph glyph-name="SF460000" unicode="&#x2568;" 
d="M-10 555v145h372v1005h145v-1005h215v1005h145v-1005h372v-145h-1249z" />
    <glyph glyph-name="SF400000" unicode="&#x2569;" 
d="M-10 375v145h1249v-145h-1249zM362 1705h145v-970h-517v145h372v825zM722 1705h145v-825h372v-145h-517v970z" />
    <glyph glyph-name="SF540000" unicode="&#x256a;" 
d="M-10 375v145h552v215h-552v145h552v825h145v-825h552v-145h-552v-215h552v-145h-552v-990h-145v990h-552z" />
    <glyph glyph-name="SF530000" unicode="&#x256b;" 
d="M722 1705h145v-1005h372v-145h-372v-1170h-145v1170h-215v-1170h-145v1170h-372v145h372v1005h145v-1005h215v1005z" />
    <glyph glyph-name="SF440000" unicode="&#x256c;" 
d="M362 1705h145v-970h-517v145h372v825zM722 520h517v-145h-372v-990h-145v1135zM507 -615h-145v990h-372v145h517v-1135zM722 1705h145v-825h372v-145h-517v970z" />
    <glyph glyph-name="upblock" unicode="&#x2580;" 
d="M1229 627h-1229v1078h1229v-1078z" />
    <glyph glyph-name="dnblock" unicode="&#x2584;" 
d="M1229 -435h-1229v1062h1229v-1062z" />
    <glyph glyph-name="block" unicode="&#x2588;" 
d="M1229 -435h-1229v2140h1229v-2140z" />
    <glyph glyph-name="lfblock" unicode="&#x258c;" 
d="M615 -435h-615v2140h615v-2140z" />
    <glyph glyph-name="rtblock" unicode="&#x2590;" 
d="M1229 -435h-615v2140h615v-2140z" />
    <glyph glyph-name="ltshade" unicode="&#x2591;" 
d="M820 1705h103v-96h-103v96zM410 1705h103v-96h-103v96zM0 1705h103v-96h-103v96zM1025 1512h102v-98h-102v98zM615 1512h102v-98h-102v98zM205 1512h102v-98h-102v98zM1025 -421h102v-96h-102v96zM615 -421h102v-96h-102v96zM205 -421h102v-96h-102v96zM0 -228h103v-97
h-103v97zM410 -228h103v-97h-103v97zM820 -228h103v-97h-103v97zM1025 -36h102v-94h-102v94zM615 -36h102v-94h-102v94zM205 -36h102v-94h-102v94zM0 159h103v-97h-103v97zM410 159h103v-97h-103v97zM820 159h103v-97h-103v97zM205 351h102v-96h-102v96zM1025 351h102v-96
h-102v96zM615 351h102v-96h-102v96zM820 546h103v-96h-103v96zM410 546h103v-96h-103v96zM0 546h103v-96h-103v96zM1025 738h102v-96h-102v96zM615 738h102v-96h-102v96zM205 738h102v-96h-102v96zM820 933h103v-96h-103v96zM410 933h103v-96h-103v96zM0 933h103v-96h-103
v96zM1025 1125h102v-96h-102v96zM615 1125h102v-96h-102v96zM205 1125h102v-96h-102v96zM820 1320h103v-98h-103v98zM410 1320h103v-98h-103v98zM0 1320h103v-98h-103v98z" />
    <glyph glyph-name="shade" unicode="&#x2592;" 
d="M1127 1705h103v-96h-103v96zM922 1705h103v-96h-103v96zM717 1705h103v-96h-103v96zM512 1705h103v-96h-103v96zM307 1705h103v-96h-103v96zM102 1705h103v-96h-103v96zM1025 1512h102v-98h-102v98zM820 1512h102v-98h-102v98zM615 1512h102v-98h-102v98zM410 1512h102
v-98h-102v98zM205 1512h102v-98h-102v98zM0 1512h102v-98h-102v98zM1025 -421h102v-96h-102v96zM820 -421h102v-96h-102v96zM615 -421h102v-96h-102v96zM410 -421h102v-96h-102v96zM205 -421h102v-96h-102v96zM0 -421h102v-96h-102v96zM102 -228h103v-97h-103v97zM307 -228
h103v-97h-103v97zM512 -228h103v-97h-103v97zM717 -228h103v-97h-103v97zM922 -228h103v-97h-103v97zM1127 -228h103v-97h-103v97zM1025 -36h102v-94h-102v94zM820 -36h102v-94h-102v94zM615 -36h102v-94h-102v94zM410 -36h102v-94h-102v94zM205 -36h102v-94h-102v94zM0 -36
h102v-94h-102v94zM102 159h103v-97h-103v97zM307 159h103v-97h-103v97zM512 159h103v-97h-103v97zM717 159h103v-97h-103v97zM922 159h103v-97h-103v97zM1127 159h103v-97h-103v97zM205 351h102v-96h-102v96zM1025 351h102v-96h-102v96zM820 351h102v-96h-102v96zM615 351
h102v-96h-102v96zM410 351h102v-96h-102v96zM0 351h102v-96h-102v96zM1127 546h103v-96h-103v96zM922 546h103v-96h-103v96zM717 546h103v-96h-103v96zM512 546h103v-96h-103v96zM307 546h103v-96h-103v96zM102 546h103v-96h-103v96zM1025 738h102v-96h-102v96zM820 738h102
v-96h-102v96zM615 738h102v-96h-102v96zM410 738h102v-96h-102v96zM205 738h102v-96h-102v96zM0 738h102v-96h-102v96zM1127 933h103v-96h-103v96zM922 933h103v-96h-103v96zM717 933h103v-96h-103v96zM512 933h103v-96h-103v96zM307 933h103v-96h-103v96zM102 933h103v-96
h-103v96zM1025 1125h102v-96h-102v96zM820 1125h102v-96h-102v96zM615 1125h102v-96h-102v96zM410 1125h102v-96h-102v96zM205 1125h102v-96h-102v96zM0 1125h102v-96h-102v96zM1127 1320h103v-98h-103v98zM922 1320h103v-98h-103v98zM717 1320h103v-98h-103v98zM512 1320
h103v-98h-103v98zM307 1320h103v-98h-103v98zM102 1320h103v-98h-103v98z" />
    <glyph glyph-name="dkshade" unicode="&#x2593;" 
d="M1025 1512h-103v-98h103v98zM1127 1320h-102v-98h102v98zM922 -421v-96h103v96h-103zM1127 -325v97h-102v-97h102zM922 -36v-94h103v94h-103zM1127 62v97h-102v-97h102zM922 351v-96h103v96h-103zM1025 546v-96h102v96h-102zM922 738v-96h103v96h-103zM1127 933h-102v-98
h102v98zM922 1125v-96h103v96h-103zM205 1512h-103v-98h103v98zM410 1512h-103v-98h103v98zM615 1512h-103v-98h103v98zM820 1512h-103v-98h103v98zM307 1320h-102v-98h102v98zM512 1320h-102v-98h102v98zM717 1320h-102v-98h102v98zM922 1320h-102v-98h102v98zM717 -421
v-96h103v96h-103zM512 -421v-96h103v96h-103zM307 -421v-96h103v96h-103zM102 -421v-96h103v96h-103zM307 -325v97h-102v-97h102zM512 -325v97h-102v-97h102zM717 -325v97h-102v-97h102zM922 -325v97h-102v-97h102zM717 -36v-94h103v94h-103zM512 -36v-94h103v94h-103z
M307 -36v-94h103v94h-103zM102 -36v-94h103v94h-103zM307 62v97h-102v-97h102zM512 62v97h-102v-97h102zM717 62v97h-102v-97h102zM922 62v97h-102v-97h102zM717 351v-96h103v96h-103zM410 255v96h-103v-96h103zM512 351v-96h103v96h-103zM102 351v-96h103v96h-103zM820 546
v-96h102v96h-102zM615 546v-96h102v96h-102zM410 546v-96h102v96h-102zM307 546h-102v-96h102v96zM717 738v-96h103v96h-103zM512 738v-96h103v96h-103zM307 738v-96h103v96h-103zM102 738v-96h103v96h-103zM307 933h-102v-98h102v98zM512 933h-102v-98h102v98zM717 933
h-102v-98h102v98zM922 933h-102v-98h102v98zM717 1125v-96h103v96h-103zM512 1125v-96h103v96h-103zM307 1125v-96h103v96h-103zM102 1125v-96h103v96h-103zM1230 -615h-1230v290h102v97h-102v290h102v97h-102v291h102v96h-102v289h102v98h-102v289h102v98h-102v289h102v96
h103v-96h102v96h103v-96h102v96h103v-96h102v96h103v-96h102v96h103v-96h102v96h103v-193h-103v-98h103v-289h-103v-96h103v-291h-103v-96h103v-291h-103v-96h103v-291h-103v-94h103v-291h-103v-96h103v-98z" />
    <glyph glyph-name="filledbox" unicode="&#x25a0;" 
d="M119 1108h991v-991h-991v991z" />
    <glyph glyph-name="H22073" unicode="&#x25a1;" 
d="M78 1149v-1073h1073v1073h-1073zM2 1225h1225v-1225h-1225v1225z" />
    <glyph glyph-name="H18543" unicode="&#x25aa;" 
d="M868 383h-508v508h508v-508z" />
    <glyph glyph-name="H18551" unicode="&#x25ab;" 
d="M792 459v354h-356v-354h356zM868 383h-508v508h508v-508z" />
    <glyph glyph-name="filledrect" unicode="&#x25ac;" 
d="M8 546h1213v-476h-1213v476z" />
    <glyph glyph-name="triagup" unicode="&#x25b2;" 
d="M15 50l600 1148l598 -1148h-1198z" />
    <glyph glyph-name="triagrt" unicode="&#x25ba;" 
d="M52 1196l1175 -610l-1175 -613v1223z" />
    <glyph glyph-name="triagdn" unicode="&#x25bc;" 
d="M1213 1121l-598 -1148l-600 1148h1198z" />
    <glyph glyph-name="triaglf" unicode="&#x25c4;" 
d="M1177 1196v-1223l-1175 613z" />
    <glyph glyph-name="lozenge" unicode="&#x25ca;" 
d="M615 1286l-354 -565l354 -574l352 574zM654 0h-82l-457 719l457 721h82l459 -719z" />
    <glyph glyph-name="circle" unicode="&#x25cb;" 
d="M249 612q0 -76 28.5 -142t77.5 -115.5t115.5 -78t142.5 -28.5t143 28.5t116.5 78t78.5 115.5t29 142t-29 143t-78.5 116.5t-116.5 78.5t-143 29t-142.5 -29t-115.5 -78.5t-77.5 -116.5t-28.5 -143zM163 612q0 94 35 176.5t96 144t143 97t176 35.5t176.5 -35.5t144 -97
t97 -144t35.5 -176.5t-35.5 -176t-97 -143t-144 -96t-176.5 -35t-176 35t-143 96t-96 143t-35 176z" />
    <glyph glyph-name="H18533" unicode="&#x25cf;" 
d="M614 1018q110 0 217 -57q155 -82 189.5 -204t34.5 -179q0 -183 -129.5 -312t-311.5 -129t-311 129t-129 312q0 111 59 219t165 164q106 57 216 57z" />
    <glyph glyph-name="invbullet" unicode="&#x25d8;" 
d="M172 577q0 -91 34.5 -171t94.5 -140t140 -94.5t171 -34.5t171.5 34.5t140.5 94.5t94.5 140t34.5 171t-34.5 171.5t-94.5 140.5t-140.5 94.5t-171.5 34.5t-171 -34.5t-140 -94.5t-94.5 -140.5t-34.5 -171.5zM37 0v1155h1155v-1155h-1155z" />
    <glyph glyph-name="invcircle" unicode="&#x25d9;" 
d="M172 577q0 -91 34.5 -171t94.5 -140t140 -94.5t171 -34.5t171.5 34.5t140.5 94.5t94.5 140t34.5 171t-34.5 171.5t-94.5 140.5t-140.5 94.5t-171.5 34.5t-171 -34.5t-140 -94.5t-94.5 -140.5t-34.5 -171.5zM249 577q0 75 29 141.5t78.5 116t116 78.5t141.5 29t141.5 -29
t116 -78.5t78.5 -116t29 -141.5t-29 -141.5t-78.5 -116t-116 -78.5t-141.5 -29t-141.5 29t-116 78.5t-78.5 116t-29 141.5zM37 0v1155h1155v-1155h-1155z" />
    <glyph glyph-name="openbullet" unicode="&#x25e6;" 
d="M614 464q72 0 122 52t50 122t-51 120.5t-121 50.5t-121 -50.5t-51 -120.5t50 -122t122 -52zM366 638q0 101 73 174t175 73t174 -74q74 -71 74 -173t-74 -177q-76 -72 -176 -72q-99 0 -174 72q-72 76 -72 177z" />
    <glyph glyph-name="smileface" unicode="&#x263a;" 
d="M614 306q99 0 156.5 37t104.5 99l58 -49q-112 -177 -319 -177q-175 0 -237 73.5t-82 103.5l58 49q47 -62 104.5 -99t156.5 -37zM761 741q0 29 20.5 50t49.5 21t50 -21t21 -50t-21 -49.5t-50 -20.5t-49.5 20.5t-20.5 49.5zM326 741q0 29 20.5 50t49.5 21t50 -21t21 -50
t-21 -49.5t-50 -20.5t-49.5 20.5t-20.5 49.5zM90 589q0 -108 41 -203.5t112.5 -167t167 -112.5t203.5 -41t203 41t166.5 112.5t112.5 167t41 203.5t-41 203t-112.5 166.5t-166.5 112.5t-203 41t-203.5 -41t-167 -112.5t-112.5 -166.5t-41 -203zM27 589q0 243 113 356
t214 172t241 59q262 0 434 -172t172 -415t-172 -415t-415 -172t-415 172t-172 415z" />
    <glyph glyph-name="invsmileface" unicode="&#x263b;" 
d="M614 216q206 0 319 177l-58 49q-47 -62 -85 -86.5t-79 -37t-118.5 -12.5t-135 37t-104.5 99l-58 -49q53 -80 126 -128.5t193 -48.5zM761 741q0 -29 20.5 -49.5t49.5 -20.5t50 20.5t21 49.5t-21 50t-50 21t-49.5 -21t-20.5 -50zM326 741q0 -29 20.5 -49.5t49.5 -20.5
t50 20.5t21 49.5t-21 50t-50 21t-49.5 -21t-20.5 -50zM27 589q0 243 113 356t214 172t241 59q262 0 434 -172t172 -415t-172 -415t-415 -172t-415 172t-172 415z" />
    <glyph glyph-name="sun" unicode="&#x263c;" 
d="M329 466q0 -118 83 -201.5t202 -83.5t202 83.5t83 201.5t-83.5 201.5t-201.5 83.5t-201.5 -83.5t-83.5 -201.5zM578 1054h72v-233q102 -9 189 -79l165 165l51 -51l-165 -165q70 -87 79 -189h233v-72h-233q-10 -103 -79 -190l165 -164l-51 -51l-165 164q-87 -70 -189 -79
v-232h-72v232q-103 10 -190 79l-164 -164l-51 51l164 164q-69 87 -79 190h-232v72h232q9 102 79 189l-164 165l51 51l164 -165q87 69 190 79v233z" />
    <glyph glyph-name="female" unicode="&#x2640;" 
d="M388 874q0 -47 17.5 -88t48.5 -72t72 -48.5t88 -17.5t88 17.5t71.5 48.5t48.5 72t18 88t-18 88t-48.5 71.5t-71.5 48.5t-88 18t-88 -18t-72 -48.5t-48.5 -71.5t-17.5 -88zM344 376h234v202q-112 14 -187 98.5t-75 202.5t87.5 205.5t210.5 87.5t210.5 -87.5t87.5 -205.5
t-75 -202.5t-187 -98.5v-202h234v-72h-234v-234h-72v234h-234v72z" />
    <glyph glyph-name="male" unicode="&#x2642;" 
d="M236 412q0 -47 17.5 -88t48.5 -72t72 -48.5t88 -17.5t88 17.5t71.5 48.5t48.5 72t18 88t-18 88t-48.5 71.5t-71.5 48.5t-88 18t-88 -18t-72 -48.5t-48.5 -71.5t-17.5 -88zM696 595q64 -81 64 -194q0 -112 -87.5 -199.5t-210.5 -87.5t-210.5 87.5t-87.5 210.5t87.5 210.5
t199.5 87.5t194 -64l257 257l-226 20l-2 55h331l23 -23v-331l-55 2l-20 226z" />
    <glyph glyph-name="spade" unicode="&#x2660;" 
d="M640 1195q0 -134 100.5 -239.5t153.5 -147.5q232 -182 232 -316q0 -125 -69.5 -188.5t-169.5 -63.5q-99 0 -155 42t-70 58q0 -134 88.5 -209t231.5 -75v-56h-736v56q143 0 231.5 75t88.5 209q-55 -62 -124.5 -81t-109.5 -19q-91 0 -160.5 63t-69.5 180t90 200t142 125
q108 85 181 191.5t73 195.5h52z" />
    <glyph glyph-name="club" unicode="&#x2663;" 
d="M614 1195q139 0 208 -72t69 -170q0 -97 -47 -154t-71 -74q162 16 260 -54.5t98 -187.5t-69.5 -180t-169.5 -63t-158 42t-72 58q0 -134 88.5 -209t231.5 -75v-56h-736v56q143 0 231.5 75t88.5 209q-54 -61 -126 -80.5t-112 -19.5q-91 0 -161 63t-70 180t98 187.5t260 54.5
q-79 56 -98.5 128.5t-19.5 108.5t15 78t69 98.5t193 56.5z" />
    <glyph glyph-name="heart" unicode="&#x2665;" 
d="M588 -1q0 135 -243 427t-243 454q0 110 74.5 179t170.5 69q138 0 194 -91.5t70 -138.5h6q29 96 101 163t166 67t168 -69t74 -179q0 -161 -235 -446q-117 -144 -184 -248.5t-67 -186.5h-52z" />
    <glyph glyph-name="diamond" unicode="&#x2666;" 
d="M608 -1q-227 314 -476 598v3q249 284 476 598h12q227 -314 476 -598v-3q-249 -284 -476 -598h-12z" />
    <glyph glyph-name="musicalnote" unicode="&#x266a;" 
d="M788 272q76 83 76 205q0 123 -58 204t-142 108v-598q0 -71 -70 -119t-145 -48t-121 33.5t-46 95.5q0 61 69 110.5t139 49.5t112 -23v836h38q12 -116 133 -239q87 -89 125.5 -172t38.5 -184q0 -150 -103 -259h-46z" />
    <glyph glyph-name="musicalnotedbl" unicode="&#x266b;" 
d="M1084 131q0 -71 -70 -119t-145 -48t-108 24q-59 43 -59 105q0 61 69 111q69 49 139 49t112 -23v715l-528 79v-803q0 -71 -70 -119t-145 -48t-108 24q-59 43 -59 105q0 61 69 111q69 49 139 49t112 -23v835l652 -80v-944z" />
    <glyph glyph-name="uni266C" unicode="&#x266c;" 
d="M494 804l528 81v120l-528 -81v-120zM1084 211q0 -71 -70 -119t-145 -48t-108 24q-59 43 -59 105q0 61 69 111q69 49 139 49t112 -23v435l-528 -81v-543q0 -71 -70 -119t-145 -48t-108 24q-59 43 -59 105q0 61 69 111q69 49 139 49t112 -23v835l652 100v-944z" />
    <glyph glyph-name="uniFB01" unicode="&#xfb01;" 
d="M881 0v1082h180v-1082h-180zM881 1312v172h180v-172h-180zM416 1179v-97h211v-131h-211v-951h-180v951h-152v131h152v122q0 132 57.5 205t206.5 73q75 0 127 -12v-137q-45 8 -100 8q-111 0 -111 -162z" />
    <glyph glyph-name="uniFB02" unicode="&#xfb02;" 
d="M881 0v1484h180v-1484h-180zM416 1179v-97h211v-131h-211v-951h-180v951h-152v131h152v122q0 132 57.5 205t206.5 73q75 0 127 -12v-137q-45 8 -100 8q-111 0 -111 -162z" />
    <glyph glyph-name="afii10066.alt1" 
d="M994 818q89 -141 89 -344t-127 -338q-127 -136 -355 -136q-227 0 -356 131t-129 362q0 112 36 200q36 87 74 149q36 62 104 122q-179 126 -166 312q0 124 97 218t255 94h508v-147h-472q-198 0 -198 -191q0 -144 155 -217q322 45 485 -215zM894 494q0 82 -30 170t-54 114
q-189 207 -394 7q-47 -47 -79 -125t-32 -162q0 -168 75 -266q75 -99 221 -99q293 -1 293 361z" />
    <glyph glyph-name="undercommaaccent" 
d="M475 -423v33l79 292h197v-37l-171 -288h-105z" />
    <glyph glyph-name="cyrillicbreve" 
d="M831 1460h164q-9 -260 -367 -260t-367 260h164q8 -121 82.5 -135t194 -14t129.5 149z" />
    <glyph glyph-name="caroncommaaccent" 
d="M475 1159v33l79 292h197v-37l-171 -288h-105z" />
    <glyph glyph-name="commaaccentrotate" 
d="M751 1536v-33l-79 -292h-197v37l171 288h105z" />
    <glyph glyph-name="dotlessj" 
d="M452 -276q90 0 138.5 14t105 62t56.5 175v965h-407v142h587v-1110q0 -203 -120.5 -300t-302.5 -97t-296 43v140q149 -34 239 -34z" />
    <glyph glyph-name="onefraction" 
d="M329 589v107h135v513q-23 -45 -78 -70t-93 -25v119q75 0 119.5 41.5t61.5 74.5h121v-653h116v-107h-382z" />
    <glyph glyph-name="twofraction" 
d="M626 1140q0 121 -111 121q-61 0 -90.5 -31t-37.5 -92l-130 5q19 153 110.5 185.5t152.5 32.5q120 0 180.5 -56t60.5 -159q0 -131 -140 -236.5t-176.5 -140.5t-52.5 -73h380v-107h-522v97q49 112 184.5 214t163.5 149t28 91z" />
    <glyph glyph-name="threefraciton" 
d="M591 1146q0 110 -97 109q-43 0 -76 -31.5t-39 -88.5l-135 12q14 104 83 159t148 55q133 0 193 -56.5t60 -145.5q0 -126 -136 -177v-2q157 -34 157 -186q0 -104 -71 -163.5t-187 -59.5q-117 0 -180 61t-77 151l136 13q18 -121 125 -121q51 0 84 30t33 95q0 120 -149 120
h-41v109h37q132 1 132 117z" />
    <glyph glyph-name="fourfraction" 
d="M572 849v168q0 168 0.5 181.5t0.5 22.5q-28 -42 -51 -74t-30 -42l-185 -256h265zM699 748v-161h-127v161h-375v99l361 502h141v-500h122v-101h-122z" />
    <glyph glyph-name="fivefraction" 
d="M543 1080q97 0 158.5 -63t61.5 -183t-65.5 -186t-183.5 -66q-219 0 -254 191l133 15q11 -54 39.5 -77.5t78.5 -23.5q117 0 117 142t-116 142q-69 0 -111 -60h-129l33 438h426v-113h-318l-19 -215q52 59 149 59z" />
    <glyph glyph-name="sevenfraction" 
d="M511 589h-133q0 254 100 408.5t164 238.5h-390v113h519v-101q-149 -207 -204.5 -339t-55.5 -320z" />
    <glyph glyph-name="eightfraction" 
d="M651 986q123 -34 123 -172q0 -238 -188.5 -238t-250.5 60t-62 164q0 147 121 185v3q-101 49 -101 180t86.5 162t144.5 31q114 0 171.5 -55.5t57.5 -142.5q0 -128 -102 -174v-3zM640 859q0 78 -116 78t-116.5 -130t117.5 -130q96 0 105.5 52t9.5 130zM426 1152
q0 -114 97 -114q84 0 90 48t6 70q0 51 -20.5 78t-76.5 27t-76 -29.5t-20 -79.5z" />
  </font>
</defs>
</svg>
