<?xml version="1.0" standalone="no"?>
<!DOCTYPE svg PUBLIC "-//W3C//DTD SVG 1.1//EN" "http://www.w3.org/Graphics/SVG/1.1/DTD/svg11.dtd" >
<svg xmlns="http://www.w3.org/2000/svg">
<metadata>
Created by FontPrep 20130207 at Sun Sep 18 01:19:50 2016
 By Daniel Givens
Copyright (c) 2007 Red Hat, Inc. All rights reserved. LIBERATION is a trademark of Red Hat, Inc.
</metadata>
<defs>
<font id="d32c274bbe7716aca9959e922f550304" horiz-adv-x='1024' >
  <font-face 
    font-family="LiberationSerif"
    font-weight="400"
    font-stretch="normal"
    units-per-em="2048"
    panose-1="2 2 6 3 5 4 5 2 3 4"
    ascent="1638"
    descent="-410"
    x-height="940"
    cap-height="1341"
    bbox="-362 -621 2062 2010"
    underline-thickness="100"
    underline-position="-173"
    unicode-range="U+0020-F005"
  />
<missing-glyph horiz-adv-x="748" 
d="M136 68h408v1229h-408v-1229zM68 0v1365h544v-1365h-544z" />
    <glyph glyph-name=".notdef" horiz-adv-x="748" 
d="M136 68h408v1229h-408v-1229zM68 0v1365h544v-1365h-544z" />
    <glyph glyph-name=".null" horiz-adv-x="0" 
 />
    <glyph glyph-name="nonmarkingreturn" horiz-adv-x="682" 
 />
    <glyph glyph-name="uni00A0" unicode=" " horiz-adv-x="512" 
 />
    <glyph glyph-name="uni00A0" unicode="&#xa0;" horiz-adv-x="512" 
 />
    <glyph glyph-name="exclam" unicode="!" horiz-adv-x="682" 
d="M231 1341h218l-62 -952h-94zM426.5 7q-34.5 -36 -73.5 -36t-61 9.5t-38 26t-25.5 38.5t-9.5 60t35 73t73 35t60.5 -9.5t48 -35t25.5 -75.5t-34.5 -86z" />
    <glyph glyph-name="quotedbl" unicode="&#x22;" horiz-adv-x="836" 
d="M127 1341h197l-62 -481h-74zM512 1341h197l-62 -481h-74z" />
    <glyph glyph-name="numbersign" unicode="#" 
d="M334 524h309l57 307h-309zM987 524v-102h-260l-78 -422h-104l78 422h-310l-77 -422h-105l78 422h-172v102h192l58 307h-250v103h268l76 407h104l-75 -407h309l76 407h104l-76 -407h164v-103h-182l-57 -307h239z" />
    <glyph glyph-name="dollar" unicode="$" 
d="M274 1080q0 -113 50.5 -162.5t156.5 -92.5v443q-100 -13 -153.5 -66.5t-53.5 -121.5zM791 330q0 154 -90.5 201t-137.5 65v-530q228 35 228 264zM870 1034h-65l-29 164q-46 44 -114 58t-99 16v-477q138 -50 268 -115.5t130 -272.5q0 -193 -106 -301t-292 -122v-140h-82
v136q-162 3 -263 30.5t-130 40.5v320h66l34 -191q32 -43 120 -79t173 -40v566q-126 44 -250.5 107.5t-124.5 255.5q0 97 27 156.5t102.5 126.5t245.5 81v129h82v-127q153 -6 307 -43v-279z" />
    <glyph glyph-name="percent" unicode="%" horiz-adv-x="1706" 
d="M1481 346q0 70 -9 124.5t-29 92t-53.5 57t-104.5 19.5t-107.5 -72t-36.5 -182t7.5 -165.5t26.5 -93.5t51 -58.5t81 -20.5t82.5 20.5t53.5 58.5t29 94t9 126zM1313 713q323 0 323 -370t-329 -370q-322 0 -322 370t328 370zM565 994q0 70 -9 125t-29 92.5t-53.5 57
t-104.5 19.5t-107.5 -72t-36.5 -182t7.5 -165.5t26.5 -93.5t51 -58.5t81 -20.5t82.5 20.5t53.5 58.5t29 93.5t9 125.5zM391 623q-321 -1 -321 369t327 370q159 0 241.5 -92t82.5 -275q0 -372 -330 -372zM440 -20h-110l948 1382h111z" />
    <glyph glyph-name="ampersand" unicode="&#x26;" horiz-adv-x="1593" 
d="M588 811q118 44 171.5 101t53.5 178q0 192 -182 192q-105 0 -151 -48t-46 -144q0 -164 154 -279zM596 66q223 0 376 153l-499 457q-89 -38 -144 -109t-55 -200q0 -224 126 -262.5t196 -38.5zM257 1070q0 207 136.5 249.5t236.5 42.5q188 0 273.5 -76t85.5 -203
q0 -185 -135 -248t-197 -87l422 -384q97 198 103 363l-142 27v53h457v-53l-139 -27q-76 -265 -195 -441l228 -208l165 -25v-53h-344l-171 155q-195 -175 -455 -175q-508 0 -508 376q0 234 137.5 300t192.5 87q-151 146 -151 327z" />
    <glyph glyph-name="quotesingle" unicode="'" horiz-adv-x="369" 
d="M86 1341h197l-62 -481h-74z" />
    <glyph glyph-name="parenleft" unicode="(" horiz-adv-x="682" 
d="M283 515q0 -105 4 -188.5t36 -306.5t293 -372v-84q-276 146 -401 355t-125 574.5t124.5 573t401.5 354.5v-84q-291 -167 -312 -442t-21 -380z" />
    <glyph glyph-name="parenright" unicode=")" horiz-adv-x="682" 
d="M66 1421q278 -148 402 -355t124 -572.5t-124.5 -573.5t-401.5 -356v84q261 149 297 399.5t36 411.5t-21 436t-312 442v84z" />
    <glyph glyph-name="asterisk" unicode="*" 
d="M100 1065l64 143l315 -194l-43 327h156l-47 -327l317 190l64 -141l-332 -98l332 -97l-64 -141l-317 188l47 -325h-156l43 328l-315 -195l-64 143l328 99z" />
    <glyph glyph-name="plus" unicode="+" horiz-adv-x="1155" 
d="M629 629v-426h-103v426h-424v102h424v426h103v-426h426v-102h-426z" />
    <glyph glyph-name="comma" unicode="," horiz-adv-x="512" 
d="M254 -70q0 30 -25 46t-67.5 38t-42.5 81t34.5 87.5t74.5 28.5q73 0 114 -43.5t41 -110.5q0 -284 -305 -372v77q176 56 176 168z" />
    <glyph glyph-name="uni00AD" unicode="-" horiz-adv-x="682" 
d="M76 406v153h532v-153h-532z" />
    <glyph glyph-name="uni00AD" unicode="&#xad;" horiz-adv-x="682" 
d="M76 406v153h532v-153h-532z" />
    <glyph glyph-name="period" unicode="." horiz-adv-x="512" 
d="M342.5 7q-34.5 -36 -73.5 -36t-61 9.5t-38 26t-25.5 38.5t-9.5 60t35 73t73 35t60.5 -9.5t48 -35t25.5 -75.5t-34.5 -86z" />
    <glyph glyph-name="slash" unicode="/" horiz-adv-x="569" 
d="M100 -20h-100l471 1370h98z" />
    <glyph glyph-name="zero" unicode="0" 
d="M762 756q0 224 -57.5 375t-198.5 151t-192.5 -148t-51.5 -458.5t52 -463.5t192 -153q204 0 230 236.5t26 460.5zM946 676q0 -696 -440 -696q-212 0 -320 178t-108 514q0 690 436 690q212 0 322 -174.5t110 -511.5z" />
    <glyph glyph-name="one" unicode="1" 
d="M901 0h-721v53l275 27v1094l-271 -97v53l391 222h52v-1272l274 -27v-53z" />
    <glyph glyph-name="two" unicode="2" 
d="M444 1356q220 0 330.5 -91.5t110.5 -258.5q0 -218 -136.5 -365.5t-282 -271.5t-245.5 -215h690v-154h-821v147q101 94 185.5 168.5t191 176.5t168 219t61.5 271t-59 222t-182 68t-219 -53l-35 -164h-66v258q182 43 309 43z" />
    <glyph glyph-name="three" unicode="3" 
d="M453 1356q430 0 430 -330q0 -202 -108.5 -257.5t-184.5 -66.5q182 -21 268 -104.5t86 -248.5t-124.5 -267t-332.5 -102t-378 43l-11 282h66l45 -188q97 -54 217 -54t179.5 23t107 80t47.5 209q0 210 -112 241.5t-171 34.5l-143 8v82l143 9q113 6 167 70t54 194
q0 197 -89 227.5t-137 30.5q-136 0 -232 -53l-35 -164h-66v258q167 43 314 43z" />
    <glyph glyph-name="four" unicode="4" 
d="M638 1113h-5l-480 -675h485v675zM810 295v-295h-172v295h-598v133l655 920h115v-910h182v-143h-182z" />
    <glyph glyph-name="five" unicode="5" 
d="M480 784q234 0 349 -93.5t115 -291.5q0 -300 -177 -359.5t-333 -59.5t-304 43l-11 282h66l45 -188q97 -54 207 -54q191 0 257 82.5t66 245.5t-67.5 236t-254.5 73q-91 0 -178 -24h-96v665h680v-153h-590v-428q109 24 226 24z" />
    <glyph glyph-name="six" unicode="6" 
d="M272 657q0 -598 272 -598q130 0 182 81.5t52 251.5q0 169 -51.5 242t-175.5 73q-125 0 -279 -50zM650 803q214 0 263.5 -144.5t49.5 -245.5q0 -206 -105.5 -319.5t-304.5 -113.5q-339 0 -402 256t-63 432q0 336 143.5 512t358.5 176q146 0 291 -35v-231h-66l-35 137
q-81 45 -171 45t-207 -70.5t-129 -484.5q163 86 377 86z" />
    <glyph glyph-name="seven" unicode="7" 
d="M135 1024v317h830v-77l-598 -1264h-129l587 1188h-589l-35 -164h-66z" />
    <glyph glyph-name="eight" unicode="8" 
d="M725 1014q0 268 -192.5 268t-213 -104t-20.5 -164t9.5 -108t33 -82t64 -52t131.5 -18t139.5 66.5t48.5 193.5zM766 362q0 153 -59 228.5t-201 75.5q-203 0 -225.5 -115t-22.5 -189q0 -157 53.5 -230t194.5 -73q207 0 233.5 114.5t26.5 188.5zM506 -20q-428 0 -428 382
q0 133 64 220.5t173 128.5q-87 40 -141.5 116t-54.5 171q0 178 100 271t292 93t293 -91.5t101 -256.5q0 -110 -53.5 -186.5t-144.5 -116.5q172 -64 205.5 -173t33.5 -176q0 -190 -107 -286t-333 -96z" />
    <glyph glyph-name="nine" unicode="9" 
d="M496 629q129 0 260 53q0 452 -93 523t-163 71q-250 0 -250 -348q0 -233 93.5 -266t152.5 -33zM755 617q-152 -85 -317 -85t-268.5 103.5t-103.5 302.5t115 308.5t330 109.5t322 -164t107 -518q0 -474 -187.5 -584t-342.5 -110t-291 34v232h65l35 -144q82 -39 174 -39
q91 0 219.5 62.5t142.5 491.5z" />
    <glyph glyph-name="colon" unicode=":" horiz-adv-x="569" 
d="M368 754q-35 -35 -73 -35q-63 0 -98 35t-35 73q0 62 34.5 98t73.5 36q38 0 60 -9.5t47.5 -36t25.5 -76.5t-35 -85zM368.5 7q-34.5 -36 -73.5 -36q-38 0 -60 9.5t-38 26t-25.5 38.5t-9.5 60t35 73t73 35t60 -9.5t47.5 -35t25.5 -75.5t-34.5 -86z" />
    <glyph glyph-name="uni037E" unicode=";" horiz-adv-x="569" 
d="M283 -70q0 30 -25 46t-68 37t-43 81t34.5 88.5t74.5 28.5q73 0 114.5 -43.5t41.5 -110.5q0 -283 -306 -372v77q177 56 177 168zM368 754q-35 -35 -73 -35q-63 0 -98 35t-35 73q0 62 34.5 98t73.5 36q38 0 60 -9.5t47.5 -36t25.5 -76.5t-35 -85z" />
    <glyph glyph-name="uni037E" unicode="&#x37e;" horiz-adv-x="569" 
d="M283 -70q0 30 -25 46t-68 37t-43 81t34.5 88.5t74.5 28.5q73 0 114.5 -43.5t41.5 -110.5q0 -283 -306 -372v77q177 56 177 168zM368 754q-35 -35 -73 -35q-63 0 -98 35t-35 73q0 62 34.5 98t73.5 36q38 0 60 -9.5t47.5 -36t25.5 -76.5t-35 -85z" />
    <glyph glyph-name="less" unicode="&#x3c;" horiz-adv-x="1155" 
d="M102 655v50l953 469v-103l-809 -391l809 -391v-103z" />
    <glyph glyph-name="equal" unicode="=" horiz-adv-x="1155" 
d="M1055 936v-102h-953v102h953zM1055 526v-102h-953v102h953z" />
    <glyph glyph-name="greater" unicode="&#x3e;" horiz-adv-x="1155" 
d="M104 186v103l809 391l-809 391v103l953 -469v-50z" />
    <glyph glyph-name="question" unicode="?" horiz-adv-x="909" 
d="M495.5 7q-34.5 -36 -73.5 -36q-38 0 -60 9.5t-38 26t-25.5 38.5t-9.5 60t35 73t73 35t60 -9.5t47.5 -35t25.5 -75.5t-34.5 -86zM401 1356q424 0 424 -340q0 -232 -114 -303.5t-201 -89.5l-57 -13l-13 -260h-80l-26 334l143 29q164 32 164 291q0 146 -53 207t-176 61
t-205 -49l-35 -164h-66v254q158 43 295 43z" />
    <glyph glyph-name="at" unicode="@" horiz-adv-x="1886" 
d="M944 793.5q-73 -17.5 -111 -51.5q-70 -63 -111.5 -181.5t-41.5 -259.5t80 -141q131 0 264 114l115 533q-40 4 -81 4t-114 -17.5zM696 25q-72 0 -111.5 54.5t-39.5 141.5q0 173 69.5 351t204 253t213 82.5t120.5 7.5h48q48 0 96 -6l-114 -530q-23 -97 -23 -141
q0 -63 14 -79t69 -16q56 0 113 25t126.5 90t120.5 206t51 278q0 263 -157 401.5t-417 138.5q-259 0 -445.5 -122.5t-287 -333t-100.5 -478.5t168 -460.5t481 -192.5q245 0 363 68.5t167 103.5l33 -51q-124 -96 -264.5 -150.5t-325.5 -54.5q-355 0 -557 213.5t-202 537.5
q0 430 272.5 716t708.5 286q325 0 506.5 -163.5t181.5 -448.5q0 -199 -102 -366.5t-264 -264t-337 -96.5q-65 0 -65 51t8 125q-176 -176 -322 -176z" />
    <glyph glyph-name="A" unicode="A" horiz-adv-x="1479" 
d="M676 1208l-230 -651h467zM461 0h-441v53l152 27l457 1272h190l475 -1272l170 -27v-53h-567v53l180 27l-133 387h-528l-135 -387l180 -27v-53z" />
    <glyph glyph-name="B" unicode="B" horiz-adv-x="1366" 
d="M59 0v53l172 27v1182l-172 26v53h613q392 0 441.5 -121t49.5 -189q0 -128 -75 -209t-201 -108q272 -28 325.5 -143t53.5 -193q0 -175 -127.5 -279.5t-395.5 -104.5l-428 6h-256zM687 84q125 0 248.5 40t123.5 258q0 140 -93.5 206t-301.5 66h-240v-564q138 -6 263 -6z
M958 1014q0 122 -75.5 179.5t-251.5 57.5h-207v-507h219q254 0 284.5 105t30.5 165z" />
    <glyph glyph-name="C" unicode="C" horiz-adv-x="1366" 
d="M84 655q0 529 264 615t434 86t284 -20.5t161 -30.5l6 -293h-66l-30 174q-147 90 -351 90q-244 0 -368.5 -143t-124.5 -476q0 -447 184.5 -523.5t272.5 -76.5q270 0 401 101l37 200h65l-6 -315q-220 -63 -473 -63q-327 0 -508.5 178t-181.5 497z" />
    <glyph glyph-name="D" unicode="D" horiz-adv-x="1479" 
d="M59 0v53l172 27v1182l-172 26v53h609q352 0 540.5 -157t188.5 -506q0 -504 -256.5 -593t-431.5 -89l-478 4h-172zM690 86q146 0 236.5 37.5t148.5 112t85.5 185.5t27.5 329t-154.5 359.5t-429.5 141.5h-180v-1157q120 -8 266 -8z" />
    <glyph glyph-name="E" unicode="E" horiz-adv-x="1251" 
d="M59 1341h1006v-321h-66l-32 217q-112 14 -324 14h-219v-524h362l31 160h64v-412h-64l-31 162h-362v-547h264q258 0 338 16l57 248h66l-19 -354h-1071v53l172 27v1182l-172 26v53z" />
    <glyph glyph-name="F" unicode="F" horiz-adv-x="1139" 
d="M424 602v-522l223 -27v-53h-575v53l159 27v1182l-172 26v53h1006v-321h-66l-32 217q-112 14 -324 14h-219v-559h395l31 160h61v-412h-61l-31 162h-395z" />
    <glyph glyph-name="G" unicode="G" horiz-adv-x="1479" 
d="M84 668q0 339 176.5 513.5t517.5 174.5q244 0 471 -60v-288h-67l-27 166q-144 102 -378 102q-235 0 -359.5 -144.5t-124.5 -470.5q0 -327 133.5 -465.5t349.5 -138.5q140 0 218.5 28.5t97.5 39.5v381l-172 26v54h495v-54l-131 -26v-436q-275 -90 -510 -90
q-322 0 -506 174.5t-184 513.5z" />
    <glyph glyph-name="H" unicode="H" horiz-adv-x="1479" 
d="M59 0v53l172 27v1182l-172 26v53h537v-53l-172 -26v-527h631v527l-172 26v53h536v-53l-172 -26v-1182l172 -27v-53h-536v53l172 27v565h-631v-565l172 -27v-53h-537z" />
    <glyph glyph-name="I" unicode="I" horiz-adv-x="682" 
d="M610 0h-536v53l172 27v1182l-172 26v53h536v-53l-172 -26v-1182l172 -27v-53z" />
    <glyph glyph-name="J" unicode="J" horiz-adv-x="797" 
d="M43 254h66l30 -139q40 -49 131 -49q140 0 140 190v1006l-172 26v53h516v-53l-152 -26v-830q0 -312 -136 -382t-240 -70t-183 30v244z" />
    <glyph glyph-name="K" unicode="K" horiz-adv-x="1479" 
d="M1353 1341v-53l-155 -26l-458 -448l573 -734l145 -27v-53h-328l-525 678l-181 -145v-453l192 -27v-53h-557v53l172 27v1182l-172 26v53h537v-53l-172 -26v-632l642 632l-133 26v53h420z" />
    <glyph glyph-name="L" unicode="L" horiz-adv-x="1251" 
d="M424 86h264q213 0 313 20l62 279h65l-18 -385h-1051v53l172 27v1182l-172 26v53h572v-53l-207 -26v-1176z" />
    <glyph glyph-name="M" unicode="M" horiz-adv-x="1821" 
d="M516 0h-457v53l172 27v1182l-172 26v53h406l436 -1020l476 1020h384v-53l-172 -26v-1182l172 -27v-53h-544v53l180 27v1073l-535 -1153h-35l-491 1153v-1073l180 -27v-53z" />
    <glyph glyph-name="N" unicode="N" horiz-adv-x="1479" 
d="M975 1341h457v-53l-172 -26v-1262h-97l-827 1206v-1126l180 -27v-53h-457v53l172 27v1182l-172 26v53h406l690 -993v914l-180 26v53z" />
    <glyph glyph-name="O" unicode="O" horiz-adv-x="1479" 
d="M84 839.5q0 516.5 655 516.5q479 0 567.5 -253t88.5 -431t-45 -308.5t-130 -215.5t-206.5 -126.5t-354 -41.5t-404 171.5t-171.5 688zM293 672q0 -140 21 -253t72 -193t137 -123.5t274 -43.5t288.5 156t100.5 456t-100 452.5t-403 152.5t-346.5 -232t-43.5 -372z" />
    <glyph glyph-name="P" unicode="P" horiz-adv-x="1139" 
d="M424 526v-446l213 -27v-53h-565v53l159 27v1182l-172 26v53h506q388 0 440 -156.5t52 -238.5q0 -185 -112.5 -302.5t-369.5 -117.5h-151zM858 946q0 161 -76 233t-260 72h-98v-635h104q264 0 297 126t33 204z" />
    <glyph glyph-name="Q" unicode="Q" horiz-adv-x="1479" 
d="M1444 -295q-81 -37 -212 -37q-93 0 -168.5 54.5t-199.5 209.5l-41 52q-36 -4 -84 -4q-478 0 -566.5 256t-88.5 688t655 432q479 0 567.5 -254t88.5 -432q0 -491 -355 -637l50 -62q87 -110 150 -157t122 -47q7 0 19 0.5t34.5 1.5t28.5 2v-66zM293 670q0 -140 21 -253
t72 -192.5t137 -122.5t274 -43t288.5 155t100.5 455q0 301 -100.5 454t-403 153t-346 -233t-43.5 -373z" />
    <glyph glyph-name="R" unicode="R" horiz-adv-x="1366" 
d="M854.5 1188.5q-76.5 62.5 -259.5 62.5h-171v-573h177q182 0 256 67.5t74 223.5q0 157 -76.5 219.5zM424 588v-508l203 -27v-53h-555v53l159 27v1182l-172 26v53h579q392 0 442 -137.5t50 -217.5q0 -147 -77.5 -241t-197.5 -129l363 -536l145 -27v-53h-321l-377 588h-241z
" />
    <glyph glyph-name="S" unicode="S" horiz-adv-x="1139" 
d="M139 361h65l35 -181q61 -78 161.5 -98.5t160.5 -20.5q130 0 205.5 74.5t75.5 194.5q0 174 -143 225t-260.5 91.5t-209.5 120.5t-92 243t119.5 254.5t307.5 91.5t378 -43v-279h-65l-35 164q-102 74 -252 74q-212 0 -248.5 -81t-36.5 -135t30.5 -97t80 -73.5t113 -52.5
t181 -63.5t210 -126.5t92.5 -266q0 -180 -116.5 -288.5t-346.5 -108.5t-410 71v310z" />
    <glyph glyph-name="T" unicode="T" horiz-adv-x="1251" 
d="M315 0v53l213 27v1175h-51q-253 0 -346 -20l-27 -209h-67v315h1180v-315h-68l-27 209q-81 18 -352 18h-49v-1173l213 -27v-53h-619z" />
    <glyph glyph-name="U" unicode="U" horiz-adv-x="1479" 
d="M407 457q0 -365 355 -365q201 0 299 95t98 266v809l-180 26v53h457v-53l-172 -26v-801q0 -212 -116.5 -346.5t-391.5 -134.5q-276 0 -408.5 120.5t-132.5 341.5v820l-172 26v53h536v-53l-172 -26v-805z" />
    <glyph glyph-name="V" unicode="V" horiz-adv-x="1479" 
d="M1456 1341v-53l-147 -26l-539 -1293h-51l-545 1293l-151 26v53h542v-53l-180 -26l406 -987l405 987l-176 26v53h436z" />
    <glyph glyph-name="W" unicode="W" horiz-adv-x="1933" 
d="M2 1341h512v-53l-197 -26l319 -945l361 930h45l348 -930l304 945l-209 26v53h444v-53l-117 -26l-438 -1293h-53l-348 924l-357 -924h-53l-444 1293l-117 26v53z" />
    <glyph glyph-name="X" unicode="X" horiz-adv-x="1479" 
d="M483 0h-438v53l148 27l456 606l-389 576l-151 26v53h553v-53l-170 -26l278 -414l311 414l-166 26v53h439v-53l-148 -26l-377 -502l461 -680l152 -27v-53h-553v53l170 27l-352 520l-390 -520l166 -27v-53z" />
    <glyph glyph-name="Y" unicode="Y" horiz-adv-x="1479" 
d="M1051 0h-619v53l213 27v442l-471 740l-151 26v53h567v-53l-180 -26l385 -619l366 619l-170 26v53h436v-53l-147 -26l-442 -734v-448l213 -27v-53z" />
    <glyph glyph-name="Z" unicode="Z" horiz-adv-x="1251" 
d="M600 1255q-247 0 -340 -20l-31 -211h-69v317h913v-86l-757 -1171h290q256 0 404 33l59 256h70l-27 -373h-1014v94l752 1161h-250z" />
    <glyph glyph-name="bracketleft" unicode="[" horiz-adv-x="682" 
d="M152 -274v1695h456v-47l-297 -41v-1519l297 -41v-47h-456z" />
    <glyph glyph-name="backslash" unicode="\" horiz-adv-x="569" 
d="M0 1350h98l471 -1370h-100z" />
    <glyph glyph-name="bracketright" unicode="]" horiz-adv-x="682" 
d="M74 -274v47l297 41v1519l-297 41v47h456v-1695h-456z" />
    <glyph glyph-name="asciicircum" unicode="^" horiz-adv-x="961" 
d="M457 1341h49l428 -952h-103l-350 809l-350 -809h-102z" />
    <glyph glyph-name="underscore" unicode="_" 
d="M-16 -264v102h1056v-102h-1056z" />
    <glyph glyph-name="grave" unicode="`" horiz-adv-x="682" 
d="M119 1424h213l196 -272v-33h-55l-354 268v37z" />
    <glyph glyph-name="a" unicode="a" horiz-adv-x="909" 
d="M381 90q102 0 217 55v334l-131 -4q-125 -4 -177 -47t-52 -162q0 -176 143 -176zM764 705v-635l117 -25v-45h-258l-19 94q-114 -114 -291 -114q-241 0 -241 280q0 256 168.5 270t216.5 15l141 4v147q0 189 -145 189q-100 0 -183 -47l-34 -117h-56v205q162 35 256 35
q170 0 249 -57.5t79 -198.5z" />
    <glyph glyph-name="b" unicode="b" 
d="M508 -20q-196 0 -371 69v1303l-137 24v45h303v-336q0 -19 -0.5 -43.5t-1 -51t-2 -53t-2.5 -50.5q100 78 252 78q192 0 294.5 -116.5t102.5 -352.5q0 -374 -162.5 -445t-275.5 -71zM766 496q0 287 -101.5 325.5t-194.5 38.5t-167 -33v-745q83 -16 211 -16q252 0 252 430z
" />
    <glyph glyph-name="c" unicode="c" horiz-adv-x="909" 
d="M615 84q122 0 231 33v-60q-105 -77 -311 -77q-457 0 -457 497q0 247 121.5 367.5t328.5 120.5q135 0 295 -31v-262h-55l-43 166q-83 47 -199 47q-268 0 -268 -408q0 -195 53 -266t117.5 -99t186.5 -28z" />
    <glyph glyph-name="d" unicode="d" 
d="M514 883q-260 0 -260 -422q0 -295 100.5 -336t186.5 -41t176 39v743q-89 17 -203 17zM74 461q0 368 159.5 436t269.5 68t220 -23q-6 33 -6 166v244l-158 24v45h324v-1351l116 -25v-45h-264l-12 70q-113 -90 -264 -90q-385 0 -385 481z" />
    <glyph glyph-name="e" unicode="e" horiz-adv-x="909" 
d="M476 885q-108 0 -161 -87t-53 -245h402q0 246 -66 289t-122 43zM801 57q-118 -77 -335 -77q-81 0 -161.5 32t-152.5 122.5t-72 339.5t103 370t294 121q256 0 308.5 -146t52.5 -264v-82h-578v-18q0 -173 42 -241.5t99 -99t166 -30.5t234 29v-56z" />
    <glyph glyph-name="f" unicode="f" horiz-adv-x="682" 
d="M541 1442q75 0 141 -19v-205h-49l-45 123q-34 21 -75 21q-73 0 -97.5 -60.5t-24.5 -205.5v-156h250v-84h-250v-778l203 -33v-45h-508v45l139 33v778h-162v49l162 39v66q0 317 120.5 374.5t195.5 57.5z" />
    <glyph glyph-name="g" unicode="g" 
d="M650.5 453.5q45.5 62.5 45.5 190.5t-45.5 186.5t-152.5 58.5q-160 0 -181.5 -91.5t-21.5 -187.5t47 -157.5t155 -61.5t153.5 62.5zM456 -362q373 0 373 238q0 54 -35 86t-106 32h-364q-65 -56 -80 -113t-15 -87q0 -73 56 -114.5t171 -41.5zM121 643q0 322 390 322
q99 0 175 -25l221 111l35 -43l-139 -144q67 -75 67 -229t-97 -237t-279 -83q-82 0 -152 15l-63 -131q3 -17 39 -32t90 -15h278q152 0 225.5 -66t73.5 -182q0 -147 -122 -246.5t-403 -99.5q-280 0 -326 90t-46 130q0 69 42 120.5t126 111.5q-83 28 -109 79t-26 85l158 178
q-158 74 -158 291z" />
    <glyph glyph-name="h" unicode="h" 
d="M551 848q-94 0 -225 -29v-749l127 -25v-45h-412v45l119 25v1282l-140 24v45h306v-407q0 -14 -0.5 -34t-1.5 -53.5t-5 -62.5q112 64 197 82.5t130 18.5q105 0 171 -67t66 -210v-618l114 -25v-45h-405v45l125 25v606q0 172 -166 172z" />
    <glyph glyph-name="i" unicode="i" horiz-adv-x="569" 
d="M530 0h-487v45l160 25v800l-133 25v45h299v-870l161 -25v-45zM379 1247q0 -22 -8.5 -41.5t-23.5 -34.5t-35 -23.5t-42 -8.5t-41.5 8.5t-34.5 23.5t-23.5 34.5t-8.5 41.5t8.5 42t23.5 35t34.5 23.5t41.5 8.5t42 -8.5t35 -23.5t23.5 -35t8.5 -42z" />
    <glyph glyph-name="j" unicode="j" horiz-adv-x="569" 
d="M98 -356q119 0 119 266v960l-141 25v45h307v-979q0 -304 -115.5 -350.5t-179.5 -46.5t-147 18v199h47l27 -109q33 -28 83 -28zM361.5 1171q-31.5 -32 -65.5 -32t-53.5 8.5t-34.5 23.5t-23.5 34.5t-8.5 53t32 65.5t66 32t53 -8.5t42.5 -32t23.5 -68t-31.5 -76.5z" />
    <glyph glyph-name="k" unicode="k" 
d="M631 940h332v-45l-117 -23l-268 -274l344 -530l102 -23v-45h-385v45l86 25l-258 405l-123 -135v-270l100 -25v-45h-385v45l119 25v1282l-139 24v45h305v-968l385 415l-98 27v45z" />
    <glyph glyph-name="l" unicode="l" horiz-adv-x="569" 
d="M528 0h-487v45l160 25v1282l-160 24v45h326v-1351l161 -25v-45z" />
    <glyph glyph-name="m" unicode="m" horiz-adv-x="1593" 
d="M547 842q-88 0 -219 -29v-743l141 -25v-45h-426v45l119 25v800l-119 25v45h275l8 -76q177 101 322 101t200 -109q122 69 218 89t134 20q240 0 240 -277v-618l121 -25v-45h-427v45l140 25v600q0 83 -37.5 127.5t-118.5 44.5t-156 -15.5t-96 -19.5q17 -54 17 -119v-618
l141 -25v-45h-446v45l139 25v600q0 172 -170 172z" />
    <glyph glyph-name="n" unicode="n" 
d="M324 864q177 101 318 101q105 0 171 -67t66 -210v-618l114 -25v-45h-405v45l125 25v600q0 178 -166 178q-90 0 -221 -29v-749l127 -25v-45h-406v45l113 25v800l-113 25v45h268z" />
    <glyph glyph-name="o" unicode="o" 
d="M766 474q0 206 -59.5 308.5t-200.5 102.5t-194.5 -100.5t-53.5 -310.5q0 -209 54 -312t194 -103q206 0 233 158.5t27 256.5zM946 475q0 -495 -440 -495q-212 0 -320 127t-108 367q0 492 436 491q214 0 323 -123.5t109 -366.5z" />
    <glyph glyph-name="p" unicode="p" 
d="M512 59q252 0 252 422q0 379 -252 379q-117 0 -195 -33v-751q89 -17 195 -17zM311 885q93 80 281 80q63 0 207.5 -64t144.5 -423t-156.5 -428.5t-265.5 -69.5t-211 22q6 -72 6 -113v-254l164 -24v-47h-448v47l119 24v1235l-107 25v45h264z" />
    <glyph glyph-name="q" unicode="q" 
d="M514 883q-260 0 -260 -416q0 -295 99 -339t194 -44t170 33v749q-89 17 -203 17zM502 965q110 0 221 -23l90 43h70v-1350l104 -24v-47h-399v47l129 24v261q0 97 10 167q-107 -83 -268 -83q-385 0 -385 487q0 362 159 430t269 68z" />
    <glyph glyph-name="r" unicode="r" horiz-adv-x="682" 
d="M664 965v-254h-43l-58 110q-129 0 -237 -49v-702l161 -25v-45h-446v45l119 25v800l-119 25v45h274l9 -117q97 80 193 111t132 31h15z" />
    <glyph glyph-name="s" unicode="s" horiz-adv-x="797" 
d="M396 -20q-188 0 -310 47v231h45l49 -131q75 -68 195 -68q194 0 194 166q0 122 -98.5 155t-179 59.5t-144 82.5t-63.5 179t86 193.5t244 70.5q86 0 241 -31v-205h-47l-42 109q-53 47 -151 47q-182 0 -182 -148q0 -80 55.5 -113t99.5 -48t125 -43t145.5 -88t64.5 -181
q0 -205 -128.5 -244.5t-198.5 -39.5z" />
    <glyph glyph-name="t" unicode="t" horiz-adv-x="569" 
d="M421 84q53 0 136 16v-65q-82 -55 -223 -55q-96 0 -143.5 57t-47.5 160v659h-123v45l125 39l101 213h63v-213h215v-84h-215v-641q0 -65 29.5 -98t82.5 -33z" />
    <glyph glyph-name="u" unicode="u" 
d="M387 -20q-240 0 -240 276v614l-120 25v45h286v-672q0 -83 37.5 -127.5t141.5 -44.5t213 31v743l-142 25v45h307v-870l119 -25v-45h-274l-8 76q-109 -60 -196.5 -78t-123.5 -18z" />
    <glyph glyph-name="v" unicode="v" 
d="M0 940h438v-45l-149 -27l274 -649l262 651l-149 25v45h348v-45l-90 -21l-377 -894h-74l-387 890l-96 25v45z" />
    <glyph glyph-name="w" unicode="w" horiz-adv-x="1479" 
d="M2 940h447v-45l-156 -27l223 -635l227 613h84l226 -617l213 641l-154 25v45h358v-45l-104 -21l-315 -894h-78l-232 620l-229 -620h-74l-325 890l-111 25v45z" />
    <glyph glyph-name="x" unicode="x" 
d="M999 0h-426v45l125 23l-217 333l-254 -335l129 -21v-45h-338v45l109 16l309 408l-272 401l-111 25v45h426v-45l-125 -27l181 -270l208 272l-129 25v45h338v-45l-108 -21l-264 -342l309 -466l110 -21v-45z" />
    <glyph glyph-name="y" unicode="y" 
d="M194 -442q-74 0 -149 18v203h47l33 -96q31 -23 80 -23q87 0 143 66t105 192l26 72l-358 880l-96 25v45h436v-45l-148 -27l254 -657l246 659l-147 25v45h350v-45l-98 -21l-367 -933q-77 -194 -128 -259t-103 -94.5t-126 -29.5z" />
    <glyph glyph-name="z" unicode="z" horiz-adv-x="909" 
d="M55 0v45l516 815h-221q-136 0 -180 -35l-31 -135h-47v250h694v-49l-516 -811h275q90 0 142 18t67 29l51 197h47l-25 -324h-772z" />
    <glyph glyph-name="braceleft" unicode="{" horiz-adv-x="983" 
d="M401 834v294q0 141 65 217t196 76h135v-47h-62q-91 0 -129.5 -54.5t-38.5 -160.5v-330q0 -97 -53 -164.5t-139 -86.5v-3q135 -31 163.5 -116.5t28.5 -136.5v-334q0 -106 38.5 -160.5t129.5 -54.5h62v-47h-135q-192 0 -226.5 113t-34.5 181v295q0 179 -82 207.5t-133 30.5
v45q215 4 215 236z" />
    <glyph glyph-name="bar" unicode="|" horiz-adv-x="410" 
d="M154 -442v1863h102v-1863h-102z" />
    <glyph glyph-name="braceright" unicode="}" horiz-adv-x="983" 
d="M582 315v-295q0 -212 -98 -253t-162 -41h-136v47h62q91 0 129.5 54.5t38.5 160.5v334q0 151 74.5 197t117.5 56v3q-133 29 -162.5 115t-29.5 136v330q0 106 -38.5 160.5t-129.5 54.5h-62v47h136q130 0 195 -76t65 -217v-294q0 -232 215 -236v-45q-215 -8 -215 -238z" />
    <glyph glyph-name="asciitilde" unicode="~" horiz-adv-x="1108" 
d="M795 502q-61 0 -103 18t-81.5 44.5t-76 58t-95.5 76t-106 44.5q-86 0 -124 -57t-51 -184h-101q15 153 53 218t87 95.5t113 30.5t107 -18t82.5 -45t76.5 -58t94.5 -76t103.5 -45q82 0 118.5 58t53.5 184h103q-20 -155 -58 -218.5t-86.5 -94.5t-109.5 -31z" />
    <glyph glyph-name="exclamdown" unicode="&#xa1;" horiz-adv-x="682" 
d="M449 -410h-218l62 953h94zM253.5 925q34.5 36 73.5 36q65 0 99.5 -36t34.5 -73q0 -63 -35.5 -98t-73.5 -35t-60 9.5t-47.5 35t-25.5 75.5t34.5 86z" />
    <glyph glyph-name="cent" unicode="&#xa2;" 
d="M307 684q0 -250 80.5 -309.5t148.5 -73.5v789q-229 -29 -229 -406zM618 0h-82v186q-409 26 -409 498q0 232 110 353.5t299 131.5v172h82v-170q135 -6 254 -30v-262h-55l-43 165q-66 36 -156 46v-799h23q146 0 254 33v-60q-80 -63 -277 -78v-186z" />
    <glyph glyph-name="sterling" unicode="&#xa3;" 
d="M271 154h690v-154h-838v117q34 31 124.5 109.5t90.5 189.5q0 78 -55 213h-162v82h127q-67 156 -67 309q0 154 104.5 245t312.5 91q111 0 293 -43v-258h-65l-35 164q-93 53 -193 53q-229 0 -229 -266q0 -137 29 -295h278v-82h-262q16 -109 16 -190q0 -149 -159 -285z" />
    <glyph glyph-name="currency" unicode="&#xa4;" 
d="M305.5 469.5q86.5 -86.5 206.5 -86.5t207.5 86t87.5 207t-87 208t-208 87t-207 -87.5t-86 -207.5t86.5 -206.5zM123 676.5q0 133.5 80 236.5l-107 107l74 74l104 -109q108 82 238 82t238 -82l108 109l72 -72l-109 -109q82 -110 82 -239t-82 -236l109 -106l-72 -72
l-108 107q-103 -80 -237 -80t-239 80l-106 -107l-72 72l107 106q-80 105 -80 238.5z" />
    <glyph glyph-name="yen" unicode="&#xa5;" 
d="M885 393v-82h-279v-231l172 -27v-53h-536v53l172 27v231h-279v82h279v129l-15 35h-264v82h230l-263 623l-100 26v53h453v-53l-131 -26l239 -619l246 619l-123 26v53h336v-53l-104 -26l-265 -623h232v-82h-267l-12 -29v-135h279z" />
    <glyph glyph-name="brokenbar" unicode="&#xa6;" horiz-adv-x="410" 
d="M154 -442v622h102v-622h-102zM154 801v620h102v-620h-102z" />
    <glyph glyph-name="section" unicode="&#xa7;" 
d="M719 579q0 72 -54 116.5t-159 92.5q-131 -7 -163 -70t-32 -104q0 -76 49 -117.5t162 -103.5q136 17 166.5 81t30.5 105zM529 1389q92 0 235 -25v-211h-47l-33 109q-56 47 -157 47q-185 0 -185 -148q0 -111 107.5 -162t195.5 -91.5t157.5 -107t69.5 -176.5t-70 -183.5
t-188 -98.5q110 -63 169 -133.5t59 -179.5q0 -203 -134 -244t-204 -41q-110 0 -200.5 18t-119.5 29v232h45l39 -132q47 -44 114.5 -55.5t107.5 -11.5q89 0 143.5 41.5t54.5 124.5q0 121 -107 179.5t-196 106.5t-156 118t-67 188q0 148 93.5 197t143.5 59q-206 106 -206 284
q0 126 86 196.5t250 70.5z" />
    <glyph glyph-name="dieresis" unicode="&#xa8;" horiz-adv-x="682" 
d="M262 1194q0 -42 -28 -71.5t-60 -29.5t-49.5 8t-31.5 22t-22 32t-8 49.5t30.5 60.5t71.5 29t69 -29t28 -71zM618 1194q0 -42 -28 -71.5t-60 -29.5q-52 0 -81 30.5t-29 71.5t29 70t71 29t70 -29t28 -71z" />
    <glyph glyph-name="copyright" unicode="&#xa9;" horiz-adv-x="1556" 
d="M526 666q0 -349 269 -349q141 0 215 60l22 119h49l-4 -199q-124 -39 -253 -39q-128 0 -205.5 28t-158.5 107.5t-81 270.5q0 317 159 369t267 52t260 -30l4 -187h-49l-19 105q-82 51 -174 51t-196.5 -35t-104.5 -323zM158 670q0 -129 48.5 -242t132.5 -197.5t197 -133
t307 -48.5t376 182t182 438t-181.5 439.5t-441.5 183.5q-129 0 -242 -49t-197 -133t-132.5 -197.5t-48.5 -242.5zM88 646q0 120 24.5 208.5t69.5 165.5t107.5 140t139.5 108t165 69.5t184 24.5t184.5 -24.5t165.5 -69.5t140 -108t108 -140t69.5 -165.5t24.5 -184.5
t-24.5 -184t-92.5 -204t-227 -209t-325 -93q-167 0 -292.5 54t-219 147.5t-147.5 219t-54 245.5z" />
    <glyph glyph-name="ordfeminine" unicode="&#xaa;" horiz-adv-x="565" 
d="M249 850q51 0 122 39v174l-78 -2q-76 -2 -106.5 -23t-30.5 -84q0 -62 21 -83t72 -21zM281 1362q211 0 211 -172v-352l69 -15v-37h-174l-12 62q-74 -74 -191 -74q-149 0 -149 168q0 100 70 134.5t182 37.5l84 2v80q0 111 -97 111q-62 0 -110 -29l-21 -59h-43v122
q82 21 181 21z" />
    <glyph glyph-name="guillemotleft" unicode="&#xab;" 
d="M526 496l335 356h81l-228 -389l228 -389h-81l-335 356v66zM117 496l334 356h81l-227 -389l227 -389h-81l-334 356v66z" />
    <glyph glyph-name="logicalnot" unicode="&#xac;" horiz-adv-x="1155" 
d="M1055 731v-528h-103v426h-850v102h953z" />
    <glyph glyph-name="registered" unicode="&#xae;" horiz-adv-x="1556" 
d="M932 859q0 91 -45 126t-156 35h-63v-332h67q159 0 178 62t19 109zM1073 860q0 -160 -178 -217l213 -307l84 -17v-43h-205l-229 349h-90v-289l114 -17v-43h-346v43l96 17v688l-104 16v41h330q239 0 277 -86t38 -135zM158 670q0 -129 48.5 -242t132.5 -197.5t197 -133
t307 -48.5t376 182t182 438t-181.5 439.5t-441.5 183.5q-129 0 -242 -49t-197 -133t-132.5 -197.5t-48.5 -242.5zM88 646q0 120 24.5 208.5t69.5 165.5t107.5 140t139.5 108t165 69.5t184 24.5t184.5 -24.5t165.5 -69.5t140 -108t108 -140t69.5 -165.5t24.5 -184.5
t-24.5 -184t-92.5 -204t-227 -209t-325 -93q-167 0 -292.5 54t-219 147.5t-147.5 219t-54 245.5z" />
    <glyph glyph-name="macron" unicode="&#xaf;" 
d="M1042 1452h-1059v94h1059v-94z" />
    <glyph glyph-name="degree" unicode="&#xb0;" horiz-adv-x="819" 
d="M200 1051q0 -44 16 -82t44.5 -66.5t66 -45t81.5 -16.5t82.5 16.5t66.5 45t44 66.5t16 82t-16 82.5t-44 67t-66.5 45t-82.5 16.5t-81.5 -16.5t-66 -45t-44.5 -67t-16 -82.5zM188.5 1271.5q90.5 90.5 219.5 90.5t220 -91t91 -220t-90.5 -219.5t-220.5 -90.5t-220 90
t-90 220t90.5 220.5z" />
    <glyph glyph-name="plusminus" unicode="&#xb1;" horiz-adv-x="1124" 
d="M1038 102v-102h-953v102h953zM612 629v-426h-103v426h-424v102h424v426h103v-426h426v-102h-426z" />
    <glyph glyph-name="uni00B2" unicode="&#xb2;" horiz-adv-x="614" 
d="M276 1350q134 0 204.5 -55t70.5 -143t-24 -144t-71.5 -109.5t-116.5 -113.5t-159 -142h387v-108h-499v96q61 56 109.5 100t107 102.5t91 128t32.5 177.5q0 143 -132 143q-61 0 -114 -33l-21 -98h-55v172q110 27 190 27z" />
    <glyph glyph-name="uni00B3" unicode="&#xb3;" horiz-adv-x="614" 
d="M575 754q0 -108 -86 -170t-208 -62t-232 27l-6 186h55l27 -112q56 -33 121 -33q115 0 150.5 41t35.5 109q0 108 -41.5 141t-120.5 37l-86 6v65l86 4q125 7 125 131q0 97 -30 127.5t-101 30.5q-72 0 -121 -29l-20 -102h-55v172q111 27 181 27q136 0 213 -50.5t77 -136.5
q0 -87 -49 -140t-140 -67q225 -25 225 -202z" />
    <glyph glyph-name="acute" unicode="&#xb4;" horiz-adv-x="682" 
d="M156 1119v33l196 272h213v-37l-354 -268h-55z" />
    <glyph glyph-name="uni00B5" unicode="&#xb5;" horiz-adv-x="1180" 
d="M669 940h307v-870l137 -25v-45h-278l-19 121q-107 -97 -166.5 -119t-103.5 -22q-119 0 -180 78q0 -288 -34 -494h-178v45q29 93 40.5 234.5t11.5 225.5v801l-140 25v45h306v-652q0 -88 56 -140t159 -52t224 87v687l-142 25v45z" />
    <glyph glyph-name="paragraph" unicode="&#xb6;" horiz-adv-x="928" 
d="M811 -258h-94v1524h-170v-1524h-94l2 823q-308 0 -377.5 147t-69.5 244q0 188 110.5 286.5t323.5 98.5h463v-53l-94 -22v-1524z" />
    <glyph glyph-name="uni2219" unicode="&#xb7;" horiz-adv-x="512" 
d="M341.5 592q-35.5 -35 -73.5 -35q-64 0 -98.5 35t-34.5 73q0 62 34.5 98t73.5 36q38 0 60.5 -9.5t48 -36t25.5 -76.5t-35.5 -85z" />
    <glyph glyph-name="uni2219" unicode="&#x2219;" horiz-adv-x="512" 
d="M341.5 592q-35.5 -35 -73.5 -35q-64 0 -98.5 35t-34.5 73q0 62 34.5 98t73.5 36q38 0 60.5 -9.5t48 -36t25.5 -76.5t-35.5 -85z" />
    <glyph glyph-name="cedilla" unicode="&#xb8;" horiz-adv-x="682" 
d="M377 -258q0 111 -152 123l41 153h86l-18 -82q91 -9 142.5 -52.5t51.5 -103.5q0 -105 -69 -160.5t-162 -55.5q-92 0 -154 22v74q48 -16 114 -16t93 30t27 68z" />
    <glyph glyph-name="uni00B9" unicode="&#xb9;" horiz-adv-x="614" 
d="M541 535h-475v49l165 14v625l-161 -58v47l233 134h72v-748l166 -14v-49z" />
    <glyph glyph-name="ordmasculine" unicode="&#xba;" horiz-adv-x="635" 
d="M434.5 1248q-34.5 57 -121.5 57q-121 0 -134 -89.5t-13 -147.5q0 -126 32.5 -182.5t114.5 -56.5q126 0 141 90.5t15 181.5q0 90 -34.5 147zM598 1069q0 -145 -74 -222t-211 -77q-199 0 -237.5 113t-38.5 186q0 144 74.5 218.5t207.5 74.5q199 0 239 -110.5t40 -182.5z
" />
    <glyph glyph-name="guillemotright" unicode="&#xbb;" 
d="M498 430l-335 -356h-81l228 389l-228 389h81l335 -356v-66zM907 430l-334 -356h-81l227 389l-227 389h81l334 -356v-66z" />
    <glyph glyph-name="onequarter" unicode="&#xbc;" horiz-adv-x="1536" 
d="M336 0h-102l964 1341h100zM541 535h-475v49l165 14v625l-161 -58v47l233 134h72v-748l166 -14v-49zM1156 652h-2l-277 -389h279v389zM1293 160v-159h-137v159h-361v97l391 550h107v-544h101v-103h-101z" />
    <glyph glyph-name="onehalf" unicode="&#xbd;" horiz-adv-x="1536" 
d="M336 0h-102l964 1341h100zM541 535h-475v49l165 14v625l-161 -58v47l233 134h72v-748l166 -14v-49zM1167 816q135 0 205 -56t70 -142q0 -88 -24 -144t-72 -110t-116 -113q-69 -60 -159 -142h387v-108h-499v96q61 56 109 100t87 82q79 79 111 149q33 70 33 177
q0 143 -132 143q-61 0 -114 -33l-21 -98h-55v172q110 27 190 27z" />
    <glyph glyph-name="threequarters" unicode="&#xbe;" horiz-adv-x="1536" 
d="M336 0h-102l964 1341h100zM606 754q0 -108 -86 -170t-208 -62t-232 27l-6 186h55l27 -112q56 -33 121 -33q115 0 151 41t35 109q0 108 -41 141t-121 37l-86 6v65l86 4q125 7 125 131q0 97 -30 127q-30 31 -101 31q-72 0 -121 -29l-20 -102h-55v172q111 27 181 27
q136 0 213 -50t77 -137t-49 -140t-140 -67q225 -25 225 -202zM1127 652h-2l-277 -389h279v389zM1264 160v-159h-137v159h-361v97l391 550h107v-544h101v-103h-101z" />
    <glyph glyph-name="questiondown" unicode="&#xbf;" horiz-adv-x="909" 
d="M413.5 925q34.5 36 73.5 36q63 0 98.5 -35.5t35.5 -73.5q0 -64 -36 -98.5t-73 -34.5q-38 0 -60 9.5t-47.5 35t-25.5 75.5t34.5 86zM84 -84q0 232 114 303.5t201 89.5l58 13l12 260h80l26 -334l-143 -29q-164 -32 -164 -291q0 -147 54 -207.5t176 -60.5t204 49l35 164h66
v-254q-148 -43 -295 -43q-424 0 -424 340z" />
    <glyph glyph-name="Agrave" unicode="&#xc0;" horiz-adv-x="1479" 
d="M676 1208l-230 -651h467zM461 0h-441v53l152 27l457 1272h190l475 -1272l170 -27v-53h-567v53l180 27l-133 387h-528l-135 -387l180 -27v-53zM443 1758h213l196 -272v-33h-55l-354 268v37z" />
    <glyph glyph-name="Aacute" unicode="&#xc1;" horiz-adv-x="1479" 
d="M676 1208l-230 -651h467zM461 0h-441v53l152 27l457 1272h190l475 -1272l170 -27v-53h-567v53l180 27l-133 387h-528l-135 -387l180 -27v-53zM611 1453v33l196 272h213v-37l-354 -268h-55z" />
    <glyph glyph-name="Acircumflex" unicode="&#xc2;" horiz-adv-x="1479" 
d="M676 1208l-230 -651h467zM461 0h-441v53l152 27l457 1272h190l475 -1272l170 -27v-53h-567v53l180 27l-133 387h-528l-135 -387l180 -27v-53zM395 1453v33l218 273h213l217 -273v-33h-56l-268 183l-268 -183h-56z" />
    <glyph glyph-name="Atilde" unicode="&#xc3;" horiz-adv-x="1479" 
d="M676 1208l-230 -651h467zM461 0h-441v53l152 27l457 1272h190l475 -1272l170 -27v-53h-567v53l180 27l-133 387h-528l-135 -387l180 -27v-53zM472 1560q-19 -31 -27 -88h-52q15 242 195 242q70 0 166 -70q36 -26 70 -48t64 -21q54 0 74 32t27 86h52q-15 -241 -195 -241
q-71 0 -165 70q-35 26 -69 48t-78 21q-43 0 -62 -31z" />
    <glyph glyph-name="Adieresis" unicode="&#xc4;" horiz-adv-x="1479" 
d="M676 1208l-230 -651h467zM461 0h-441v53l152 27l457 1272h190l475 -1272l170 -27v-53h-567v53l180 27l-133 387h-528l-135 -387l180 -27v-53zM647 1559q0 -41 -28 -71q-27 -30 -59 -30t-50 8t-32 22t-22 32t-8 39q0 42 30 71t72 29q41 0 69 -29t28 -71zM1003 1559
q0 -41 -28 -71q-27 -30 -59 -30q-52 0 -82 30q-29 30 -29 72q0 41 29 70t71 29t70 -29t28 -71z" />
    <glyph glyph-name="Aring" unicode="&#xc5;" horiz-adv-x="1479" 
d="M676 1208l-230 -651h467zM1464 0h-567v53l180 27l-133 387h-528l-135 -387l180 -27v-53h-441v53l152 27l440 1225q-93 60 -93 171q-1 84 59 144t144 59q84 1 144 -59t59 -156q0 -96 -89 -156l458 -1228l170 -27v-53zM809 1563q-37 36 -75 36q-38 1 -60 -9t-39 -27
t-27 -39t-9 -48q0 -52 37 -87q37 -36 74 -36q38 0 60 10q22 11 39 27q36 35 36 86t-36 87z" />
    <glyph glyph-name="AE" unicode="&#xc6;" horiz-adv-x="1821" 
d="M883 557v674l-363 -674h363zM883 467h-412l-207 -387l158 -27v-53h-402v53l136 27l647 1190l-164 18v53h995v-321h-65l-33 217q-112 14 -324 14h-137v-524h281l30 160h64v-412h-64l-30 162h-281v-547h182q258 0 338 16l58 248h65l-18 -354h-969v53l152 27v387z" />
    <glyph glyph-name="Ccedilla" unicode="&#xc7;" horiz-adv-x="1366" 
d="M806 -258q0 111 -152 123l32 119q-266 22 -422 175q-180 177 -180 496q0 529 399 659q129 42 299 42t284 -20t161 -31l6 -293h-66l-30 174q-147 90 -351 90q-244 0 -369 -143q-124 -143 -124 -476q-1 -447 279 -563q90 -37 178 -37q270 0 401 101l37 200h65l-6 -315
q-220 -63 -473 -63h-1l-10 -44q91 -9 143 -53q52 -43 51 -103q0 -104 -69 -160t-162 -56q-92 0 -154 22v74q48 -16 114 -16t93 30t27 68z" />
    <glyph glyph-name="Egrave" unicode="&#xc8;" horiz-adv-x="1251" 
d="M59 1341h1006v-321h-66l-32 217q-112 14 -324 14h-219v-524h362l31 160h64v-412h-64l-31 162h-362v-547h264q258 0 338 16l57 248h66l-19 -354h-1071v53l172 27v1182l-172 26v53zM404 1758h213l196 -272v-33h-55l-354 268v37z" />
    <glyph glyph-name="Eacute" unicode="&#xc9;" horiz-adv-x="1251" 
d="M59 1341h1006v-321h-66l-32 217q-112 14 -324 14h-219v-524h362l31 160h64v-412h-64l-31 162h-362v-547h264q258 0 338 16l57 248h66l-19 -354h-1071v53l172 27v1182l-172 26v53zM470 1453v33l196 272h213v-37l-354 -268h-55z" />
    <glyph glyph-name="Ecircumflex" unicode="&#xca;" horiz-adv-x="1251" 
d="M59 1341h1006v-321h-66l-32 217q-112 14 -324 14h-219v-524h362l31 160h64v-412h-64l-31 162h-362v-547h264q258 0 338 16l57 248h66l-19 -354h-1071v53l172 27v1182l-172 26v53zM303 1453v33l218 273h213l217 -273v-33h-56l-268 183l-268 -183h-56z" />
    <glyph glyph-name="Edieresis" unicode="&#xcb;" horiz-adv-x="1251" 
d="M59 1341h1006v-321h-66l-32 217q-112 14 -324 14h-219v-524h362l31 160h64v-412h-64l-31 162h-362v-547h264q258 0 338 16l57 248h66l-19 -354h-1071v53l172 27v1182l-172 26v53zM557 1559q0 -41 -28 -71q-27 -30 -59 -30t-50 8t-32 22t-22 32t-8 39q0 42 30 71t72 29
q41 0 69 -29t28 -71zM913 1559q0 -41 -28 -71q-27 -30 -59 -30q-52 0 -82 30q-29 30 -29 72q0 41 29 70t71 29t70 -29t28 -71z" />
    <glyph glyph-name="Igrave" unicode="&#xcc;" horiz-adv-x="682" 
d="M610 0h-536v53l172 27v1182l-172 26v53h536v-53l-172 -26v-1182l172 -27v-53zM54 1758h213l196 -272v-33h-55l-354 268v37z" />
    <glyph glyph-name="Iacute" unicode="&#xcd;" horiz-adv-x="682" 
d="M610 0h-536v53l172 27v1182l-172 26v53h536v-53l-172 -26v-1182l172 -27v-53zM209 1453v33l196 272h213v-37l-354 -268h-55z" />
    <glyph glyph-name="Icircumflex" unicode="&#xce;" horiz-adv-x="682" 
d="M610 0h-536v53l172 27v1182l-172 26v53h536v-53l-172 -26v-1182l172 -27v-53zM18 1453v33l218 273h213l217 -273v-33h-56l-268 183l-268 -183h-56z" />
    <glyph glyph-name="Idieresis" unicode="&#xcf;" horiz-adv-x="682" 
d="M610 0h-536v53l172 27v1182l-172 26v53h536v-53l-172 -26v-1182l172 -27v-53zM262 1559q0 -41 -28 -71t-60 -30t-49 8q-18 8 -32 22t-22 32t-8 39q0 42 30 71t72 29q41 0 69 -29t28 -71zM618 1559q0 -41 -28 -71t-60 -30q-52 0 -81 30t-29 72q0 41 29 70t71 29t70 -29
t28 -71z" />
    <glyph glyph-name="Eth" unicode="&#xd0;" horiz-adv-x="1479" 
d="M690 86q146 0 236.5 36t176 143t85.5 405q0 450 -231.5 515.5t-370.5 65.5h-162v-540h377v-82h-377v-535q120 -8 266 -8zM59 0v53l172 27v549h-178v82h178v551l-172 26v53h572q543 0 654.5 -239.5t111.5 -413.5q0 -347 -161 -519.5t-503 -172.5l-502 4h-172z" />
    <glyph glyph-name="Ntilde" unicode="&#xd1;" horiz-adv-x="1479" 
d="M975 1341h457v-53l-172 -26v-1262h-97l-827 1206v-1126l180 -27v-53h-457v53l172 27v1182l-172 26v53h406l690 -993v914l-180 26v53zM505 1560q-19 -31 -27 -88h-52q15 242 195 242q69 0 165 -70q36 -26 70 -48t65 -21q54 0 74 32t27 86h52q-15 -241 -195 -241
q-71 0 -165 70q-36 26 -70 48t-77 21q-43 0 -62 -31z" />
    <glyph glyph-name="Ograve" unicode="&#xd2;" horiz-adv-x="1479" 
d="M84 672q0 684 655 684q479 0 611 -377q45 -129 45 -307t-45 -308t-130 -216q-84 -84 -206 -126t-275 -42q-311 0 -483 172t-172 520zM293 672q0 -140 21 -253t72 -193t137 -124t216 -43q245 0 353 167q94 145 94 445q0 301 -94 443q-107 162 -353 162q-359 0 -425 -353
q-21 -111 -21 -251zM486 1758h213l196 -272v-33h-55l-354 268v37z" />
    <glyph glyph-name="Oacute" unicode="&#xd3;" horiz-adv-x="1479" 
d="M84 672q0 684 655 684q479 0 611 -377q45 -129 45 -307t-45 -308t-130 -216q-84 -84 -206 -126t-275 -42q-311 0 -483 172t-172 520zM293 672q0 -140 21 -253t72 -193t137 -124t216 -43q245 0 353 167q94 145 94 445q0 301 -94 443q-107 162 -353 162q-359 0 -425 -353
q-21 -111 -21 -251zM627 1453v33l196 272h213v-37l-354 -268h-55z" />
    <glyph glyph-name="Ocircumflex" unicode="&#xd4;" horiz-adv-x="1479" 
d="M84 672q0 684 655 684q479 0 611 -377q45 -129 45 -307t-45 -308t-130 -216q-84 -84 -206 -126t-275 -42q-311 0 -483 172t-172 520zM293 672q0 -140 21 -253t72 -193t137 -124t216 -43q245 0 353 167q94 145 94 445q0 301 -94 443q-107 162 -353 162q-359 0 -425 -353
q-21 -111 -21 -251zM417 1453v33l218 273h213l217 -273v-33h-56l-268 183l-268 -183h-56z" />
    <glyph glyph-name="Otilde" unicode="&#xd5;" horiz-adv-x="1479" 
d="M84 672q0 684 655 684q479 0 611 -377q45 -129 45 -307t-45 -308t-130 -216q-84 -84 -206 -126t-275 -42q-311 0 -483 172t-172 520zM293 672q0 -140 21 -253t72 -193t137 -124t216 -43q245 0 353 167q94 145 94 445q0 301 -94 443q-107 162 -353 162q-359 0 -425 -353
q-21 -111 -21 -251zM493 1560q-19 -31 -27 -88h-52q15 242 195 242q69 0 165 -70q36 -26 70 -48t65 -21q54 0 74 32t27 86h52q-15 -241 -195 -241q-71 0 -165 70q-36 26 -70 48t-77 21q-43 0 -62 -31z" />
    <glyph glyph-name="Odieresis" unicode="&#xd6;" horiz-adv-x="1479" 
d="M84 672q0 684 655 684q479 0 611 -377q45 -129 45 -307t-45 -308t-130 -216q-84 -84 -206 -126t-275 -42q-311 0 -483 172t-172 520zM293 672q0 -140 21 -253t72 -193t137 -124t216 -43q245 0 353 167q94 145 94 445q0 301 -94 443q-107 162 -353 162q-359 0 -425 -353
q-21 -111 -21 -251zM657 1559q0 -41 -28 -71q-27 -30 -59 -30t-50 8t-32 22t-22 32t-8 39q0 42 30 71t72 29q41 0 69 -29t28 -71zM1013 1559q0 -41 -28 -71q-27 -30 -59 -30q-52 0 -82 30q-29 30 -29 72q0 41 29 70t71 29t70 -29t28 -71z" />
    <glyph glyph-name="multiply" unicode="&#xd7;" horiz-adv-x="1155" 
d="M578 608l-345 -344l-71 72l344 346l-344 342l74 74l342 -344l346 344l71 -72l-344 -344l344 -346l-71 -72z" />
    <glyph glyph-name="Oslash" unicode="&#xd8;" horiz-adv-x="1479" 
d="M1186 660q0 255 -64 399l-712 -866q106 -134 329 -134q359 0 403 236.5t44 364.5zM739 1276q-359 0 -402.5 -232.5t-43.5 -362.5q0 -262 65 -407l715 865q-108 137 -334 137zM84 841q0 515 655 515q259 0 418 -113l123 148h115l-170 -205q170 -178 170 -514
q0 -520 -251.5 -606t-404.5 -86q-259 0 -413 110l-121 -145h-119l170 205q-172 176 -172 691z" />
    <glyph glyph-name="Ugrave" unicode="&#xd9;" horiz-adv-x="1479" 
d="M407 457q0 -365 355 -365q201 0 299 95t98 266v809l-180 26v53h457v-53l-172 -26v-801q0 -212 -104 -332q-129 -149 -404 -149q-276 0 -408 120t-133 342v820l-172 26v53h536v-53l-172 -26v-805zM490 1758h213l196 -272v-33h-55l-354 268v37z" />
    <glyph glyph-name="Uacute" unicode="&#xda;" horiz-adv-x="1479" 
d="M407 457q0 -365 355 -365q201 0 299 95t98 266v809l-180 26v53h457v-53l-172 -26v-801q0 -212 -104 -332q-129 -149 -404 -149q-276 0 -408 120t-133 342v820l-172 26v53h536v-53l-172 -26v-805zM652 1453v33l196 272h213v-37l-354 -268h-55z" />
    <glyph glyph-name="Ucircumflex" unicode="&#xdb;" horiz-adv-x="1479" 
d="M407 457q0 -365 355 -365q201 0 299 95t98 266v809l-180 26v53h457v-53l-172 -26v-801q0 -212 -104 -332q-129 -149 -404 -149q-276 0 -408 120t-133 342v820l-172 26v53h536v-53l-172 -26v-805zM444 1453v33l218 273h213l217 -273v-33h-56l-268 183l-268 -183h-56z" />
    <glyph glyph-name="Udieresis" unicode="&#xdc;" horiz-adv-x="1479" 
d="M407 457q0 -365 355 -365q201 0 299 95t98 266v809l-180 26v53h457v-53l-172 -26v-801q0 -212 -104 -332q-129 -149 -404 -149q-276 0 -408 120t-133 342v820l-172 26v53h536v-53l-172 -26v-805zM661 1559q0 -41 -28 -71q-27 -30 -59 -30t-50 8t-32 22t-22 32t-8 39
q0 42 30 71t72 29q41 0 69 -29t28 -71zM1017 1559q0 -41 -28 -71q-27 -30 -59 -30q-52 0 -82 30q-29 30 -29 72q0 41 29 70t71 29t70 -29t28 -71z" />
    <glyph glyph-name="Yacute" unicode="&#xdd;" horiz-adv-x="1479" 
d="M1051 0h-619v53l213 27v442l-471 740l-151 26v53h567v-53l-180 -26l385 -619l366 619l-170 26v53h436v-53l-147 -26l-442 -734v-448l213 -27v-53zM641 1453v33l196 272h213v-37l-354 -268h-55z" />
    <glyph glyph-name="Thorn" unicode="&#xde;" horiz-adv-x="1139" 
d="M565 1083q388 0 440 -156.5t52 -238.5q0 -185 -112.5 -302.5t-369.5 -117.5h-151v-188l172 -27v-53h-524v53l159 27v1182l-159 26v53h524v-53l-172 -26v-179h141zM858 688q0 163 -76.5 240.5t-259.5 77.5h-98v-660h104q263 0 296.5 132t33.5 210z" />
    <glyph glyph-name="germandbls" unicode="&#xdf;" 
d="M160 1061q0 381 364 381q176 0 264.5 -102t88.5 -343q-133 -15 -199 -46t-66 -134t63 -159t107 -87t107 -99t63 -216q0 -276 -301 -276q-156 0 -233 47v192h45l33 -94q54 -66 153 -66q150 0 150 166q0 114 -62 172t-168 130.5t-106 256.5q0 221 250 263
q0 254 -71.5 284.5t-121.5 30.5q-194 0 -194 -252v-1110h-306v45l140 25v991z" />
    <glyph glyph-name="agrave" unicode="&#xe0;" horiz-adv-x="909" 
d="M381 90q102 0 217 55v334l-131 -4q-125 -4 -177 -47t-52 -162q0 -176 143 -176zM764 705v-635l117 -25v-45h-258l-19 94q-114 -114 -291 -114q-241 0 -241 280q0 256 290 280q48 4 95 5l141 4v147q0 189 -145 189q-100 0 -183 -47l-34 -117h-56v205q162 35 256 35
q170 0 249 -57q79 -58 79 -199zM190 1424h213l196 -272v-33h-55l-354 268v37z" />
    <glyph glyph-name="aacute" unicode="&#xe1;" horiz-adv-x="909" 
d="M381 90q102 0 217 55v334l-131 -4q-125 -4 -177 -47t-52 -162q0 -176 143 -176zM764 705v-635l117 -25v-45h-258l-19 94q-114 -114 -291 -114q-241 0 -241 280q0 256 290 280q48 4 95 5l141 4v147q0 189 -145 189q-100 0 -183 -47l-34 -117h-56v205q162 35 256 35
q170 0 249 -57q79 -58 79 -199zM342 1119v33l196 272h213v-37l-354 -268h-55z" />
    <glyph glyph-name="acircumflex" unicode="&#xe2;" horiz-adv-x="909" 
d="M381 90q102 0 217 55v334l-131 -4q-125 -4 -177 -47t-52 -162q0 -176 143 -176zM764 705v-635l117 -25v-45h-258l-19 94q-114 -114 -291 -114q-241 0 -241 280q0 256 290 280q48 4 95 5l141 4v147q0 189 -145 189q-100 0 -183 -47l-34 -117h-56v205q162 35 256 35
q170 0 249 -57q79 -58 79 -199zM143 1119v33l218 273h213l217 -273v-33h-56l-268 183l-268 -183h-56z" />
    <glyph glyph-name="atilde" unicode="&#xe3;" horiz-adv-x="909" 
d="M381 90q102 0 217 55v334l-131 -4q-125 -4 -177 -47t-52 -162q0 -176 143 -176zM764 705v-635l117 -25v-45h-258l-19 94q-114 -114 -291 -114q-241 0 -241 280q0 256 290 280q48 4 95 5l141 4v147q0 189 -145 189q-100 0 -183 -47l-34 -117h-56v205q162 35 256 35
q170 0 249 -57q79 -58 79 -199zM212 1226q-19 -31 -27 -88h-52q15 242 195 242q70 0 166 -70q36 -26 70 -48t64 -21q54 0 74 32t27 86h52q-15 -241 -195 -241q-71 0 -165 70q-35 26 -69 48t-78 21q-43 0 -62 -31z" />
    <glyph glyph-name="adieresis" unicode="&#xe4;" horiz-adv-x="909" 
d="M381 90q102 0 217 55v334l-131 -4q-125 -4 -177 -47t-52 -162q0 -176 143 -176zM764 705v-635l117 -25v-45h-258l-19 94q-114 -114 -291 -114q-241 0 -241 280q0 256 290 280q48 4 95 5l141 4v147q0 189 -145 189q-100 0 -183 -47l-34 -117h-56v205q162 35 256 35
q170 0 249 -57q79 -58 79 -199zM377 1194q0 -42 -28 -72q-27 -30 -59 -29q-32 0 -50 8t-32 22t-22 32t-8 39q0 42 30 71t72 29q41 0 69 -29t28 -71zM733 1194q0 -42 -28 -72q-27 -30 -59 -29q-52 0 -82 30q-29 30 -29 72q0 41 29 70t71 29t70 -29t28 -71z" />
    <glyph glyph-name="aring" unicode="&#xe5;" horiz-adv-x="909" 
d="M381 90q102 0 217 55v334l-131 -4q-125 -4 -177 -47t-52 -162q0 -176 143 -176zM764 705v-635l117 -25v-45h-258l-19 94q-114 -114 -291 -114q-241 0 -241 280q0 256 290 280q48 4 95 5l141 4v147q0 189 -145 189q-100 0 -183 -47l-34 -117h-56v205q162 35 256 35
q170 0 249 -57q79 -58 79 -199zM558 1367q-36 36 -74 36q-38 1 -61 -9q-22 -10 -39 -27q-16 -17 -26 -39t-10 -48q0 -52 37 -87q37 -36 74 -36t59 10q22 11 40 27q36 35 36 86t-36 87zM674 1280q0 -42 -16 -79t-44 -65t-64 -43q-37 -16 -79 -16t-79 16q-36 15 -64 43t-44 65
t-16 79t16 79t44 65t64 43q37 16 79 16t79 -16q36 -15 64 -43t44 -65t16 -79z" />
    <glyph glyph-name="ae" unicode="&#xe6;" horiz-adv-x="1366" 
d="M944 885q-103 0 -141.5 -82.5t-38.5 -249.5h360q0 244 -63 288t-117 44zM381 90q115 0 244 68q-27 50 -27 161v160l-131 -4q-125 -4 -177 -47t-52 -162q0 -176 143 -176zM946 965q249 0 300.5 -146t51.5 -264v-82h-534v-90q2 -147 35.5 -199.5t82.5 -76t152 -23.5t228 29
v-56q-118 -77 -289 -77q-230 0 -322 129q-145 -129 -338 -129q-241 0 -241 280q0 256 168.5 270t216.5 15l141 4v147q0 189 -145 189q-100 0 -183 -47l-34 -117h-56v205q162 35 307 35t215 -74q88 78 244 78z" />
    <glyph glyph-name="ccedilla" unicode="&#xe7;" horiz-adv-x="909" 
d="M555 -258q0 111 -152 123l33 121q-358 49 -358 491q0 247 122 367q122 121 328 121q135 0 295 -31v-262h-55l-43 166q-83 47 -199 47q-268 0 -268 -408q0 -195 68 -286q38 -51 102 -79t187 -28q122 0 231 33v-60q-105 -77 -311 -77h-13l-10 -44q90 -9 142 -53
q52 -43 52 -103q0 -104 -69 -160t-162 -56q-92 0 -154 22v74q48 -16 114 -16t93 30t27 68z" />
    <glyph glyph-name="egrave" unicode="&#xe8;" horiz-adv-x="909" 
d="M476 885q-108 0 -161 -87t-53 -245h402q0 247 -96 309q-36 24 -92 23zM801 57q-118 -77 -335 -77q-82 0 -162 32t-130 95q-94 118 -94 367t103 370t294 121q257 0 333 -213q28 -79 28 -197v-82h-578v-18q0 -173 52 -259q32 -52 89 -82t166 -30t234 29v-56zM240 1424h213
l196 -272v-33h-55l-354 268v37z" />
    <glyph glyph-name="eacute" unicode="&#xe9;" horiz-adv-x="909" 
d="M476 885q-108 0 -161 -87t-53 -245h402q0 247 -96 309q-36 24 -92 23zM801 57q-118 -77 -335 -77q-82 0 -162 32t-130 95q-94 118 -94 367t103 370t294 121q257 0 333 -213q28 -79 28 -197v-82h-578v-18q0 -173 52 -259q32 -52 89 -82t166 -30t234 29v-56zM382 1119v33
l196 272h213v-37l-354 -268h-55z" />
    <glyph glyph-name="ecircumflex" unicode="&#xea;" horiz-adv-x="909" 
d="M476 885q-108 0 -161 -87t-53 -245h402q0 247 -96 309q-36 24 -92 23zM801 57q-118 -77 -335 -77q-82 0 -162 32t-130 95q-94 118 -94 367t103 370t294 121q257 0 333 -213q28 -79 28 -197v-82h-578v-18q0 -173 52 -259q32 -52 89 -82t166 -30t234 29v-56zM151 1119v33
l218 273h213l217 -273v-33h-56l-268 183l-268 -183h-56z" />
    <glyph glyph-name="edieresis" unicode="&#xeb;" horiz-adv-x="909" 
d="M476 885q-108 0 -161 -87t-53 -245h402q0 247 -96 309q-36 24 -92 23zM801 57q-118 -77 -335 -77q-82 0 -162 32t-130 95q-94 118 -94 367t103 370t294 121q257 0 333 -213q28 -79 28 -197v-82h-578v-18q0 -173 52 -259q32 -52 89 -82t166 -30t234 29v-56zM387 1194
q0 -42 -28 -72q-27 -30 -59 -29q-32 0 -50 8t-32 22t-22 32t-8 39q0 42 30 71t72 29q41 0 69 -29t28 -71zM743 1194q0 -42 -28 -72q-27 -30 -59 -29q-52 0 -82 30q-29 30 -29 72q0 41 29 70t71 29t70 -29t28 -71z" />
    <glyph glyph-name="igrave" unicode="&#xec;" horiz-adv-x="569" 
d="M530 0h-487v45l160 25v800l-133 25v45h299v-870l161 -25v-45zM22 1424h213l196 -272v-33h-55l-354 268v37z" />
    <glyph glyph-name="iacute" unicode="&#xed;" horiz-adv-x="569" 
d="M530 0h-487v45l160 25v800l-133 25v45h299v-870l161 -25v-45zM138 1119v33l196 272h213v-37l-354 -268h-55z" />
    <glyph glyph-name="icircumflex" unicode="&#xee;" horiz-adv-x="569" 
d="M530 0h-487v45l160 25v800l-133 25v45h299v-870l161 -25v-45zM-40 1119v33l218 273h213l217 -273v-33h-56l-268 183l-268 -183h-56z" />
    <glyph glyph-name="idieresis" unicode="&#xef;" horiz-adv-x="569" 
d="M530 0h-487v45l160 25v800l-133 25v45h299v-870l161 -25v-45zM193 1194q0 -42 -28 -72q-27 -30 -59 -29q-32 0 -50 8t-32 22t-22 32t-8 39q0 42 30 71t72 29q41 0 69 -29t28 -71zM549 1194q0 -42 -28 -72q-27 -30 -59 -29q-52 0 -82 30q-29 30 -29 72q0 41 29 70t71 29
t70 -29t28 -71z" />
    <glyph glyph-name="eth" unicode="&#xf0;" 
d="M766 494q0 140 -59.5 234.5t-200.5 94.5q-203 0 -225.5 -144.5t-22.5 -286.5t54 -237.5t194 -95.5q206 0 233 147.5t27 287.5zM506 -20q-212 0 -320 119t-108 343q0 460 436 461q109 0 197 -35q-48 178 -187 310l-295 -172v96l228 131q-103 74 -219 110v78
q181 -44 315 -133l266 156v-94l-194 -115q311 -252 319 -756l2 -35q0 -464 -440 -464z" />
    <glyph glyph-name="ntilde" unicode="&#xf1;" 
d="M324 864q177 101 318 101q105 0 171 -67t66 -210v-618l114 -25v-45h-405v45l125 25v600q0 178 -166 178q-90 0 -221 -29v-749l127 -25v-45h-406v45l113 25v800l-113 25v45h268zM271 1226q-19 -31 -27 -88h-52q15 242 195 242q69 0 165 -70q36 -26 70 -48t65 -21
q54 0 74 32t27 86h52q-15 -241 -195 -241q-71 0 -165 70q-36 26 -70 48t-77 21q-43 0 -62 -31z" />
    <glyph glyph-name="ograve" unicode="&#xf2;" 
d="M766 474q0 206 -59 309q-59 102 -201 102q-141 0 -194 -101q-54 -101 -54 -310t54 -312t194 -103q206 0 247 241q13 76 13 174zM946 475q0 -495 -440 -495q-212 0 -320 127t-108 367q0 492 436 491q214 1 323 -123t109 -367zM249 1424h213l196 -272v-33h-55l-354 268v37z
" />
    <glyph glyph-name="oacute" unicode="&#xf3;" 
d="M766 474q0 206 -59 309q-59 102 -201 102q-141 0 -194 -101q-54 -101 -54 -310t54 -312t194 -103q206 0 247 241q13 76 13 174zM946 475q0 -495 -440 -495q-212 0 -320 127t-108 367q0 492 436 491q214 1 323 -123t109 -367zM404 1119v33l196 272h213v-37l-354 -268h-55z
" />
    <glyph glyph-name="ocircumflex" unicode="&#xf4;" 
d="M766 474q0 206 -59 309q-59 102 -201 102q-141 0 -194 -101q-54 -101 -54 -310t54 -312t194 -103q206 0 247 241q13 76 13 174zM946 475q0 -495 -440 -495q-212 0 -320 127t-108 367q0 492 436 491q214 1 323 -123t109 -367zM187 1119v33l218 273h213l217 -273v-33h-56
l-268 183l-268 -183h-56z" />
    <glyph glyph-name="otilde" unicode="&#xf5;" 
d="M766 474q0 206 -59 309q-59 102 -201 102q-141 0 -194 -101q-54 -101 -54 -310t54 -312t194 -103q206 0 247 241q13 76 13 174zM946 475q0 -495 -440 -495q-212 0 -320 127t-108 367q0 492 436 491q214 1 323 -123t109 -367zM259 1226q-19 -31 -27 -88h-52
q15 242 195 242q69 0 165 -70q36 -26 70 -48t65 -21q54 0 74 32t27 86h52q-15 -241 -195 -241q-71 0 -165 70q-36 26 -70 48t-77 21q-43 0 -62 -31z" />
    <glyph glyph-name="odieresis" unicode="&#xf6;" 
d="M766 474q0 206 -59 309q-59 102 -201 102q-141 0 -194 -101q-54 -101 -54 -310t54 -312t194 -103q206 0 247 241q13 76 13 174zM946 475q0 -495 -440 -495q-212 0 -320 127t-108 367q0 492 436 491q214 1 323 -123t109 -367zM430 1194q0 -42 -28 -72t-60 -29q-32 0 -49 8
q-18 8 -32 22t-22 32t-8 39q0 42 30 71t72 29q41 0 69 -29t28 -71zM786 1194q0 -42 -28 -72t-60 -29q-52 0 -81 30t-29 72q0 41 29 70t71 29t70 -29t28 -71z" />
    <glyph glyph-name="divide" unicode="&#xf7;" horiz-adv-x="1124" 
d="M1038 731v-102h-953v102h953zM657 297q0 -40 -28.5 -68t-68.5 -28t-68 28t-28 68t28 68t68 28t68.5 -28t28.5 -68zM657 1063q0 -40 -28.5 -68t-68.5 -28t-68 28t-28 68t28 68t68 28t68.5 -28t28.5 -68z" />
    <glyph glyph-name="oslash" unicode="&#xf8;" 
d="M739 218.5q27 159.5 27 281.5t-31 215l-405 -580q60 -76 176 -76q206 0 233 159.5zM692 801q-62 84 -194 84t-186 -100.5t-54 -285.5t29 -276zM946 475q0 -495 -440 -495q-145 0 -242 59l-86 -123h-108l127 178q-119 125 -119 372q0 499 436 499q149 0 250 -64l84 121
h104l-123 -174q117 -127 117 -373z" />
    <glyph glyph-name="ugrave" unicode="&#xf9;" 
d="M387 -20q-240 0 -240 276v614l-120 25v45h286v-672q-1 -84 37 -128t142 -44t213 31v743l-142 25v45h307v-870l119 -25v-45h-274l-8 76q-109 -60 -240 -87q-44 -9 -80 -9zM205 1424h213l196 -272v-33h-55l-354 268v37z" />
    <glyph glyph-name="uacute" unicode="&#xfa;" 
d="M387 -20q-240 0 -240 276v614l-120 25v45h286v-672q-1 -84 37 -128t142 -44t213 31v743l-142 25v45h307v-870l119 -25v-45h-274l-8 76q-109 -60 -240 -87q-44 -9 -80 -9zM420 1119v33l196 272h213v-37l-354 -268h-55z" />
    <glyph glyph-name="ucircumflex" unicode="&#xfb;" 
d="M387 -20q-240 0 -240 276v614l-120 25v45h286v-672q-1 -84 37 -128t142 -44t213 31v743l-142 25v45h307v-870l119 -25v-45h-274l-8 76q-109 -60 -240 -87q-44 -9 -80 -9zM185 1119v33l218 273h213l217 -273v-33h-56l-268 183l-268 -183h-56z" />
    <glyph glyph-name="udieresis" unicode="&#xfc;" 
d="M387 -20q-240 0 -240 276v614l-120 25v45h286v-672q-1 -84 37 -128t142 -44t213 31v743l-142 25v45h307v-870l119 -25v-45h-274l-8 76q-109 -60 -240 -87q-44 -9 -80 -9zM434 1194q0 -42 -28 -72t-60 -29q-32 0 -49 8q-18 8 -32 22t-22 32t-8 39q0 42 30 71t72 29
q41 0 69 -29t28 -71zM790 1194q0 -42 -28 -72t-60 -29q-52 0 -81 30t-29 72q0 41 29 70t71 29t70 -29t28 -71z" />
    <glyph glyph-name="yacute" unicode="&#xfd;" 
d="M194 -442q-74 0 -149 18v203h47l33 -96q31 -23 80 -23q87 0 143 66t105 192l26 72l-358 880l-96 25v45h436v-45l-148 -27l254 -657l246 659l-147 25v45h350v-45l-98 -21l-367 -933q-77 -194 -128 -259q-51 -64 -103 -94t-126 -30zM404 1119v33l196 272h213v-37l-354 -268
h-55z" />
    <glyph glyph-name="thorn" unicode="&#xfe;" 
d="M311 885q93 80 281 80q63 0 207.5 -64t144.5 -423t-156.5 -428.5t-265.5 -69.5t-211 22q6 -72 6 -113v-254l164 -24v-47h-448v47l119 24v1717l-138 24v45h303v-336q0 -19 -0.5 -44t-1 -51.5t-2 -53.5t-2.5 -51zM492 59q86 0 176 54t90 358t-93.5 346.5t-181.5 42.5
t-166 -33v-751q89 -17 175 -17z" />
    <glyph glyph-name="ydieresis" unicode="&#xff;" 
d="M194 -442q-74 0 -149 18v203h47l33 -96q31 -23 80 -23q87 0 143 66t105 192l26 72l-358 880l-96 25v45h436v-45l-148 -27l254 -657l246 659l-147 25v45h350v-45l-98 -21l-367 -933q-77 -194 -128 -259q-51 -64 -103 -94t-126 -30zM457 1194q0 -42 -28 -72
q-27 -30 -59 -29q-32 0 -50 8t-32 22t-22 32t-8 39q0 42 30 71t72 29q41 0 69 -29t28 -71zM813 1194q0 -42 -28 -72q-27 -30 -59 -29q-52 0 -82 30q-29 30 -29 72q0 41 29 70t71 29t70 -29t28 -71z" />
    <glyph glyph-name="Amacron" unicode="&#x100;" horiz-adv-x="1479" 
d="M676 1208l-230 -651h467zM461 0h-441v53l152 27l457 1272h190l475 -1272l170 -27v-53h-567v53l180 27l-133 387h-528l-135 -387l180 -27v-53zM425 1475v109h628v-109h-628z" />
    <glyph glyph-name="amacron" unicode="&#x101;" horiz-adv-x="909" 
d="M381 90q102 0 217 55v334l-131 -4q-125 -4 -177 -47t-52 -162q0 -176 143 -176zM764 705v-635l117 -25v-45h-258l-19 94q-114 -114 -291 -114q-241 0 -241 280q0 256 290 280q48 4 95 5l141 4v147q0 189 -145 189q-100 0 -183 -47l-34 -117h-56v205q162 35 256 35
q170 0 249 -57q79 -58 79 -199zM151 1141v109h628v-109h-628z" />
    <glyph glyph-name="Abreve" unicode="&#x102;" horiz-adv-x="1479" 
d="M676 1208l-230 -651h467zM461 0h-441v53l152 27l457 1272h190l475 -1272l170 -27v-53h-567v53l180 27l-133 387h-528l-135 -387l180 -27v-53zM719 1453q-140 0 -212 80t-75 200h74q34 -139 213 -139q126 0 184 76q20 26 29 63h74q-6 -195 -160 -258q-54 -22 -127 -22z
" />
    <glyph glyph-name="abreve" unicode="&#x103;" horiz-adv-x="909" 
d="M381 90q102 0 217 55v334l-131 -4q-125 -4 -177 -47t-52 -162q0 -176 143 -176zM764 705v-635l117 -25v-45h-258l-19 94q-114 -114 -291 -114q-241 0 -241 280q0 256 290 280q48 4 95 5l141 4v147q0 189 -145 189q-100 0 -183 -47l-34 -117h-56v205q162 35 256 35
q170 0 249 -57q79 -58 79 -199zM454 1119q-140 0 -212 80t-75 200h74q34 -139 213 -139q126 0 184 76q20 26 29 63h74q-7 -195 -161 -258q-54 -22 -126 -22z" />
    <glyph glyph-name="Aogonek" unicode="&#x104;" horiz-adv-x="1479" 
d="M676 1208l-230 -651h467zM1216 -403q-250 0 -250 219q0 97 75 184h-144v53l180 27l-133 387h-528l-135 -387l180 -27v-53h-441v53l152 27l457 1272h190l475 -1272l170 -27v-53h-309q-44 -79 -44 -158q0 -157 138 -157q60 0 116 22v-64q-67 -46 -149 -46z" />
    <glyph glyph-name="aogonek" unicode="&#x105;" horiz-adv-x="909" 
d="M381 90q102 0 217 55v334l-131 -4q-125 -4 -177 -47t-52 -162q0 -176 143 -176zM764 705v-635l117 -25v-45h-161q-44 -79 -44 -158q0 -157 138 -157q60 0 116 22v-64q-68 -46 -149 -46q-138 0 -194 61t-56 164t89 193l-16 79q-114 -114 -291 -114q-241 0 -241 280
q0 256 290 280q48 4 95 5l141 4v147q0 189 -145 189q-100 0 -183 -47l-34 -117h-56v205q162 35 256 35q170 0 249 -57q79 -58 79 -199z" />
    <glyph glyph-name="Cacute" unicode="&#x106;" horiz-adv-x="1366" 
d="M84 655q0 529 399 659q129 42 299 42t284 -20t161 -31l6 -293h-66l-30 174q-147 90 -351 90q-244 0 -369 -143q-124 -143 -124 -476q-1 -447 279 -563q90 -37 178 -37q270 0 401 101l37 200h65l-6 -315q-220 -63 -473 -63q-327 0 -509 178q-181 178 -181 497zM613 1453
v33l196 272h213v-37l-354 -268h-55z" />
    <glyph glyph-name="cacute" unicode="&#x107;" horiz-adv-x="909" 
d="M615 84q122 0 231 33v-60q-105 -77 -311 -77q-457 0 -457 497q0 247 122 367q122 121 328 121q135 0 295 -31v-262h-55l-43 166q-83 47 -199 47q-268 0 -268 -408q0 -195 68 -286q38 -51 102 -79t187 -28zM366 1119v33l196 272h213v-37l-354 -268h-55z" />
    <glyph glyph-name="Ccircumflex" unicode="&#x108;" horiz-adv-x="1366" 
d="M84 655q0 529 399 659q129 42 299 42t284 -20t161 -31l6 -293h-66l-30 174q-147 90 -351 90q-244 0 -369 -143q-124 -143 -124 -476q-1 -447 279 -563q90 -37 178 -37q270 0 401 101l37 200h65l-6 -315q-220 -63 -473 -63q-327 0 -509 178q-181 178 -181 497zM452 1453
v33l218 273h213l217 -273v-33h-56l-268 183l-268 -183h-56z" />
    <glyph glyph-name="ccircumflex" unicode="&#x109;" horiz-adv-x="909" 
d="M615 84q122 0 231 33v-60q-105 -77 -311 -77q-457 0 -457 497q0 247 122 367q122 121 328 121q135 0 295 -31v-262h-55l-43 166q-83 47 -199 47q-268 0 -268 -408q0 -195 68 -286q38 -51 102 -79t187 -28zM188 1119v33l218 273h213l217 -273v-33h-56l-268 183l-268 -183
h-56z" />
    <glyph glyph-name="Cdotaccent" unicode="&#x10a;" horiz-adv-x="1366" 
d="M84 655q0 529 399 659q129 42 299 42t284 -20t161 -31l6 -293h-66l-30 174q-147 90 -351 90q-244 0 -369 -143q-124 -143 -124 -476q-1 -447 279 -563q90 -37 178 -37q270 0 401 101l37 200h65l-6 -315q-220 -63 -473 -63q-327 0 -509 178q-181 178 -181 497zM877 1581
q-1 -21 -9 -41t-23 -35t-35 -23t-42 -9q-22 1 -42 9t-34 23q-16 15 -24 35t-8 41q0 22 8 42t24 35q14 16 34 24t42 8t42 -8t35 -24q15 -15 23 -35t9 -42z" />
    <glyph glyph-name="cdotaccent" unicode="&#x10b;" horiz-adv-x="909" 
d="M615 84q122 0 231 33v-60q-105 -77 -311 -77q-457 0 -457 497q0 247 122 367q122 121 328 121q135 0 295 -31v-262h-55l-43 166q-83 47 -199 47q-268 0 -268 -408q0 -195 68 -286q38 -51 102 -79t187 -28zM639 1247q-1 -21 -9 -41t-23 -35t-35 -23t-42 -9q-22 1 -42 9
t-34 23q-16 15 -24 35t-8 41q0 22 8 42t24 35q14 16 34 24t42 8t42 -8t35 -24q15 -15 23 -35t9 -42z" />
    <glyph glyph-name="Ccaron" unicode="&#x10c;" horiz-adv-x="1366" 
d="M84 655q0 529 399 659q129 42 299 42t284 -20t161 -31l6 -293h-66l-30 174q-147 90 -351 90q-244 0 -369 -143q-124 -143 -124 -476q-1 -447 279 -563q90 -37 178 -37q270 0 401 101l37 200h65l-6 -315q-220 -63 -473 -63q-327 0 -509 178q-181 178 -181 497zM1097 1759
v-33l-217 -273h-213l-218 273v33h56l268 -183l268 183h56z" />
    <glyph glyph-name="ccaron" unicode="&#x10d;" horiz-adv-x="909" 
d="M615 84q122 0 231 33v-60q-105 -77 -311 -77q-457 0 -457 497q0 247 122 367q122 121 328 121q135 0 295 -31v-262h-55l-43 166q-83 47 -199 47q-268 0 -268 -408q0 -195 68 -286q38 -51 102 -79t187 -28zM842 1425v-33l-217 -273h-213l-218 273v33h56l268 -183l268 183
h56z" />
    <glyph glyph-name="Dcaron" unicode="&#x10e;" horiz-adv-x="1479" 
d="M59 0v53l172 27v1182l-172 26v53h609q352 0 531 -149q198 -165 198 -514q1 -504 -383 -637q-130 -45 -305 -45l-478 4h-172zM690 86q146 0 236 38t149 112q57 74 85 185t28 259q0 288 -155 429q-155 142 -429 142h-180v-1157q120 -8 266 -8zM1053 1759v-33l-217 -273
h-213l-218 273v33h56l268 -183l268 183h56z" />
    <glyph glyph-name="dcaron" unicode="&#x10f;" horiz-adv-x="1324" 
d="M514 883q-260 0 -260 -422q0 -295 153 -357q48 -20 134 -20t176 39v743q-89 17 -203 17zM74 461q0 367 238 469q81 34 191 35q110 0 220 -23q-6 33 -6 166v244l-158 24v45h324v-1351l116 -25v-45h-264l-12 70q-113 -90 -264 -90q-385 0 -385 481zM1218 1103
q-70 -69 -236 -107v63q162 35 180 109q4 20 5 36q-1 16 -15 28t-32 27q-46 37 -46 80t28 63t60 20q33 0 54 -10t37 -27q35 -39 35 -126t-70 -156z" />
    <glyph glyph-name="Dcroat" unicode="&#x110;" horiz-adv-x="1479" 
d="M690 86q146 0 236 36t149 108q113 141 113 440q0 450 -352 550q-112 32 -250 31h-162v-540h377v-82h-377v-535q120 -8 266 -8zM59 0v53l172 27v549h-178v82h178v551l-172 26v53h572q543 1 707 -351q59 -126 59 -302q0 -347 -161 -519q-161 -173 -503 -173l-502 4h-172z
" />
    <glyph glyph-name="dcroat" unicode="&#x111;" 
d="M514 883q-260 0 -260 -422q0 -295 100.5 -336t186.5 -41t176 39v743q-89 17 -203 17zM74 461q0 368 159.5 436t269.5 68t220 -23q-6 33 -6 146v24h-275v84h275v156l-158 24v45h324v-225h137v-84h-137v-1042l116 -25v-45h-264l-12 70q-113 -90 -264 -90q-385 0 -385 481z
" />
    <glyph glyph-name="Emacron" unicode="&#x112;" horiz-adv-x="1251" 
d="M59 1341h1006v-321h-66l-32 217q-112 14 -324 14h-219v-524h362l31 160h64v-412h-64l-31 162h-362v-547h264q258 0 338 16l57 248h66l-19 -354h-1071v53l172 27v1182l-172 26v53zM311 1475v109h628v-109h-628z" />
    <glyph glyph-name="emacron" unicode="&#x113;" horiz-adv-x="909" 
d="M476 885q-108 0 -161 -87t-53 -245h402q0 247 -96 309q-36 24 -92 23zM801 57q-118 -77 -335 -77q-82 0 -162 32t-130 95q-94 118 -94 367t103 370t294 121q257 0 333 -213q28 -79 28 -197v-82h-578v-18q0 -173 52 -259q32 -52 89 -82t166 -30t234 29v-56zM163 1141v109
h628v-109h-628z" />
    <glyph glyph-name="Ebreve" unicode="&#x114;" horiz-adv-x="1251" 
d="M59 1341h1006v-321h-66l-32 217q-112 14 -324 14h-219v-524h362l31 160h64v-412h-64l-31 162h-362v-547h264q258 0 338 16l57 248h66l-19 -354h-1071v53l172 27v1182l-172 26v53zM625 1453q-140 0 -212 80t-75 200h74q34 -139 213 -139q126 0 184 76q20 26 29 63h74
q-6 -195 -160 -258q-54 -22 -127 -22z" />
    <glyph glyph-name="ebreve" unicode="&#x115;" horiz-adv-x="909" 
d="M476 885q-108 0 -161 -87t-53 -245h402q0 247 -96 309q-36 24 -92 23zM801 57q-118 -77 -335 -77q-82 0 -162 32t-130 95q-94 118 -94 367t103 370t294 121q257 0 333 -213q28 -79 28 -197v-82h-578v-18q0 -173 52 -259q32 -52 89 -82t166 -30t234 29v-56zM468 1119
q-140 0 -212 80t-75 200h74q34 -139 213 -139q126 0 184 76q20 26 29 63h74q-7 -195 -161 -258q-54 -22 -126 -22z" />
    <glyph glyph-name="Edotaccent" unicode="&#x116;" horiz-adv-x="1251" 
d="M59 1341h1006v-321h-66l-32 217q-112 14 -324 14h-219v-524h362l31 160h64v-412h-64l-31 162h-362v-547h264q258 0 338 16l57 248h66l-19 -354h-1071v53l172 27v1182l-172 26v53zM744 1581q0 -21 -8 -41t-24 -35q-15 -15 -35 -23t-42 -9q-21 1 -41 9t-35 23t-23 35t-9 41
q1 22 9 42t23 35q15 16 35 24t41 8q22 0 42 -8t35 -24q16 -15 24 -35t8 -42z" />
    <glyph glyph-name="edotaccent" unicode="&#x117;" horiz-adv-x="909" 
d="M476 885q-108 0 -161 -87t-53 -245h402q0 247 -96 309q-36 24 -92 23zM801 57q-118 -77 -335 -77q-82 0 -162 32t-130 95q-94 118 -94 367t103 370t294 121q257 0 333 -213q28 -79 28 -197v-82h-578v-18q0 -173 52 -259q32 -52 89 -82t166 -30t234 29v-56zM582 1247
q0 -21 -8 -41t-24 -35q-15 -15 -35 -23t-42 -9q-21 1 -41 9t-35 23t-23 35t-9 41q1 22 9 42t23 35q15 16 35 24t41 8q22 0 42 -8t35 -24q16 -15 24 -35t8 -42z" />
    <glyph glyph-name="Eogonek" unicode="&#x118;" horiz-adv-x="1251" 
d="M59 0v53l172 27v1182l-172 26v53h1006v-321h-66l-32 217q-112 14 -324 14h-219v-524h362l31 160h64v-412h-64l-31 162h-362v-547h264q258 0 338 16l57 248h66l-19 -354h-215q-44 -79 -44 -158q0 -157 138 -157q60 0 116 22v-64q-68 -46 -149 -46q-138 0 -194 61t-56 158
t75 184h-742z" />
    <glyph glyph-name="eogonek" unicode="&#x119;" horiz-adv-x="909" 
d="M476 885q-108 0 -161 -87t-53 -245h402q0 247 -96 309q-36 24 -92 23zM80 477q0 246 103 367t294 121q257 0 333 -213q28 -79 28 -197v-82h-578v-18q0 -173 52 -259q69 -113 239 -112q124 0 250 29v-56q-74 -49 -199 -69q-38 -73 -38 -149q0 -75 36 -115t98 -39
q63 0 120 22v-64q-68 -46 -149 -46q-138 0 -194 61t-56 153t59 169q-312 9 -376 283q-22 93 -22 214z" />
    <glyph glyph-name="Ecaron" unicode="&#x11a;" horiz-adv-x="1251" 
d="M59 1341h1006v-321h-66l-32 217q-112 14 -324 14h-219v-524h362l31 160h64v-412h-64l-31 162h-362v-547h264q258 0 338 16l57 248h66l-19 -354h-1071v53l172 27v1182l-172 26v53zM959 1759v-33l-217 -273h-213l-218 273v33h56l268 -183l268 183h56z" />
    <glyph glyph-name="ecaron" unicode="&#x11b;" horiz-adv-x="909" 
d="M476 885q-108 0 -161 -87t-53 -245h402q0 247 -96 309q-36 24 -92 23zM801 57q-118 -77 -335 -77q-82 0 -162 32t-130 95q-94 118 -94 367t103 370t294 121q257 0 333 -213q28 -79 28 -197v-82h-578v-18q0 -173 52 -259q32 -52 89 -82t166 -30t234 29v-56zM803 1425v-33
l-217 -273h-213l-218 273v33h56l268 -183l268 183h56z" />
    <glyph glyph-name="Gcircumflex" unicode="&#x11c;" horiz-adv-x="1479" 
d="M84 668q0 340 176 514t518 174q244 0 471 -60v-288h-67l-27 166q-144 102 -378 102q-235 0 -359 -144q-125 -144 -125 -471q1 -327 145 -477q122 -127 338 -127q140 0 264 45q33 12 52 23v381l-172 26v54h495v-54l-131 -26v-436q-275 -90 -510 -90q-322 0 -506 175
q-184 174 -184 513zM451 1453v33l218 273h213l217 -273v-33h-56l-268 183l-268 -183h-56z" />
    <glyph glyph-name="gcircumflex" unicode="&#x11d;" 
d="M650 454q46 62 46 190t-46 187q-46 58 -152 58q-160 -1 -192 -137q-11 -46 -11 -109q0 -129 47 -191q47 -61 155 -61q107 1 153 63zM456 -362q373 0 373 238q0 54 -35 86t-106 32h-364q-65 -56 -88 -144q-7 -26 -7 -56q0 -73 56 -115q56 -41 171 -41zM121 643
q0 322 390 322q99 0 175 -25l221 111l35 -43l-139 -144q67 -75 67 -229t-97 -237t-279 -83q-82 0 -152 15l-63 -131q3 -17 39 -32t90 -15h278q152 0 226 -66t73 -182q0 -147 -122 -246q-122 -100 -403 -100q-280 0 -351 138q-21 42 -21 82q0 69 42 120q42 52 126 112
q-83 28 -121 102q-14 28 -14 62l158 178q-158 74 -158 291zM188 1119v33l218 273h213l217 -273v-33h-56l-268 183l-268 -183h-56z" />
    <glyph glyph-name="Gbreve" unicode="&#x11e;" horiz-adv-x="1479" 
d="M84 668q0 340 176 514t518 174q244 0 471 -60v-288h-67l-27 166q-144 102 -378 102q-235 0 -359 -144q-125 -144 -125 -471q1 -327 145 -477q122 -127 338 -127q140 0 264 45q33 12 52 23v381l-172 26v54h495v-54l-131 -26v-436q-275 -90 -510 -90q-322 0 -506 175
q-184 174 -184 513zM769 1453q-140 0 -212 80t-75 200h74q34 -139 213 -139q126 0 184 76q20 26 29 63h74q-6 -195 -160 -258q-54 -22 -127 -22z" />
    <glyph glyph-name="gbreve" unicode="&#x11f;" 
d="M650 454q46 62 46 190t-46 187q-46 58 -152 58q-160 -1 -192 -137q-11 -46 -11 -109q0 -129 47 -191q47 -61 155 -61q107 1 153 63zM456 -362q373 0 373 238q0 54 -35 86t-106 32h-364q-65 -56 -88 -144q-7 -26 -7 -56q0 -73 56 -115q56 -41 171 -41zM121 643
q0 322 390 322q99 0 175 -25l221 111l35 -43l-139 -144q67 -75 67 -229t-97 -237t-279 -83q-82 0 -152 15l-63 -131q3 -17 39 -32t90 -15h278q152 0 226 -66t73 -182q0 -147 -122 -246q-122 -100 -403 -100q-280 0 -351 138q-21 42 -21 82q0 69 42 120q42 52 126 112
q-83 28 -121 102q-14 28 -14 62l158 178q-158 74 -158 291zM484 1119q-140 0 -212 80t-75 200h74q34 -139 213 -139q126 0 184 76q20 26 29 63h74q-7 -195 -161 -258q-54 -22 -126 -22z" />
    <glyph glyph-name="Gdotaccent" unicode="&#x120;" horiz-adv-x="1479" 
d="M84 668q0 340 176 514t518 174q244 0 471 -60v-288h-67l-27 166q-144 102 -378 102q-235 0 -359 -144q-125 -144 -125 -471q1 -327 145 -477q122 -127 338 -127q140 0 264 45q33 12 52 23v381l-172 26v54h495v-54l-131 -26v-436q-275 -90 -510 -90q-322 0 -506 175
q-184 174 -184 513zM884 1581q0 -21 -8 -41t-24 -35q-15 -15 -35 -23t-42 -9q-21 1 -41 9t-35 23t-23 35t-9 41q1 22 9 42t23 35q15 16 35 24t41 8q22 0 42 -8t35 -24q16 -15 24 -35t8 -42z" />
    <glyph glyph-name="gdotaccent" unicode="&#x121;" 
d="M650 454q46 62 46 190t-46 187q-46 58 -152 58q-160 -1 -192 -137q-11 -46 -11 -109q0 -129 47 -191q47 -61 155 -61q107 1 153 63zM456 -362q373 0 373 238q0 54 -35 86t-106 32h-364q-65 -56 -88 -144q-7 -26 -7 -56q0 -73 56 -115q56 -41 171 -41zM121 643
q0 322 390 322q99 0 175 -25l221 111l35 -43l-139 -144q67 -75 67 -229t-97 -237t-279 -83q-82 0 -152 15l-63 -131q3 -17 39 -32t90 -15h278q152 0 226 -66t73 -182q0 -147 -122 -246q-122 -100 -403 -100q-280 0 -351 138q-21 42 -21 82q0 69 42 120q42 52 126 112
q-83 28 -121 102q-14 28 -14 62l158 178q-158 74 -158 291zM603 1247q-1 -21 -9 -41t-23 -35t-35 -23t-42 -9q-22 1 -42 9t-34 23q-16 15 -24 35t-8 41q0 22 8 42t24 35q14 16 34 24t42 8t42 -8t35 -24q15 -15 23 -35t9 -42z" />
    <glyph glyph-name="Gcommaaccent" unicode="&#x122;" horiz-adv-x="1479" 
d="M84 668q0 340 176 514t518 174q244 0 471 -60v-288h-67l-27 166q-144 102 -378 102q-235 0 -359 -144q-125 -144 -125 -471q1 -327 145 -477q122 -127 338 -127q140 0 264 45q33 12 52 23v381l-172 26v54h495v-54l-131 -26v-436q-275 -90 -510 -90q-322 0 -506 175
q-184 174 -184 513zM767 -284q0 23 -17 34q-17 12 -38 22t-38 26t-17 53q-1 36 27 58t61 22q59 0 92 -37q34 -37 34 -91q0 -99 -53 -152q-53 -52 -171 -87v63q120 36 120 89z" />
    <glyph glyph-name="gcommaaccent" unicode="&#x123;" 
d="M650 454q46 62 46 190t-46 187q-46 58 -152 58q-160 -1 -192 -137q-11 -46 -11 -109q0 -129 47 -191q47 -61 155 -61q107 1 153 63zM456 -362q373 0 373 238q0 54 -35 86t-106 32h-364q-65 -56 -88 -144q-7 -26 -7 -56q0 -73 56 -115q56 -41 171 -41zM121 643
q0 322 390 322q99 0 175 -25l221 111l35 -43l-139 -144q67 -75 67 -229t-97 -237t-279 -83q-82 0 -152 15l-63 -131q3 -17 39 -32t90 -15h278q152 0 226 -66t73 -182q0 -147 -122 -246q-122 -100 -403 -100q-280 0 -351 138q-21 42 -21 82q0 69 42 120q42 52 126 112
q-83 28 -121 102q-14 28 -14 62l158 178q-158 74 -158 291zM491 1335q0 -23 17 -34t38 -21t38 -28q17 -16 17 -52q1 -36 -27 -58t-61 -22q-59 0 -92 37q-34 37 -34 91q0 99 53 152q53 52 171 87v-63q-120 -36 -120 -89z" />
    <glyph glyph-name="Hcircumflex" unicode="&#x124;" horiz-adv-x="1479" 
d="M59 0v53l172 27v1182l-172 26v53h537v-53l-172 -26v-527h631v527l-172 26v53h536v-53l-172 -26v-1182l172 -27v-53h-536v53l172 27v565h-631v-565l172 -27v-53h-537zM415 1453v33l218 273h213l217 -273v-33h-56l-268 183l-268 -183h-56z" />
    <glyph glyph-name="hcircumflex" unicode="&#x125;" 
d="M551 848q-94 0 -225 -29v-749l127 -25v-45h-412v45l119 25v1282l-140 24v45h306v-407v-34t-2 -54q-1 -34 -5 -62q113 64 239 92q44 10 88 9q105 0 171 -67t66 -210v-618l114 -25v-45h-405v45l125 25v606q0 172 -166 172zM185 1493v33l218 273h213l217 -273v-33h-56
l-268 183l-268 -183h-56z" />
    <glyph glyph-name="Hbar" unicode="&#x126;" horiz-adv-x="1479" 
d="M1055 735v222h-631v-222h631zM59 0v53l172 27v877h-171v82h171v223l-172 26v53h537v-53l-172 -26v-223h631v223l-172 26v53h536v-53l-172 -26v-223h173v-82h-173v-877l172 -27v-53h-536v53l172 27v565h-631v-565l172 -27v-53h-537z" />
    <glyph glyph-name="hbar" unicode="&#x127;" 
d="M551 848q-94 0 -225 -29v-749l127 -25v-45h-412v45l119 25v1042h-137v84h137v156l-140 24v45h306v-225h275v-84h-275v-98q0 -14 -0.5 -34t-1.5 -53.5t-5 -62.5q112 64 197 82.5t130 18.5q105 0 171 -67t66 -210v-618l114 -25v-45h-405v45l125 25v606q0 172 -166 172z" />
    <glyph glyph-name="Itilde" unicode="&#x128;" horiz-adv-x="682" 
d="M610 0h-536v53l172 27v1182l-172 26v53h536v-53l-172 -26v-1182l172 -27v-53zM97 1560q-19 -31 -27 -88h-52q15 242 195 242q69 0 165 -70q36 -26 70 -48t65 -21q54 0 74 32t27 86h52q-15 -241 -195 -241q-71 0 -165 70q-36 26 -70 48t-77 21q-43 0 -62 -31z" />
    <glyph glyph-name="itilde" unicode="&#x129;" horiz-adv-x="569" 
d="M530 0h-487v45l160 25v800l-133 25v45h299v-870l161 -25v-45zM41 1226q-19 -31 -27 -88h-52q15 242 195 242q69 0 165 -70q36 -26 70 -48t65 -21q54 0 74 32t27 86h52q-15 -241 -195 -241q-71 0 -165 70q-36 26 -70 48t-77 21q-43 0 -62 -31z" />
    <glyph glyph-name="Imacron" unicode="&#x12a;" horiz-adv-x="682" 
d="M610 0h-536v53l172 27v1182l-172 26v53h536v-53l-172 -26v-1182l172 -27v-53zM27 1475v109h628v-109h-628z" />
    <glyph glyph-name="imacron" unicode="&#x12b;" horiz-adv-x="569" 
d="M530 0h-487v45l160 25v800l-133 25v45h299v-870l161 -25v-45zM-28 1141v109h628v-109h-628z" />
    <glyph glyph-name="Ibreve" unicode="&#x12c;" horiz-adv-x="682" 
d="M610 0h-536v53l172 27v1182l-172 26v53h536v-53l-172 -26v-1182l172 -27v-53zM341 1453q-140 0 -212 80t-75 200h74q34 -139 213 -139q126 0 184 76q20 26 29 63h74q-6 -195 -160 -258q-54 -22 -127 -22z" />
    <glyph glyph-name="ibreve" unicode="&#x12d;" horiz-adv-x="569" 
d="M530 0h-487v45l160 25v800l-133 25v45h299v-870l161 -25v-45zM286 1119q-140 0 -212 80t-75 200h74q34 -139 213 -139q126 0 184 76q20 26 29 63h74q-7 -195 -161 -258q-54 -22 -126 -22z" />
    <glyph glyph-name="Iogonek" unicode="&#x12e;" horiz-adv-x="682" 
d="M451 -403q-250 0 -250 219q0 97 75 184h-202v53l172 27v1182l-172 26v53h536v-53l-172 -26v-1182l172 -27v-53h-220q-44 -79 -44 -158q0 -157 138 -157q60 0 116 22v-64q-67 -46 -149 -46z" />
    <glyph glyph-name="iogonek" unicode="&#x12f;" horiz-adv-x="569" 
d="M383 -403q-250 0 -250 219q0 97 75 184h-165v45l160 25v800l-133 25v45h299v-870l161 -25v-45h-208q-44 -79 -44 -158q0 -157 138 -157q60 0 116 22v-64q-67 -46 -149 -46zM379 1247q-1 -21 -9 -41t-23 -35t-35 -23t-42 -9q-22 1 -42 9t-34 23q-16 15 -24 35t-8 41
q0 22 8 42t24 35q14 16 34 24t42 8t42 -8t35 -24q15 -15 23 -35t9 -42z" />
    <glyph glyph-name="Idotaccent" unicode="&#x130;" horiz-adv-x="682" 
d="M610 0h-536v53l172 27v1182l-172 26v53h536v-53l-172 -26v-1182l172 -27v-53zM451 1581q-1 -21 -9 -41t-23 -35t-35 -23t-42 -9q-22 1 -42 9t-34 23q-16 15 -24 35t-8 41q0 22 8 42t24 35q14 16 34 24t42 8t42 -8t35 -24q15 -15 23 -35t9 -42z" />
    <glyph glyph-name="dotlessi" unicode="&#x131;" horiz-adv-x="569" 
d="M530 0h-487v45l160 25v800l-133 25v45h299v-870l161 -25v-45z" />
    <glyph glyph-name="IJ" unicode="&#x132;" horiz-adv-x="1451" 
d="M610 0h-536v53l172 27v1182l-172 26v53h536v-53l-172 -26v-1182l172 -27v-53zM697 254h66l30 -139q40 -49 131 -49q140 0 140 190v1006l-172 26v53h516v-53l-152 -26v-830q0 -312 -202 -416q-70 -36 -174 -36t-183 30v244z" />
    <glyph glyph-name="ij" unicode="&#x133;" horiz-adv-x="1131" 
d="M530 0h-487v45l160 25v800l-133 25v45h299v-870l161 -25v-45zM379 1247q-1 -21 -9 -41t-23 -35t-35 -23t-42 -9q-22 1 -42 9t-34 23q-16 15 -24 35t-8 41q0 22 8 42t24 35q14 16 34 24t42 8t42 -8t35 -24q15 -15 23 -35t9 -42zM660 -356q119 0 119 266v960l-141 25v45
h307v-979q-1 -304 -177 -375q-54 -22 -118 -22t-147 18v199h47l27 -109q33 -28 83 -28zM923 1171q-31 -32 -65 -32q-34 1 -54 9t-34 23q-16 15 -24 35t-8 41q0 45 32 77t66 32t52 -8q20 -8 35 -24q32 -32 32 -76t-32 -77z" />
    <glyph glyph-name="Jcircumflex" unicode="&#x134;" horiz-adv-x="797" 
d="M43 254h66l30 -139q40 -49 131 -49q140 0 140 190v1006l-172 26v53h516v-53l-152 -26v-830q0 -312 -202 -416q-70 -36 -174 -36t-183 30v244zM180 1453v33l218 273h213l217 -273v-33h-56l-268 183l-268 -183h-56z" />
    <glyph glyph-name="jcircumflex" unicode="&#x135;" horiz-adv-x="569" 
d="M-39 1119v33l218 273h213l217 -273v-33h-56l-268 183l-268 -183h-56zM98 -356q119 0 119 266v960l-141 25v45h307v-979q0 -304 -115.5 -350.5t-179.5 -46.5t-147 18v199h47l27 -109q33 -28 83 -28z" />
    <glyph glyph-name="Kcommaaccent" unicode="&#x136;" horiz-adv-x="1479" 
d="M1353 1341v-53l-155 -26l-458 -448l573 -734l145 -27v-53h-328l-525 678l-181 -145v-453l192 -27v-53h-557v53l172 27v1182l-172 26v53h537v-53l-172 -26v-632l642 632l-133 26v53h420zM775 -284q0 23 -17 34q-17 12 -38 22t-38 26t-17 53q-1 36 27 58t61 22q59 0 92 -37
q34 -37 34 -91q0 -99 -53 -152q-53 -52 -171 -87v63q120 36 120 89z" />
    <glyph glyph-name="kcommaaccent" unicode="&#x137;" 
d="M631 940h332v-45l-117 -23l-268 -274l344 -530l102 -23v-45h-385v45l86 25l-258 405l-123 -135v-270l100 -25v-45h-385v45l119 25v1282l-139 24v45h305v-968l385 415l-98 27v45zM521 -284q0 23 -17 34q-17 12 -38 22t-38 26t-17 53q-1 36 27 58t61 22q59 0 92 -37
q34 -37 34 -91q0 -99 -53 -152q-53 -52 -171 -87v63q120 36 120 89z" />
    <glyph glyph-name="kgreenlandic" unicode="&#x138;" 
d="M631 940h332v-45l-117 -23l-268 -274l344 -530l102 -23v-45h-385v45l86 25l-258 405l-123 -135v-270l100 -25v-45h-385v45l119 25v801l-139 24v45h305v-487l385 415l-98 27v45z" />
    <glyph glyph-name="Lacute" unicode="&#x139;" horiz-adv-x="1251" 
d="M424 86h264q213 0 313 20l62 279h65l-18 -385h-1051v53l172 27v1182l-172 26v53h572v-53l-207 -26v-1176zM293 1453v33l196 272h213v-37l-354 -268h-55z" />
    <glyph glyph-name="lacute" unicode="&#x13a;" horiz-adv-x="569" 
d="M528 0h-487v45l160 25v1282l-160 24v45h326v-1351l161 -25v-45zM151 1493v33l196 272h213v-37l-354 -268h-55z" />
    <glyph glyph-name="Lcommaaccent" unicode="&#x13b;" horiz-adv-x="1251" 
d="M424 86h264q213 0 313 20l62 279h65l-18 -385h-1051v53l172 27v1182l-172 26v53h572v-53l-207 -26v-1176zM631 -284q0 23 -17 34q-17 12 -38 22t-38 26t-17 53q-1 36 27 58t61 22q59 0 92 -37q34 -37 34 -91q0 -99 -53 -152q-53 -52 -171 -87v63q120 36 120 89z" />
    <glyph glyph-name="lcommaaccent" unicode="&#x13c;" horiz-adv-x="569" 
d="M528 0h-487v45l160 25v1282l-160 24v45h326v-1351l161 -25v-45zM287 -284q0 23 -17 34q-17 12 -38 22t-38 26t-17 53q-1 36 27 58t61 22q59 0 92 -37q34 -37 34 -91q0 -99 -53 -152q-53 -52 -171 -87v63q120 36 120 89z" />
    <glyph glyph-name="Lcaron" unicode="&#x13d;" horiz-adv-x="1251" 
d="M424 86h264q213 0 313 20l62 279h65l-18 -385h-1051v53l172 27v1182l-172 26v53h572v-53l-207 -26v-1176zM1016 1022q-70 -69 -236 -107v63q162 36 180 110q4 20 5 35q-1 17 -15 29t-32 26q-46 37 -46 80q0 42 28 62t60 21q33 1 54 -9t37 -28q35 -39 35 -126t-70 -156z
" />
    <glyph glyph-name="lcaron" unicode="&#x13e;" horiz-adv-x="832" 
d="M558 0h-487v45l160 25v1282l-160 24v45h326v-1351l161 -25v-45zM726 1103q-70 -69 -236 -107v63q162 35 180 109q4 20 5 36q-1 16 -15 28t-32 27q-46 37 -46 80t28 63t60 20q33 0 54 -10t37 -27q35 -39 35 -126t-70 -156z" />
    <glyph glyph-name="Ldot" unicode="&#x13f;" horiz-adv-x="1251" 
d="M424 86h264q213 0 313 20l62 279h65l-18 -385h-1051v53l172 27v1182l-172 26v53h572v-53l-207 -26v-1176zM919 733q-1 -21 -9 -41t-23 -35t-35 -23t-42 -9q-22 1 -42 9t-34 23q-16 15 -24 35t-8 41q0 22 8 42t24 35q14 16 34 24t42 8t42 -8t35 -24q15 -15 23 -35t9 -42z
" />
    <glyph glyph-name="ldot" unicode="&#x140;" horiz-adv-x="704" 
d="M528 0h-487v45l160 25v1282l-160 24v45h326v-1351l161 -25v-45zM695 733q-1 -21 -9 -41t-23 -35t-35 -23t-42 -9q-22 1 -42 9t-34 23q-16 15 -24 35t-8 41q0 22 8 42t24 35q14 16 34 24t42 8t42 -8t35 -24q15 -15 23 -35t9 -42z" />
    <glyph glyph-name="Lslash" unicode="&#x141;" horiz-adv-x="1251" 
d="M59 1341h572v-53l-207 -26v-525l307 178v-94l-307 -178v-557h264q213 0 313 20l62 279h65l-18 -385h-1051v53l172 27v452l-188 -110v96l188 109v635l-172 26v53z" />
    <glyph glyph-name="lslash" unicode="&#x142;" horiz-adv-x="569" 
d="M41 1421h326v-704l192 112v-94l-192 -112v-553l161 -25v-45h-487v45l160 25v456l-181 -104v96l181 103v731l-160 24v45z" />
    <glyph glyph-name="Nacute" unicode="&#x143;" horiz-adv-x="1479" 
d="M975 1341h457v-53l-172 -26v-1262h-97l-827 1206v-1126l180 -27v-53h-457v53l172 27v1182l-172 26v53h406l690 -993v914l-180 26v53zM659 1453v33l196 272h213v-37l-354 -268h-55z" />
    <glyph glyph-name="nacute" unicode="&#x144;" 
d="M324 864q177 101 318 101q105 0 171 -67t66 -210v-618l114 -25v-45h-405v45l125 25v600q0 178 -166 178q-90 0 -221 -29v-749l127 -25v-45h-406v45l113 25v800l-113 25v45h268zM413 1119v33l196 272h213v-37l-354 -268h-55z" />
    <glyph glyph-name="Ncommaaccent" unicode="&#x145;" horiz-adv-x="1479" 
d="M975 1341h457v-53l-172 -26v-1262h-97l-827 1206v-1126l180 -27v-53h-457v53l172 27v1182l-172 26v53h406l690 -993v914l-180 26v53zM728 -284q0 23 -17 34q-17 12 -38 22t-38 26t-17 53q0 36 28 58t60 22q59 0 92 -37q34 -37 34 -91q0 -99 -53 -152q-53 -52 -171 -87v63
q120 36 120 89z" />
    <glyph glyph-name="ncommaaccent" unicode="&#x146;" 
d="M324 864q177 101 318 101q105 0 171 -67t66 -210v-618l114 -25v-45h-405v45l125 25v600q0 178 -166 178q-90 0 -221 -29v-749l127 -25v-45h-406v45l113 25v800l-113 25v45h268zM510 -284q0 23 -17 34q-17 12 -38 22t-38 26t-17 53q0 36 28 58t60 22q59 0 92 -37
q34 -37 34 -91q0 -99 -53 -152q-53 -52 -171 -87v63q120 36 120 89z" />
    <glyph glyph-name="Ncaron" unicode="&#x147;" horiz-adv-x="1479" 
d="M975 1341h457v-53l-172 -26v-1262h-97l-827 1206v-1126l180 -27v-53h-457v53l172 27v1182l-172 26v53h406l690 -993v914l-180 26v53zM1063 1759v-33l-217 -273h-213l-218 273v33h56l268 -183l268 183h56z" />
    <glyph glyph-name="ncaron" unicode="&#x148;" 
d="M324 864q177 101 318 101q105 0 171 -67t66 -210v-618l114 -25v-45h-405v45l125 25v600q0 178 -166 178q-90 0 -221 -29v-749l127 -25v-45h-406v45l113 25v800l-113 25v45h268zM838 1425v-33l-217 -273h-213l-218 273v33h56l268 -183l268 183h56z" />
    <glyph glyph-name="napostrophe" unicode="&#x149;" horiz-adv-x="1237" 
d="M533 864q177 101 318 101q105 0 171 -67t66 -210v-618l114 -25v-45h-405v45l125 25v600q0 178 -166 178q-90 0 -221 -29v-749l127 -25v-45h-406v45l113 25v800l-113 25v45h268zM178 1140q0 30 -25 46t-43 25q-68 35 -67 94q0 59 34 87q35 28 75 29q72 0 113 -43
q42 -43 42 -110q0 -285 -305 -373v77q176 56 176 168z" />
    <glyph glyph-name="Eng" unicode="&#x14a;" horiz-adv-x="1437" 
d="M424 1201q268 150 508 150q180 0 264.5 -95.5t84.5 -296.5v-527q0 -312 -136 -382t-240 -70t-183 30v244h66l30 -139q40 -49 131 -49q141 0 141 190v694q0 230 -101 255.5t-152 25.5q-184 0 -413 -117v-1034l172 -27v-53h-537v53l172 27v1182l-172 26v53h363z" />
    <glyph glyph-name="eng" unicode="&#x14b;" horiz-adv-x="1013" 
d="M324 864q158 101 293 101q96 0 156 -66t60 -211v-727q0 -304 -115.5 -350.5t-179.5 -46.5t-147 18v199h47l27 -109q33 -28 83 -28q119 0 119 266v760q0 178 -145 178q-80 0 -196 -29v-749l127 -25v-45h-406v45l113 25v800l-113 25v45h268z" />
    <glyph glyph-name="Omacron" unicode="&#x14c;" horiz-adv-x="1479" 
d="M84 672q0 684 655 684q479 0 611 -377q45 -129 45 -307t-45 -308t-130 -216q-84 -84 -206 -126t-275 -42q-311 0 -483 172t-172 520zM293 672q0 -140 21 -253t72 -193t137 -124t216 -43q245 0 353 167q94 145 94 445q0 301 -94 443q-107 162 -353 162q-359 0 -425 -353
q-21 -111 -21 -251zM425 1475v109h628v-109h-628z" />
    <glyph glyph-name="omacron" unicode="&#x14d;" 
d="M766 474q0 206 -59 309q-59 102 -201 102q-141 0 -194 -101q-54 -101 -54 -310t54 -312t194 -103q206 0 247 241q13 76 13 174zM946 475q0 -495 -440 -495q-212 0 -320 127t-108 367q0 492 436 491q214 1 323 -123t109 -367zM198 1141v109h628v-109h-628z" />
    <glyph glyph-name="Obreve" unicode="&#x14e;" horiz-adv-x="1479" 
d="M84 672q0 684 655 684q479 0 611 -377q45 -129 45 -307t-45 -308t-130 -216q-84 -84 -206 -126t-275 -42q-311 0 -483 172t-172 520zM293 672q0 -140 21 -253t72 -193t137 -124t216 -43q245 0 353 167q94 145 94 445q0 301 -94 443q-107 162 -353 162q-359 0 -425 -353
q-21 -111 -21 -251zM739 1453q-140 0 -212 80t-75 200h74q34 -139 213 -139q126 0 184 76q20 26 29 63h74q-6 -195 -160 -258q-54 -22 -127 -22z" />
    <glyph glyph-name="obreve" unicode="&#x14f;" 
d="M766 474q0 206 -59 309q-59 102 -201 102q-141 0 -194 -101q-54 -101 -54 -310t54 -312t194 -103q206 0 247 241q13 76 13 174zM946 475q0 -495 -440 -495q-212 0 -320 127t-108 367q0 492 436 491q214 1 323 -123t109 -367zM512 1119q-140 0 -212 80t-75 200h74
q34 -139 213 -139q126 0 184 76q20 26 29 63h74q-7 -195 -161 -258q-54 -22 -126 -22z" />
    <glyph glyph-name="Ohungarumlaut" unicode="&#x150;" horiz-adv-x="1479" 
d="M84 672q0 684 655 684q479 0 611 -377q45 -129 45 -307t-45 -308t-130 -216q-84 -84 -206 -126t-275 -42q-311 0 -483 172t-172 520zM293 672q0 -140 21 -253t72 -193t137 -124t216 -43q245 0 353 167q94 145 94 445q0 301 -94 443q-107 162 -353 162q-359 0 -425 -353
q-21 -111 -21 -251zM815 1453v33l156 272h192v-37l-292 -268h-56zM465 1453v33l156 272h192v-37l-293 -268h-55z" />
    <glyph glyph-name="ohungarumlaut" unicode="&#x151;" 
d="M766 474q0 206 -59 309q-59 102 -201 102q-141 0 -194 -101q-54 -101 -54 -310t54 -312t194 -103q206 0 247 241q13 76 13 174zM946 475q0 -495 -440 -495q-212 0 -320 127t-108 367q0 492 436 491q214 1 323 -123t109 -367zM586 1119v33l156 272h192v-37l-292 -268h-56z
M236 1119v33l156 272h192v-37l-293 -268h-55z" />
    <glyph glyph-name="OE" unicode="&#x152;" horiz-adv-x="1821" 
d="M720 1268q-228 0 -327.5 -149t-99.5 -447t99 -448t347 -150q78 0 142 10v1173q-50 11 -161 11zM1634 1341v-321h-65l-33 217q-112 14 -324 14h-137v-524h281l30 160h64v-412h-64l-30 162h-281v-547h182q258 0 338 16l58 248h65l-18 -354h-684l-277 -6q-480 0 -567.5 250
t-87.5 513t166 427t489 164l273 -7h622z" />
    <glyph glyph-name="oe" unicode="&#x153;" horiz-adv-x="1479" 
d="M1062 885q-196 0 -196 -332h367q0 164 -27.5 224.5t-60.5 84t-83 23.5zM258 474q0 -207 45 -311t190.5 -104t168 159t22.5 257v27q-4 195 -54 289t-166 94q-117 0 -161.5 -102t-44.5 -309zM1063 965q344 0 344 -410v-82h-543v-18q0 -172 57 -271.5t216 -99.5
q117 0 233 29v-56q-74 -51 -158 -64t-127 -13q-218 0 -315 131q-98 -131 -298 -131q-394 0 -394 492t395 493q200 0 299 -136q95 136 291 136z" />
    <glyph glyph-name="Racute" unicode="&#x154;" horiz-adv-x="1366" 
d="M854 1189q-77 62 -259 62h-171v-573h177q182 0 256 67t74 224q0 158 -77 220zM424 588v-508l203 -27v-53h-555v53l159 27v1182l-172 26v53h579q392 0 468 -209q24 -66 24 -146q0 -147 -78 -241t-197 -129l363 -536l145 -27v-53h-321l-377 588h-241zM536 1453v33l196 272
h213v-37l-354 -268h-55z" />
    <glyph glyph-name="racute" unicode="&#x155;" horiz-adv-x="682" 
d="M664 965v-254h-43l-58 110q-129 0 -237 -49v-702l161 -25v-45h-446v45l119 25v800l-119 25v45h274l9 -117q96 80 242 127q46 15 83 15h15zM269 1119v33l196 272h213v-37l-354 -268h-55z" />
    <glyph glyph-name="Rcommaaccent" unicode="&#x156;" horiz-adv-x="1366" 
d="M854 1189q-77 62 -259 62h-171v-573h177q182 0 256 67t74 224q0 158 -77 220zM424 588v-508l203 -27v-53h-555v53l159 27v1182l-172 26v53h579q392 0 468 -209q24 -66 24 -146q0 -147 -78 -241t-197 -129l363 -536l145 -27v-53h-321l-377 588h-241zM720 -284q0 23 -17 34
q-17 12 -38 22t-38 26t-17 53q0 36 28 58t60 22q59 0 92 -37q34 -37 34 -91q0 -99 -53 -152q-53 -52 -171 -87v63q120 36 120 89z" />
    <glyph glyph-name="rcommaaccent" unicode="&#x157;" horiz-adv-x="682" 
d="M664 965v-254h-43l-58 110q-129 0 -237 -49v-702l161 -25v-45h-446v45l119 25v800l-119 25v45h274l9 -117q96 80 242 127q46 15 83 15h15zM247 -284q0 23 -17 34q-17 12 -38 22t-38 26t-17 53q-1 36 27 58t61 22q59 0 92 -37q34 -37 34 -91q0 -99 -53 -152
q-53 -52 -171 -87v63q120 36 120 89z" />
    <glyph glyph-name="Rcaron" unicode="&#x158;" horiz-adv-x="1366" 
d="M854 1189q-77 62 -259 62h-171v-573h177q182 0 256 67t74 224q0 158 -77 220zM424 588v-508l203 -27v-53h-555v53l159 27v1182l-172 26v53h579q392 0 468 -209q24 -66 24 -146q0 -147 -78 -241t-197 -129l363 -536l145 -27v-53h-321l-377 588h-241zM957 1759v-33
l-217 -273h-213l-218 273v33h56l268 -183l268 183h56z" />
    <glyph glyph-name="rcaron" unicode="&#x159;" horiz-adv-x="682" 
d="M664 965v-254h-43l-58 110q-129 0 -237 -49v-702l161 -25v-45h-446v45l119 25v800l-119 25v45h274l9 -117q96 80 242 127q46 15 83 15h15zM666 1425v-33l-217 -273h-213l-218 273v33h56l268 -183l268 183h56z" />
    <glyph glyph-name="Sacute" unicode="&#x15a;" horiz-adv-x="1139" 
d="M139 361h65l35 -181q61 -78 216 -110q46 -10 106 -9q130 0 206 74q75 74 75 195q0 174 -223 254q-63 22 -129 45q-168 58 -242 122q-110 96 -111 259q0 163 119 254q119 92 308 92q188 0 378 -43v-279h-65l-35 164q-102 74 -252 74q-212 0 -268 -124q-17 -38 -17 -92
q1 -54 31 -97t80 -73t112 -53q64 -21 130 -45q170 -60 244 -128q110 -102 110 -283q0 -180 -117 -288q-117 -109 -346 -109q-230 0 -410 71v310zM486 1453v33l196 272h213v-37l-354 -268h-55z" />
    <glyph glyph-name="sacute" unicode="&#x15b;" horiz-adv-x="797" 
d="M396 -20q-188 0 -310 47v231h45l49 -131q75 -68 195 -68q194 0 194 166q1 121 -153 173q-44 14 -90 30q-116 38 -166 83q-76 67 -76 190t86 194q86 70 244 70q86 0 241 -31v-205h-47l-42 109q-53 47 -151 47q-182 0 -182 -148q1 -79 77 -125q34 -20 78 -36q44 -15 90 -31
q116 -40 168 -89q76 -71 77 -192q1 -206 -189 -264q-68 -20 -138 -20zM301 1119v33l196 272h213v-37l-354 -268h-55z" />
    <glyph glyph-name="Scircumflex" unicode="&#x15c;" horiz-adv-x="1139" 
d="M139 361h65l35 -181q61 -78 216 -110q46 -10 106 -9q130 0 206 74q75 74 75 195q0 174 -223 254q-63 22 -129 45q-168 58 -242 122q-110 96 -111 259q0 163 119 254q119 92 308 92q188 0 378 -43v-279h-65l-35 164q-102 74 -252 74q-212 0 -268 -124q-17 -38 -17 -92
q1 -54 31 -97t80 -73t112 -53q64 -21 130 -45q170 -60 244 -128q110 -102 110 -283q0 -180 -117 -288q-117 -109 -346 -109q-230 0 -410 71v310zM245 1453v33l218 273h213l217 -273v-33h-56l-268 183l-268 -183h-56z" />
    <glyph glyph-name="scircumflex" unicode="&#x15d;" horiz-adv-x="797" 
d="M396 -20q-188 0 -310 47v231h45l49 -131q75 -68 195 -68q194 0 194 166q1 121 -153 173q-44 14 -90 30q-116 38 -166 83q-76 67 -76 190t86 194q86 70 244 70q86 0 241 -31v-205h-47l-42 109q-53 47 -151 47q-182 0 -182 -148q1 -79 77 -125q34 -20 78 -36q44 -15 90 -31
q116 -40 168 -89q76 -71 77 -192q1 -206 -189 -264q-68 -20 -138 -20zM74 1119v33l218 273h213l217 -273v-33h-56l-268 183l-268 -183h-56z" />
    <glyph glyph-name="Scedilla" unicode="&#x15e;" horiz-adv-x="1139" 
d="M597 -258q0 111 -152 123l31 117q-191 11 -337 69v310h65l35 -181q61 -78 216 -110q46 -10 106 -9q130 0 206 74q75 74 75 195q0 174 -223 254q-63 22 -129 45q-168 58 -242 122q-110 96 -111 259q0 163 119 254q119 92 308 92q188 0 378 -43v-279h-65l-35 164
q-102 74 -252 74q-212 0 -268 -124q-17 -38 -17 -92q1 -54 31 -97t80 -73t112 -53q64 -21 130 -45q170 -60 244 -128q110 -102 110 -283q0 -180 -115 -287t-333 -110l-10 -44q90 -9 142 -53q52 -43 52 -103q0 -104 -69 -160q-69 -55 -162 -56q-92 0 -154 22v74
q48 -16 114 -16t93 30t27 68z" />
    <glyph glyph-name="scedilla" unicode="&#x15f;" horiz-adv-x="797" 
d="M407 -258q0 111 -152 123l32 120q-129 14 -201 42v231h45l49 -131q75 -68 195 -68q194 0 194 166q1 121 -153 173q-44 14 -90 30q-116 38 -166 83q-76 67 -76 190t86 194q86 70 244 70q86 0 241 -31v-205h-47l-42 109q-53 47 -151 47q-182 0 -182 -148q1 -79 77 -125
q34 -20 78 -36q44 -15 90 -31q116 -40 168 -89q76 -71 77 -192q1 -206 -189 -264q-66 -20 -160 -20l-10 -44q90 -9 142 -53q52 -43 52 -103q0 -104 -69 -160q-69 -55 -162 -56q-92 0 -154 22v74q48 -16 114 -16t93 30t27 68z" />
    <glyph glyph-name="Scaron" unicode="&#x160;" horiz-adv-x="1139" 
d="M139 361h65l35 -181q61 -78 216 -110q46 -10 106 -9q130 0 206 74q75 74 75 195q0 174 -223 254q-63 22 -129 45q-168 58 -242 122q-110 96 -111 259q0 163 119 254q119 92 308 92q188 0 378 -43v-279h-65l-35 164q-102 74 -252 74q-212 0 -268 -124q-17 -38 -17 -92
q1 -54 31 -97t80 -73t112 -53q64 -21 130 -45q170 -60 244 -128q110 -102 110 -283q0 -180 -117 -288q-117 -109 -346 -109q-230 0 -410 71v310zM923 1759v-33l-217 -273h-213l-218 273v33h56l268 -183l268 183h56z" />
    <glyph glyph-name="scaron" unicode="&#x161;" horiz-adv-x="797" 
d="M396 -20q-188 0 -310 47v231h45l49 -131q75 -68 195 -68q194 0 194 166q1 121 -153 173q-44 14 -90 30q-116 38 -166 83q-76 67 -76 190t86 194q86 70 244 70q86 0 241 -31v-205h-47l-42 109q-53 47 -151 47q-182 0 -182 -148q1 -79 77 -125q34 -20 78 -36q44 -15 90 -31
q116 -40 168 -89q76 -71 77 -192q1 -206 -189 -264q-68 -20 -138 -20zM740 1425v-33l-217 -273h-213l-218 273v33h56l268 -183l268 183h56z" />
    <glyph glyph-name="Tcommaaccent" unicode="&#x162;" horiz-adv-x="1251" 
d="M686 -258q0 111 -152 123l36 135h-255v53l213 27v1175h-51q-253 0 -346 -20l-27 -209h-67v315h1180v-315h-68l-27 209q-81 18 -352 18h-49v-1173l213 -27v-53h-277l-14 -64q91 -9 143 -53q52 -43 51 -103q0 -104 -69 -160q-69 -55 -162 -56q-92 0 -154 22v74
q48 -16 114 -16t93 30t27 68z" />
    <glyph glyph-name="tcommaaccent" unicode="&#x163;" horiz-adv-x="569" 
d="M407 -258q0 111 -152 123l32 119q-144 26 -144 213v659h-123v45l125 39l101 213h63v-213h215v-84h-215v-641q-1 -65 29 -98t83 -33t136 16v-65q-64 -43 -183 -53l-10 -46q90 -9 142 -53q52 -43 52 -103q0 -104 -69 -160q-69 -55 -162 -56q-92 0 -154 22v74
q48 -16 114 -16t93 30t27 68z" />
    <glyph glyph-name="Tcaron" unicode="&#x164;" horiz-adv-x="1251" 
d="M315 0v53l213 27v1175h-51q-253 0 -346 -20l-27 -209h-67v315h1180v-315h-68l-27 209q-81 18 -352 18h-49v-1173l213 -27v-53h-619zM949 1759v-33l-217 -273h-213l-218 273v33h56l268 -183l268 183h56z" />
    <glyph glyph-name="tcaron" unicode="&#x165;" horiz-adv-x="875" 
d="M421 84q53 0 136 16v-65q-82 -55 -223 -55q-96 0 -144 57t-47 160v659h-123v45l125 39l101 213h63v-213h215v-84h-215v-641q-1 -65 29 -98t83 -33zM769 1128q-70 -69 -236 -107v63q163 36 181 110q4 20 4 35q0 17 -14 29t-32 26q-46 37 -47 80q-1 42 27 62t61 21t54 -9
t37 -28q35 -39 35 -126t-70 -156z" />
    <glyph glyph-name="Tbar" unicode="&#x166;" horiz-adv-x="1251" 
d="M315 0v53l213 27v549h-321v82h321v544h-51q-253 0 -346 -20l-27 -209h-67v315h1180v-315h-68l-27 209q-81 18 -352 18h-49v-542h324v-82h-324v-549l213 -27v-53h-619z" />
    <glyph glyph-name="tbar" unicode="&#x167;" horiz-adv-x="569" 
d="M421 84q53 0 136 16v-65q-82 -55 -223 -55q-96 0 -143.5 57t-47.5 160v300h-120v84h120v275h-123v45l125 39l101 213h63v-213h215v-84h-215v-275h206v-84h-206v-282q0 -65 29.5 -98t82.5 -33z" />
    <glyph glyph-name="Utilde" unicode="&#x168;" horiz-adv-x="1479" 
d="M407 457q0 -365 355 -365q201 0 299 95t98 266v809l-180 26v53h457v-53l-172 -26v-801q0 -212 -104 -332q-129 -149 -404 -149q-276 0 -408 120t-133 342v820l-172 26v53h536v-53l-172 -26v-805zM531 1560q-19 -31 -27 -88h-52q15 242 195 242q69 0 165 -70
q36 -26 70 -48t65 -21q54 0 74 32t27 86h52q-15 -241 -195 -241q-71 0 -165 70q-36 26 -70 48t-77 21q-43 0 -62 -31z" />
    <glyph glyph-name="utilde" unicode="&#x169;" 
d="M387 -20q-240 0 -240 276v614l-120 25v45h286v-672q-1 -84 37 -128t142 -44t213 31v743l-142 25v45h307v-870l119 -25v-45h-274l-8 76q-109 -60 -240 -87q-44 -9 -80 -9zM267 1226q-19 -31 -27 -88h-52q15 242 195 242q69 0 165 -70q36 -26 70 -48t65 -21q54 0 74 32
t27 86h52q-15 -241 -195 -241q-71 0 -165 70q-36 26 -70 48t-77 21q-43 0 -62 -31z" />
    <glyph glyph-name="Umacron" unicode="&#x16a;" horiz-adv-x="1479" 
d="M407 457q0 -365 355 -365q201 0 299 95t98 266v809l-180 26v53h457v-53l-172 -26v-801q0 -212 -104 -332q-129 -149 -404 -149q-276 0 -408 120t-133 342v820l-172 26v53h536v-53l-172 -26v-805zM455 1475v109h628v-109h-628z" />
    <glyph glyph-name="umacron" unicode="&#x16b;" 
d="M387 -20q-240 0 -240 276v614l-120 25v45h286v-672q-1 -84 37 -128t142 -44t213 31v743l-142 25v45h307v-870l119 -25v-45h-274l-8 76q-109 -60 -240 -87q-44 -9 -80 -9zM198 1141v109h628v-109h-628z" />
    <glyph glyph-name="Ubreve" unicode="&#x16c;" horiz-adv-x="1479" 
d="M407 457q0 -365 355 -365q201 0 299 95t98 266v809l-180 26v53h457v-53l-172 -26v-801q0 -212 -104 -332q-129 -149 -404 -149q-276 0 -408 120t-133 342v820l-172 26v53h536v-53l-172 -26v-805zM782 1453q-140 0 -212 80t-75 200h74q34 -139 213 -139q126 0 184 76
q20 26 29 63h74q-7 -195 -161 -258q-54 -22 -126 -22z" />
    <glyph glyph-name="ubreve" unicode="&#x16d;" 
d="M387 -20q-240 0 -240 276v614l-120 25v45h286v-672q-1 -84 37 -128t142 -44t213 31v743l-142 25v45h307v-870l119 -25v-45h-274l-8 76q-109 -60 -240 -87q-44 -9 -80 -9zM512 1119q-140 0 -212 80t-75 200h74q34 -139 213 -139q126 0 184 76q20 26 29 63h74
q-7 -195 -161 -258q-54 -22 -126 -22z" />
    <glyph glyph-name="Uring" unicode="&#x16e;" horiz-adv-x="1479" 
d="M407 457q0 -365 355 -365q201 0 299 95t98 266v809l-180 26v53h457v-53l-172 -26v-801q0 -212 -104 -332q-129 -149 -404 -149q-276 0 -408 120t-133 342v820l-172 26v53h536v-53l-172 -26v-805zM873 1701q-37 36 -75 36q-38 1 -60 -9t-39 -27t-27 -39t-9 -48
q0 -52 37 -87q37 -36 74 -36q38 0 60 10q22 11 39 27q36 35 36 86t-36 87zM989 1614q0 -42 -16 -79q-15 -37 -43 -65t-65 -43q-37 -16 -79 -16t-79 16q-37 15 -65 43t-43 65q-16 37 -16 79t16 79q15 37 43 65t65 43q37 16 79 16t79 -16q37 -15 65 -43t43 -65q16 -37 16 -79z
" />
    <glyph glyph-name="uring" unicode="&#x16f;" 
d="M387 -20q-240 0 -240 276v614l-120 25v45h286v-672q-1 -84 37 -128t142 -44t213 31v743l-142 25v45h307v-870l119 -25v-45h-274l-8 76q-109 -60 -240 -87q-44 -9 -80 -9zM599 1367q-37 36 -75 36q-38 1 -60 -9t-39 -27t-27 -39t-9 -48q0 -52 37 -87q37 -36 74 -36
q38 0 60 10q22 11 39 27q36 35 36 86t-36 87zM715 1280q0 -42 -16 -79q-15 -37 -43 -65t-65 -43q-37 -16 -79 -16t-79 16q-37 15 -65 43t-43 65q-16 37 -16 79t16 79q15 37 43 65t65 43q37 16 79 16t79 -16q37 -15 65 -43t43 -65q16 -37 16 -79z" />
    <glyph glyph-name="Uhungarumlaut" unicode="&#x170;" horiz-adv-x="1479" 
d="M407 457q0 -365 355 -365q201 0 299 95t98 266v809l-180 26v53h457v-53l-172 -26v-801q0 -212 -104 -332q-129 -149 -404 -149q-276 0 -408 120t-133 342v820l-172 26v53h536v-53l-172 -26v-805zM858 1453v33l156 272h192v-37l-292 -268h-56zM508 1453v33l156 272h192
v-37l-293 -268h-55z" />
    <glyph glyph-name="uhungarumlaut" unicode="&#x171;" 
d="M387 -20q-240 0 -240 276v614l-120 25v45h286v-672q-1 -84 37 -128t142 -44t213 31v743l-142 25v45h307v-870l119 -25v-45h-274l-8 76q-109 -60 -240 -87q-44 -9 -80 -9zM577 1119v33l156 272h192v-37l-292 -268h-56zM227 1119v33l156 272h192v-37l-293 -268h-55z" />
    <glyph glyph-name="Uogonek" unicode="&#x172;" horiz-adv-x="1479" 
d="M407 457q0 -365 355 -365q201 0 299 95t98 266v809l-180 26v53h457v-53l-172 -26v-801q0 -212 -102 -330t-294 -144q-40 -76 -40 -152q0 -155 138 -155q60 0 116 22v-64q-68 -46 -149 -46q-138 0 -194 61t-56 154t63 173q-266 0 -399 121q-132 120 -132 341v820l-172 26
v53h536v-53l-172 -26v-805z" />
    <glyph glyph-name="uogonek" unicode="&#x173;" 
d="M387 -20q-240 0 -240 276v614l-120 25v45h286v-672q-1 -84 37 -128t142 -44t213 31v743l-142 25v45h307v-870l119 -25v-45h-174q-44 -79 -44 -158q0 -157 138 -157q60 0 116 22v-64q-68 -46 -149 -46q-250 0 -250 224q0 102 88 193l-7 62q-109 -60 -240 -87
q-44 -9 -80 -9z" />
    <glyph glyph-name="Wcircumflex" unicode="&#x174;" horiz-adv-x="1933" 
d="M2 1341h512v-53l-197 -26l319 -945l361 930h45l348 -930l304 945l-209 26v53h444v-53l-117 -26l-438 -1293h-53l-348 924l-357 -924h-53l-444 1293l-117 26v53zM678 1453v33l218 273h213l217 -273v-33h-56l-268 183l-268 -183h-56z" />
    <glyph glyph-name="wcircumflex" unicode="&#x175;" horiz-adv-x="1479" 
d="M2 940h447v-45l-156 -27l223 -635l227 613h84l226 -617l213 641l-154 25v45h358v-45l-104 -21l-315 -894h-78l-232 620l-229 -620h-74l-325 890l-111 25v45zM446 1119v33l218 273h213l217 -273v-33h-56l-268 183l-268 -183h-56z" />
    <glyph glyph-name="Ycircumflex" unicode="&#x176;" horiz-adv-x="1479" 
d="M1051 0h-619v53l213 27v442l-471 740l-151 26v53h567v-53l-180 -26l385 -619l366 619l-170 26v53h436v-53l-147 -26l-442 -734v-448l213 -27v-53zM415 1453v33l218 273h213l217 -273v-33h-56l-268 183l-268 -183h-56z" />
    <glyph glyph-name="ycircumflex" unicode="&#x177;" 
d="M194 -442q-74 0 -149 18v203h47l33 -96q31 -23 80 -23q87 0 143 66t105 192l26 72l-358 880l-96 25v45h436v-45l-148 -27l254 -657l246 659l-147 25v45h350v-45l-98 -21l-367 -933q-77 -194 -128 -259q-51 -64 -103 -94t-126 -30zM211 1119v33l218 273h213l217 -273v-33
h-56l-268 183l-268 -183h-56z" />
    <glyph glyph-name="Ydieresis" unicode="&#x178;" horiz-adv-x="1479" 
d="M1051 0h-619v53l213 27v442l-471 740l-151 26v53h567v-53l-180 -26l385 -619l366 619l-170 26v53h436v-53l-147 -26l-442 -734v-448l213 -27v-53zM672 1559q0 -41 -28 -71t-60 -30t-49 8q-18 8 -32 22t-22 32t-8 39q0 42 30 71t72 29q41 0 69 -29t28 -71zM1028 1559
q0 -41 -28 -71t-60 -30q-52 0 -81 30t-29 72q0 41 29 70t71 29t70 -29t28 -71z" />
    <glyph glyph-name="Zacute" unicode="&#x179;" horiz-adv-x="1251" 
d="M600 1255q-247 0 -340 -20l-31 -211h-69v317h913v-86l-757 -1171h290q256 0 404 33l59 256h70l-27 -373h-1014v94l752 1161h-250zM514 1453v33l196 272h213v-37l-354 -268h-55z" />
    <glyph glyph-name="zacute" unicode="&#x17a;" horiz-adv-x="909" 
d="M55 0v45l516 815h-221q-136 0 -180 -35l-31 -135h-47v250h694v-49l-516 -811h275q90 0 142 18t67 29l51 197h47l-25 -324h-772zM336 1119v33l196 272h213v-37l-354 -268h-55z" />
    <glyph glyph-name="Zdotaccent" unicode="&#x17b;" horiz-adv-x="1251" 
d="M600 1255q-247 0 -340 -20l-31 -211h-69v317h913v-86l-757 -1171h290q256 0 404 33l59 256h70l-27 -373h-1014v94l752 1161h-250zM737 1581q-1 -21 -9 -41t-23 -35t-35 -23t-42 -9q-22 1 -42 9t-34 23q-16 15 -24 35t-8 41q0 22 8 42t24 35q14 16 34 24t42 8t42 -8
t35 -24q15 -15 23 -35t9 -42z" />
    <glyph glyph-name="zdotaccent" unicode="&#x17c;" horiz-adv-x="909" 
d="M55 0v45l516 815h-221q-136 0 -180 -35l-31 -135h-47v250h694v-49l-516 -811h275q90 0 142 18t67 29l51 197h47l-25 -324h-772zM573 1247q-1 -21 -9 -41t-23 -35t-35 -23t-42 -9q-22 1 -42 9t-34 23q-16 15 -24 35t-8 41q0 22 8 42t24 35q14 16 34 24t42 8t42 -8t35 -24
q15 -15 23 -35t9 -42z" />
    <glyph glyph-name="Zcaron" unicode="&#x17d;" horiz-adv-x="1251" 
d="M600 1255q-247 0 -340 -20l-31 -211h-69v317h913v-86l-757 -1171h290q256 0 404 33l59 256h70l-27 -373h-1014v94l752 1161h-250zM955 1759v-33l-217 -273h-213l-218 273v33h56l268 -183l268 183h56z" />
    <glyph glyph-name="zcaron" unicode="&#x17e;" horiz-adv-x="909" 
d="M55 0v45l516 815h-221q-136 0 -180 -35l-31 -135h-47v250h694v-49l-516 -811h275q90 0 142 18t67 29l51 197h47l-25 -324h-772zM781 1425v-33l-217 -273h-213l-218 273v33h56l268 -183l268 183h56z" />
    <glyph glyph-name="longs" unicode="&#x17f;" horiz-adv-x="569" 
d="M504 1442q75 0 141 -19v-205h-49l-45 123q-34 21 -75 21q-73 0 -97.5 -60.5t-24.5 -205.5v-1018l163 -33v-45h-468v45l139 33v932q0 317 120.5 374.5t195.5 57.5z" />
    <glyph glyph-name="florin" unicode="&#x192;" 
d="M750 1362q80 0 143 -19v-182h-47l-33 96q-31 23 -80 23q-84 0 -114 -66t-52 -213l-30 -215h249l-14 -84h-248l-143 -987h-162l137 987h-161l8 50l166 34l32 232q34 246 151.5 295t197.5 49z" />
    <glyph glyph-name="Aringacute" unicode="&#x1fa;" horiz-adv-x="1479" 
d="M676 1208l-230 -651h467zM1464 0h-567v53l180 27l-133 387h-528l-135 -387l180 -27v-53h-441v53l152 27l440 1225q-93 60 -93 171q-1 84 59 144t144 59q84 1 144 -59t59 -156q0 -96 -89 -156l458 -1228l170 -27v-53zM809 1563q-37 36 -75 36q-38 1 -60 -9t-39 -27
t-27 -39t-9 -48q0 -52 37 -87q37 -36 74 -36q38 0 60 10q22 11 39 27q36 35 36 86t-36 87zM626 1705v33l196 272h213v-37l-354 -268h-55z" />
    <glyph glyph-name="aringacute" unicode="&#x1fb;" horiz-adv-x="909" 
d="M381 90q102 0 217 55v334l-131 -4q-125 -4 -177 -47t-52 -162q0 -176 143 -176zM764 705v-635l117 -25v-45h-258l-19 94q-114 -114 -291 -114q-241 0 -241 280q0 256 290 280q48 4 95 5l141 4v147q0 189 -145 189q-100 0 -183 -47l-34 -117h-56v205q162 35 256 35
q170 0 249 -57q79 -58 79 -199zM558 1367q-36 36 -74 36q-38 1 -61 -9q-22 -10 -39 -27q-16 -17 -26 -39t-10 -48q0 -52 37 -87q37 -36 74 -36t59 10q22 11 40 27q36 35 36 86t-36 87zM674 1280q0 -42 -16 -79t-44 -65t-64 -43q-37 -16 -79 -16t-79 16q-36 15 -64 43t-44 65
t-16 79t16 79t44 65t64 43q37 16 79 16t79 -16q36 -15 64 -43t44 -65t16 -79zM352 1530v33l196 272h213v-37l-354 -268h-55z" />
    <glyph glyph-name="AEacute" unicode="&#x1fc;" horiz-adv-x="1821" 
d="M883 557v674l-363 -674h363zM883 467h-412l-207 -387l158 -27v-53h-402v53l136 27l647 1190l-164 18v53h995v-321h-65l-33 217q-112 14 -324 14h-137v-524h281l30 160h64v-412h-64l-30 162h-281v-547h182q258 0 338 16l58 248h65l-18 -354h-969v53l152 27v387zM988 1453
v33l196 272h213v-37l-354 -268h-55z" />
    <glyph glyph-name="aeacute" unicode="&#x1fd;" horiz-adv-x="1366" 
d="M944 885q-103 0 -142 -83q-38 -83 -38 -249h360q0 245 -93 309q-33 24 -87 23zM381 90q115 0 244 68q-27 50 -27 161v160l-131 -4q-125 -4 -177 -47t-52 -162q0 -176 143 -176zM946 965q249 0 324 -213q28 -79 28 -197v-82h-534v-90q2 -147 36 -199q33 -52 82 -76
t152 -24t228 29v-56q-118 -77 -289 -77q-230 0 -322 129q-145 -129 -338 -129q-241 0 -241 280q0 256 290 280q48 4 95 5l141 4v147q0 189 -145 189q-100 0 -183 -47l-34 -117h-56v205q162 35 307 35t215 -74q88 78 244 78zM571 1119v33l196 272h213v-37l-354 -268h-55z" />
    <glyph glyph-name="Oslashacute" unicode="&#x1fe;" horiz-adv-x="1479" 
d="M1186 660q0 255 -64 399l-712 -866q106 -134 329 -134q359 0 426 360q21 113 21 241zM739 1276q-359 0 -425 -353q-21 -112 -21 -242q0 -262 65 -407l715 865q-108 137 -334 137zM84 672q0 684 655 684q259 0 418 -113l123 148h115l-170 -205q170 -178 170 -514
q1 -520 -381 -650q-122 -42 -275 -42q-259 0 -413 110l-121 -145h-119l170 205q-172 176 -172 522zM627 1453v33l196 272h213v-37l-354 -268h-55z" />
    <glyph glyph-name="oslashacute" unicode="&#x1ff;" 
d="M753 300q13 78 13 200t-31 215l-405 -580q60 -76 176 -76q206 0 247 241zM692 801q-62 84 -194 84t-186 -101t-54 -285q0 -185 29 -276zM946 475q0 -495 -440 -495q-145 0 -242 59l-86 -123h-108l127 178q-119 125 -119 372q0 499 436 499q149 0 250 -64l84 121h104
l-123 -174q117 -127 117 -373zM404 1119v33l196 272h213v-37l-354 -268h-55z" />
    <glyph glyph-name="Scommaaccent" unicode="&#x218;" horiz-adv-x="1139" 
d="M622 -284q0 23 -17 34q-17 12 -38 22t-38 26t-17 53q0 36 28 58t60 22q59 0 92 -37q34 -37 34 -91q0 -99 -53 -152q-53 -52 -171 -87v63q120 36 120 89zM139 361h65l35 -181q61 -78 216 -110q46 -10 106 -9q130 0 206 74q75 74 75 195q0 174 -223 254q-63 22 -129 45
q-168 58 -242 122q-110 96 -111 259q0 163 119 254q119 92 308 92q188 0 378 -43v-279h-65l-35 164q-102 74 -252 74q-212 0 -268 -124q-17 -38 -17 -92q1 -54 31 -97t80 -73t112 -53q64 -21 130 -45q170 -60 244 -128q110 -102 110 -283q0 -180 -117 -288
q-117 -109 -346 -109q-230 0 -410 71v310z" />
    <glyph glyph-name="scommaaccent" unicode="&#x219;" horiz-adv-x="797" 
d="M312 -284q0 23 -17 34q-17 12 -38 22t-38 26t-17 53q0 36 28 58t60 22q59 0 92 -37q34 -37 34 -91q0 -99 -53 -152q-53 -52 -171 -87v63q120 36 120 89zM396 -20q-188 0 -310 47v231h45l49 -131q75 -68 195 -68q194 0 194 166q1 121 -153 173q-44 14 -90 30
q-116 38 -166 83q-76 67 -76 190t86 194q86 70 244 70q86 0 241 -31v-205h-47l-42 109q-53 47 -151 47q-182 0 -182 -148q1 -79 77 -125q34 -20 78 -36q44 -15 90 -31q116 -40 168 -89q76 -71 77 -192q1 -206 -189 -264q-68 -20 -138 -20z" />
    <glyph glyph-name="uni021A" unicode="&#x21a;" horiz-adv-x="1251" 
d="M622 -284q0 23 -17 34q-17 12 -38 22t-38 26t-17 53q0 36 28 58t60 22q59 0 92 -37q34 -37 34 -91q0 -99 -53 -152q-53 -52 -171 -87v63q120 36 120 89zM315 0v53l213 27v1175h-51q-253 0 -346 -20l-27 -209h-67v315h1180v-315h-68l-27 209q-81 18 -352 18h-49v-1173
l213 -27v-53h-619z" />
    <glyph glyph-name="uni021B" unicode="&#x21b;" horiz-adv-x="569" 
d="M312 -284q0 23 -17 34q-17 12 -38 22t-38 26t-17 53q0 36 28 58t60 22q59 0 92 -37q34 -37 34 -91q0 -99 -53 -152q-53 -52 -171 -87v63q120 36 120 89zM421 84q53 0 136 16v-65q-82 -55 -223 -55q-96 0 -144 57t-47 160v659h-123v45l125 39l101 213h63v-213h215v-84
h-215v-641q-1 -65 29 -98t83 -33z" />
    <glyph glyph-name="circumflex" unicode="&#x2c6;" horiz-adv-x="682" 
d="M18 1119v33l218 273h213l217 -273v-33h-56l-268 183l-268 -183h-56z" />
    <glyph glyph-name="caron" unicode="&#x2c7;" horiz-adv-x="682" 
d="M666 1425v-33l-217 -273h-213l-218 273v33h56l268 -183l268 183h56z" />
    <glyph glyph-name="uni02C9" unicode="&#x2c9;" horiz-adv-x="682" 
d="M27 1141v109h628v-109h-628z" />
    <glyph glyph-name="breve" unicode="&#x2d8;" horiz-adv-x="682" 
d="M306.5 1119q-106.5 0 -179 79.5t-74.5 200.5h74q34 -139 213 -139q126 0 165 51t48 88h74q-7 -195 -110.5 -237.5t-210 -42.5z" />
    <glyph glyph-name="dotaccent" unicode="&#x2d9;" horiz-adv-x="682" 
d="M452 1247q0 -22 -8.5 -41.5t-23.5 -34.5t-35 -23.5t-42 -8.5t-41.5 8.5t-34.5 23.5t-23.5 34.5t-8.5 41.5t8.5 42t23.5 35t34.5 23.5t41.5 8.5t42 -8.5t35 -23.5t23.5 -35t8.5 -42z" />
    <glyph glyph-name="ring" unicode="&#x2da;" horiz-adv-x="682" 
d="M426.5 1367q-36.5 36 -74.5 36t-60 -9.5t-39 -26.5t-26.5 -39.5t-9.5 -61t37 -74t74 -35.5t59.5 10t49 35.5t26.5 77t-36.5 87.5zM543 1280q0 -42 -16 -79t-43.5 -64.5t-64.5 -43.5t-79 -16t-79 16t-64.5 43.5t-43.5 64.5t-16 79t16 79t43.5 64.5t64.5 43.5t79 16t79 -16
t64.5 -43.5t43.5 -64.5t16 -79z" />
    <glyph glyph-name="ogonek" unicode="&#x2db;" horiz-adv-x="682" 
d="M125 -177q0 103 90 193h109q-31 -44 -42.5 -97t-11.5 -81q0 -74 35.5 -113.5t98.5 -39.5t120 22v-64q-68 -46 -149 -46q-138 0 -194 61.5t-56 164.5z" />
    <glyph glyph-name="tilde" unicode="&#x2dc;" horiz-adv-x="682" 
d="M97 1225.5q-19 -31.5 -27 -87.5h-52q15 242 195 242q70 0 136 -48t99.5 -69.5t64.5 -21.5q54 0 73.5 31.5t27.5 86.5h52q-15 -241 -195 -241q-71 0 -136 48t-98.5 69.5t-77.5 21.5q-43 0 -62 -31.5z" />
    <glyph glyph-name="hungarumlaut" unicode="&#x2dd;" horiz-adv-x="682" 
d="M342 1119v33l156 272h192v-37l-292 -268h-56zM-8 1119v33l156 272h192v-37l-293 -268h-55z" />
    <glyph glyph-name="tonos" unicode="&#x384;" horiz-adv-x="682" 
d="M215 1119v33l69 292h187v-37l-201 -288h-55z" />
    <glyph glyph-name="dieresistonos" unicode="&#x385;" horiz-adv-x="682" 
d="M230 1212q0 -38 -25 -64.5t-63 -26.5t-64.5 26.5t-26.5 64.5t26.5 64t64.5 26t63 -26t25 -64zM630 1212q0 -38 -25 -64.5t-63 -26.5t-64 26.5t-26 64.5t26 64t64 26t63 -26t25 -64zM265 1119v33l49 322h187v-37l-181 -318h-55z" />
    <glyph glyph-name="Alphatonos" unicode="&#x386;" horiz-adv-x="1479" 
d="M676 1208l-230 -651h467zM461 0h-441v53l152 27l457 1272h190l475 -1272l170 -27v-53h-567v53l180 27l-133 387h-528l-135 -387l180 -27v-53zM111 1028v33l69 292h187v-37l-201 -288h-55z" />
    <glyph glyph-name="anoteleia" unicode="&#x387;" horiz-adv-x="569" 
d="M341.5 592q-35.5 -35 -73.5 -35q-64 0 -98.5 35t-34.5 73q0 62 34.5 98t73.5 36q38 0 60.5 -9.5t48 -36t25.5 -76.5t-35.5 -85z" />
    <glyph glyph-name="Epsilontonos" unicode="&#x388;" horiz-adv-x="1421" 
d="M229 1341h1006v-321h-66l-32 217q-112 14 -324 14h-219v-524h362l31 160h64v-412h-64l-31 162h-362v-547h264q258 0 338 16l57 248h66l-19 -354h-1071v53l172 27v1182l-172 26v53zM-72 1017v33l69 292h187v-37l-201 -288h-55z" />
    <glyph glyph-name="Etatonos" unicode="&#x389;" horiz-adv-x="1655" 
d="M229 0v53l172 27v1182l-172 26v53h537v-53l-172 -26v-527h631v527l-172 26v53h536v-53l-172 -26v-1182l172 -27v-53h-536v53l172 27v565h-631v-565l172 -27v-53h-537zM-72 1017v33l69 292h187v-37l-201 -288h-55z" />
    <glyph glyph-name="Iotatonos" unicode="&#x38a;" horiz-adv-x="842" 
d="M770 0h-536v53l172 27v1182l-172 26v53h536v-53l-172 -26v-1182l172 -27v-53zM-72 1017v33l69 292h187v-37l-201 -288h-55z" />
    <glyph glyph-name="Omicrontonos" unicode="&#x38c;" horiz-adv-x="1479" 
d="M84 672q0 684 655 684q479 0 611 -377q45 -129 45 -307t-45 -308t-130 -216q-84 -84 -206 -126t-275 -42q-311 0 -483 172t-172 520zM293 672q0 -140 21 -253t72 -193t137 -124t216 -43q245 0 353 167q94 145 94 445q0 301 -94 443q-107 162 -353 162q-359 0 -425 -353
q-21 -111 -21 -251zM-60 1017v33l69 292h187v-37l-201 -288h-55z" />
    <glyph glyph-name="Upsilontonos" unicode="&#x38e;" horiz-adv-x="1671" 
d="M1243 0h-619v53l213 27v442l-471 740l-151 26v53h567v-53l-180 -26l385 -619l366 619l-170 26v53h436v-53l-147 -26l-442 -734v-448l213 -27v-53zM-67 1017v33l69 292h187v-37l-201 -288h-55z" />
    <glyph glyph-name="Omegatonos" unicode="&#x38f;" horiz-adv-x="1522" 
d="M762 1276q-245 0 -353 -132q-93 -114 -93 -343q0 -289 191 -405q67 -40 162 -53l27 -343h-569l-19 330h66l57 -144q80 -16 284 -16h72l-10 101q-210 33 -340 174t-130 356q0 415 375 521q122 34 280 34q320 0 487 -140q168 -140 168 -415q0 -215 -130 -356t-340 -174
l-10 -101h72q204 0 284 16l57 144h66l-19 -330h-569l27 343q180 23 267 147q86 124 86 332t-93 322q-108 132 -353 132zM-60 1017v33l69 292h187v-37l-201 -288h-55z" />
    <glyph glyph-name="iotadieresistonos" unicode="&#x390;" horiz-adv-x="551" 
d="M344 214q0 -130 89 -130q42 0 109 16v-65q-77 -55 -196 -55q-168 0 -168 217v673l-133 25v45h299v-726zM170 1212q0 -38 -26 -64t-62 -27q-38 1 -64 27t-27 64q1 38 27 64t64 26t62 -26q26 -26 26 -64zM570 1212q0 -38 -25 -64t-63 -27q-38 1 -64 27t-26 64t26 64t64 26
t63 -26t25 -64zM205 1119v33l49 322h187v-37l-181 -318h-55z" />
    <glyph glyph-name="Alpha" unicode="&#x391;" horiz-adv-x="1479" 
d="M676 1208l-230 -651h467zM461 0h-441v53l152 27l457 1272h190l475 -1272l170 -27v-53h-567v53l180 27l-133 387h-528l-135 -387l180 -27v-53z" />
    <glyph glyph-name="Beta" unicode="&#x392;" horiz-adv-x="1366" 
d="M59 0v53l172 27v1182l-172 26v53h613q392 1 467 -183q24 -58 24 -127q0 -128 -75 -209t-201 -108q273 -28 353 -201q26 -57 26 -135q0 -175 -127 -280q-127 -104 -396 -104l-428 6h-256zM687 84q125 0 190 21q182 59 182 277q0 140 -93 206t-302 66h-240v-564
q138 -6 263 -6zM958 1014q0 122 -76 180q-76 57 -251 57h-207v-507h219q255 0 301 160q14 50 14 110z" />
    <glyph glyph-name="Gamma" unicode="&#x393;" horiz-adv-x="1184" 
d="M631 0h-572v53l172 26v1182l-172 27v53h1041l18 -385h-65l-62 279q-100 20 -313 20h-254v-1176l207 -26v-53z" />
    <glyph glyph-name="Delta" unicode="&#x394;" horiz-adv-x="1317" 
d="M606 1196l-400 -1087h806zM1240 0h-1161l-1 80l477 1272h190l495 -1272v-80z" />
    <glyph glyph-name="Epsilon" unicode="&#x395;" horiz-adv-x="1251" 
d="M59 1341h1006v-321h-66l-32 217q-112 14 -324 14h-219v-524h362l31 160h64v-412h-64l-31 162h-362v-547h264q258 0 338 16l57 248h66l-19 -354h-1071v53l172 27v1182l-172 26v53z" />
    <glyph glyph-name="Zeta" unicode="&#x396;" horiz-adv-x="1251" 
d="M600 1255q-247 0 -340 -20l-31 -211h-69v317h913v-86l-757 -1171h290q256 0 404 33l59 256h70l-27 -373h-1014v94l752 1161h-250z" />
    <glyph glyph-name="Eta" unicode="&#x397;" horiz-adv-x="1479" 
d="M59 0v53l172 27v1182l-172 26v53h537v-53l-172 -26v-527h631v527l-172 26v53h536v-53l-172 -26v-1182l172 -27v-53h-536v53l172 27v565h-631v-565l172 -27v-53h-537z" />
    <glyph glyph-name="Theta" unicode="&#x398;" horiz-adv-x="1479" 
d="M463 468v412h64l31 -140h362l31 140h64v-412h-64l-31 142h-362l-31 -142h-64zM84 839.5q0 516.5 655 516.5q479 0 567.5 -253t88.5 -431t-45 -308.5t-130 -215.5t-206.5 -126.5t-354 -41.5t-404 171.5t-171.5 688zM293 672q0 -140 21 -253t72 -193t137 -123.5t274 -43.5
t288.5 156t100.5 456t-100 452.5t-403 152.5t-346.5 -232t-43.5 -372z" />
    <glyph glyph-name="Iota" unicode="&#x399;" horiz-adv-x="682" 
d="M610 0h-536v53l172 27v1182l-172 26v53h536v-53l-172 -26v-1182l172 -27v-53z" />
    <glyph glyph-name="Kappa" unicode="&#x39a;" horiz-adv-x="1479" 
d="M1353 1341v-53l-155 -26l-458 -448l573 -734l145 -27v-53h-328l-525 678l-181 -145v-453l192 -27v-53h-557v53l172 27v1182l-172 26v53h537v-53l-172 -26v-632l642 632l-133 26v53h420z" />
    <glyph glyph-name="Lambda" unicode="&#x39b;" horiz-adv-x="1485" 
d="M461 0h-441v53l145 27l464 1272h190l475 -1272l170 -27v-53h-567v53l180 27l-395 1117l-401 -1117l180 -27v-53z" />
    <glyph glyph-name="Mu" unicode="&#x39c;" horiz-adv-x="1821" 
d="M516 0h-457v53l172 27v1182l-172 26v53h406l436 -1020l476 1020h384v-53l-172 -26v-1182l172 -27v-53h-544v53l180 27v1073l-535 -1153h-35l-491 1153v-1073l180 -27v-53z" />
    <glyph glyph-name="Nu" unicode="&#x39d;" horiz-adv-x="1479" 
d="M975 1341h457v-53l-172 -26v-1262h-97l-827 1206v-1126l180 -27v-53h-457v53l172 27v1182l-172 26v53h406l690 -993v914l-180 26v53z" />
    <glyph glyph-name="Xi" unicode="&#x39e;" horiz-adv-x="1317" 
d="M355 468v412h64l31 -140h416l31 140h64v-412h-64l-31 142h-416l-31 -142h-64zM602 1181q-216 0 -324 -14l-52 -157h-66l20 331h957l20 -331h-66l-52 157q-112 14 -324 14h-113zM745 170q258 0 338 16l57 188h66l-19 -374h-1058l-19 374h66l57 -188q80 -16 365 -16h147z
" />
    <glyph glyph-name="Omicron" unicode="&#x39f;" horiz-adv-x="1479" 
d="M84 672q0 684 655 684q479 0 611 -377q45 -129 45 -307t-45 -308t-130 -216q-84 -84 -206 -126t-275 -42q-311 0 -483 172t-172 520zM293 672q0 -140 21 -253t72 -193t137 -124t216 -43q245 0 353 167q94 145 94 445q0 301 -94 443q-107 162 -353 162q-359 0 -425 -353
q-21 -111 -21 -251z" />
    <glyph glyph-name="Pi" unicode="&#x3a0;" horiz-adv-x="1479" 
d="M59 0v53l172 27v1182l-172 26v53h1360v-53l-172 -26v-1182l172 -27v-53h-536v53l172 27v1171h-631v-1171l172 -27v-53h-537z" />
    <glyph glyph-name="Rho" unicode="&#x3a1;" horiz-adv-x="1139" 
d="M424 526v-446l213 -27v-53h-565v53l159 27v1182l-172 26v53h506q388 0 468 -240q24 -73 24 -155q-1 -185 -103 -292q-122 -128 -379 -128h-151zM858 946q0 161 -76 233t-260 72h-98v-635h104q264 0 314 190q16 62 16 140z" />
    <glyph glyph-name="Sigma" unicode="&#x3a3;" horiz-adv-x="1192" 
d="M536 170q350 0 430 16l57 188h66l-19 -374h-990v74l438 572l-430 616v79h921v-321h-66l-42 217q-112 14 -306 14h-266l349 -503v-51l-403 -527h261z" />
    <glyph glyph-name="Tau" unicode="&#x3a4;" horiz-adv-x="1251" 
d="M315 0v53l213 27v1175h-51q-253 0 -346 -20l-27 -209h-67v315h1180v-315h-68l-27 209q-81 18 -352 18h-49v-1173l213 -27v-53h-619z" />
    <glyph glyph-name="Upsilon" unicode="&#x3a5;" horiz-adv-x="1479" 
d="M1051 0h-619v53l213 27v442l-471 740l-151 26v53h567v-53l-180 -26l385 -619l366 619l-170 26v53h436v-53l-147 -26l-442 -734v-448l213 -27v-53z" />
    <glyph glyph-name="Phi" unicode="&#x3a6;" horiz-adv-x="1497" 
d="M261 692q0 -175 77.5 -283.5t252.5 -108.5h66v760h-60q-336 0 -336 -368zM906 300q175 0 252.5 108.5t77.5 281.5q0 264 -121 317t-215 53h-61v-760h67zM1011 0h-526v53l172 27v142h-113q-328 0 -405 174t-77 277q0 210 116 337t376 127h103v125l-172 26v53h526v-53
l-172 -26v-125h104q260 0 376 -127.5t116 -316.5t-112 -330t-370 -141h-114v-142l172 -27v-53z" />
    <glyph glyph-name="Chi" unicode="&#x3a7;" horiz-adv-x="1479" 
d="M483 0h-438v53l148 27l456 606l-389 576l-151 26v53h553v-53l-170 -26l278 -414l311 414l-166 26v53h439v-53l-148 -26l-377 -502l461 -680l152 -27v-53h-553v53l170 27l-352 520l-390 -520l166 -27v-53z" />
    <glyph glyph-name="Psi" unicode="&#x3a8;" horiz-adv-x="1511" 
d="M1028 0h-546v53l182 27v426q-285 0 -410.5 101.5t-125.5 323.5v331l-122 26v53h314v-415q0 -171 82 -255.5t262 -85.5v677l-182 26v53h546v-53l-182 -26v-677q181 1 263.5 85t82.5 256v415h314v-53l-122 -26v-331q0 -222 -125.5 -323.5t-412.5 -101.5v-426l182 -27v-53z
" />
    <glyph glyph-name="Omega" unicode="&#x3a9;" horiz-adv-x="1522" 
d="M315 801q0 -290 129 -368t224 -90l27 -343h-569l-19 330h66l57 -144q80 -16 284 -16h72l-10 101q-210 33 -340 174t-130 356q0 414 248 484.5t406 70.5q320 0 488 -139.5t168 -415.5q0 -215 -130 -356t-340 -174l-10 -101h72q204 0 284 16l57 144h66l-19 -330h-569
l27 343q180 23 266.5 147t86.5 332t-100.5 331t-345.5 123t-345.5 -123t-100.5 -352z" />
    <glyph glyph-name="Iotadieresis" unicode="&#x3aa;" horiz-adv-x="682" 
d="M610 0h-536v53l172 27v1182l-172 26v53h536v-53l-172 -26v-1182l172 -27v-53zM262 1559q0 -41 -28 -71t-60 -30t-49 8q-18 8 -32 22t-22 32t-8 39q0 42 30 71t72 29q41 0 69 -29t28 -71zM618 1559q0 -41 -28 -71t-60 -30q-52 0 -81 30t-29 72q0 41 29 70t71 29t70 -29
t28 -71z" />
    <glyph glyph-name="Upsilondieresis" unicode="&#x3ab;" horiz-adv-x="1479" 
d="M1051 0h-619v53l213 27v442l-471 740l-151 26v53h567v-53l-180 -26l385 -619l366 619l-170 26v53h436v-53l-147 -26l-442 -734v-448l213 -27v-53zM661 1559q0 -41 -28 -71q-27 -30 -59 -30t-50 8t-32 22t-22 32t-8 39q0 42 30 71t72 29q41 0 69 -29t28 -71zM1017 1559
q0 -41 -28 -71q-27 -30 -59 -30q-52 0 -82 30q-29 30 -29 72q0 41 29 70t71 29t70 -29t28 -71z" />
    <glyph glyph-name="alphatonos" unicode="&#x3ac;" horiz-adv-x="1073" 
d="M484 886q-225 0 -225 -433q0 -183 47 -279t125 -96q143 0 239 240q28 70 54 145q-38 330 -151 399q-39 24 -89 24zM1024 0h-212q-37 118 -66 274h-6q-83 -156 -131 -203q-92 -91 -218 -91q-227 0 -291 268q-22 88 -22 210q0 243 105 376q105 132 289 132q186 0 270 -150
q30 -52 52 -126h6l70 250h157v-40q-45 -73 -175 -417q57 -246 124 -423l48 -15v-45zM448 1119v33l69 292h187v-37l-201 -288h-55z" />
    <glyph glyph-name="epsilontonos" unicode="&#x3ad;" horiz-adv-x="860" 
d="M79 263q0 103 64 163t160 80v7q-184 61 -184 212q0 122 113 181t263 59q151 0 278 -36l-1 -196h-48l-57 113q-70 41 -170 41q-139 0 -189 -86q-20 -33 -20 -79q0 -80 37 -124q37 -43 86 -57q115 11 225 11h32v-96h-32q-68 0 -243 13q-94 -28 -128 -113q-13 -33 -13 -73
q0 -86 62 -143q62 -56 198 -56t289 51v-65q-137 -90 -344 -90q-281 0 -355 172q-22 53 -23 111zM417 1119v33l69 292h187v-37l-201 -288h-55z" />
    <glyph glyph-name="etatonos" unicode="&#x3ae;" horiz-adv-x="1071" 
d="M580 848q-94 0 -249 -67v-781h-166v870l-133 25v45h288l9 -95q206 120 334 120q187 0 241 -152q18 -52 18 -125v-618q0 -232 28 -398q8 -44 14 -63v-45h-175q-33 180 -33 494v612q0 88 -41 133t-135 45zM459 1119v33l69 292h187v-37l-201 -288h-55z" />
    <glyph glyph-name="iotatonos" unicode="&#x3af;" horiz-adv-x="551" 
d="M344 214q0 -130 89 -130q42 0 109 16v-65q-77 -55 -196 -55q-168 0 -168 217v673l-133 25v45h299v-726zM194 1119v33l69 292h187v-37l-201 -288h-55z" />
    <glyph glyph-name="upsilondieresistonos" unicode="&#x3b0;" horiz-adv-x="1014" 
d="M147 325v545l-120 25v45h286v-658q0 -152 112 -200q38 -16 98 -16q123 0 176 96t53 284q0 189 -26 297t-92 148l-1 73q300 -64 300 -484q0 -240 -111 -370t-310 -130q-188 0 -277 94q-88 95 -88 251zM390 1212q0 -38 -26 -64t-62 -27q-38 1 -64 27t-27 64q1 38 27 64
t64 26t62 -26q26 -26 26 -64zM790 1212q0 -38 -25 -64t-63 -27q-38 1 -64 27t-26 64t26 64t64 26t63 -26t25 -64zM425 1119v33l49 322h187v-37l-181 -318h-55z" />
    <glyph glyph-name="alpha" unicode="&#x3b1;" horiz-adv-x="1073" 
d="M484 886q-225 0 -225 -433q0 -184 47 -279.5t125 -95.5q144 0 205.5 155t87.5 230q-38 330 -114 376.5t-126 46.5zM1024 0h-212q-37 118 -66 274h-6q-83 -156 -153 -225t-196 -69q-227 0 -270 178t-43 300q0 243 104.5 375.5t289.5 132.5t242 -101.5t80 -174.5h6l70 250
h157v-40q-45 -73 -175 -417q57 -246 124 -423l48 -15v-45z" />
    <glyph glyph-name="beta" unicode="&#x3b2;" horiz-adv-x="1042" 
d="M735 1088q0 274 -195 274q-121 0 -181.5 -93.5t-60.5 -331.5v-831q118 -38 254 -38q228 0 228 321q0 232 -111 276t-194 47v78q204 6 232 118t28 180zM298 -436h-166v1377q0 393 160 447t248 54q173 0 269 -91t96 -252q0 -210 -97 -268t-144 -68v-10q291 -61 291 -361
q0 -198 -103 -305t-315 -107q-118 0 -239 53v-469z" />
    <glyph glyph-name="gamma" unicode="&#x3b3;" horiz-adv-x="905" 
d="M-3 940h218q138 -308 272 -766h8l170 408q59 136 59 197q0 96 -70 116v45h193q11 -17 11 -72q0 -95 -87 -287l-248 -563q29 -174 29 -443l-159 -11l-46 29q0 196 38 399q-39 114 -138 404.5t-195 476.5l-55 22v45z" />
    <glyph glyph-name="delta" unicode="&#x3b4;" horiz-adv-x="965" 
d="M309.5 147q60.5 -88 173.5 -88q231 0 231 363q0 224 -165 362q-22 19 -45 37q-118 -41 -186.5 -135.5t-68.5 -272.5t60.5 -266zM578 1431q83 0 232 -31v-205h-47l-42 109q-53 47 -145 47t-134 -40.5t-42 -92.5t16.5 -85.5t53 -74.5t130.5 -119q95 -77 191.5 -180.5
t96.5 -292.5q0 -236 -104.5 -361t-297.5 -125q-297 0 -353 158t-56 262q0 197 101.5 313.5t265.5 159.5q-97 86 -145 157.5t-48 143.5t23 117t64.5 76t99 47.5t140.5 16.5z" />
    <glyph glyph-name="epsilon" unicode="&#x3b5;" horiz-adv-x="860" 
d="M79 263q0 103 64 163t160 80v7q-184 61 -184 212q0 122 113 181t263 59q151 0 278 -36l-1 -196h-48l-57 113q-70 41 -170 41q-139 0 -174 -59.5t-35 -105.5q0 -80 37.5 -123.5t85.5 -57.5q115 11 225 11h32v-96h-32q-68 0 -243 13q-94 -28 -117.5 -87t-23.5 -99
q0 -86 61.5 -142.5t198.5 -56.5q136 0 289 51v-65q-137 -90 -344 -90q-282 0 -330 112.5t-48 170.5z" />
    <glyph glyph-name="zeta" unicode="&#x3b6;" horiz-adv-x="848" 
d="M279 426q0 -100 20 -143t64.5 -78.5t179.5 -67.5q134 -32 196.5 -81.5t62.5 -137.5q0 -148 -108.5 -202t-181.5 -78v65q152 60 152 162q0 58 -52 87t-154 49q-200 39 -284.5 126t-84.5 246q0 338 253 619.5t316 347.5v4l-505 -78v114q417 27 627 58v-68
q-255 -304 -339 -451t-123 -270t-39 -223z" />
    <glyph glyph-name="eta" unicode="&#x3b7;" horiz-adv-x="1071" 
d="M580 848q-94 0 -249 -67v-781h-166v870l-133 25v45h288l9 -95q206 120 334 120q186 0 222.5 -102t36.5 -175v-618q0 -233 18 -337.5t24 -123.5v-45h-175q-33 180 -33 494v612q0 88 -41 133t-135 45z" />
    <glyph glyph-name="theta" unicode="&#x3b8;" horiz-adv-x="981" 
d="M513.5 59q94.5 0 145 149.5t54.5 453.5h-437q2 -312 32.5 -416.5t70.5 -145.5t134.5 -41zM320 1209q-42 -143 -44 -459h438q-4 306 -54 454t-174 148t-166 -143zM492 1432q402 0 402 -722q0 -543 -151 -636.5t-259 -93.5q-388 0 -388 730q0 540 145.5 631t250.5 91z" />
    <glyph glyph-name="iota" unicode="&#x3b9;" horiz-adv-x="551" 
d="M344 214q0 -130 89 -130q42 0 109 16v-65q-77 -55 -196 -55q-168 0 -168 217v673l-133 25v45h299v-726z" />
    <glyph glyph-name="kappa" unicode="&#x3ba;" horiz-adv-x="1032" 
d="M943 940v-45l-117 -23l-264 -278l340 -526l102 -23v-45h-256l-292 474l-132 -110v-364h-166v871l-119 24v45h285v-487l434 487h185z" />
    <glyph glyph-name="lambda" unicode="&#x3bb;" horiz-adv-x="993" 
d="M253 1442q66 0 104.5 -17.5t80 -66.5t94.5 -206l334 -1005q25 -75 116 -102v-45h-196l-237 764q-24 -66 -72 -180t-60 -143l-189 -441h-174v33l430 953l-45 138q-72 224 -174 224q-28 0 -57 -12l-40 -83h-49v170q68 19 134 19z" />
    <glyph glyph-name="mu" unicode="&#x3bc;" horiz-adv-x="1098" 
d="M498 96q106 0 232 45v799h165v-870l119 -25v-45h-274l-8 86q-154 -106 -267 -106q-79 0 -133 47v-465h-166v1378h166v-672q0 -172 166 -172z" />
    <glyph glyph-name="nu" unicode="&#x3bd;" horiz-adv-x="926" 
d="M859 940q19 -33 19 -96t-59 -187l-322 -677h-71l-350 890l-71 25v45h233l276 -736l156 346q69 154 69 244q0 44 -24.5 68t-53.5 33v45h198z" />
    <glyph glyph-name="xi" unicode="&#x3be;" horiz-adv-x="913" 
d="M735 813h32v-106h-32q-12 0 -149 13q-158 -51 -235.5 -130.5t-77.5 -199.5t77 -167t233 -81q155 -34 219.5 -85t64.5 -139q0 -148 -108.5 -202t-181.5 -78v65q152 60 152 162q0 81 -77.5 104t-157.5 37q-200 36 -302 115t-102 228q0 267 399 398v11q-171 48 -220 134.5
t-49 143.5q0 221 408 313v3l-488 -26v97q462 0 642 8v-86q-303 -57 -350.5 -159t-47.5 -154q0 -95 62 -155.5t138 -74.5q99 11 151 11z" />
    <glyph glyph-name="omicron" unicode="&#x3bf;" 
d="M766 474q0 206 -59 309q-59 102 -201 102q-141 0 -194 -101q-54 -101 -54 -310t54 -312t194 -103q206 0 247 241q13 76 13 174zM946 475q0 -495 -440 -495q-212 0 -320 127t-108 367q0 492 436 491q214 1 323 -123t109 -367z" />
    <glyph glyph-name="pi" unicode="&#x3c0;" horiz-adv-x="1034" 
d="M827 -20q-178 0 -178 217v659h-286l-37 -458q-26 -320 -46 -398h-183v45q63 65 89 128t39 211l42 472h-134l-48 -128h-57l21 212h954v-84h-188v-642q0 -65 24 -97.5t57 -32.5t87 16v-65q-66 -55 -156 -55z" />
    <glyph glyph-name="rho" unicode="&#x3c1;" horiz-adv-x="1022" 
d="M521 60q117 0 180 92t63 242q0 254 -80 360t-192 106q-195 0 -195 -285v-472q107 -43 224 -43zM297 -436h-165v997q0 300 138 350t221 50q184 0 316 -137t132 -377t-116.5 -353.5t-305.5 -113.5q-97 0 -220 42v-458z" />
    <glyph glyph-name="sigma1" unicode="&#x3c2;" horiz-adv-x="811" 
d="M521 965q100 0 226 -34v-217h-55l-43 129q-66 49 -132 49q-121 0 -190 -144t-69 -358q0 -120 70.5 -166.5t210.5 -81.5q140 -34 196 -84.5t56 -138.5q0 -148 -108.5 -202t-181.5 -79v66q113 44 132.5 88t19.5 88q0 84 -196 124t-289 118.5t-93 221.5t35 254.5t94.5 193
t138 127.5t178.5 46z" />
    <glyph glyph-name="sigma" unicode="&#x3c3;" horiz-adv-x="1104" 
d="M708.5 158q65.5 99 65.5 286q0 282 -124 412q-285 0 -338.5 -151t-53.5 -255t22.5 -178t79 -143.5t169.5 -69.5q114 0 179.5 99zM764 856v-7q120 -104 156 -216.5t36 -206.5q0 -200 -117 -323t-318 -123t-322 134.5t-121 354.5t140.5 345.5t392.5 125.5h349l56 108h57
l-18 -192h-291z" />
    <glyph glyph-name="tau" unicode="&#x3c4;" horiz-adv-x="823" 
d="M588 84q41 0 108 16v-65q-40 -34 -99 -44.5t-85 -10.5q-88 0 -141 53.5t-53 163.5v659h-168l-48 -128h-57l21 212h712v-84h-294v-642q0 -130 104 -130z" />
    <glyph glyph-name="upsilon" unicode="&#x3c5;" horiz-adv-x="1014" 
d="M147 325v545l-120 25v45h286v-658q0 -151 75 -183.5t135 -32.5q123 0 176 95.5t53 284.5t-25.5 297t-92.5 148l-1 73q300 -64 300 -484q0 -240 -111.5 -370t-309.5 -130q-188 0 -276.5 94.5t-88.5 250.5z" />
    <glyph glyph-name="phi" unicode="&#x3c6;" horiz-adv-x="1182" 
d="M755 885q-111 0 -111 -215v-610q210 31 244.5 173.5t34.5 248.5q0 206 -46.5 304.5t-121.5 98.5zM644 -436h-106v420q-342 25 -400.5 192.5t-58.5 290.5q0 236 88.5 350.5t272.5 146.5l-1 -73q-147 -54 -163 -192.5t-16 -232.5q0 -189 68 -287t210 -121v612q0 206 85 251
t150 45q157 0 243 -120.5t86 -354.5t-122.5 -361.5t-335.5 -146.5v-419z" />
    <glyph glyph-name="chi" unicode="&#x3c7;" horiz-adv-x="909" 
d="M-2 -436v33q314 585 389 730l-229 480q-32 69 -137 88v45h183q25 -17 54 -86l188 -437q153 306 246 523h175v-39q-156 -275 -340 -643l266 -561q22 -47 47.5 -65t59.5 -23v-45h-153q-27 18 -67 118l-214 483q-199 -392 -290 -601h-178z" />
    <glyph glyph-name="psi" unicode="&#x3c8;" horiz-adv-x="1282" 
d="M970 300v640h286v-45l-121 -25v-550q0 -323 -440 -337v-419h-106v418q-354 11 -398 140t-44 198v550l-120 25v45h286v-640q0 -225 276 -240v1172h106v-1172q275 15 275 240z" />
    <glyph glyph-name="omega" unicode="&#x3c9;" horiz-adv-x="1348" 
d="M764 556q0 -55 -38 -260q17 -100 61 -154.5t102 -54.5q107 0 152.5 96.5t45.5 234.5q0 372 -263 476v66q306 -50 375 -232.5t69 -289.5q0 -211 -82.5 -334.5t-256.5 -123.5q-175 0 -248 188h-8q-73 -188 -248 -188t-260 123t-85 337t123.5 351t320.5 169v-66
q-263 -103 -263 -476q0 -223 72.5 -279.5t115.5 -56.5q73 0 121 57.5t64 156.5q-3 20 -19.5 113.5t-16.5 146.5v52h166v-52z" />
    <glyph glyph-name="iotadieresis" unicode="&#x3ca;" horiz-adv-x="551" 
d="M344 214q0 -130 89 -130q42 0 109 16v-65q-77 -55 -196 -55q-168 0 -168 217v673l-133 25v45h299v-726zM184 1194q0 -42 -28 -72t-60 -29q-32 0 -49 8q-18 8 -32 22t-22 32t-8 39q0 42 30 71t72 29q41 0 69 -29t28 -71zM540 1194q0 -42 -28 -72t-60 -29q-52 0 -81 30
t-29 72q0 41 29 70t71 29t70 -29t28 -71z" />
    <glyph glyph-name="upsilondieresis" unicode="&#x3cb;" horiz-adv-x="1014" 
d="M147 325v545l-120 25v45h286v-658q0 -152 112 -200q38 -16 98 -16q123 0 176 96t53 284q0 189 -26 297t-92 148l-1 73q300 -64 300 -484q0 -240 -111 -370t-310 -130q-188 0 -277 94q-88 95 -88 251zM429 1194q0 -42 -28 -72q-27 -30 -59 -29q-32 0 -50 8t-32 22t-22 32
t-8 39q0 42 30 71t72 29q41 0 69 -29t28 -71zM785 1194q0 -42 -28 -72q-27 -30 -59 -29q-52 0 -82 30q-29 30 -29 72q0 41 29 70t71 29t70 -29t28 -71z" />
    <glyph glyph-name="omicrontonos" unicode="&#x3cc;" 
d="M766 474q0 206 -59 309q-59 102 -201 102q-141 0 -194 -101q-54 -101 -54 -310t54 -312t194 -103q206 0 247 241q13 76 13 174zM946 475q0 -495 -440 -495q-212 0 -320 127t-108 367q0 492 436 491q214 1 323 -123t109 -367zM440 1119v33l69 292h187v-37l-201 -288h-55z
" />
    <glyph glyph-name="upsilontonos" unicode="&#x3cd;" horiz-adv-x="1014" 
d="M147 325v545l-120 25v45h286v-658q0 -152 112 -200q38 -16 98 -16q123 0 176 96t53 284q0 189 -26 297t-92 148l-1 73q300 -64 300 -484q0 -240 -111 -370t-310 -130q-188 0 -277 94q-88 95 -88 251zM433 1119v33l69 292h187v-37l-201 -288h-55z" />
    <glyph glyph-name="omegatonos" unicode="&#x3ce;" horiz-adv-x="1348" 
d="M764 556q0 -55 -38 -260q17 -100 61 -154t102 -55q107 -1 157 105q42 88 41 226q0 372 -263 476v66q306 -50 408 -321q36 -94 36 -201q0 -211 -82 -335t-257 -123q-175 0 -248 188h-8q-73 -188 -248 -188t-260 123t-85 337t123 351t321 169v-66q-263 -103 -263 -476
q1 -223 107 -306q38 -30 81 -30q73 0 121 58t64 156q-3 20 -9 54q-27 153 -27 206v52h166v-52zM599 1119v33l69 292h187v-37l-201 -288h-55z" />
    <glyph glyph-name="uni0400" unicode="&#x400;" horiz-adv-x="1251" 
d="M59 1341h1006v-321h-66l-32 217q-112 14 -324 14h-219v-524h362l31 160h64v-412h-64l-31 162h-362v-547h264q258 0 338 16l57 248h66l-19 -354h-1071v53l172 27v1182l-172 26v53zM404 1758h213l196 -272v-33h-55l-354 268v37z" />
    <glyph glyph-name="afii10023" unicode="&#x401;" horiz-adv-x="1251" 
d="M59 1341h1006v-321h-66l-32 217q-112 14 -324 14h-219v-524h362l31 160h64v-412h-64l-31 162h-362v-547h264q258 0 338 16l57 248h66l-19 -354h-1071v53l172 27v1182l-172 26v53zM549 1565q0 -41 -28 -71q-27 -30 -59 -30t-50 8t-32 22t-22 32t-8 39q0 42 30 71t72 29
q41 0 69 -29t28 -71zM905 1565q0 -41 -28 -71q-27 -30 -59 -30q-52 0 -82 30q-29 30 -29 72q0 41 29 70t71 29t70 -29t28 -71z" />
    <glyph glyph-name="afii10051" unicode="&#x402;" horiz-adv-x="1540" 
d="M1153 491q0 281 -236 281q-119 0 -236 -27v-665l163 -27v-53h-529v53l173 27v1175h-51q-216 0 -306 -20l-27 -209h-67v315h1096v-315h-68l-27 209q-83 18 -308 18h-49v-423q169 62 278 62q208 0 297 -92t89 -301v-483q0 -312 -136 -382t-240 -70t-183 30v244h66l30 -139
q40 -49 131 -49q140 0 140 190v651z" />
    <glyph glyph-name="afii10052" unicode="&#x403;" horiz-adv-x="1184" 
d="M631 0h-572v53l172 26v1182l-172 27v53h1041l18 -385h-65l-62 279q-100 20 -313 20h-254v-1176l207 -26v-53zM497 1453v33l196 272h213v-37l-354 -268h-55z" />
    <glyph glyph-name="afii10053" unicode="&#x404;" horiz-adv-x="1352" 
d="M877 645h-584q3 -440 186 -514t271 -74q269 0 401 101l37 200h65l-6 -315q-220 -63 -429 -63q-208 0 -336.5 46t-263 178t-134.5 451q0 529 264 615t434 86t284 -20.5t161 -30.5l6 -293h-66l-30 174q-147 90 -364 90t-340.5 -126t-137.5 -415h582v-90z" />
    <glyph glyph-name="afii10054" unicode="&#x405;" horiz-adv-x="1139" 
d="M139 361h65l35 -181q61 -78 216 -110q46 -10 106 -9q130 0 206 74q75 74 75 195q0 174 -223 254q-63 22 -129 45q-168 58 -242 122q-110 96 -111 259q0 163 119 254q119 92 308 92q188 0 378 -43v-279h-65l-35 164q-102 74 -252 74q-212 0 -268 -124q-17 -38 -17 -92
q1 -54 31 -97t80 -73t112 -53q64 -21 130 -45q170 -60 244 -128q110 -102 110 -283q0 -180 -117 -288q-117 -109 -346 -109q-230 0 -410 71v310z" />
    <glyph glyph-name="afii10055" unicode="&#x406;" horiz-adv-x="682" 
d="M610 0h-536v53l172 27v1182l-172 26v53h536v-53l-172 -26v-1182l172 -27v-53z" />
    <glyph glyph-name="afii10056" unicode="&#x407;" horiz-adv-x="682" 
d="M610 0h-536v53l172 27v1182l-172 26v53h536v-53l-172 -26v-1182l172 -27v-53zM262 1565q0 -41 -28 -71t-60 -30t-49 8q-18 8 -32 22t-22 32t-8 39q0 42 30 71t72 29q41 0 69 -29t28 -71zM618 1565q0 -41 -28 -71t-60 -30q-52 0 -81 30t-29 72q0 41 29 70t71 29t70 -29
t28 -71z" />
    <glyph glyph-name="afii10057" unicode="&#x408;" horiz-adv-x="797" 
d="M43 254h66l30 -139q40 -49 131 -49q140 0 140 190v1006l-172 26v53h516v-53l-152 -26v-830q0 -312 -202 -416q-70 -36 -174 -36t-183 30v244z" />
    <glyph glyph-name="afii10058" unicode="&#x409;" horiz-adv-x="1786" 
d="M1442 582q-75 73 -255 73h-154v-565h148q184 0 260 64.5t76 209.5t-75 218zM840 1251h-276l-27 -311q-44 -509 -121.5 -734.5t-236.5 -225.5q-94 0 -153 47l-7 217h45l47 -89q29 -37 75 -37q90 0 150.5 192t98.5 643l27 309l-172 26v53h956v-53l-213 -27v-516h201
q257 0 370 -105t113 -273q0 -259 -176 -313t-317 -54h-556v53l172 26v1172z" />
    <glyph glyph-name="afii10059" unicode="&#x40a;" horiz-adv-x="1786" 
d="M1442 582q-75 73 -255 73h-74v-565h68q184 0 260 64.5t76 209.5t-75 218zM746 1341h537v-53l-170 -27v-516h121q257 0 370 -105t113 -273q0 -259 -176 -313t-317 -54h-476v53l172 26v566h-496v-565l172 -27v-53h-537v53l172 27v1182l-172 26v53h537v-53l-172 -26v-527
h496v527l-174 26v53z" />
    <glyph glyph-name="afii10060" unicode="&#x40b;" horiz-adv-x="1518" 
d="M883 772q-85 0 -202 -27v-665l163 -27v-53h-529v53l173 27v1175h-51q-216 0 -306 -20l-27 -209h-67v315h1094v-315h-68l-27 209q-83 18 -306 18h-49v-423q169 62 278 62q207 0 291.5 -90.5t84.5 -299.5v-423l152 -26v-53h-476v53l132 26v415q0 212 -87.5 245t-172.5 33z
" />
    <glyph glyph-name="afii10061" unicode="&#x40c;" horiz-adv-x="1366" 
d="M1315 1341v-53l-155 -26l-425 -452l493 -730l145 -27v-53h-338l-440 670l-171 -153v-437l192 -27v-53h-557v53l172 27v1182l-172 26v53h537v-53l-172 -26v-637l599 637l-128 26v53h420zM587 1453v33l196 272h213v-37l-354 -268h-55z" />
    <glyph glyph-name="uni040D" unicode="&#x40d;" horiz-adv-x="1479" 
d="M59 0v53l172 27v1182l-172 26v53h537v-53l-172 -26v-969l631 929v40l-172 26v53h536v-53l-172 -26v-1182l172 -27v-53h-536v53l172 27v982l-631 -929v-53l172 -27v-53h-537zM398 1754h213l196 -272v-33h-55l-354 268v37z" />
    <glyph glyph-name="afii10062" unicode="&#x40e;" horiz-adv-x="1450" 
d="M65 1341h557v-53l-170 -26l395 -692l356 692l-150 26v53h396v-53l-127 -26l-439 -828q-132 -251 -196 -323q-115 -131 -232 -131t-183 43l-9 241h45l49 -97q36 -49 86 -49q85 0 152 63q66 63 136 200l-515 881l-151 26v53zM780 1456q-206 0 -284 74t-83 206h164
q6 -103 58 -156t145 -53t145 53t58 156h164q-5 -131 -83 -206q-78 -74 -284 -74z" />
    <glyph glyph-name="afii10145" unicode="&#x40f;" horiz-adv-x="1479" 
d="M59 0v53l172 27v1182l-172 26v53h537v-53l-172 -26v-1172h631v1172l-172 26v53h536v-53l-172 -26v-1182l172 -27v-53h-575l-69 -436h-65l-70 436h-581z" />
    <glyph glyph-name="afii10017" unicode="&#x410;" horiz-adv-x="1479" 
d="M676 1208l-230 -651h467zM461 0h-441v53l152 27l457 1272h190l475 -1272l170 -27v-53h-567v53l180 27l-133 387h-528l-135 -387l180 -27v-53z" />
    <glyph glyph-name="afii10018" unicode="&#x411;" horiz-adv-x="1176" 
d="M783 582q-75 73 -255 73h-104v-565h98q184 0 260 64.5t76 209.5t-75 218zM575 745q259 0 370.5 -103.5t111.5 -269.5q0 -262 -175.5 -317t-316.5 -55h-506v53l172 26v1182l-159 27v53h901l13 -309h-65l-57 203q-100 20 -283 20h-157v-510h151z" />
    <glyph glyph-name="afii10019" unicode="&#x412;" horiz-adv-x="1366" 
d="M59 0v53l172 27v1182l-172 26v53h613q392 1 467 -183q24 -58 24 -127q0 -128 -75 -209t-201 -108q273 -28 353 -201q26 -57 26 -135q0 -175 -127 -280q-127 -104 -396 -104l-428 6h-256zM687 84q125 0 190 21q182 59 182 277q0 140 -93 206t-302 66h-240v-564
q138 -6 263 -6zM958 1014q0 122 -76 180q-76 57 -251 57h-207v-507h219q255 0 301 160q14 50 14 110z" />
    <glyph glyph-name="afii10020" unicode="&#x413;" horiz-adv-x="1184" 
d="M631 0h-572v53l172 26v1182l-172 27v53h1041l18 -385h-65l-62 279q-100 20 -313 20h-254v-1176l207 -26v-53z" />
    <glyph glyph-name="afii10021" unicode="&#x414;" horiz-adv-x="1397" 
d="M297 1341h1042v-53l-172 -26v-1182l180 -20l-17 -496h-65l-97 436h-975l-97 -436h-65l-17 496l176 20q195 369 237 687.5t42 494.5l-172 26v53zM975 90v1161h-404q0 -319 -72 -625.5t-185 -535.5h661z" />
    <glyph glyph-name="afii10022" unicode="&#x415;" horiz-adv-x="1251" 
d="M59 1341h1006v-321h-66l-32 217q-112 14 -324 14h-219v-524h362l31 160h64v-412h-64l-31 162h-362v-547h264q258 0 338 16l57 248h66l-19 -354h-1071v53l172 27v1182l-172 26v53z" />
    <glyph glyph-name="afii10024" unicode="&#x416;" horiz-adv-x="1835" 
d="M0 0v53l121 27l430 736l-364 446l-136 26v53h352v-53l-84 -26l502 -626v626l-132 26v53h457v-53l-132 -26v-626l502 626l-84 26v53h352v-53l-136 -26l-364 -446l430 -736l121 -27v-53h-296l-376 676l-149 -133v-463l152 -27v-53h-477v53l132 27v463l-147 133l-378 -676
h-296z" />
    <glyph glyph-name="afii10025" unicode="&#x417;" horiz-adv-x="1026" 
d="M441 1357q455 0 455 -330q0 -198 -116 -256t-189 -69q342 -41 342 -337q0 -180 -129.5 -282.5t-328.5 -102.5t-367 43l-11 282h66l43 -188q86 -54 260 -54q58 0 115 23t102.5 80t45.5 209q0 210 -112 241.5t-171 34.5l-143 8v82l143 9q178 10 211.5 105t33.5 160
q0 130 -52.5 194t-177.5 64q-83 0 -139.5 -21.5t-72.5 -31.5l-33 -164h-66v258q167 43 291 43z" />
    <glyph glyph-name="afii10026" unicode="&#x418;" horiz-adv-x="1479" 
d="M59 0v53l172 27v1182l-172 26v53h537v-53l-172 -26v-969l631 929v40l-172 26v53h536v-53l-172 -26v-1182l172 -27v-53h-536v53l172 27v982l-631 -929v-53l172 -27v-53h-537z" />
    <glyph glyph-name="afii10027" unicode="&#x419;" horiz-adv-x="1479" 
d="M59 0v53l172 27v1182l-172 26v53h537v-53l-172 -26v-969l631 929v40l-172 26v53h536v-53l-172 -26v-1182l172 -27v-53h-536v53l172 27v982l-631 -929v-53l172 -27v-53h-537zM742 1456q-206 0 -284 74t-83 206h164q6 -103 58 -156t145 -53t145 53t58 156h164
q-5 -131 -83 -206q-78 -74 -284 -74z" />
    <glyph glyph-name="afii10028" unicode="&#x41a;" horiz-adv-x="1366" 
d="M1315 1341v-53l-155 -26l-425 -452l493 -730l145 -27v-53h-338l-440 670l-171 -153v-437l192 -27v-53h-557v53l172 27v1182l-172 26v53h537v-53l-172 -26v-637l599 637l-128 26v53h420z" />
    <glyph glyph-name="afii10029" unicode="&#x41b;" horiz-adv-x="1389" 
d="M290 1341h1040v-53l-172 -26v-1182l172 -27v-53h-536v53l172 27v1171h-402l-27 -311q-44 -509 -121.5 -734.5t-236.5 -225.5q-94 0 -153 47l-7 217h45l47 -89q29 -37 75 -37q90 0 150.5 192t98.5 643l27 309l-172 26v53z" />
    <glyph glyph-name="afii10030" unicode="&#x41c;" horiz-adv-x="1821" 
d="M516 0h-457v53l172 27v1182l-172 26v53h406l436 -1020l476 1020h384v-53l-172 -26v-1182l172 -27v-53h-544v53l180 27v1073l-535 -1153h-35l-491 1153v-1073l180 -27v-53z" />
    <glyph glyph-name="afii10031" unicode="&#x41d;" horiz-adv-x="1479" 
d="M59 0v53l172 27v1182l-172 26v53h537v-53l-172 -26v-527h631v527l-172 26v53h536v-53l-172 -26v-1182l172 -27v-53h-536v53l172 27v565h-631v-565l172 -27v-53h-537z" />
    <glyph glyph-name="afii10032" unicode="&#x41e;" horiz-adv-x="1479" 
d="M84 672q0 684 655 684q479 0 611 -377q45 -129 45 -307t-45 -308t-130 -216q-84 -84 -206 -126t-275 -42q-311 0 -483 172t-172 520zM293 672q0 -140 21 -253t72 -193t137 -124t216 -43q245 0 353 167q94 145 94 445q0 301 -94 443q-107 162 -353 162q-359 0 -425 -353
q-21 -111 -21 -251z" />
    <glyph glyph-name="afii10033" unicode="&#x41f;" horiz-adv-x="1479" 
d="M59 0v53l172 27v1182l-172 26v53h1360v-53l-172 -26v-1182l172 -27v-53h-536v53l172 27v1171h-631v-1171l172 -27v-53h-537z" />
    <glyph glyph-name="afii10034" unicode="&#x420;" horiz-adv-x="1139" 
d="M424 526v-446l213 -27v-53h-565v53l159 27v1182l-172 26v53h506q388 0 468 -240q24 -73 24 -155q-1 -185 -103 -292q-122 -128 -379 -128h-151zM858 946q0 161 -76 233t-260 72h-98v-635h104q264 0 314 190q16 62 16 140z" />
    <glyph glyph-name="afii10035" unicode="&#x421;" horiz-adv-x="1366" 
d="M84 655q0 529 399 659q129 42 299 42t284 -20t161 -31l6 -293h-66l-30 174q-147 90 -351 90q-244 0 -369 -143q-124 -143 -124 -476q-1 -447 279 -563q90 -37 178 -37q270 0 401 101l37 200h65l-6 -315q-220 -63 -473 -63q-327 0 -509 178q-181 178 -181 497z" />
    <glyph glyph-name="afii10036" unicode="&#x422;" horiz-adv-x="1251" 
d="M315 0v53l213 27v1175h-51q-253 0 -346 -20l-27 -209h-67v315h1180v-315h-68l-27 209q-81 18 -352 18h-49v-1173l213 -27v-53h-619z" />
    <glyph glyph-name="afii10037" unicode="&#x423;" horiz-adv-x="1450" 
d="M65 1341h557v-53l-170 -26l395 -692l356 692l-150 26v53h396v-53l-127 -26l-439 -828q-132 -251 -221.5 -352.5t-206.5 -101.5t-183 43l-9 241h45l49 -97q36 -49 86 -49q85 0 151.5 63t136.5 200l-515 881l-151 26v53z" />
    <glyph glyph-name="afii10038" unicode="&#x424;" horiz-adv-x="1618" 
d="M282 692q0 -173 89 -282.5t294 -109.5h48v760h-41q-304 0 -347 -145t-43 -223zM954 300q205 0 294 109.5t89 280.5q0 264 -140.5 317t-249.5 53h-42v-760h49zM1077 0h-536v53l172 27v142h-97q-362 0 -447.5 174t-85.5 328t126.5 283.5t417.5 129.5h86v125l-172 26v53h536
v-53l-172 -26v-125h87q373 0 458.5 -162.5t85.5 -283.5t-36.5 -195.5t-124 -174t-372.5 -99.5h-98v-142l172 -27v-53z" />
    <glyph glyph-name="afii10039" unicode="&#x425;" horiz-adv-x="1479" 
d="M483 0h-438v53l148 27l456 606l-389 576l-151 26v53h553v-53l-170 -26l278 -414l311 414l-166 26v53h439v-53l-148 -26l-377 -502l461 -680l152 -27v-53h-553v53l170 27l-352 520l-390 -520l166 -27v-53z" />
    <glyph glyph-name="afii10040" unicode="&#x426;" horiz-adv-x="1479" 
d="M59 0v53l172 27v1182l-172 26v53h537v-53l-172 -26v-1172h631v1172l-172 26v53h536v-53l-172 -26v-1182l180 -20l-17 -496h-65l-107 436h-1179z" />
    <glyph glyph-name="afii10041" unicode="&#x427;" horiz-adv-x="1331" 
d="M736 1341h536v-53l-172 -26v-1182l172 -27v-53h-556v53l192 27v449q-216 -80 -336 -80q-222 0 -310.5 98t-88.5 315v400l-152 26v53h516v-53l-172 -26v-399q0 -155 58.5 -224.5t209.5 -69.5q80 0 275 45v648l-172 26v53z" />
    <glyph glyph-name="afii10042" unicode="&#x428;" horiz-adv-x="2066" 
d="M59 0v53l172 27v1182l-172 26v53h537v-53l-172 -26v-1172h513v1172l-172 26v53h536v-53l-172 -26v-1172h514v1172l-172 26v53h536v-53l-172 -26v-1182l172 -27v-53h-1948z" />
    <glyph glyph-name="afii10043" unicode="&#x429;" horiz-adv-x="2066" 
d="M59 0v53l172 27v1182l-172 26v53h537v-53l-172 -26v-1172h513v1172l-172 26v53h536v-53l-172 -26v-1172h514v1172l-172 26v53h536v-53l-172 -26v-1182l180 -20l-17 -496h-65l-107 436h-1767z" />
    <glyph glyph-name="afii10044" unicode="&#x42a;" horiz-adv-x="1446" 
d="M1104 582q-75 73 -255 73h-104v-565h98q184 0 260 64.5t76 209.5t-75 218zM1263.5 101.5q-114.5 -101.5 -377.5 -101.5h-506v53l172 26v1176h-51q-273 -4 -346 -20l-27 -209h-67v315h897v-53l-213 -27v-516h151q258 0 370 -103t112 -271t-114.5 -269.5z" />
    <glyph glyph-name="afii10045" unicode="&#x42b;" horiz-adv-x="1786" 
d="M1724 0h-536v53l172 27v1182l-172 26v53h536v-53l-172 -26v-1182l172 -27v-53zM625 745q257 0 370 -105t113 -273q0 -259 -176 -313t-317 -54h-556v53l172 26v1182l-159 27v53h565v-53l-213 -27v-516h201zM833 582q-75 73 -255 73h-154v-565h148q184 0 260 64.5t76 209.5
t-75 218z" />
    <glyph glyph-name="afii10046" unicode="&#x42c;" horiz-adv-x="1176" 
d="M625 745q257 0 370 -105t113 -273q0 -259 -176 -313t-317 -54h-556v53l172 26v1182l-159 27v53h565v-53l-213 -27v-516h201zM833 582q-75 73 -255 73h-154v-565h148q184 0 260 64.5t76 209.5t-75 218z" />
    <glyph glyph-name="afii10047" unicode="&#x42d;" horiz-adv-x="1352" 
d="M592 -20q-259 0 -473 63l-6 315h65l37 -200q131 -101 361 -101q345 0 412 220.5t69 367.5h-580v90h580q-17 430 -187 485.5t-273 55.5q-211 0 -358 -90l-30 -174h-66l6 293q240 51 427 51q357 0 524 -165.5t167 -503.5q0 -337 -134 -473.5t-262.5 -185t-278.5 -48.5z" />
    <glyph glyph-name="afii10048" unicode="&#x42e;" horiz-adv-x="2105" 
d="M999 672q0 -140 19 -253t65.5 -193t125 -123.5t249.5 -43.5t262.5 157t91.5 455t-91 451.5t-367 153.5t-315.5 -232t-39.5 -372zM1405 1356q449 0 532.5 -253t83.5 -516t-161 -435t-455 -172q-439 0 -525.5 247t-89.5 418h-366v-565l172 -27v-53h-537v53l172 27v1182
l-172 26v53h537v-53l-172 -26v-527h367q27 621 614 621z" />
    <glyph glyph-name="afii10049" unicode="&#x42f;" horiz-adv-x="1366" 
d="M477 745.5q74 -67.5 256 -67.5h209v573h-186q-186 0 -269.5 -63.5t-83.5 -218.5q0 -156 74 -223.5zM8 0v53l151 27l306 534q-181 54 -221 173t-40 199q0 170 119.5 262.5t389.5 92.5h594v-53l-172 -26v-1182l159 -27v-53h-555v53l203 27v508h-289l-324 -588h-321z" />
    <glyph glyph-name="afii10065" unicode="&#x430;" horiz-adv-x="909" 
d="M381 90q102 0 217 55v334l-131 -4q-125 -4 -177 -47t-52 -162q0 -176 143 -176zM764 705v-635l117 -25v-45h-258l-19 94q-114 -114 -291 -114q-241 0 -241 280q0 256 290 280q48 4 95 5l141 4v147q0 189 -145 189q-100 0 -183 -47l-34 -117h-56v205q162 35 256 35
q170 0 249 -57q79 -58 79 -199z" />
    <glyph glyph-name="afii10066" unicode="&#x431;" horiz-adv-x="1042" 
d="M276 475q0 -416 248 -416q206 0 233 158.5t27 256.5q0 206 -59.5 308.5t-200.5 102.5t-194.5 -100.5t-53.5 -309.5zM524 -20q-428 0 -428 598q0 376 99 569.5t350 223.5q173 20 244.5 36t90.5 59h50q-5 -143 -77.5 -180.5t-144.5 -48.5t-174 -23t-164.5 -40.5
t-95.5 -80.5t-44.5 -133t-17.5 -200h7q50 140 152.5 172.5t166.5 32.5q212 0 319 -124.5t107 -365.5q0 -495 -440 -495z" />
    <glyph glyph-name="afii10067" unicode="&#x432;" horiz-adv-x="967" 
d="M328 524h106q187 0 208 67.5t21 108.5q0 81 -55.5 120.5t-177.5 39.5h-102v-336zM447 80q139 0 204.5 41t65.5 144q0 104 -69.5 141.5t-213.5 37.5h-106v-364h119zM37 0v45l125 25v800l-125 25v45h402q201 0 302.5 -49t101.5 -178q0 -96 -54.5 -148t-154.5 -75v-8
q127 -14 195 -65t68 -153q0 -138 -100 -201t-335 -63h-425z" />
    <glyph glyph-name="afii10068" unicode="&#x433;" horiz-adv-x="840" 
d="M787 672h-55l-43 166q-111 19 -199 19h-162v-787l154 -25v-45h-445v45l125 25v800l-125 25v45h750v-268z" />
    <glyph glyph-name="afii10069" unicode="&#x434;" horiz-adv-x="1042" 
d="M684 83v787h-240q-28 -461 -191 -787h431zM232 940h732v-45l-114 -25v-800l146 -16l-17 -450h-65l-87 396h-658l-87 -396h-65l-17 450l148 19q179 339 210 797l-126 25v45z" />
    <glyph glyph-name="afii10070" unicode="&#x435;" horiz-adv-x="909" 
d="M476 885q-108 0 -161 -87t-53 -245h402q0 247 -96 309q-36 24 -92 23zM801 57q-118 -77 -335 -77q-82 0 -162 32t-130 95q-94 118 -94 367t103 370t294 121q257 0 333 -213q28 -79 28 -197v-82h-578v-18q0 -173 52 -259q32 -52 89 -82t166 -30t234 29v-56z" />
    <glyph glyph-name="afii10072" unicode="&#x436;" horiz-adv-x="1415" 
d="M-8 0v45l76 23l330 519l-254 285l-101 23v45h306v-45l-88 -27l369 -414v416l-85 25v45h325v-45l-84 -25v-416l369 414l-88 27v45h306v-45l-101 -23l-254 -285l330 -519l76 -23v-45h-222l-288 473l-128 -102v-301l84 -25v-45h-325v45l85 25v301l-128 102l-288 -473h-222z
" />
    <glyph glyph-name="afii10073" unicode="&#x437;" horiz-adv-x="809" 
d="M358 965q189 0 275 -61t86 -191q0 -81 -48 -136.5t-126 -84.5v-6q85 -14 140 -71t55 -133q0 -302 -416 -302q-124 0 -187.5 28.5t-78.5 42.5v60q92 -27 198 -27q178 0 241 51t63 138q0 86 -59 128t-143 42h-120v83h121q92 0 139.5 48.5t47.5 132.5q0 178 -195 178
q-93 0 -158 -47l-36 -136h-55v232q145 31 256 31z" />
    <glyph glyph-name="afii10074" unicode="&#x438;" horiz-adv-x="1096" 
d="M37 940h405v-45l-114 -25v-591l440 476v115l-125 25v45h405v-45l-114 -25v-800l114 -25v-45h-405v45l125 25v572l-440 -476v-96l114 -25v-45h-405v45l125 25v800l-125 25v45z" />
    <glyph glyph-name="afii10075" unicode="&#x439;" horiz-adv-x="1096" 
d="M37 940h405v-45l-114 -25v-591l440 476v115l-125 25v45h405v-45l-114 -25v-800l114 -25v-45h-405v45l125 25v572l-440 -476v-96l114 -25v-45h-405v45l125 25v800l-125 25v45zM544 1122q-206 0 -284 74t-83 206h164q6 -103 58 -156t145 -53t145 53t58 156h164
q-5 -131 -83 -206q-78 -74 -284 -74z" />
    <glyph glyph-name="afii10076" unicode="&#x43a;" horiz-adv-x="995" 
d="M37 940h405v-45l-114 -25v-416l384 414l-98 27v45h332v-45l-117 -23l-268 -274l344 -530l92 -23v-45h-375v45l86 25l-258 405l-122 -104v-301l114 -25v-45h-405v45l125 25v800l-125 25v45z" />
    <glyph glyph-name="afii10077" unicode="&#x43b;" horiz-adv-x="1022" 
d="M141 86q46 0 83.5 117t82.5 402l42 265l-131 25v45h756v-45l-114 -25v-800l114 -25v-45h-405v45l125 25v787h-255l-43 -279q-50 -324 -100 -461t-152 -137q-79 0 -118 33l-6 163h45l31 -53q20 -37 45 -37z" />
    <glyph glyph-name="afii10078" unicode="&#x43c;" horiz-adv-x="1296" 
d="M47 940h333l270 -681l276 681h322v-45l-114 -25v-800l114 -25v-45h-385v45l105 25v749l-332 -819h-54l-324 816v-746l94 -25v-45h-305v45l115 25v800l-115 25v45z" />
    <glyph glyph-name="afii10079" unicode="&#x43d;" horiz-adv-x="1096" 
d="M37 940h405v-45l-114 -25v-348h440v348l-125 25v45h405v-45l-114 -25v-800l114 -25v-45h-405v45l125 25v369h-440v-369l114 -25v-45h-405v45l125 25v800l-125 25v45z" />
    <glyph glyph-name="afii10080" unicode="&#x43e;" 
d="M766 474q0 206 -59 309q-59 102 -201 102q-141 0 -194 -101q-54 -101 -54 -310t54 -312t194 -103q206 0 247 241q13 76 13 174zM946 475q0 -495 -440 -495q-212 0 -320 127t-108 367q0 492 436 491q214 1 323 -123t109 -367z" />
    <glyph glyph-name="afii10081" unicode="&#x43f;" horiz-adv-x="1096" 
d="M37 940h1011v-45l-114 -25v-800l114 -25v-45h-405v45l125 25v787h-440v-787l114 -25v-45h-405v45l125 25v800l-125 25v45z" />
    <glyph glyph-name="afii10082" unicode="&#x440;" 
d="M512 59q252 0 252 422q0 379 -252 379q-117 0 -195 -33v-751q89 -17 195 -17zM311 885q93 80 281 80q63 0 133 -31q219 -97 219 -456t-234 -463q-78 -35 -188 -35q-109 0 -211 22q6 -72 6 -113v-254l164 -24v-47h-448v47l119 24v1235l-107 25v45h264z" />
    <glyph glyph-name="afii10083" unicode="&#x441;" horiz-adv-x="909" 
d="M615 84q122 0 231 33v-60q-105 -77 -311 -77q-457 0 -457 497q0 247 122 367q122 121 328 121q135 0 295 -31v-262h-55l-43 166q-83 47 -199 47q-268 0 -268 -408q0 -195 68 -286q38 -51 102 -79t187 -28z" />
    <glyph glyph-name="afii10084" unicode="&#x442;" horiz-adv-x="895" 
d="M865 940v-268h-55l-43 166q-111 19 -199 19h-38v-787l134 -25v-45h-445v45l145 25v787h-37q-88 0 -199 -19l-43 -166h-55v268h835z" />
    <glyph glyph-name="afii10085" unicode="&#x443;" 
d="M194 -442q-74 0 -149 18v203h47l33 -96q31 -23 80 -23q87 0 143 66t105 192l26 72l-358 880l-96 25v45h436v-45l-148 -27l254 -657l246 659l-147 25v45h350v-45l-98 -21l-367 -933q-77 -194 -128 -259q-51 -64 -103 -94t-126 -30z" />
    <glyph glyph-name="afii10086" unicode="&#x444;" horiz-adv-x="1327" 
d="M887 63q187 -1 187 403t-187 404q-77 0 -141 -31v-746q55 -30 141 -30zM447 879q-192 -1 -192 -403t186 -402q77 0 142 36v749q-64 20 -136 20zM945 965q144 0 225.5 -123.5t81.5 -358.5t-91.5 -369t-260.5 -134q-84 0 -160 43q6 -72 6 -142v-246l124 -24v-47h-406v47
l119 24v245q0 99 4 169q-94 -69 -195 -69q-317 0 -317 481q0 367 131.5 435.5t210.5 68.5t171 -38l-5 181v244l-115 24v45h278v-343q0 -40 -2 -88t-1 -89q90 64 202 64z" />
    <glyph glyph-name="afii10087" unicode="&#x445;" 
d="M999 0h-426v45l125 23l-217 333l-254 -335l129 -21v-45h-338v45l109 16l309 408l-272 401l-111 25v45h426v-45l-125 -27l181 -270l208 272l-129 25v45h338v-45l-108 -21l-264 -342l309 -466l110 -21v-45z" />
    <glyph glyph-name="afii10088" unicode="&#x446;" horiz-adv-x="1096" 
d="M37 0v45l125 25v800l-125 25v45h405v-45l-114 -25v-787h440v787l-125 25v45h405v-45l-114 -25v-800l116 -16l-17 -450h-65l-97 396h-834z" />
    <glyph glyph-name="afii10089" unicode="&#x447;" horiz-adv-x="1030" 
d="M701 387q-194 -94 -315 -94q-122 0 -176 73.5t-54 182.5v321l-125 25v45h405v-45l-114 -25v-318q0 -60 37.5 -101t122.5 -41t219 33v427l-125 25v45h405v-45l-114 -25v-800l114 -25v-45h-405v45l125 25v317z" />
    <glyph glyph-name="afii10090" unicode="&#x448;" horiz-adv-x="1577" 
d="M35 0v45l125 25v800l-125 25v45h405v-45l-114 -25v-787h378v787l-125 25v45h405v-45l-114 -25v-787h377v787l-125 25v45h405v-45l-114 -25v-800l125 -25v-45h-1503z" />
    <glyph glyph-name="afii10091" unicode="&#x449;" horiz-adv-x="1577" 
d="M35 0v45l125 25v800l-125 25v45h405v-45l-114 -25v-787h378v787l-125 25v45h405v-45l-114 -25v-787h377v787l-125 25v45h405v-45l-114 -25v-800l116 -16l-17 -480h-65l-97 426h-1315z" />
    <glyph glyph-name="afii10092" unicode="&#x44a;" horiz-adv-x="1059" 
d="M553 80q134 0 198.5 41.5t64.5 144.5t-63.5 140.5t-199.5 37.5h-81v-364h81zM597 940v-45l-125 -25v-346h99q329 0 377 -93t48 -161q0 -142 -96 -206t-332 -64h-387v45l125 25v787q-119 -2 -172 -10l-43 -175h-55v268h561z" />
    <glyph glyph-name="afii10093" unicode="&#x44b;" horiz-adv-x="1376" 
d="M923 940h405v-45l-114 -25v-800l114 -25v-45h-405v45l125 25v800l-125 25v45zM453 940v-45l-125 -25v-346h119q329 0 377 -93t48 -161q0 -142 -96 -206t-332 -64h-407v45l125 25v800l-125 25v45h416zM429 80q134 0 198.5 41.5t64.5 144.5t-63.5 140.5t-199.5 37.5h-101
v-364h101z" />
    <glyph glyph-name="afii10094" unicode="&#x44c;" horiz-adv-x="934" 
d="M453 940v-45l-125 -25v-346h119q329 0 377 -93t48 -161q0 -142 -96 -206t-332 -64h-407v45l125 25v800l-125 25v45h416zM429 80q134 0 198.5 41.5t64.5 144.5t-63.5 140.5t-199.5 37.5h-101v-364h101z" />
    <glyph glyph-name="afii10095" unicode="&#x44d;" horiz-adv-x="879" 
d="M275 84q111 0 223 47.5t122 311.5h-402v83h402q-7 180 -68.5 269.5t-175.5 89.5t-186 -47l-40 -166h-55v262q160 31 268 31q438 0 438 -483q0 -364 -182.5 -433t-284.5 -69q-183 0 -265 71v60q95 -27 206 -27z" />
    <glyph glyph-name="afii10096" unicode="&#x44e;" horiz-adv-x="1530" 
d="M1272 474q0 206 -59.5 308.5t-200.5 102.5t-194.5 -100.5t-53.5 -310.5q0 -209 54 -312t194 -103q206 0 233 158.5t27 256.5zM1452 475q0 -495 -440 -495q-205 0 -312 117t-115 342h-258v-369l114 -25v-45h-405v45l125 25v800l-125 25v45h405v-45l-114 -25v-348h258
q21 443 435 443q214 0 323 -123.5t109 -366.5z" />
    <glyph glyph-name="afii10097" unicode="&#x44f;" horiz-adv-x="942" 
d="M279 680q0 -196 218 -196h117v376h-102q-233 0 -233 -180zM99 685q0 255 398 255h408v-45l-125 -25v-800l125 -25v-45h-414v45l123 26v333h-146l-234 -404h-228v45l81 23l223 366q-100 23 -155.5 89t-55.5 162z" />
    <glyph glyph-name="uni0450" unicode="&#x450;" horiz-adv-x="909" 
d="M172 1402h213l196 -272v-33h-55l-354 268v37zM476 885q-108 0 -161 -87t-53 -245h402q0 247 -96 309q-36 24 -92 23zM801 57q-118 -77 -335 -77q-82 0 -162 32t-130 95q-94 118 -94 367t103 370t294 121q257 0 333 -213q28 -79 28 -197v-82h-578v-18q0 -173 52 -259
q32 -52 89 -82t166 -30t234 29v-56z" />
    <glyph glyph-name="afii10071" unicode="&#x451;" horiz-adv-x="909" 
d="M476 885q-108 0 -161 -87t-53 -245h402q0 247 -96 309q-36 24 -92 23zM801 57q-118 -77 -335 -77q-82 0 -162 32t-130 95q-94 118 -94 367t103 370t294 121q257 0 333 -213q28 -79 28 -197v-82h-578v-18q0 -173 52 -259q32 -52 89 -82t166 -30t234 29v-56zM415 1194
q0 -42 -28 -72q-27 -30 -59 -29q-32 0 -50 8t-32 22t-22 32t-8 39q0 42 30 71t72 29q41 0 69 -29t28 -71zM771 1194q0 -42 -28 -72q-27 -30 -59 -29q-52 0 -82 30q-29 30 -29 72q0 41 29 70t71 29t70 -29t28 -71z" />
    <glyph glyph-name="afii10099" unicode="&#x452;" horiz-adv-x="989" 
d="M551 828q-94 0 -225 -29v-729l127 -25v-45h-412v45l119 25v1039h-138v83h138v160l-140 24v45h306v-229h261v-83h-261v-115q0 -14 -0.5 -34t-1.5 -53.5t-5 -62.5q112 64 197 82.5t130 18.5q105 0 171 -67t66 -210v-707q0 -304 -115.5 -350.5t-179.5 -46.5t-147 18v199h47
l27 -109q33 -28 83 -28q119 0 119 266v746q0 172 -166 172z" />
    <glyph glyph-name="afii10100" unicode="&#x453;" horiz-adv-x="840" 
d="M787 672h-55l-43 166q-111 19 -199 19h-162v-787l154 -25v-45h-445v45l125 25v800l-125 25v45h750v-268zM283 1119v33l196 272h213v-37l-354 -268h-55z" />
    <glyph glyph-name="afii10101" unicode="&#x454;" horiz-adv-x="879" 
d="M617 84q121 0 229 33v-60q-105 -77 -311 -77q-457 0 -457 497q0 247 121.5 367.5t328.5 120.5q135 0 295 -31v-262h-55l-43 166q-83 47 -201 47q-247 0 -265 -353h342v-80h-343q4 -181 57.5 -248.5t117 -93.5t184.5 -26z" />
    <glyph glyph-name="afii10102" unicode="&#x455;" horiz-adv-x="797" 
d="M396 -20q-188 0 -310 47v231h45l49 -131q75 -68 195 -68q194 0 194 166q1 121 -153 173q-44 14 -90 30q-116 38 -166 83q-76 67 -76 190t86 194q86 70 244 70q86 0 241 -31v-205h-47l-42 109q-53 47 -151 47q-182 0 -182 -148q1 -79 77 -125q34 -20 78 -36q44 -15 90 -31
q116 -40 168 -89q76 -71 77 -192q1 -206 -189 -264q-68 -20 -138 -20z" />
    <glyph glyph-name="afii10103" unicode="&#x456;" horiz-adv-x="569" 
d="M530 0h-487v45l160 25v800l-133 25v45h299v-870l161 -25v-45zM398 1247q0 -21 -8 -41t-24 -35q-15 -15 -35 -23t-42 -9q-21 1 -41 9t-35 23t-23 35t-9 41q1 22 9 42t23 35q15 16 35 24t41 8q22 0 42 -8t35 -24q16 -15 24 -35t8 -42z" />
    <glyph glyph-name="afii10104" unicode="&#x457;" horiz-adv-x="569" 
d="M530 0h-487v45l160 25v800l-133 25v45h299v-870l161 -25v-45zM208 1194q0 -42 -28 -72t-60 -29q-32 0 -49 8q-18 8 -32 22t-22 32t-8 39q0 42 30 71t72 29q41 0 69 -29t28 -71zM564 1194q0 -42 -28 -72t-60 -29q-52 0 -81 30t-29 72q0 41 29 70t71 29t70 -29t28 -71z" />
    <glyph glyph-name="afii10105" unicode="&#x458;" horiz-adv-x="569" 
d="M98 -356q119 0 119 266v960l-141 25v45h307v-979q-1 -304 -177 -375q-54 -22 -118 -22t-147 18v199h47l27 -109q33 -28 83 -28zM361 1171q-31 -32 -65 -32q-34 1 -54 9t-34 23q-16 15 -24 35t-8 41q0 45 32 77t66 32t52 -8q20 -8 35 -24q32 -32 32 -76t-32 -77z" />
    <glyph glyph-name="afii10106" unicode="&#x459;" horiz-adv-x="1489" 
d="M983 80q134 0 198.5 41.5t64.5 144.5t-63.5 140.5t-199.5 37.5h-101v-364h101zM141 86q46 0 83.5 117t82.5 402l42 265l-131 25v45h789v-45l-125 -25v-346h119q329 0 377 -93t48 -161q0 -142 -96 -206t-332 -64h-407v45l125 25v787h-277l-43 -279q-50 -324 -100 -461
t-152 -137q-79 0 -118 33l-6 163h45l31 -53q20 -37 45 -37z" />
    <glyph glyph-name="afii10107" unicode="&#x45a;" horiz-adv-x="1481" 
d="M974 80q134 0 198.5 41.5t64.5 144.5t-63.5 140.5t-199.5 37.5h-101v-364h101zM998 940v-45l-125 -25v-346h119q329 0 377 -93t48 -161q0 -142 -96 -206t-332 -64h-407v45l125 25v369h-379v-369l114 -25v-45h-405v45l125 25v800l-125 25v45h405v-45l-114 -25v-348h379
v348l-125 25v45h416z" />
    <glyph glyph-name="afii10108" unicode="&#x45b;" 
d="M551 828q-94 0 -225 -29v-729l127 -25v-45h-412v45l119 25v1039h-138v83h138v160l-140 24v45h306v-229h261v-83h-261v-115q0 -14 -0.5 -34t-1.5 -53.5t-5 -62.5q112 64 197 82.5t130 18.5q105 0 171 -67t66 -210v-598l114 -25v-45h-405v45l125 25v586q0 172 -166 172z
" />
    <glyph glyph-name="afii10109" unicode="&#x45c;" horiz-adv-x="995" 
d="M37 940h405v-45l-114 -25v-416l384 414l-98 27v45h332v-45l-117 -23l-268 -274l344 -530l92 -23v-45h-375v45l86 25l-258 405l-122 -104v-301l114 -25v-45h-405v45l125 25v800l-125 25v45zM374 1119v33l196 272h213v-37l-354 -268h-55z" />
    <glyph glyph-name="uni045D" unicode="&#x45d;" horiz-adv-x="1096" 
d="M172 1402h213l196 -272v-33h-55l-354 268v37zM37 940h405v-45l-114 -25v-591l440 476v115l-125 25v45h405v-45l-114 -25v-800l114 -25v-45h-405v45l125 25v572l-440 -476v-96l114 -25v-45h-405v45l125 25v800l-125 25v45z" />
    <glyph glyph-name="afii10110" unicode="&#x45e;" 
d="M194 -442q-74 0 -149 18v203h47l33 -96q31 -23 80 -23q87 0 143 66t105 192l26 72l-358 880l-96 25v45h436v-45l-148 -27l254 -657l246 659l-147 25v45h350v-45l-98 -21l-367 -933q-77 -194 -128 -259q-51 -64 -103 -94t-126 -30zM523 1122q-206 0 -284 74t-83 206h164
q6 -103 58 -156t145 -53t145 53t58 156h164q-5 -131 -83 -206q-78 -74 -284 -74z" />
    <glyph glyph-name="afii10193" unicode="&#x45f;" horiz-adv-x="1096" 
d="M36 940h405v-45l-114 -25v-787h440v787l-125 25v45h405v-45l-114 -25v-800l114 -25v-45h-416l-51 -403h-65l-52 403h-427v45l125 25v800l-125 25v45z" />
    <glyph glyph-name="afii10050" unicode="&#x490;" horiz-adv-x="922" 
d="M631 0h-572v53l172 26v1182l-172 27v53h660l100 339h65l17 -426l-477 1v-1176l207 -26v-53z" />
    <glyph glyph-name="afii10098" unicode="&#x491;" horiz-adv-x="719" 
d="M369 856v-786l161 -25v-45h-487v45l160 25v800l-133 25v45h512l72 251h45v-335h-330z" />
    <glyph glyph-name="Wgrave" unicode="&#x1e80;" horiz-adv-x="1933" 
d="M2 1341h512v-53l-197 -26l319 -945l361 930h45l348 -930l304 945l-209 26v53h444v-53l-117 -26l-438 -1293h-53l-348 924l-357 -924h-53l-444 1293l-117 26v53zM762 1758h213l196 -272v-33h-55l-354 268v37z" />
    <glyph glyph-name="wgrave" unicode="&#x1e81;" horiz-adv-x="1479" 
d="M2 940h447v-45l-156 -27l223 -635l227 613h84l226 -617l213 641l-154 25v45h358v-45l-104 -21l-315 -894h-78l-232 620l-229 -620h-74l-325 890l-111 25v45zM510 1424h213l196 -272v-33h-55l-354 268v37z" />
    <glyph glyph-name="Wacute" unicode="&#x1e82;" horiz-adv-x="1933" 
d="M2 1341h512v-53l-197 -26l319 -945l361 930h45l348 -930l304 945l-209 26v53h444v-53l-117 -26l-438 -1293h-53l-348 924l-357 -924h-53l-444 1293l-117 26v53zM867 1453v33l196 272h213v-37l-354 -268h-55z" />
    <glyph glyph-name="wacute" unicode="&#x1e83;" horiz-adv-x="1479" 
d="M2 940h447v-45l-156 -27l223 -635l227 613h84l226 -617l213 641l-154 25v45h358v-45l-104 -21l-315 -894h-78l-232 620l-229 -620h-74l-325 890l-111 25v45zM639 1119v33l196 272h213v-37l-354 -268h-55z" />
    <glyph glyph-name="Wdieresis" unicode="&#x1e84;" horiz-adv-x="1933" 
d="M2 1341h512v-53l-197 -26l319 -945l361 930h45l348 -930l304 945l-209 26v53h444v-53l-117 -26l-438 -1293h-53l-348 924l-357 -924h-53l-444 1293l-117 26v53zM930 1528q0 -42 -28 -72t-60 -29q-32 0 -49 8q-18 8 -32 22t-22 32t-8 39q0 42 30 71t72 29q41 0 69 -29
t28 -71zM1286 1528q0 -42 -28 -72t-60 -29q-52 0 -81 30t-29 72q0 41 29 70t71 29t70 -29t28 -71z" />
    <glyph glyph-name="wdieresis" unicode="&#x1e85;" horiz-adv-x="1479" 
d="M2 940h447v-45l-156 -27l223 -635l227 613h84l226 -617l213 641l-154 25v45h358v-45l-104 -21l-315 -894h-78l-232 620l-229 -620h-74l-325 890l-111 25v45zM696 1194q0 -42 -28 -72t-60 -29q-32 0 -49 8q-18 8 -32 22t-22 32t-8 39q0 42 30 71t72 29q41 0 69 -29t28 -71
zM1052 1194q0 -42 -28 -72t-60 -29q-52 0 -81 30t-29 72q0 41 29 70t71 29t70 -29t28 -71z" />
    <glyph glyph-name="Ygrave" unicode="&#x1ef2;" horiz-adv-x="1479" 
d="M1051 0h-619v53l213 27v442l-471 740l-151 26v53h567v-53l-180 -26l385 -619l366 619l-170 26v53h436v-53l-147 -26l-442 -734v-448l213 -27v-53zM457 1758h213l196 -272v-33h-55l-354 268v37z" />
    <glyph glyph-name="ygrave" unicode="&#x1ef3;" 
d="M194 -442q-74 0 -149 18v203h47l33 -96q31 -23 80 -23q87 0 143 66t105 192l26 72l-358 880l-96 25v45h436v-45l-148 -27l254 -657l246 659l-147 25v45h350v-45l-98 -21l-367 -933q-77 -194 -128 -259q-51 -64 -103 -94t-126 -30zM243 1424h213l196 -272v-33h-55
l-354 268v37z" />
    <glyph glyph-name="uni2010" unicode="&#x2010;" horiz-adv-x="682" 
d="M76 406v153h532v-153h-532z" />
    <glyph glyph-name="uni2011" unicode="&#x2011;" horiz-adv-x="682" 
d="M76 406v153h532v-153h-532z" />
    <glyph glyph-name="endash" unicode="&#x2013;" 
d="M1038 528v-102h-1052v102h1052z" />
    <glyph glyph-name="emdash" unicode="&#x2014;" horiz-adv-x="2048" 
d="M2062 528v-102h-2076v102h2076z" />
    <glyph glyph-name="afii00208" unicode="&#x2015;" horiz-adv-x="2048" 
d="M2062 528v-102h-2076v102h2076z" />
    <glyph glyph-name="underscoredbl" unicode="&#x2017;" 
d="M-16 -526v102h1056v-102h-1056zM-16 -264v102h1056v-102h-1056z" />
    <glyph glyph-name="quoteleft" unicode="&#x2018;" horiz-adv-x="682" 
d="M326 1118q0 -29 25 -45t67.5 -38t42.5 -81q0 -60 -34 -88t-75 -28q-72 0 -113.5 43t-41.5 110q0 281 305 373v-78q-176 -56 -176 -168z" />
    <glyph glyph-name="quoteright" unicode="&#x2019;" horiz-adv-x="682" 
d="M356 1081q0 30 -25 46t-67.5 38t-42.5 81t34.5 87.5t74.5 28.5q72 0 113.5 -43t41.5 -110q0 -285 -305 -373v77q176 56 176 168z" />
    <glyph glyph-name="quotesinglbase" unicode="&#x201a;" horiz-adv-x="682" 
d="M354 -70q0 30 -25 46t-67.5 38t-42.5 81t34.5 87.5t74.5 28.5q72 0 113.5 -43t41.5 -110q0 -285 -305 -373v77q176 56 176 168z" />
    <glyph glyph-name="quotereversed" unicode="&#x201b;" horiz-adv-x="682" 
d="M326 1081q0 -112 176 -168v-77q-156 45 -230.5 140.5t-74.5 217.5q0 121 57 144.5t98 23.5t75 -28.5t34 -69.5t-10 -59.5t-25 -31t-32.5 -21.5t-42.5 -25t-25 -46z" />
    <glyph glyph-name="quotedblleft" unicode="&#x201c;" horiz-adv-x="909" 
d="M227 1118q0 -29 25 -45t67.5 -38t42.5 -81q0 -60 -34 -88t-74 -28q-73 0 -114.5 43.5t-41.5 110.5q0 281 305 372v-78q-176 -56 -176 -168zM647 1118q0 -29 25 -45t67.5 -38t42.5 -81q0 -60 -34 -88t-74 -28q-73 0 -114.5 43.5t-41.5 110.5q0 281 305 372v-78
q-176 -56 -176 -168z" />
    <glyph glyph-name="quotedblright" unicode="&#x201d;" horiz-adv-x="909" 
d="M682 1081q0 30 -25 46t-67.5 38t-42.5 81t34.5 87.5t74.5 28.5q73 0 114 -43.5t41 -110.5q0 -284 -305 -372v77q176 56 176 168zM262 1081q0 30 -25 46t-67.5 38t-42.5 81t34.5 87.5t74.5 28.5q72 0 113.5 -43t41.5 -110q0 -285 -305 -373v77q176 56 176 168z" />
    <glyph glyph-name="quotedblbase" unicode="&#x201e;" horiz-adv-x="909" 
d="M682 -70q0 30 -25 46t-67.5 38t-42.5 81t34.5 87.5t74.5 28.5q73 0 114 -43.5t41 -110.5q0 -284 -305 -372v77q176 56 176 168zM262 -70q0 30 -25 46t-67.5 38t-42.5 81t34.5 87.5t74.5 28.5q72 0 113.5 -43t41.5 -110q0 -285 -305 -373v77q176 56 176 168z" />
    <glyph glyph-name="dagger" unicode="&#x2020;" 
d="M612 780l-77 -1020h-46l-73 1020l63 160l-416 -47v156l416 -43l-43 415h156l-47 -415l416 43v-156l-416 47z" />
    <glyph glyph-name="daggerdbl" unicode="&#x2021;" 
d="M416 401l73 189l-73 190l63 160l-416 -47v156l416 -43l-43 415h156l-47 -415l416 43v-156l-416 47l67 -160l-77 -190l77 -189l-67 -159l416 47v-156l-416 43l47 -416h-156l43 416l-416 -43v156l416 -47z" />
    <glyph glyph-name="bullet" unicode="&#x2022;" horiz-adv-x="717" 
d="M602 678q0 -51 -19 -95.5t-52 -77.5t-77.5 -52t-95.5 -19t-95 19t-77 52t-52 77.5t-19 95.5t19 95.5t52 77.5t77 52t95 19t95.5 -19t77.5 -52t52 -77.5t19 -95.5z" />
    <glyph glyph-name="ellipsis" unicode="&#x2026;" horiz-adv-x="2048" 
d="M1796.5 7q-34.5 -36 -73.5 -36t-61 9.5t-38 26t-25.5 38.5t-9.5 60t35 73t73 35t60.5 -9.5t48 -35t25.5 -75.5t-34.5 -86zM1110.5 7q-34.5 -36 -73.5 -36t-61 9.5t-38 26t-25.5 38.5t-9.5 60t35 73t73 35t60.5 -9.5t48 -35t25.5 -75.5t-34.5 -86zM424.5 7
q-34.5 -36 -73.5 -36t-61 9.5t-38 26t-25.5 38.5t-9.5 60t35 73t73 35t60.5 -9.5t48 -35t25.5 -75.5t-34.5 -86z" />
    <glyph glyph-name="perthousand" unicode="&#x2030;" horiz-adv-x="2048" 
d="M266 -20h-110l948 1382h110zM1845 325q0 138 -34 204.5t-124 66.5t-125.5 -63t-35.5 -171q0 -184 36.5 -250.5t125.5 -66.5t123 71t34 209zM1698 670q303 0 303 -346q0 -177 -75 -265t-234 -88q-322 0 -322 353q0 178 81 262t247 84zM1167 325q0 138 -34 204.5t-124 66.5
t-125.5 -63t-35.5 -171q0 -184 36.5 -250.5t125.5 -66.5t123 71t34 209zM1020 670q303 0 303 -346q0 -177 -75 -265t-234 -88q-322 0 -322 353q0 178 81 262t247 84zM520 1017q0 138 -34 204.5t-124 66.5t-125.5 -63t-35.5 -170q0 -184 36.5 -251t125.5 -67t123 71t34 209z
M373 1362q303 0 303 -346q0 -177 -75 -264.5t-234 -87.5q-322 0 -322 352q0 178 81 262t247 84z" />
    <glyph glyph-name="minute" unicode="&#x2032;" horiz-adv-x="448" 
d="M150 1341h197l-172 -481h-74z" />
    <glyph glyph-name="second" unicode="&#x2033;" horiz-adv-x="853" 
d="M160 1341h197l-172 -481h-74zM545 1341h197l-172 -481h-74z" />
    <glyph glyph-name="guilsinglleft" unicode="&#x2039;" horiz-adv-x="682" 
d="M133 496l334 356h82l-228 -389l228 -389h-82l-334 356v66z" />
    <glyph glyph-name="guilsinglright" unicode="&#x203a;" horiz-adv-x="682" 
d="M549 430l-334 -356h-82l228 389l-228 389h82l334 -356v-66z" />
    <glyph glyph-name="exclamdbl" unicode="&#x203c;" horiz-adv-x="1173" 
d="M231 1341h218l-62 -952h-94zM426 7q-35 -36 -73 -36q-39 -1 -61 9t-38 26t-26 39q-10 22 -9 47q0 51 35 86t73 35q39 1 61 -9t38 -26q35 -35 35 -85t-35 -86zM724 1341h218l-62 -952h-94zM919 7q-35 -36 -73 -36q-39 -1 -61 9t-38 26q-15 16 -25 39q-10 22 -10 47
q0 51 35 86t73 35q38 1 60 -9t39 -26q35 -35 35 -85t-35 -86z" />
    <glyph glyph-name="uni203E" unicode="&#x203e;" horiz-adv-x="682" 
d="M743 1540h-803v80h803v-80z" />
    <glyph glyph-name="uni2215" unicode="&#x2044;" horiz-adv-x="342" 
d="M-260 0h-102l964 1341h100z" />
    <glyph glyph-name="uni2215" unicode="&#x2215;" horiz-adv-x="342" 
d="M-260 0h-102l964 1341h100z" />
    <glyph glyph-name="uni207F" unicode="&#x207f;" horiz-adv-x="645" 
d="M380 1114q167 0 167 -166v-361l68 -15v-37h-243v37l55 15v350q0 50 -17 73.5t-63 23.5t-125 -17v-430l57 -15v-37h-244v37l68 15v460l-68 15v37h181l5 -45q113 60 159 60z" />
    <glyph glyph-name="franc" unicode="&#x20a3;" 
d="M394 612v-228h274v-82h-274v-222l203 -27v-53h-555v53l159 27v222h-173v82h173v878l-172 26v53h900v-321h-66l-32 217q-112 14 -324 14h-113v-549h365l31 160h61v-412h-61l-31 162h-365z" />
    <glyph glyph-name="lira" unicode="&#x20a4;" 
d="M121 629v82h127q-67 156 -67 309q0 154 104.5 245t312.5 91q111 0 293 -43v-258h-65l-35 164q-93 53 -193 53q-229 0 -229 -266q0 -137 29 -295h278v-82h-262q12 -83 14 -114h248v-82h-247q-5 -88 -45.5 -152t-112.5 -127h690v-154h-838v117q34 31 124.5 109.5
t90.5 203.5v3h-217v82h204q-10 35 -42 114h-162z" />
    <glyph glyph-name="peseta" unicode="&#x20a7;" horiz-adv-x="1984" 
d="M1605 49q134 1 134 117q0 79 -76 105t-137.5 47t-111.5 66t-50 135t72.5 140.5t205.5 50.5q72 0 203 -31v-195h-47l-42 109q-39 47 -111 47q-132 0 -132 -99q0 -34 28 -54t70.5 -36t162 -56t119.5 -193t-97 -187.5t-155 -34.5q-171 0 -275 40v207h45l39 -110
q61 -68 155 -68zM1146 205q0 -131 89 -131q42 0 109 16v-55q-77 -55 -196 -55q-168 0 -168 217v419h-93v35l93 39l103 183h63v-183h165v-74h-165v-411zM949 960q0 -69 -9.5 -121.5t-69.5 -182.5t-393 -130h-91v-446l173 -27v-53h-515v53l159 27v1182l-152 26v53h416
q384 0 433 -156t49 -225zM760 946q0 161 -76 233t-260 72h-38v-635h44q264 0 297 126t33 204z" />
    <glyph glyph-name="Euro" unicode="&#x20ac;" 
d="M641 1356q134 0 212 -20t116 -31l4 -252h-68l-20 133q-94 90 -227 90t-211 -105.5t-97 -341.5h350v-81h-354q-2 -22 -2 -28v-62q0 -57 2 -74h354v-82h-350q20 -226 99.5 -335.5t207.5 -109.5q158 0 244 101l25 159h67l-4 -274q-168 -63 -363 -63t-324 136t-159 386h-112
v82h106q-2 17 -2 22v62q0 57 2 80h-106v81h112q31 269 159 398t339 129z" />
    <glyph glyph-name="afii61248" unicode="&#x2105;" horiz-adv-x="1707" 
d="M1402 544.5q-38 67.5 -134 67.5t-130 -66t-34 -211t34.5 -213t129.5 -68q138 0 155 106.5t17 211.5t-38 172.5zM1596 335q0 -168 -84.5 -257t-241.5 -89t-239.5 88.5t-82.5 256.5t85 256t240 88q232 0 277.5 -129t45.5 -214zM432 662q-154 0 -238.5 92t-84.5 260
t94 252.5t241 84.5q91 0 207 -21v-194h-49l-30 116q-57 33 -129 33q-178 0 -178 -275q0 -134 49.5 -199.5t167.5 -65.5t185 23v-52q-81 -54 -235 -54zM435 -20h-110l948 1382h111z" />
    <glyph glyph-name="afii61289" unicode="&#x2113;" horiz-adv-x="981" 
d="M586 1287q-108 0 -107 -224v-441q228 139 228 434q0 164 -44.5 197.5t-76.5 33.5zM313 1064q0 208 95.5 253.5t159.5 45.5q118 0 174 -80t56 -199q0 -209 -83 -334t-236 -208v-244q0 -156 52.5 -188t90.5 -32q136 0 169 213h69q-34 -234 -123.5 -272.5t-151.5 -38.5
q-126 0 -199 79.5t-73 234.5v175q-79 -29 -192 -58v73q107 29 192 59v521z" />
    <glyph glyph-name="afii61352" unicode="&#x2116;" horiz-adv-x="1954" 
d="M1736 534q0 118 -32 177t-114 59q-111 0 -124 -89t-13 -147q0 -123 30 -181.5t110 -58.5q79 0 111 61t32 179zM1875 534q0 -145 -74 -222t-211 -77q-199 0 -237.5 113t-38.5 186q0 144 74.5 218.5t207.5 74.5q199 0 239 -110.5t40 -182.5zM885 1341h457v-53l-172 -26
v-1262h-97l-737 1216v-1136l180 -27v-53h-457v53l172 27v1182l-172 26v53h406l600 -1003v924l-180 26v53zM1327 102h537v-102h-537v102z" />
    <glyph glyph-name="trademark" unicode="&#x2122;" horiz-adv-x="2007" 
d="M1176 537h-285v43l104 16v688l-104 16v41h270l244 -583l264 583h254v-41l-102 -16v-688l102 -16v-43h-348v43l108 16v608l-303 -667h-28l-285 669v-610l109 -16v-43zM254 537v43l127 16v684h-31q-146 0 -196 -12l-17 -125h-41v198h709v-198h-41l-16 125q-44 10 -201 10
h-29v-682l127 -16v-43h-391z" />
    <glyph glyph-name="uni2126" unicode="&#x2126;" horiz-adv-x="1573" 
d="M340 801q0 -290 129 -368t224 -90l27 -343h-569l-19 330h66l57 -144q80 -16 284 -16h72l-10 101q-210 33 -340 174t-130 356q0 414 248.5 484.5t406.5 70.5q320 0 487.5 -139.5t167.5 -415.5q0 -215 -130 -356t-340 -174l-10 -101h72q204 0 284 16l57 144h66l-19 -330
h-569l27 343q180 23 266.5 147t86.5 332t-100.5 331t-345.5 123t-345.5 -123t-100.5 -352z" />
    <glyph glyph-name="estimated" unicode="&#x212e;" horiz-adv-x="1229" 
d="M617 1011q-179 0 -296 -117v-278h596v277q-72 76 -159.5 97t-140.5 21zM321 175q119 -124 313 -124q128 0 216.5 57t163.5 177l72 -42q-83 -131 -187.5 -204t-296.5 -73q-112 0 -211.5 46.5t-201 165.5t-101.5 353q0 273 159.5 419t380.5 146q220 0 370 -154t150 -411
h-827v-356z" />
    <glyph glyph-name="oneeighth" unicode="&#x215b;" horiz-adv-x="1536" 
d="M541 535h-475v49l165 14v625l-161 -58v47l233 134h72v-748l166 -14v-49zM336 0h-102l964 1341h100zM1310 607q0 146 -123 146t-123 -146q0 -70 19 -96q19 -25 43 -35t59 -10q68 0 96 35q29 36 29 106zM1334 226q0 40 -8 71t-24 53q-18 22 -47 32q-29 11 -72 11
q-82 0 -112 -41q-31 -41 -31 -104t6 -94t23 -52q15 -21 43 -32t71 -11t72 11t47 32t24 52q8 32 8 72zM1059 430q-126 53 -126 192t142 184q48 15 112 15q125 0 189 -56t63 -153q0 -129 -125 -182q151 -53 151 -209q-1 -107 -69 -169t-209 -61t-209 61t-69 154q0 172 150 224
z" />
    <glyph glyph-name="threeeighths" unicode="&#x215c;" horiz-adv-x="1536" 
d="M336 0h-102l964 1341h100zM1310 607q0 146 -123 146t-123 -146q0 -70 19 -96q19 -25 43 -35t59 -10q68 0 96 35q29 36 29 106zM1334 226q0 40 -8 71t-24 53q-18 22 -47 32q-29 11 -72 11q-82 0 -112 -41q-31 -41 -31 -104t6 -94t23 -52q15 -21 43 -32t71 -11t72 11t47 32
t24 52q8 32 8 72zM1059 430q-126 53 -126 192t142 184q48 15 112 15q125 0 189 -56t63 -153q0 -129 -125 -182q151 -53 151 -209q-1 -107 -69 -169t-209 -61t-209 61t-69 154q0 172 150 224zM617 754q0 -108 -86 -170t-208 -62t-232 27l-6 186h55l27 -112q56 -33 121 -33
q115 0 150 41q36 41 36 109q0 108 -41 141t-121 37l-86 6v65l86 4q125 7 125 131q0 97 -30 127q-30 31 -101 31q-72 0 -121 -29l-20 -102h-55v172q111 27 181 27q136 0 213 -50t77 -137t-49 -140t-140 -67q225 -25 225 -202z" />
    <glyph glyph-name="fiveeighths" unicode="&#x215d;" horiz-adv-x="1536" 
d="M336 0h-102l964 1341h100zM1310 607q0 146 -123 146t-123 -146q0 -70 19 -96q19 -25 43 -35t59 -10q68 0 96 35q29 36 29 106zM1334 226q0 40 -8 71t-24 53q-18 22 -47 32q-29 11 -72 11q-82 0 -112 -41q-31 -41 -31 -104t6 -94t23 -52q15 -21 43 -32t71 -11t72 11t47 32
t24 52q8 32 8 72zM1059 430q-126 53 -126 192t142 184q48 15 112 15q125 0 189 -56t63 -153q0 -129 -125 -182q151 -53 151 -209q-1 -107 -69 -169t-209 -61t-209 61t-69 154q0 172 150 224zM322 1027q134 0 206 -64q72 -63 72 -181t-71 -189t-208 -71t-227 26l-7 187h55
l27 -112q49 -33 110 -33t93 14t52 38q18 26 26 60t7 76q0 92 -37 135t-118 43q-80 0 -125 -14h-58v399h438v-112h-364v-217q83 15 129 15z" />
    <glyph glyph-name="seveneighths" unicode="&#x215e;" horiz-adv-x="1536" 
d="M276 0h-102l964 1341h100zM1290 607q0 146 -123 146t-123 -146q0 -70 19 -96q19 -25 43 -35t59 -10q68 0 96 35q29 36 29 106zM1314 226q0 40 -8 71t-24 53q-18 22 -47 32q-29 11 -72 11q-82 0 -112 -41q-31 -41 -31 -104t6 -94t23 -52q15 -21 43 -32t71 -11t72 11t47 32
t24 52q8 32 8 72zM1039 430q-126 53 -126 192t142 184q48 15 112 15q125 0 189 -56t63 -153q0 -129 -125 -182q151 -53 151 -209q-1 -107 -69 -169t-209 -61t-209 61t-69 154q0 172 150 224zM119 1111v230h548v-66l-349 -739h-97l342 693h-367l-21 -118h-56z" />
    <glyph glyph-name="arrowleft" unicode="&#x2190;" horiz-adv-x="2048" 
d="M1630 615v-86h-989q57 -67 119 -197h-72q-127 149 -270 222v36q143 73 270 222h72q-62 -130 -119 -197h989z" />
    <glyph glyph-name="arrowup" unicode="&#x2191;" 
d="M555 -61h-86v989q-67 -57 -197 -119v72q149 127 222 270h36q73 -143 222 -270v-72q-130 62 -197 119v-989z" />
    <glyph glyph-name="arrowright" unicode="&#x2192;" horiz-adv-x="2048" 
d="M418 528v86h989q-57 67 -119 197h72q127 -149 270 -222v-36q-143 -73 -270 -222h-72q62 130 119 197h-989z" />
    <glyph glyph-name="arrowdown" unicode="&#x2193;" 
d="M469 1151h86v-989q67 57 197 119v-72q-149 -127 -222 -270h-36q-73 143 -222 270v72q130 -62 197 -119v989z" />
    <glyph glyph-name="arrowboth" unicode="&#x2194;" horiz-adv-x="2048" 
d="M1630 553q-143 -73 -270 -222h-72q62 130 119 197h-766q57 -67 119 -197h-72q-127 149 -270 222v36q143 73 270 222h72q-62 -130 -119 -197h766q-57 67 -119 197h72q127 -149 270 -222v-36z" />
    <glyph glyph-name="arrowupdn" unicode="&#x2195;" 
d="M494 -61q-73 143 -222 270v72q130 -62 197 -119v766q-67 -57 -197 -119v72q149 127 222 270h36q73 -143 222 -270v-72q-130 62 -197 119v-766q67 57 197 119v-72q-149 -127 -222 -270h-36z" />
    <glyph glyph-name="arrowupdnbse" unicode="&#x21a8;" 
d="M494 -61q-73 143 -222 270v72q130 -62 197 -119v766q-67 -57 -197 -119v72q149 127 222 270h36q73 -143 222 -270v-72q-130 62 -197 119v-766q67 57 197 119v-72q-149 -127 -222 -270h-36zM272 -104h480v-80h-480v80z" />
    <glyph glyph-name="partialdiff" unicode="&#x2202;" horiz-adv-x="1012" 
d="M296 548.5q-38 -129.5 -38 -213.5q0 -85 11.5 -133t35.5 -83t60.5 -55.5t85.5 -20.5t92.5 24t97 83.5t103.5 197t69 295.5q-18 91 -78 152t-155 61q-94 0 -170 -89t-114 -218.5zM534 1343q-89 0 -211 -84l-36 33l105 150q79 35 171 35q93 0 229 -82.5t136 -456.5
q0 -205 -38 -371q-135 -594 -502 -594q-167 0 -243.5 101.5t-76.5 257.5q0 204 98.5 362.5t203.5 202t196 43.5t162.5 -49.5t105.5 -132.5h4l4 116q0 342 -109.5 405.5t-198.5 63.5z" />
    <glyph glyph-name="uni2206" unicode="&#x2206;" horiz-adv-x="1253" 
d="M573 1196l-400 -1087h806zM1207 0h-1161l-1 80l477 1272h190l495 -1272v-80z" />
    <glyph glyph-name="product" unicode="&#x220f;" horiz-adv-x="1686" 
d="M114 -436v53l172 27v1618l-172 26v53h1460v-53l-172 -26v-1618l172 -27v-53h-536v53l172 27v1607h-731v-1607l172 -27v-53h-537z" />
    <glyph glyph-name="summation" unicode="&#x2211;" horiz-adv-x="1460" 
d="M719 -266q166 0 249 3.5t144 6t82 6.5l57 228h66l-19 -414h-1206v74l578 843l-533 781v79h1105v-351h-66l-42 247q-96 12 -125 12h-227l-404 2l453 -664v-39l-557 -814h445z" />
    <glyph glyph-name="minus" unicode="&#x2212;" horiz-adv-x="1155" 
d="M1055 731v-102h-953v102h953z" />
    <glyph glyph-name="radical" unicode="&#x221a;" horiz-adv-x="1124" 
d="M51 815v80h271l258 -737l452 1462h90l-499 -1634h-107l-297 829h-168z" />
    <glyph glyph-name="infinity" unicode="&#x221e;" horiz-adv-x="1460" 
d="M153 594q0 -191 80.5 -236t148.5 -45q141 0 263 283q-57 140 -123.5 211.5t-158.5 71.5t-151 -82t-59 -203zM937.5 378q66.5 -71 158.5 -71t151.5 81.5t59.5 202.5t-61 201t-149 80q-89 0 -155.5 -70t-130.5 -212q60 -141 126.5 -212zM743 725q129 252 309 252
q158 0 244 -106.5t86 -274.5t-88.5 -280.5t-226.5 -112.5q-210 0 -351 264q-130 -258 -321 -258q-141 0 -229.5 105.5t-88.5 276.5t88 281.5t230 110.5q219 0 348 -258z" />
    <glyph glyph-name="orthogonal" unicode="&#x221f;" horiz-adv-x="2005" 
d="M408 1223h94v-1129h1130v-94h-1224v1223z" />
    <glyph glyph-name="intersection" unicode="&#x2229;" horiz-adv-x="1479" 
d="M282 -2v512q0 231 128.5 376.5t327.5 145.5t329.5 -146.5t130.5 -375.5v-512h-103v514q0 193 -99 305.5t-257.5 112.5t-256 -112t-97.5 -308v-512h-103z" />
    <glyph glyph-name="integral" unicode="&#x222b;" horiz-adv-x="561" 
d="M-54.5 -537.5q-40.5 11.5 -52.5 21.5v8q14 43 29 131h20q69 -69 124 -69t90.5 76t35.5 204l-6 672q0 268 14 541q11 177 122 296t214 119q56 0 90 -14t39 -18v-9q-24 -73 -34 -131h-21q-70 70 -124 70t-90 -77t-36 -204l4 -538q0 -73 -2.5 -188t-5.5 -254.5t-8 -235.5
q-9 -178 -92 -266.5t-139 -117t-94 -28.5q-37 0 -77.5 11.5z" />
    <glyph glyph-name="approxequal" unicode="&#x2248;" horiz-adv-x="1124" 
d="M795 301q-61 0 -103 18t-81.5 44.5t-76 58t-95.5 76t-106 44.5q-86 0 -124 -57t-51 -184h-101q15 153 53 218t87 95.5t113 30.5t107 -18t82.5 -45t76.5 -58t94.5 -76t103.5 -45q82 0 118.5 58t53.5 184h103q-20 -155 -58 -218.5t-86.5 -94.5t-109.5 -31zM795 711
q-61 0 -103 18t-81.5 44.5t-76 58t-95.5 76t-106 44.5q-86 0 -124 -57t-51 -184h-101q15 153 53 218t87 95.5t113 30.5t107 -18t82.5 -45t76.5 -58t94.5 -76t103.5 -45q82 0 118.5 58t53.5 184h103q-20 -155 -58 -218.5t-86.5 -94.5t-109.5 -31z" />
    <glyph glyph-name="notequal" unicode="&#x2260;" horiz-adv-x="1124" 
d="M1038 936v-102h-307l-215 -308h522v-102h-594l-198 -284h-123l198 284h-236v102h307l215 308h-522v102h593l198 284h125l-199 -284h236z" />
    <glyph glyph-name="equivalence" unicode="&#x2261;" horiz-adv-x="1155" 
d="M1055 731v-102h-953v102h953zM1055 1026v-102h-953v102h953zM1055 436v-102h-953v102h953z" />
    <glyph glyph-name="lessequal" unicode="&#x2264;" horiz-adv-x="1124" 
d="M1038 102v-102h-953v102h953zM85 655v50l953 469v-103l-809 -391l809 -391v-103z" />
    <glyph glyph-name="greaterequal" unicode="&#x2265;" horiz-adv-x="1124" 
d="M1037 102v-102h-953v102h953zM86 186v103l809 391l-809 391v103l953 -469v-50z" />
    <glyph glyph-name="house" unicode="&#x2302;" horiz-adv-x="1229" 
d="M234 82h762v518l-381 426l-381 -426v-518zM154 0v635l461 518l461 -518v-635h-922z" />
    <glyph glyph-name="revlogicalnot" unicode="&#x2310;" horiz-adv-x="1155" 
d="M205 629v-426h-103v528h953v-102h-850z" />
    <glyph glyph-name="integraltp" unicode="&#x2320;" horiz-adv-x="1237" 
d="M693 -614h-147v1878q0 196 83 319t211 123q63 0 100.5 -31.5t37.5 -75.5t-25 -70t-59 -26t-50 11t-50 49q-34 39 -50 39q-36 0 -44 -37t-7 -142v-2037z" />
    <glyph glyph-name="integralbt" unicode="&#x2321;" horiz-adv-x="1237" 
d="M546 1706h147v-1880q0 -205 -84 -323t-211 -117q-60 0 -98.5 30.5t-38.5 84.5t33.5 69.5t59.5 15.5t45 -11t48 -50q31 -37 47 -37q37 0 45 41q7 31 7 137v2040z" />
    <glyph glyph-name="SF100000" unicode="&#x2500;" horiz-adv-x="1451" 
d="M-10 549v145h1471v-145h-1471z" />
    <glyph glyph-name="SF110000" unicode="&#x2502;" horiz-adv-x="1451" 
d="M653 1864h145v-2485h-145v2485z" />
    <glyph glyph-name="SF010000" unicode="&#x250c;" horiz-adv-x="1451" 
d="M653 694h808v-145h-663v-1170h-145v1315z" />
    <glyph glyph-name="SF030000" unicode="&#x2510;" horiz-adv-x="1451" 
d="M-10 549v145h808v-1315h-145v1170h-663z" />
    <glyph glyph-name="SF020000" unicode="&#x2514;" horiz-adv-x="1451" 
d="M653 1864h145v-1170h663v-145h-808v1315z" />
    <glyph glyph-name="SF040000" unicode="&#x2518;" horiz-adv-x="1451" 
d="M-10 549v145h663v1170h145v-1315h-808z" />
    <glyph glyph-name="SF080000" unicode="&#x251c;" horiz-adv-x="1451" 
d="M653 1864h145v-1170h663v-145h-663v-1170h-145v2485z" />
    <glyph glyph-name="SF090000" unicode="&#x2524;" horiz-adv-x="1451" 
d="M-10 549v145h663v1170h145v-2485h-145v1170h-663z" />
    <glyph glyph-name="SF060000" unicode="&#x252c;" horiz-adv-x="1451" 
d="M-10 549v145h1471v-145h-663v-1170h-145v1170h-663z" />
    <glyph glyph-name="SF070000" unicode="&#x2534;" horiz-adv-x="1451" 
d="M-10 549v145h663v1170h145v-1170h663v-145h-1471z" />
    <glyph glyph-name="SF050000" unicode="&#x253c;" horiz-adv-x="1451" 
d="M-10 549v145h663v1170h145v-1170h663v-145h-663v-1170h-145v1170h-663z" />
    <glyph glyph-name="SF430000" unicode="&#x2550;" horiz-adv-x="1451" 
d="M-10 369v145h1471v-145h-1471zM-10 729v145h1471v-145h-1471z" />
    <glyph glyph-name="SF240000" unicode="&#x2551;" horiz-adv-x="1451" 
d="M833 1864h145v-2485h-145v2485zM473 1864h145v-2485h-145v2485z" />
    <glyph glyph-name="SF510000" unicode="&#x2552;" horiz-adv-x="1451" 
d="M653 874h808v-145h-663v-215h663v-145h-663v-990h-145v1495z" />
    <glyph glyph-name="SF520000" unicode="&#x2553;" horiz-adv-x="1451" 
d="M1461 694v-145h-483v-1170h-145v1170h-215v-1170h-145v1315h988z" />
    <glyph glyph-name="SF390000" unicode="&#x2554;" horiz-adv-x="1451" 
d="M833 514h628v-145h-483v-990h-145v1135zM473 874h988v-145h-843v-1350h-145v1495z" />
    <glyph glyph-name="SF220000" unicode="&#x2555;" horiz-adv-x="1451" 
d="M-10 369v145h663v215h-663v145h808v-1495h-145v990h-663z" />
    <glyph glyph-name="SF210000" unicode="&#x2556;" horiz-adv-x="1451" 
d="M-10 549v145h988v-1315h-145v1170h-215v-1170h-145v1170h-483z" />
    <glyph glyph-name="SF250000" unicode="&#x2557;" horiz-adv-x="1451" 
d="M618 -621h-145v990h-483v145h628v-1135zM978 874v-1495h-145v1350h-843v145h988z" />
    <glyph glyph-name="SF500000" unicode="&#x2558;" horiz-adv-x="1451" 
d="M653 1864h145v-990h663v-145h-663v-215h663v-145h-808v1495z" />
    <glyph glyph-name="SF490000" unicode="&#x2559;" horiz-adv-x="1451" 
d="M833 1864h145v-1170h483v-145h-988v1315h145v-1170h215v1170z" />
    <glyph glyph-name="SF380000" unicode="&#x255a;" horiz-adv-x="1451" 
d="M833 1864h145v-990h483v-145h-628v1135zM473 1864h145v-1350h843v-145h-988v1495z" />
    <glyph glyph-name="SF280000" unicode="&#x255b;" horiz-adv-x="1451" 
d="M-10 369v145h663v215h-663v145h663v990h145v-1495h-808z" />
    <glyph glyph-name="SF270000" unicode="&#x255c;" horiz-adv-x="1451" 
d="M978 549h-988v145h483v1170h145v-1170h215v1170h145v-1315z" />
    <glyph glyph-name="SF260000" unicode="&#x255d;" horiz-adv-x="1451" 
d="M473 1864h145v-1135h-628v145h483v990zM978 369h-988v145h843v1350h145v-1495z" />
    <glyph glyph-name="SF360000" unicode="&#x255e;" horiz-adv-x="1451" 
d="M653 1864h145v-990h663v-145h-663v-215h663v-145h-663v-990h-145v2485z" />
    <glyph glyph-name="SF370000" unicode="&#x255f;" horiz-adv-x="1451" 
d="M473 1864h145v-2485h-145v2485zM833 1864h145v-1170h483v-145h-483v-1170h-145v2485z" />
    <glyph glyph-name="SF420000" unicode="&#x2560;" horiz-adv-x="1451" 
d="M833 1864h145v-990h483v-145h-628v1135zM833 514h628v-145h-483v-990h-145v1135zM618 -621h-145v2485h145v-2485z" />
    <glyph glyph-name="SF190000" unicode="&#x2561;" horiz-adv-x="1451" 
d="M-10 369v145h663v215h-663v145h663v990h145v-2485h-145v990h-663z" />
    <glyph glyph-name="SF200000" unicode="&#x2562;" horiz-adv-x="1451" 
d="M833 1864h145v-2485h-145v2485zM-10 549v145h483v1170h145v-2485h-145v1170h-483z" />
    <glyph glyph-name="SF230000" unicode="&#x2563;" horiz-adv-x="1451" 
d="M618 -621h-145v990h-483v145h628v-1135zM473 1864h145v-1135h-628v145h483v990zM833 1864h145v-2485h-145v2485z" />
    <glyph glyph-name="SF470000" unicode="&#x2564;" horiz-adv-x="1451" 
d="M-10 729v145h1471v-145h-1471zM-10 369v145h1471v-145h-663v-990h-145v990h-663z" />
    <glyph glyph-name="SF480000" unicode="&#x2565;" horiz-adv-x="1451" 
d="M-10 549v145h1471v-145h-483v-1170h-145v1170h-215v-1170h-145v1170h-483z" />
    <glyph glyph-name="SF410000" unicode="&#x2566;" horiz-adv-x="1451" 
d="M1461 874v-145h-1471v145h1471zM833 514h628v-145h-483v-990h-145v1135zM618 -621h-145v990h-483v145h628v-1135z" />
    <glyph glyph-name="SF450000" unicode="&#x2567;" horiz-adv-x="1451" 
d="M-10 369v145h1471v-145h-1471zM-10 729v145h663v990h145v-990h663v-145h-1471z" />
    <glyph glyph-name="SF460000" unicode="&#x2568;" horiz-adv-x="1451" 
d="M-10 549v145h483v1170h145v-1170h215v1170h145v-1170h483v-145h-1471z" />
    <glyph glyph-name="SF400000" unicode="&#x2569;" horiz-adv-x="1451" 
d="M-10 369v145h1471v-145h-1471zM473 1864h145v-1135h-628v145h483v990zM833 1864h145v-990h483v-145h-628v1135z" />
    <glyph glyph-name="SF540000" unicode="&#x256a;" horiz-adv-x="1451" 
d="M-10 369v145h663v215h-663v145h663v990h145v-990h663v-145h-663v-215h663v-145h-663v-990h-145v990h-663z" />
    <glyph glyph-name="SF530000" unicode="&#x256b;" horiz-adv-x="1451" 
d="M833 1864h145v-1170h483v-145h-483v-1170h-145v1170h-215v-1170h-145v1170h-483v145h483v1170h145v-1170h215v1170z" />
    <glyph glyph-name="SF440000" unicode="&#x256c;" horiz-adv-x="1451" 
d="M473 1864h145v-1135h-628v145h483v990zM833 514h628v-145h-483v-990h-145v1135zM618 -621h-145v990h-483v145h628v-1135zM833 1864h145v-990h483v-145h-628v1135z" />
    <glyph glyph-name="upblock" unicode="&#x2580;" horiz-adv-x="1451" 
d="M1451 621h-1451v1243h1451v-1243z" />
    <glyph glyph-name="dnblock" unicode="&#x2584;" horiz-adv-x="1451" 
d="M1451 -621h-1451v1242h1451v-1242z" />
    <glyph glyph-name="block" unicode="&#x2588;" horiz-adv-x="1451" 
d="M1451 -621h-1451v2485h1451v-2485z" />
    <glyph glyph-name="lfblock" unicode="&#x258c;" horiz-adv-x="1451" 
d="M726 -621h-726v2485h726v-2485z" />
    <glyph glyph-name="rtblock" unicode="&#x2590;" horiz-adv-x="1451" 
d="M1451 -621h-726v2485h726v-2485z" />
    <glyph glyph-name="ltshade" unicode="&#x2591;" horiz-adv-x="1451" 
d="M1347 1699h104v-96h-104v96zM1347 -234h104v-97h-104v97zM1347 153h104v-97h-104v97zM1347 540h104v-96h-104v96zM1347 927h104v-96h-104v96zM1347 1314h104v-98h-104v98zM933 1699h103v-96h-103v96zM517 1699h104v-96h-104v96zM103 1699h104v-96h-104v96zM1140 1506h104
v-98h-104v98zM725 1506h104v-98h-104v98zM310 1506h104v-98h-104v98zM1140 -427h104v-96h-104v96zM725 -427h104v-96h-104v96zM310 -427h104v-96h-104v96zM103 -234h104v-97h-104v97zM517 -234h104v-97h-104v97zM933 -234h103v-97h-103v97zM1140 -42h104v-94h-104v94z
M725 -42h104v-94h-104v94zM310 -42h104v-94h-104v94zM933 153h103v-97h-103v97zM517 153h104v-97h-104v97zM103 153h104v-97h-104v97zM310 345h104v-96h-104v96zM725 345h104v-96h-104v96zM1140 345h104v-96h-104v96zM933 540h103v-96h-103v96zM517 540h104v-96h-104v96z
M103 540h104v-96h-104v96zM310 732h104v-96h-104v96zM725 732h104v-96h-104v96zM1140 732h104v-96h-104v96zM103 927h104v-96h-104v96zM517 927h104v-96h-104v96zM933 927h103v-96h-103v96zM1140 1119h104v-96h-104v96zM725 1119h104v-96h-104v96zM310 1119h104v-96h-104v96
zM933 1314h103v-98h-103v98zM517 1314h104v-98h-104v98zM103 1314h104v-98h-104v98z" />
    <glyph glyph-name="shade" unicode="&#x2592;" horiz-adv-x="1451" 
d="M1347 1699h104v-96h-104v96zM1244 1506h103v-98h-103v98zM1244 -427h103v-96h-103v96zM1347 -234h104v-97h-104v97zM1244 -42h103v-94h-103v94zM1347 153h104v-97h-104v97zM1244 345h103v-96h-103v96zM1347 540h104v-96h-104v96zM1244 732h103v-96h-103v96zM1347 927h104
v-96h-104v96zM1244 1119h103v-96h-103v96zM1347 1314h104v-98h-104v98zM1140 1699h104v-96h-104v96zM933 1699h104v-96h-104v96zM725 1699h104v-96h-104v96zM517 1699h104v-96h-104v96zM310 1699h104v-96h-104v96zM103 1699h104v-96h-104v96zM1037 1506h103v-98h-103v98z
M829 1506h104v-98h-104v98zM621 1506h104v-98h-104v98zM414 1506h103v-98h-103v98zM207 1506h103v-98h-103v98zM0 1506h103v-98h-103v98zM1037 -427h103v-96h-103v96zM829 -427h104v-96h-104v96zM621 -427h104v-96h-104v96zM414 -427h103v-96h-103v96zM207 -427h103v-96
h-103v96zM0 -427h103v-96h-103v96zM103 -234h104v-97h-104v97zM310 -234h104v-97h-104v97zM517 -234h104v-97h-104v97zM725 -234h104v-97h-104v97zM933 -234h104v-97h-104v97zM1140 -234h104v-97h-104v97zM1037 -42h103v-94h-103v94zM829 -42h104v-94h-104v94zM621 -42h104
v-94h-104v94zM414 -42h103v-94h-103v94zM207 -42h103v-94h-103v94zM0 -42h103v-94h-103v94zM103 153h104v-97h-104v97zM310 153h104v-97h-104v97zM517 153h104v-97h-104v97zM725 153h104v-97h-104v97zM933 153h104v-97h-104v97zM1140 153h104v-97h-104v97zM207 345h103v-96
h-103v96zM1037 345h103v-96h-103v96zM829 345h104v-96h-104v96zM621 345h104v-96h-104v96zM414 345h103v-96h-103v96zM0 345h103v-96h-103v96zM1140 540h104v-96h-104v96zM933 540h104v-96h-104v96zM725 540h104v-96h-104v96zM517 540h104v-96h-104v96zM310 540h104v-96
h-104v96zM103 540h104v-96h-104v96zM1037 732h103v-96h-103v96zM829 732h104v-96h-104v96zM621 732h104v-96h-104v96zM414 732h103v-96h-103v96zM207 732h103v-96h-103v96zM0 732h103v-96h-103v96zM1140 927h104v-96h-104v96zM933 927h104v-96h-104v96zM725 927h104v-96
h-104v96zM517 927h104v-96h-104v96zM310 927h104v-96h-104v96zM103 927h104v-96h-104v96zM1037 1119h103v-96h-103v96zM829 1119h104v-96h-104v96zM621 1119h104v-96h-104v96zM414 1119h103v-96h-103v96zM207 1119h103v-96h-103v96zM0 1119h103v-96h-103v96zM1140 1314h104
v-98h-104v98zM933 1314h104v-98h-104v98zM725 1314h104v-98h-104v98zM517 1314h104v-98h-104v98zM310 1314h104v-98h-104v98zM103 1314h104v-98h-104v98z" />
    <glyph glyph-name="dkshade" unicode="&#x2593;" horiz-adv-x="1493" 
d="M1067 1506h-107v-98h107v98zM1280 1506h-107v-98h107v98zM1173 1314h-106v-98h106v98zM1386 1314h-106v-98h106v98zM1173 -427v-96h107v96h-107zM960 -427v-96h107v96h-107zM1173 -331v97h-106v-97h106zM1386 -331v97h-106v-97h106zM1173 -42v-94h107v94h-107zM960 -42
v-94h107v94h-107zM1173 56v97h-106v-97h106zM1386 56v97h-106v-97h106zM1280 249v96h-107v-96h107zM960 345v-96h107v96h-107zM1280 540v-96h106v96h-106zM1173 540h-106v-96h106v96zM1173 732v-96h107v96h-107zM960 732v-96h107v96h-107zM1173 927h-106v-98h106v98z
M1386 927h-106v-98h106v98zM1173 1119v-96h107v96h-107zM960 1119v-96h107v96h-107zM213 1506h-107v-98h107v98zM426 1506h-107v-98h107v98zM639 1506h-107v-98h107v98zM853 1506h-107v-98h107v98zM319 1314h-106v-98h106v98zM532 1314h-106v-98h106v98zM746 1314h-107v-98
h107v98zM960 1314h-107v-98h107v98zM746 -427v-96h107v96h-107zM532 -427v-96h107v96h-107zM319 -427v-96h107v96h-107zM106 -427v-96h107v96h-107zM319 -331v97h-106v-97h106zM532 -331v97h-106v-97h106zM746 -331v97h-107v-97h107zM960 -331v97h-107v-97h107zM746 -42v-94
h107v94h-107zM532 -42v-94h107v94h-107zM319 -42v-94h107v94h-107zM106 -42v-94h107v94h-107zM319 56v97h-106v-97h106zM532 56v97h-106v-97h106zM746 56v97h-107v-97h107zM960 56v97h-107v-97h107zM746 345v-96h107v96h-107zM426 249v96h-107v-96h107zM532 345v-96h107v96
h-107zM106 345v-96h107v96h-107zM853 540v-96h107v96h-107zM639 540v-96h107v96h-107zM426 540v-96h106v96h-106zM319 540h-106v-96h106v96zM746 732v-96h107v96h-107zM532 732v-96h107v96h-107zM319 732v-96h107v96h-107zM106 732v-96h107v96h-107zM319 927h-106v-98h106
v98zM532 927h-106v-98h106v98zM746 927h-107v-98h107v98zM960 927h-107v-98h107v98zM746 1119v-96h107v96h-107zM532 1119v-96h107v96h-107zM319 1119v-96h107v96h-107zM106 1119v-96h107v96h-107zM1493 -621h-1493v290h106v97h-106v290h106v97h-106v291h106v96h-106v289
h106v98h-106v289h106v98h-106v289h106v96h107v-96h106v96h107v-96h106v96h107v-96h107v96h107v-96h107v96h107v-96h106v96h107v-96h106v96h107v-193h-107v-98h107v-289h-107v-96h107v-291h-107v-96h107v-291h-107v-96h107v-291h-107v-94h107v-291h-107v-96h107v-98z" />
    <glyph glyph-name="filledbox" unicode="&#x25a0;" horiz-adv-x="1237" 
d="M123 1108h991v-991h-991v991z" />
    <glyph glyph-name="H22073" unicode="&#x25a1;" horiz-adv-x="1237" 
d="M82 1149v-1073h1073v1073h-1073zM6 1225h1225v-1225h-1225v1225z" />
    <glyph glyph-name="H18543" unicode="&#x25aa;" horiz-adv-x="726" 
d="M617 383h-508v508h508v-508z" />
    <glyph glyph-name="H18551" unicode="&#x25ab;" horiz-adv-x="726" 
d="M541 459v356h-356v-356h356zM617 383h-508v508h508v-508z" />
    <glyph glyph-name="filledrect" unicode="&#x25ac;" horiz-adv-x="2048" 
d="M0 616h2048v-616h-2048v616z" />
    <glyph glyph-name="triagup" unicode="&#x25b2;" horiz-adv-x="2027" 
d="M414 0l600 1198l598 -1198h-1198z" />
    <glyph glyph-name="triagrt" unicode="&#x25ba;" horiz-adv-x="2027" 
d="M401 1196l1225 -610l-1225 -613v1223z" />
    <glyph glyph-name="triagdn" unicode="&#x25bc;" horiz-adv-x="2027" 
d="M1612 1171l-598 -1198l-600 1198h1198z" />
    <glyph glyph-name="triaglf" unicode="&#x25c4;" horiz-adv-x="2027" 
d="M1626 1196v-1223l-1225 613z" />
    <glyph glyph-name="lozenge" unicode="&#x25ca;" horiz-adv-x="1012" 
d="M508 1286l-354 -565l354 -574l352 574zM547 0h-82l-457 719l457 721h82l459 -719z" />
    <glyph glyph-name="circle" unicode="&#x25cb;" horiz-adv-x="1237" 
d="M253 612q0 -76 28.5 -142t77.5 -115.5t115.5 -78t142.5 -28.5t143 28.5t116.5 78t78.5 115.5t29 142t-29 143t-78.5 116.5t-116.5 78.5t-143 29t-142.5 -29t-115.5 -78.5t-77.5 -116.5t-28.5 -143zM167 612q0 94 35 176.5t96 144t143 97t176 35.5t176.5 -35.5t144 -97
t97 -144t35.5 -176.5t-35.5 -176t-97 -143t-144 -96t-176.5 -35t-176 35t-143 96t-96 143t-35 176z" />
    <glyph glyph-name="H18533" unicode="&#x25cf;" horiz-adv-x="1237" 
d="M618 1018q110 0 217 -57q155 -82 189.5 -204t34.5 -179q0 -183 -129.5 -312t-311.5 -129t-311 129t-129 312q0 111 59 219t165 164q106 57 216 57z" />
    <glyph glyph-name="invbullet" unicode="&#x25d8;" horiz-adv-x="1237" 
d="M176 577q0 -91 34.5 -171t94.5 -140t140 -94.5t171 -34.5t171.5 34.5t140.5 94.5t94.5 140t34.5 171t-34.5 171.5t-94.5 140.5t-140.5 94.5t-171.5 34.5t-171 -34.5t-140 -94.5t-94.5 -140.5t-34.5 -171.5zM41 0v1155h1155v-1155h-1155z" />
    <glyph glyph-name="invcircle" unicode="&#x25d9;" horiz-adv-x="1237" 
d="M176 577q0 -91 34.5 -171t94.5 -140t140 -94.5t171 -34.5t171.5 34.5t140.5 94.5t94.5 140t34.5 171t-34.5 171.5t-94.5 140.5t-140.5 94.5t-171.5 34.5t-171 -34.5t-140 -94.5t-94.5 -140.5t-34.5 -171.5zM253 577q0 75 29 141.5t78.5 116t116 78.5t141.5 29t141.5 -29
t116 -78.5t78.5 -116t29 -141.5t-29 -141.5t-78.5 -116t-116 -78.5t-141.5 -29t-141.5 29t-116 78.5t-78.5 116t-29 141.5zM41 0v1155h1155v-1155h-1155z" />
    <glyph glyph-name="openbullet" unicode="&#x25e6;" horiz-adv-x="726" 
d="M363 464q72 0 122 52t50 122t-51 120.5t-121 50.5t-121 -50.5t-51 -120.5t50 -122t122 -52zM361 389q-99 0 -174 72q-72 76 -72 177t73 174q74 73 176 73t173 -74q74 -71 74 -173t-74 -177q-77 -72 -176 -72z" />
    <glyph glyph-name="smileface" unicode="&#x263a;" horiz-adv-x="2091" 
d="M1044 285q146 0 222 137l62 -35q-98 -186 -283 -186t-283 186l60 35q76 -137 222 -137zM1356 711q0 -32 -22 -55t-54 -23t-55.5 23t-23.5 55t23.5 54.5t55.5 22.5t54 -22.5t22 -54.5zM889 711q0 -32 -23 -55t-55 -23t-54.5 23t-22.5 55t22.5 54.5t54.5 22.5t55 -22.5
t23 -54.5zM1045 60q217 0 369 154t153 370q0 216 -152 370t-370 154t-370 -154t-152 -370q1 -216 153 -370t369 -154zM1045 -26q-253 0 -433 178t-179 431q0 253 179 433t433 180t433 -180t179 -433q1 -253 -179 -431t-433 -178z" />
    <glyph glyph-name="invsmileface" unicode="&#x263b;" horiz-adv-x="2155" 
d="M1077 201q185 0 283 186l-62 35q-76 -137 -222 -137t-222 137l-60 -35q98 -186 283 -186zM1388 711q0 32 -22 54.5t-54 22.5t-55.5 -22.5t-23.5 -54.5t23.5 -55t55.5 -23t54 23t22 55zM921 711q0 32 -23 54.5t-55 22.5t-54.5 -22.5t-22.5 -54.5t22.5 -55t54.5 -23t55 23
t23 55zM1077 -26q-253 0 -433 178t-179 431q0 253 179 433t433 180t433 -180t179 -433q1 -253 -179 -431t-433 -178z" />
    <glyph glyph-name="sun" unicode="&#x263c;" horiz-adv-x="1877" 
d="M604 470q0 -136 96 -233t235 -98q139 0 237 97q98 96 98 234t-99 237q-100 98 -235.5 98t-233.5 -99q-98 -100 -98 -236zM905 1083h66v-217q121 -11 225 -90l186 182l45 -45l-184 -184q86 -113 92 -229h215v-62h-215q-17 -125 -92 -221l184 -188l-49 -43l-182 182
q-53 -39 -99 -60t-126 -32v-217h-66v217q-121 17 -221 90l-188 -180l-43 45l182 184q-78 100 -94 225h-215v62h215q12 128 92 223l-180 184l40 49l189 -182q110 77 223 90v217z" />
    <glyph glyph-name="female" unicode="&#x2640;" horiz-adv-x="1536" 
d="M768 1069q-84 0 -146 -59q-60 -64 -60 -146q0 -81 60 -145q62 -62 147 -62q85 -1 145 61t60 145t-59 147q-63 59 -147 59zM481 869q-1 115 85 199t204 85q118 0 200 -86q86 -83 86 -199t-72 -196q-72 -82 -178 -94v-166h256v-70h-256v-262h-74v262h-258v70h258v166
q-114 17 -180 96q-71 80 -71 195z" />
    <glyph glyph-name="male" unicode="&#x2642;" horiz-adv-x="1536" 
d="M628 750q-90 0 -152 -62t-61 -150q1 -90 63 -151t150 -61t150 62q61 62 61 150t-61 150q-60 62 -150 62zM825 1128q0 21 13.5 20.5t64.5 -10.5t120 -10q70 0 108 12q39 12 53 13t15 -11q0 -12 -11 -50t-11 -127t7 -120q9 -40 9 -50.5t-4 -16.5q-9 -6 -14 -6
q-32 0 -63 81.5t-42 123.5l-237 -238q84 -81 84 -198q-1 -117 -87 -204t-204 -87t-205 84q-84 84 -84 201t84 204q85 86 207 86q71 0 154 -43l241 242q-198 58 -198 104z" />
    <glyph glyph-name="spade" unicode="&#x2660;" horiz-adv-x="1088" 
d="M278 274q-90 0 -154 64t-65 148q1 82 27 132q46 87 161 183q150 128 211 220q62 92 86 210q27 -103 80 -193q57 -88 195 -213t174 -191t36 -148q-1 -82 -65 -148q-64 -64 -152 -64q-157 0 -256 191q3 -147 40 -233q76 -177 337 -195l8 -37h-792l6 37q183 0 284.5 106
t98.5 322q-90 -191 -260 -191z" />
    <glyph glyph-name="club" unicode="&#x2663;" horiz-adv-x="1344" 
d="M662 461q0 8 -1 19t-1 28q-82 -171 -180.5 -204.5t-150.5 -33.5q-104 0 -190 80q-79 82 -79 198t73 196t166 79q62 0 162 -51q-38 65 -52 101q-14 37 -14 79q0 115 78 193q82 78 198 78q115 0 195 -79q80 -78 80 -176t-69 -196q84 40 105 46t64 5q97 0 165 -78
q73 -76 73 -193q0 -116 -80 -198t-192 -82q-62 0 -128 30t-109 75t-93 131q6 -166 50 -255q44 -88 134 -149q61 -39 220 -69l8 -35h-842l8 35q166 34 213 63q84 52 136 153q53 101 53 210z" />
    <glyph glyph-name="heart" unicode="&#x2665;" horiz-adv-x="1216" 
d="M340 1143q100 0 178 -72q60 -60 92 -162q34 119 105 177.5t164 58.5t164 -70t71 -160t-42 -182t-174 -258t-193 -272q-62 -106 -95 -226q-38 152 -126 278t-188 260.5t-128 178.5q-66 100 -66 204t68 175q70 70 170 70z" />
    <glyph glyph-name="diamond" unicode="&#x2666;" horiz-adv-x="1045" 
d="M519 1223q78 -135 210 -313t249 -310q-73 -74 -226 -281q-154 -206 -231 -344q-55 105 -266 387q-34 48 -189 238q310 366 453 623z" />
    <glyph glyph-name="musicalnote" unicode="&#x266a;" 
d="M311 29q-115 -1 -115 113q0 60 60 120q63 60 143 60q44 0 90 -19v850h76v-100l153 -193q109 -147 109 -307t-94 -281h-47q57 128 57 248t-57 200t-121 89v-506q0 -123 -73 -199t-181 -75z" />
    <glyph glyph-name="musicalnotedbl" unicode="&#x266b;" horiz-adv-x="1536" 
d="M1013 -61q-114 -1 -114 115q-1 62 59 120t141 58q48 0 90 -18v690l-550 146v-656q0 -120 -72 -198q-74 -74 -180 -74q-57 0 -86 26.5t-29 71.5q0 76 60 134t143 59q45 0 90 -19v772l698 -166v-786q0 -131 -74 -199q-76 -76 -176 -76z" />
    </font>
</defs>
</svg>
