<?xml version="1.0" encoding="utf-8"?>
<!-- Generator: Adobe Illustrator 19.2.1, SVG Export Plug-In . SVG Version: 6.00 Build 0)  -->
<svg version="1.0" id="Layer_1" xmlns="http://www.w3.org/2000/svg" xmlns:xlink="http://www.w3.org/1999/xlink" x="0px" y="0px"
	 width="90px" height="95.9px" viewBox="0 0 90 95.9" style="enable-background:new 0 0 90 95.9;" xml:space="preserve">
<style type="text/css">
	.st0{fill:#FFFFFF;}
</style>
<g>
	<g>
		<g>
			<path class="st0" d="M16.8,0v45.2H9V25.8H7.7v19.3H0V0h7.7v19.4H9V0H16.8z"/>
		</g>
		<g>
			<path class="st0" d="M24.7,45.2V34.5L19.8,0h7.5l1.1,23.3h0.4L29.9,0h7.5l-4.9,34.5v10.7H24.7z"/>
		</g>
		<g>
			<path class="st0" d="M40.4,0h8.4c2.9,0,5,0.7,6.4,2c1.4,1.4,2,3.5,2,6.3v19.5c0,2.8-0.7,4.9-2,6.3c-1.4,1.4-3.5,2-6.4,2h-0.7v9
				h-7.7V0z M49.4,6.5h-1.3v23.2h1.3V6.5z"/>
		</g>
		<g>
			<path class="st0" d="M68.1,6.5v12.9h2v6.5h-2v12.9h2v6.5h-9.7V0H70v6.5H68.1z"/>
		</g>
		<g>
			<path class="st0" d="M90,15.1c0,4.6-1.6,7-4.9,7.3v0.3c3.3,0.5,4.9,3,4.9,7.5v15h-7.7V25.8h-1.3v19.3h-7.7V0h9.4
				c2.4,0,4.2,0.7,5.5,2C89.3,3.3,90,5.1,90,7.6V15.1z M82.2,6.5h-1.3v12.9h1.3V6.5z"/>
		</g>
	</g>
	<g>
		<g>
			<path class="st0" d="M17.5,50.8l-1.6,45.2H1.6L0,50.8h7.5l1.1,38.7H9l1.1-38.7H17.5z"/>
		</g>
		<g>
			<path class="st0" d="M29.8,57.2v12.9h2v6.5h-2v12.9h2v6.5h-9.7V50.8h9.7v6.5H29.8z"/>
		</g>
		<g>
			<path class="st0" d="M53.3,65.9c0,4.6-1.6,7-4.9,7.3v0.3c3.3,0.5,4.9,3,4.9,7.5v15h-7.7V76.6h-1.3v19.3h-7.7V50.8h9.4
				c2.4,0,4.2,0.7,5.5,2c1.3,1.3,1.9,3.1,1.9,5.6V65.9z M45.5,57.2h-1.3v12.9h1.3V57.2z"/>
		</g>
		<g>
			<path class="st0" d="M75.3,50.8l-1.6,45.2H59.3l-1.6-45.2h7.5l1.1,38.7h0.4l1.1-38.7H75.3z"/>
		</g>
		<g>
			<path class="st0" d="M87.6,57.2v12.9h2v6.5h-2v12.9h2v6.5h-9.7V50.8h9.7v6.5H87.6z"/>
		</g>
	</g>
</g>
</svg>
